M48
; DRILL file {KiCad (6.0.2)} date Mon Apr 25 13:09:05 2022
; FORMAT={-:-/ absolute / inch / decimal}
; #@! TF.CreationDate,2022-04-25T13:09:05+02:00
; #@! TF.GenerationSoftware,Kicad,Pcbnew,(6.0.2)
; #@! TF.FileFunction,Plated,1,2,PTH
FMAT,2
INCH
; #@! TA.AperFunction,Plated,PTH,ViaDrill
T1C0.0157
; #@! TA.AperFunction,Plated,PTH,ComponentDrill
T2C0.0374
; #@! TA.AperFunction,Plated,PTH,ComponentDrill
T3C0.0394
; #@! TA.AperFunction,Plated,PTH,ComponentDrill
T4C0.0433
%
G90
G05
T1
X3.3858Y-4.5276
X3.5433Y-2.0079
X3.5433Y-2.126
X3.5827Y-3.5827
X4.1732Y-3.8976
X4.3646Y-4.3701
X4.4094Y-4.7244
X4.6767Y-4.0301
X4.6767Y-4.1301
X4.6795Y-3.6319
X4.6807Y-4.5768
X4.9213Y-2.6378
X4.9438Y-4.0152
X5.0394Y-4.0157
X5.1575Y-4.3701
X5.1969Y-4.1339
X5.315Y-3.7402
X5.3937Y-4.4488
X5.4331Y-3.7008
X5.5005Y-4.0293
X5.5118Y-3.5433
X5.5492Y-4.5965
X5.5512Y-3.7795
X5.5906Y-4.1732
X5.6299Y-4.252
X5.7087Y-2.7953
X5.7087Y-2.9134
X5.8086Y-4.0195
X5.8661Y-2.7165
X5.9055Y-2.9528
X6.0236Y-2.9528
X6.1024Y-4.6063
X6.1417Y-3.937
X6.1811Y-4.4094
X6.2598Y-2.874
X6.3307Y-4.2421
X6.4173Y-3.8189
X6.8504Y-4.0157
T2
X4.9752Y-2.0646
X4.9752Y-2.3646
X5.0752Y-2.0646
X5.0752Y-2.3646
X5.1752Y-2.0646
X5.1752Y-2.3646
X5.2752Y-2.0646
X5.2752Y-2.3646
X5.3752Y-2.0646
X5.3752Y-2.3646
X5.4752Y-2.0646
X5.4752Y-2.3646
X5.5752Y-2.0646
X5.5752Y-2.3646
X5.6752Y-2.0646
X5.6752Y-2.3646
X5.7752Y-2.0646
X5.7752Y-2.3646
X5.8752Y-2.0646
X5.8752Y-2.3646
X5.9752Y-2.0646
X5.9752Y-2.3646
X6.0752Y-2.0646
X6.0752Y-2.3646
X6.1752Y-2.0646
X6.1752Y-2.3646
X6.2752Y-2.0646
X6.2752Y-2.3646
X6.3752Y-2.0646
X6.3752Y-2.3646
X6.4752Y-2.0646
X6.4752Y-2.3646
X6.5752Y-2.0646
X6.5752Y-2.3646
X6.6752Y-2.0646
X6.6752Y-2.3646
X6.7752Y-2.0646
X6.7752Y-2.3646
X6.8752Y-2.0646
X6.8752Y-2.3646
T3
X3.6453Y-3.0425
X3.6453Y-3.4425
X3.6453Y-5.0425
X3.6453Y-5.4425
X3.7453Y-3.0425
X3.7453Y-3.4425
X3.7453Y-5.0425
X3.7453Y-5.4425
X3.8453Y-3.0425
X3.8453Y-3.4425
X3.8453Y-5.0425
X3.8453Y-5.4425
X3.9453Y-3.0425
X3.9453Y-3.4425
X3.9453Y-5.0425
X3.9453Y-5.4425
X4.0453Y-3.0425
X4.0453Y-3.4425
X4.0453Y-5.0425
X4.0453Y-5.4425
X4.1453Y-3.0425
X4.1453Y-3.4425
X4.1453Y-5.0425
X4.1453Y-5.4425
X4.2453Y-3.0425
X4.2453Y-3.4425
X4.2453Y-5.0425
X4.2453Y-5.4425
X4.3453Y-3.0425
X4.3453Y-3.4425
X4.3453Y-5.0425
X4.3453Y-5.4425
X4.4453Y-3.0425
X4.4453Y-3.4425
X4.4453Y-5.0425
X4.4453Y-5.4425
X4.5453Y-3.0425
X4.5453Y-3.4425
X4.5453Y-5.0425
X4.5453Y-5.4425
X4.6453Y-3.0425
X4.6453Y-3.4425
X4.6453Y-5.0425
X4.6453Y-5.4425
X4.7453Y-3.0425
X4.7453Y-3.4425
X4.7453Y-5.0425
X4.7453Y-5.4425
X4.8453Y-3.0425
X4.8453Y-3.4425
X4.8453Y-5.0425
X4.8453Y-5.4425
X4.9453Y-3.0425
X4.9453Y-3.4425
X4.9453Y-5.0425
X4.9453Y-5.4425
X5.0453Y-3.0425
X5.0453Y-3.4425
X5.0453Y-5.0425
X5.0453Y-5.4425
X5.1453Y-3.0425
X5.1453Y-3.4425
X5.1453Y-5.0425
X5.1453Y-5.4425
X5.2453Y-3.0425
X5.2453Y-3.4425
X5.2453Y-5.0425
X5.2453Y-5.4425
X5.3453Y-3.0425
X5.3453Y-3.4425
X5.3453Y-5.0425
X5.3453Y-5.4425
X5.4453Y-3.0425
X5.4453Y-3.4425
X5.4453Y-5.0425
X5.4453Y-5.4425
X5.5453Y-3.0425
X5.5453Y-3.4425
X5.5453Y-5.0425
X5.5453Y-5.4425
X5.6453Y-3.0425
X5.6453Y-3.4425
X5.6453Y-5.0425
X5.6453Y-5.4425
X5.7453Y-3.0425
X5.7453Y-3.4425
X5.7453Y-5.0425
X5.7453Y-5.4425
X5.8453Y-3.0425
X5.8453Y-3.4425
X5.8453Y-5.0425
X5.8453Y-5.4425
X5.9453Y-3.0425
X5.9453Y-3.4425
X5.9453Y-5.0425
X5.9453Y-5.4425
X6.0453Y-3.0425
X6.0453Y-3.4425
X6.0453Y-5.0425
X6.0453Y-5.4425
X6.1453Y-3.0425
X6.1453Y-3.4425
X6.1453Y-5.0425
X6.1453Y-5.4425
X6.2453Y-3.0425
X6.2453Y-3.4425
X6.2453Y-5.0425
X6.2453Y-5.4425
X6.3453Y-3.0425
X6.3453Y-3.4425
X6.3453Y-5.0425
X6.3453Y-5.4425
X6.4453Y-3.0425
X6.4453Y-3.4425
X6.4453Y-5.0425
X6.4453Y-5.4425
X6.5453Y-3.0425
X6.5453Y-3.4425
X6.5453Y-5.0425
X6.5453Y-5.4425
X6.6453Y-3.0425
X6.6453Y-3.4425
X6.6453Y-5.0425
X6.6453Y-5.4425
X6.7453Y-3.0425
X6.7453Y-3.4425
X6.7453Y-5.0425
X6.7453Y-5.4425
X6.8453Y-3.0425
X6.8453Y-3.4425
X6.8453Y-5.0425
X6.8453Y-5.4425
T4
X3.2776Y-2.0768
X3.2776Y-2.1768
X3.2776Y-2.4689
X3.2776Y-2.5689
X3.2776Y-2.6689
X3.6319Y-2.0736
X3.6319Y-2.1736
X3.6319Y-2.2736
X3.8583Y-2.0752
X3.8583Y-2.1752
X3.8583Y-2.2752
X4.8228Y-2.6862
X4.8228Y-2.7862
X5.0976Y-2.7165
X5.1067Y-2.8839
X5.1976Y-2.7165
X5.2067Y-2.8839
X5.3067Y-2.8839
X5.3634Y-2.7165
X5.4634Y-2.7165
X5.9843Y-2.5197
X5.9843Y-2.6197
X5.9843Y-2.7197
T0
M30
