%TF.GenerationSoftware,KiCad,Pcbnew,(6.0.2)*%
%TF.CreationDate,2022-04-25T13:09:05+02:00*%
%TF.ProjectId,main,6d61696e-2e6b-4696-9361-645f70636258,rev?*%
%TF.SameCoordinates,Original*%
%TF.FileFunction,Paste,Top*%
%TF.FilePolarity,Positive*%
%FSLAX46Y46*%
G04 Gerber Fmt 4.6, Leading zero omitted, Abs format (unit mm)*
G04 Created by KiCad (PCBNEW (6.0.2)) date 2022-04-25 13:09:05*
%MOMM*%
%LPD*%
G01*
G04 APERTURE LIST*
G04 Aperture macros list*
%AMFreePoly0*
4,1,9,3.862500,-0.866500,0.737500,-0.866500,0.737500,-0.450000,-0.737500,-0.450000,-0.737500,0.450000,0.737500,0.450000,0.737500,0.866500,3.862500,0.866500,3.862500,-0.866500,3.862500,-0.866500,$1*%
G04 Aperture macros list end*
%ADD10R,0.940000X0.730000*%
%ADD11R,1.050000X1.820000*%
%ADD12R,0.950000X0.900000*%
%ADD13R,1.525000X0.700000*%
%ADD14R,2.513000X3.402000*%
%ADD15R,0.900000X0.950000*%
%ADD16R,0.730000X0.940000*%
%ADD17R,1.525000X0.650000*%
%ADD18R,1.380000X0.450000*%
%ADD19R,2.100000X1.475000*%
%ADD20R,1.900000X1.175000*%
%ADD21R,1.900000X2.375000*%
%ADD22R,1.200000X0.600000*%
%ADD23R,1.550000X2.350000*%
%ADD24R,0.800000X0.800000*%
%ADD25R,0.750000X0.600000*%
%ADD26R,0.650000X1.525000*%
%ADD27R,0.910000X1.390000*%
%ADD28R,2.350000X1.550000*%
%ADD29R,0.900000X1.300000*%
%ADD30FreePoly0,270.000000*%
G04 APERTURE END LIST*
D10*
%TO.C,C1*%
X128500000Y-99210000D03*
X128500000Y-97790000D03*
%TD*%
D11*
%TO.C,C2*%
X118860000Y-92250000D03*
X121640000Y-92250000D03*
%TD*%
D12*
%TO.C,R12*%
X160000000Y-113550000D03*
X160000000Y-111950000D03*
%TD*%
D13*
%TO.C,IC4*%
X124212000Y-104905000D03*
X124212000Y-103635000D03*
X124212000Y-102365000D03*
X124212000Y-101095000D03*
X118788000Y-101095000D03*
X118788000Y-102365000D03*
X118788000Y-103635000D03*
X118788000Y-104905000D03*
D14*
X121500000Y-103000000D03*
%TD*%
D15*
%TO.C,R1*%
X110200000Y-93000000D03*
X111800000Y-93000000D03*
%TD*%
%TO.C,R11*%
X163950000Y-93250000D03*
X165550000Y-93250000D03*
%TD*%
%TO.C,R8*%
X131450000Y-99000000D03*
X133050000Y-99000000D03*
%TD*%
D16*
%TO.C,C11*%
X140290000Y-112500000D03*
X141710000Y-112500000D03*
%TD*%
D17*
%TO.C,IC2*%
X147538000Y-102095000D03*
X147538000Y-103365000D03*
X147538000Y-104635000D03*
X147538000Y-105905000D03*
X152962000Y-105905000D03*
X152962000Y-104635000D03*
X152962000Y-103365000D03*
X152962000Y-102095000D03*
%TD*%
D18*
%TO.C,J5*%
X175440000Y-108300000D03*
X175440000Y-107650000D03*
X175440000Y-107000000D03*
X175440000Y-106350000D03*
X175440000Y-105700000D03*
D19*
X175800000Y-104547500D03*
X175800000Y-109452500D03*
D20*
X178100000Y-107837500D03*
X178100000Y-106162500D03*
D21*
X178100000Y-109912500D03*
X178100000Y-104087500D03*
%TD*%
D22*
%TO.C,Q1*%
X107500000Y-102700000D03*
X107500000Y-100800000D03*
X105000000Y-101750000D03*
%TD*%
D15*
%TO.C,R3*%
X118200000Y-122500000D03*
X119800000Y-122500000D03*
%TD*%
D23*
%TO.C,D1*%
X98750000Y-101600000D03*
X98750000Y-105900000D03*
%TD*%
D11*
%TO.C,C8*%
X116110000Y-116250000D03*
X118890000Y-116250000D03*
%TD*%
D24*
%TO.C,A1*%
X135250000Y-115500000D03*
X136750000Y-115500000D03*
%TD*%
D11*
%TO.C,C6*%
X113640000Y-111000000D03*
X110860000Y-111000000D03*
%TD*%
D16*
%TO.C,C3*%
X127710000Y-64500000D03*
X126290000Y-64500000D03*
%TD*%
%TO.C,C12*%
X142040000Y-94000000D03*
X143460000Y-94000000D03*
%TD*%
D25*
%TO.C,R6*%
X159700000Y-107750000D03*
X160800000Y-107750000D03*
%TD*%
D15*
%TO.C,R4*%
X147700000Y-93000000D03*
X149300000Y-93000000D03*
%TD*%
D26*
%TO.C,IC3*%
X126345000Y-119712000D03*
X127615000Y-119712000D03*
X128885000Y-119712000D03*
X130155000Y-119712000D03*
X130155000Y-114288000D03*
X128885000Y-114288000D03*
X127615000Y-114288000D03*
X126345000Y-114288000D03*
%TD*%
D15*
%TO.C,R14*%
X108450000Y-121000000D03*
X110050000Y-121000000D03*
%TD*%
D16*
%TO.C,C10*%
X148290000Y-73000000D03*
X149710000Y-73000000D03*
%TD*%
D12*
%TO.C,R13*%
X147250000Y-113300000D03*
X147250000Y-111700000D03*
%TD*%
D15*
%TO.C,R9*%
X140950000Y-116750000D03*
X142550000Y-116750000D03*
%TD*%
D10*
%TO.C,C13*%
X126000000Y-70170000D03*
X126000000Y-68750000D03*
%TD*%
D27*
%TO.C,C5*%
X161430000Y-117000000D03*
X163070000Y-117000000D03*
%TD*%
D28*
%TO.C,D2*%
X97600000Y-94750000D03*
X101900000Y-94750000D03*
%TD*%
D11*
%TO.C,C7*%
X91610000Y-111250000D03*
X94390000Y-111250000D03*
%TD*%
D29*
%TO.C,U1*%
X95000000Y-101350000D03*
D30*
X93500000Y-101437500D03*
D29*
X92000000Y-101350000D03*
%TD*%
D16*
%TO.C,C4*%
X133540000Y-123250000D03*
X134960000Y-123250000D03*
%TD*%
D15*
%TO.C,R5*%
X135200000Y-91250000D03*
X136800000Y-91250000D03*
%TD*%
%TO.C,R2*%
X112700000Y-107750000D03*
X114300000Y-107750000D03*
%TD*%
D17*
%TO.C,IC1*%
X134288000Y-102345000D03*
X134288000Y-103615000D03*
X134288000Y-104885000D03*
X134288000Y-106155000D03*
X139712000Y-106155000D03*
X139712000Y-104885000D03*
X139712000Y-103615000D03*
X139712000Y-102345000D03*
%TD*%
D15*
%TO.C,R10*%
X130300000Y-105250000D03*
X128700000Y-105250000D03*
%TD*%
%TO.C,LED1*%
X100500000Y-113750000D03*
X102000000Y-113750000D03*
%TD*%
D25*
%TO.C,R7*%
X155200000Y-73000000D03*
X156300000Y-73000000D03*
%TD*%
D16*
%TO.C,C9*%
X154040000Y-122750000D03*
X155460000Y-122750000D03*
%TD*%
D15*
%TO.C,LED2*%
X102250000Y-120750000D03*
X100750000Y-120750000D03*
%TD*%
D24*
%TO.C,A2*%
X153000000Y-94250000D03*
X154500000Y-94250000D03*
%TD*%
M02*
