M48
; DRILL file {KiCad (6.0.2)} date Sun Apr 17 21:21:47 2022
; FORMAT={-:-/ absolute / metric / decimal}
; #@! TF.CreationDate,2022-04-17T21:21:47+02:00
; #@! TF.GenerationSoftware,Kicad,Pcbnew,(6.0.2)
; #@! TF.FileFunction,Plated,1,2,PTH
FMAT,2
METRIC
; #@! TA.AperFunction,Plated,PTH,ViaDrill
T1C0.400
; #@! TA.AperFunction,Plated,PTH,ComponentDrill
T2C0.950
; #@! TA.AperFunction,Plated,PTH,ComponentDrill
T3C1.000
; #@! TA.AperFunction,Plated,PTH,ComponentDrill
T4C1.100
%
G90
G05
T1
X86.0Y-115.0
X90.0Y-51.0
X90.0Y-54.0
X91.0Y-91.0
X106.0Y-99.0
X110.86Y-111.0
X112.0Y-120.0
X118.788Y-102.365
X118.788Y-104.905
X118.86Y-92.25
X118.89Y-116.25
X125.0Y-67.0
X125.573Y-101.987
X128.0Y-102.0
X131.0Y-111.0
X132.0Y-105.0
X135.0Y-95.0
X137.0Y-113.0
X138.0Y-94.0
X139.712Y-102.345
X140.0Y-90.0
X140.95Y-116.75
X141.0Y-96.0
X142.0Y-106.0
X143.0Y-108.0
X145.0Y-71.0
X145.0Y-74.0
X147.538Y-102.095
X160.8Y-107.75
X163.0Y-97.0
X174.0Y-102.0
T2
X126.37Y-52.44
X126.37Y-60.06
X128.91Y-52.44
X128.91Y-60.06
X131.45Y-52.44
X131.45Y-60.06
X133.99Y-52.44
X133.99Y-60.06
X136.53Y-52.44
X136.53Y-60.06
X139.07Y-52.44
X139.07Y-60.06
X141.61Y-52.44
X141.61Y-60.06
X144.15Y-52.44
X144.15Y-60.06
X146.69Y-52.44
X146.69Y-60.06
X149.23Y-52.44
X149.23Y-60.06
X151.77Y-52.44
X151.77Y-60.06
X154.31Y-52.44
X154.31Y-60.06
X156.85Y-52.44
X156.85Y-60.06
X159.39Y-52.44
X159.39Y-60.06
X161.93Y-52.44
X161.93Y-60.06
X164.47Y-52.44
X164.47Y-60.06
X167.01Y-52.44
X167.01Y-60.06
X169.55Y-52.44
X169.55Y-60.06
X172.09Y-52.44
X172.09Y-60.06
X174.63Y-52.44
X174.63Y-60.06
T3
X92.59Y-77.28
X92.59Y-87.44
X92.59Y-128.08
X92.59Y-138.24
X95.13Y-77.28
X95.13Y-87.44
X95.13Y-128.08
X95.13Y-138.24
X97.67Y-77.28
X97.67Y-87.44
X97.67Y-128.08
X97.67Y-138.24
X100.21Y-77.28
X100.21Y-87.44
X100.21Y-128.08
X100.21Y-138.24
X102.75Y-77.28
X102.75Y-87.44
X102.75Y-128.08
X102.75Y-138.24
X105.29Y-77.28
X105.29Y-87.44
X105.29Y-128.08
X105.29Y-138.24
X107.83Y-77.28
X107.83Y-87.44
X107.83Y-128.08
X107.83Y-138.24
X110.37Y-77.28
X110.37Y-87.44
X110.37Y-128.08
X110.37Y-138.24
X112.91Y-77.28
X112.91Y-87.44
X112.91Y-128.08
X112.91Y-138.24
X115.45Y-77.28
X115.45Y-87.44
X115.45Y-128.08
X115.45Y-138.24
X117.99Y-77.28
X117.99Y-87.44
X117.99Y-128.08
X117.99Y-138.24
X120.53Y-77.28
X120.53Y-87.44
X120.53Y-128.08
X120.53Y-138.24
X123.07Y-77.28
X123.07Y-87.44
X123.07Y-128.08
X123.07Y-138.24
X125.61Y-77.28
X125.61Y-87.44
X125.61Y-128.08
X125.61Y-138.24
X128.15Y-77.28
X128.15Y-87.44
X128.15Y-128.08
X128.15Y-138.24
X130.69Y-77.28
X130.69Y-87.44
X130.69Y-128.08
X130.69Y-138.24
X133.23Y-77.28
X133.23Y-87.44
X133.23Y-128.08
X133.23Y-138.24
X135.77Y-77.28
X135.77Y-87.44
X135.77Y-128.08
X135.77Y-138.24
X138.31Y-77.28
X138.31Y-87.44
X138.31Y-128.08
X138.31Y-138.24
X140.85Y-77.28
X140.85Y-87.44
X140.85Y-128.08
X140.85Y-138.24
X143.39Y-77.28
X143.39Y-87.44
X143.39Y-128.08
X143.39Y-138.24
X145.93Y-77.28
X145.93Y-87.44
X145.93Y-128.08
X145.93Y-138.24
X148.47Y-77.28
X148.47Y-87.44
X148.47Y-128.08
X148.47Y-138.24
X151.01Y-77.28
X151.01Y-87.44
X151.01Y-128.08
X151.01Y-138.24
X153.55Y-77.28
X153.55Y-87.44
X153.55Y-128.08
X153.55Y-138.24
X156.09Y-77.28
X156.09Y-87.44
X156.09Y-128.08
X156.09Y-138.24
X158.63Y-77.28
X158.63Y-87.44
X158.63Y-128.08
X158.63Y-138.24
X161.17Y-77.28
X161.17Y-87.44
X161.17Y-128.08
X161.17Y-138.24
X163.71Y-77.28
X163.71Y-87.44
X163.71Y-128.08
X163.71Y-138.24
X166.25Y-77.28
X166.25Y-87.44
X166.25Y-128.08
X166.25Y-138.24
X168.79Y-77.28
X168.79Y-87.44
X168.79Y-128.08
X168.79Y-138.24
X171.33Y-77.28
X171.33Y-87.44
X171.33Y-128.08
X171.33Y-138.24
X173.87Y-77.28
X173.87Y-87.44
X173.87Y-128.08
X173.87Y-138.24
T4
X83.25Y-52.75
X83.25Y-55.29
X83.25Y-62.71
X83.25Y-65.25
X83.25Y-67.79
X92.25Y-52.67
X92.25Y-55.21
X92.25Y-57.75
X98.0Y-52.71
X98.0Y-55.25
X98.0Y-57.79
X122.5Y-68.23
X122.5Y-70.77
X129.48Y-69.0
X129.71Y-73.25
X132.02Y-69.0
X132.25Y-73.25
X134.79Y-73.25
X136.23Y-69.0
X138.77Y-69.0
T0
M30
