M48
; DRILL file {KiCad (6.0.2)} date Sat Apr 16 20:02:55 2022
; FORMAT={-:-/ absolute / metric / decimal}
; #@! TF.CreationDate,2022-04-16T20:02:55+02:00
; #@! TF.GenerationSoftware,Kicad,Pcbnew,(6.0.2)
; #@! TF.FileFunction,Plated,1,2,PTH
FMAT,2
METRIC
; #@! TA.AperFunction,Plated,PTH,ViaDrill
T1C0.400
; #@! TA.AperFunction,Plated,PTH,ComponentDrill
T2C1.000
; #@! TA.AperFunction,Plated,PTH,ComponentDrill
T3C1.100
; #@! TA.AperFunction,Plated,PTH,ComponentDrill
T4C1.280
%
G90
G05
T1
X99.0Y-101.0
X100.0Y-122.0
X104.0Y-124.0
X105.0Y-126.0
X110.0Y-103.0
X110.0Y-106.0
X110.0Y-127.0
X110.97Y-113.03
X113.0Y-103.0
X113.0Y-121.0
X114.0Y-123.0
X114.0Y-126.0
X114.988Y-120.988
X115.0Y-119.0
X116.012Y-114.988
X116.848Y-123.152
X117.0Y-122.0
X117.4Y-128.725
X118.988Y-123.012
X119.0Y-119.0
X119.0Y-128.0
X120.0Y-112.0
X120.0Y-124.0
X121.0Y-114.0
X121.012Y-125.988
X123.0Y-115.0
X123.0Y-128.429
X124.0Y-118.0
X124.0Y-126.0
X126.0Y-113.0
X126.0Y-122.288
X126.012Y-111.012
X127.0Y-117.0
X127.0Y-124.0
X127.895Y-119.0
X129.893Y-129.18
X130.0Y-117.0
X131.0Y-102.0
X131.0Y-105.0
X131.713Y-108.713
X133.0Y-113.0
X133.081Y-109.438
X133.725Y-112.0
X134.0Y-109.0
X135.0Y-109.0
X135.0Y-125.0
X135.236Y-110.095
X135.988Y-128.012
X136.0Y-113.505
X136.0Y-115.0
X136.988Y-129.012
X137.0Y-109.0
X137.012Y-126.988
X137.275Y-106.0
X137.275Y-108.0
X137.512Y-115.488
X137.865Y-113.505
X138.0Y-105.0
X138.115Y-102.871
X139.0Y-108.0
X139.0Y-115.0
X139.17Y-121.705
X139.988Y-122.988
X141.0Y-108.0
X141.0Y-110.724
X141.0Y-114.0
X141.04Y-106.0
X142.0Y-118.0
X143.0Y-111.0
X145.0Y-111.0
X145.62Y-118.495
X145.988Y-111.012
X148.0Y-109.0
X149.0Y-103.275
X150.0Y-106.0
X151.0Y-115.0
X151.0Y-128.0
X152.0Y-123.0
X152.0Y-126.0
X152.012Y-102.012
X152.2Y-110.724
X153.0Y-99.0
X155.0Y-102.0
X155.0Y-122.0
X155.0Y-124.0
X156.0Y-98.0
X157.0Y-112.0
X157.988Y-125.012
X159.0Y-97.0
X159.0Y-99.0
X159.0Y-123.0
X160.0Y-98.0
X160.0Y-114.355
X163.0Y-110.0
X163.0Y-117.0
X164.0Y-103.0
X164.0Y-120.0
X164.122Y-112.878
X164.275Y-118.0
X164.275Y-121.0
X165.0Y-122.0
X165.0Y-124.0
X165.0Y-127.0
X166.0Y-104.0
X166.0Y-120.0
X166.0Y-122.0
X166.0Y-124.0
X166.0Y-129.0
X166.449Y-109.449
X166.725Y-107.0
X166.725Y-107.0
X167.449Y-108.449
X167.895Y-107.012
X168.0Y-115.0
X168.0Y-121.0
X168.512Y-105.488
X169.0Y-112.0
X172.0Y-127.3
X172.07Y-130.205
X172.685Y-125.0
X174.0Y-127.0
X174.0Y-130.0
X175.0Y-125.0
X176.0Y-125.0
X177.0Y-114.0
X177.0Y-117.0
X177.0Y-127.0
X177.0Y-132.0
X178.0Y-130.0
X179.0Y-121.0
X180.0Y-114.0
T2
X98.66Y-83.84
X98.66Y-94.0
X98.66Y-134.64
X98.66Y-144.8
X101.2Y-83.84
X101.2Y-94.0
X101.2Y-134.64
X101.2Y-144.8
X103.74Y-83.84
X103.74Y-94.0
X103.74Y-134.64
X103.74Y-144.8
X106.28Y-83.84
X106.28Y-94.0
X106.28Y-134.64
X106.28Y-144.8
X108.82Y-83.84
X108.82Y-94.0
X108.82Y-134.64
X108.82Y-144.8
X111.36Y-83.84
X111.36Y-94.0
X111.36Y-134.64
X111.36Y-144.8
X113.9Y-83.84
X113.9Y-94.0
X113.9Y-134.64
X113.9Y-144.8
X116.44Y-83.84
X116.44Y-94.0
X116.44Y-134.64
X116.44Y-144.8
X118.98Y-83.84
X118.98Y-94.0
X118.98Y-134.64
X118.98Y-144.8
X121.52Y-83.84
X121.52Y-94.0
X121.52Y-134.64
X121.52Y-144.8
X124.06Y-83.84
X124.06Y-94.0
X124.06Y-134.64
X124.06Y-144.8
X126.6Y-83.84
X126.6Y-94.0
X126.6Y-134.64
X126.6Y-144.8
X129.14Y-83.84
X129.14Y-94.0
X129.14Y-134.64
X129.14Y-144.8
X131.68Y-83.84
X131.68Y-94.0
X131.68Y-134.64
X131.68Y-144.8
X134.22Y-83.84
X134.22Y-94.0
X134.22Y-134.64
X134.22Y-144.8
X136.76Y-83.84
X136.76Y-94.0
X136.76Y-134.64
X136.76Y-144.8
X139.3Y-83.84
X139.3Y-94.0
X139.3Y-134.64
X139.3Y-144.8
X141.84Y-83.84
X141.84Y-94.0
X141.84Y-134.64
X141.84Y-144.8
X144.38Y-83.84
X144.38Y-94.0
X144.38Y-134.64
X144.38Y-144.8
X146.92Y-83.84
X146.92Y-94.0
X146.92Y-134.64
X146.92Y-144.8
X149.46Y-83.84
X149.46Y-94.0
X149.46Y-134.64
X149.46Y-144.8
X152.0Y-83.84
X152.0Y-94.0
X152.0Y-134.64
X152.0Y-144.8
X154.54Y-83.84
X154.54Y-94.0
X154.54Y-134.64
X154.54Y-144.8
X157.08Y-83.84
X157.08Y-94.0
X157.08Y-134.64
X157.08Y-144.8
X159.62Y-83.84
X159.62Y-94.0
X159.62Y-134.64
X159.62Y-144.8
X162.16Y-83.84
X162.16Y-94.0
X162.16Y-134.64
X162.16Y-144.8
X164.7Y-83.84
X164.7Y-94.0
X164.7Y-134.64
X164.7Y-144.8
X167.24Y-83.84
X167.24Y-94.0
X167.24Y-134.64
X167.24Y-144.8
X169.78Y-83.84
X169.78Y-94.0
X169.78Y-134.64
X169.78Y-144.8
X172.32Y-83.84
X172.32Y-94.0
X172.32Y-134.64
X172.32Y-144.8
X174.86Y-83.84
X174.86Y-94.0
X174.86Y-134.64
X174.86Y-144.8
X177.4Y-83.84
X177.4Y-94.0
X177.4Y-134.64
X177.4Y-144.8
X179.94Y-83.84
X179.94Y-94.0
X179.94Y-134.64
X179.94Y-144.8
T3
X98.54Y-103.705
X98.62Y-109.705
X99.08Y-98.705
X101.08Y-103.705
X101.16Y-109.705
X101.62Y-98.705
X103.62Y-103.705
X112.215Y-108.23
X114.755Y-108.23
X145.015Y-107.6
X147.555Y-107.6
T4
X126.08Y-127.705
X128.62Y-127.705
X131.16Y-127.705
T0
M30
