G04 #@! TF.GenerationSoftware,KiCad,Pcbnew,(6.0.2)*
G04 #@! TF.CreationDate,2022-04-16T20:00:21+02:00*
G04 #@! TF.ProjectId,main,6d61696e-2e6b-4696-9361-645f70636258,rev?*
G04 #@! TF.SameCoordinates,Original*
G04 #@! TF.FileFunction,Soldermask,Bot*
G04 #@! TF.FilePolarity,Negative*
%FSLAX46Y46*%
G04 Gerber Fmt 4.6, Leading zero omitted, Abs format (unit mm)*
G04 Created by KiCad (PCBNEW (6.0.2)) date 2022-04-16 20:00:21*
%MOMM*%
%LPD*%
G01*
G04 APERTURE LIST*
%ADD10C,2.100000*%
%ADD11R,1.650000X1.650000*%
%ADD12C,1.650000*%
%ADD13R,1.920000X1.920000*%
%ADD14C,1.920000*%
%ADD15R,1.700000X1.700000*%
%ADD16O,1.700000X1.700000*%
G04 APERTURE END LIST*
D10*
X185928000Y-82804000D03*
X186436000Y-146812000D03*
D11*
X112215000Y-108230000D03*
D12*
X114755000Y-108230000D03*
D13*
X131160000Y-127705000D03*
D14*
X128620000Y-127705000D03*
X126080000Y-127705000D03*
D11*
X103620000Y-103705000D03*
D12*
X101080000Y-103705000D03*
X98540000Y-103705000D03*
D15*
X179940000Y-94000000D03*
D16*
X177400000Y-94000000D03*
X174860000Y-94000000D03*
X172320000Y-94000000D03*
X169780000Y-94000000D03*
X167240000Y-94000000D03*
X164700000Y-94000000D03*
X162160000Y-94000000D03*
X159620000Y-94000000D03*
X157080000Y-94000000D03*
X154540000Y-94000000D03*
X152000000Y-94000000D03*
X149460000Y-94000000D03*
X146920000Y-94000000D03*
X144380000Y-94000000D03*
X141840000Y-94000000D03*
X139300000Y-94000000D03*
X136760000Y-94000000D03*
X134220000Y-94000000D03*
X131680000Y-94000000D03*
X129140000Y-94000000D03*
X126600000Y-94000000D03*
X124060000Y-94000000D03*
X121520000Y-94000000D03*
X118980000Y-94000000D03*
X116440000Y-94000000D03*
X113900000Y-94000000D03*
X111360000Y-94000000D03*
X108820000Y-94000000D03*
X106280000Y-94000000D03*
X103740000Y-94000000D03*
X101200000Y-94000000D03*
X98660000Y-94000000D03*
D11*
X145015000Y-107600000D03*
D12*
X147555000Y-107600000D03*
D11*
X101620000Y-98705000D03*
D12*
X99080000Y-98705000D03*
D15*
X179940000Y-83840000D03*
D16*
X177400000Y-83840000D03*
X174860000Y-83840000D03*
X172320000Y-83840000D03*
X169780000Y-83840000D03*
X167240000Y-83840000D03*
X164700000Y-83840000D03*
X162160000Y-83840000D03*
X159620000Y-83840000D03*
X157080000Y-83840000D03*
X154540000Y-83840000D03*
X152000000Y-83840000D03*
X149460000Y-83840000D03*
X146920000Y-83840000D03*
X144380000Y-83840000D03*
X141840000Y-83840000D03*
X139300000Y-83840000D03*
X136760000Y-83840000D03*
X134220000Y-83840000D03*
X131680000Y-83840000D03*
X129140000Y-83840000D03*
X126600000Y-83840000D03*
X124060000Y-83840000D03*
X121520000Y-83840000D03*
X118980000Y-83840000D03*
X116440000Y-83840000D03*
X113900000Y-83840000D03*
X111360000Y-83840000D03*
X108820000Y-83840000D03*
X106280000Y-83840000D03*
X103740000Y-83840000D03*
X101200000Y-83840000D03*
X98660000Y-83840000D03*
D15*
X179940000Y-144800000D03*
D16*
X177400000Y-144800000D03*
X174860000Y-144800000D03*
X172320000Y-144800000D03*
X169780000Y-144800000D03*
X167240000Y-144800000D03*
X164700000Y-144800000D03*
X162160000Y-144800000D03*
X159620000Y-144800000D03*
X157080000Y-144800000D03*
X154540000Y-144800000D03*
X152000000Y-144800000D03*
X149460000Y-144800000D03*
X146920000Y-144800000D03*
X144380000Y-144800000D03*
X141840000Y-144800000D03*
X139300000Y-144800000D03*
X136760000Y-144800000D03*
X134220000Y-144800000D03*
X131680000Y-144800000D03*
X129140000Y-144800000D03*
X126600000Y-144800000D03*
X124060000Y-144800000D03*
X121520000Y-144800000D03*
X118980000Y-144800000D03*
X116440000Y-144800000D03*
X113900000Y-144800000D03*
X111360000Y-144800000D03*
X108820000Y-144800000D03*
X106280000Y-144800000D03*
X103740000Y-144800000D03*
X101200000Y-144800000D03*
X98660000Y-144800000D03*
D15*
X179940000Y-134640000D03*
D16*
X177400000Y-134640000D03*
X174860000Y-134640000D03*
X172320000Y-134640000D03*
X169780000Y-134640000D03*
X167240000Y-134640000D03*
X164700000Y-134640000D03*
X162160000Y-134640000D03*
X159620000Y-134640000D03*
X157080000Y-134640000D03*
X154540000Y-134640000D03*
X152000000Y-134640000D03*
X149460000Y-134640000D03*
X146920000Y-134640000D03*
X144380000Y-134640000D03*
X141840000Y-134640000D03*
X139300000Y-134640000D03*
X136760000Y-134640000D03*
X134220000Y-134640000D03*
X131680000Y-134640000D03*
X129140000Y-134640000D03*
X126600000Y-134640000D03*
X124060000Y-134640000D03*
X121520000Y-134640000D03*
X118980000Y-134640000D03*
X116440000Y-134640000D03*
X113900000Y-134640000D03*
X111360000Y-134640000D03*
X108820000Y-134640000D03*
X106280000Y-134640000D03*
X103740000Y-134640000D03*
X101200000Y-134640000D03*
X98660000Y-134640000D03*
D11*
X98620000Y-109705000D03*
D12*
X101160000Y-109705000D03*
M02*
