%TF.GenerationSoftware,KiCad,Pcbnew,(6.0.2)*%
%TF.CreationDate,2022-04-17T21:23:41+02:00*%
%TF.ProjectId,main,6d61696e-2e6b-4696-9361-645f70636258,rev?*%
%TF.SameCoordinates,Original*%
%TF.FileFunction,Legend,Top*%
%TF.FilePolarity,Positive*%
%FSLAX46Y46*%
G04 Gerber Fmt 4.6, Leading zero omitted, Abs format (unit mm)*
G04 Created by KiCad (PCBNEW (6.0.2)) date 2022-04-17 21:23:41*
%MOMM*%
%LPD*%
G01*
G04 APERTURE LIST*
G04 Aperture macros list*
%AMFreePoly0*
4,1,9,3.862500,-0.866500,0.737500,-0.866500,0.737500,-0.450000,-0.737500,-0.450000,-0.737500,0.450000,0.737500,0.450000,0.737500,0.866500,3.862500,0.866500,3.862500,-0.866500,3.862500,-0.866500,$1*%
G04 Aperture macros list end*
%ADD10C,0.100000*%
%ADD11C,0.300000*%
%ADD12C,0.254000*%
%ADD13C,0.150000*%
%ADD14C,0.200000*%
%ADD15C,0.120000*%
%ADD16R,1.650000X1.650000*%
%ADD17C,1.650000*%
%ADD18R,0.940000X0.730000*%
%ADD19R,1.050000X1.820000*%
%ADD20R,0.950000X0.900000*%
%ADD21R,1.525000X0.700000*%
%ADD22R,2.513000X3.402000*%
%ADD23R,0.900000X0.950000*%
%ADD24R,0.730000X0.940000*%
%ADD25R,1.525000X0.650000*%
%ADD26R,1.380000X0.450000*%
%ADD27R,2.100000X1.475000*%
%ADD28R,1.900000X1.175000*%
%ADD29R,1.900000X2.375000*%
%ADD30R,1.200000X0.600000*%
%ADD31R,1.550000X2.350000*%
%ADD32R,1.700000X1.700000*%
%ADD33O,1.700000X1.700000*%
%ADD34R,0.800000X0.800000*%
%ADD35R,0.750000X0.600000*%
%ADD36R,0.650000X1.525000*%
%ADD37R,0.910000X1.390000*%
%ADD38R,1.425000X1.425000*%
%ADD39C,1.425000*%
%ADD40R,2.350000X1.550000*%
%ADD41R,0.900000X1.300000*%
%ADD42FreePoly0,270.000000*%
G04 APERTURE END LIST*
D10*
X167520000Y-102680000D02*
X177680000Y-102680000D01*
X177680000Y-102680000D02*
X177680000Y-112840000D01*
X177680000Y-112840000D02*
X167520000Y-112840000D01*
X167520000Y-112840000D02*
X167520000Y-102680000D01*
D11*
X170076190Y-106664761D02*
X170076190Y-108283809D01*
X170171428Y-108474285D01*
X170266666Y-108569523D01*
X170457142Y-108664761D01*
X170838095Y-108664761D01*
X171028571Y-108569523D01*
X171123809Y-108474285D01*
X171219047Y-108283809D01*
X171219047Y-106664761D01*
X172076190Y-108569523D02*
X172361904Y-108664761D01*
X172838095Y-108664761D01*
X173028571Y-108569523D01*
X173123809Y-108474285D01*
X173219047Y-108283809D01*
X173219047Y-108093333D01*
X173123809Y-107902857D01*
X173028571Y-107807619D01*
X172838095Y-107712380D01*
X172457142Y-107617142D01*
X172266666Y-107521904D01*
X172171428Y-107426666D01*
X172076190Y-107236190D01*
X172076190Y-107045714D01*
X172171428Y-106855238D01*
X172266666Y-106760000D01*
X172457142Y-106664761D01*
X172933333Y-106664761D01*
X173219047Y-106760000D01*
X174742857Y-107617142D02*
X175028571Y-107712380D01*
X175123809Y-107807619D01*
X175219047Y-107998095D01*
X175219047Y-108283809D01*
X175123809Y-108474285D01*
X175028571Y-108569523D01*
X174838095Y-108664761D01*
X174076190Y-108664761D01*
X174076190Y-106664761D01*
X174742857Y-106664761D01*
X174933333Y-106760000D01*
X175028571Y-106855238D01*
X175123809Y-107045714D01*
X175123809Y-107236190D01*
X175028571Y-107426666D01*
X174933333Y-107521904D01*
X174742857Y-107617142D01*
X174076190Y-107617142D01*
D12*
X129056666Y-68304523D02*
X129056666Y-69211666D01*
X128996190Y-69393095D01*
X128875238Y-69514047D01*
X128693809Y-69574523D01*
X128572857Y-69574523D01*
X130205714Y-68304523D02*
X129963809Y-68304523D01*
X129842857Y-68365000D01*
X129782380Y-68425476D01*
X129661428Y-68606904D01*
X129600952Y-68848809D01*
X129600952Y-69332619D01*
X129661428Y-69453571D01*
X129721904Y-69514047D01*
X129842857Y-69574523D01*
X130084761Y-69574523D01*
X130205714Y-69514047D01*
X130266190Y-69453571D01*
X130326666Y-69332619D01*
X130326666Y-69030238D01*
X130266190Y-68909285D01*
X130205714Y-68848809D01*
X130084761Y-68788333D01*
X129842857Y-68788333D01*
X129721904Y-68848809D01*
X129661428Y-68909285D01*
X129600952Y-69030238D01*
X128953571Y-98711666D02*
X129014047Y-98772142D01*
X129074523Y-98953571D01*
X129074523Y-99074523D01*
X129014047Y-99255952D01*
X128893095Y-99376904D01*
X128772142Y-99437380D01*
X128530238Y-99497857D01*
X128348809Y-99497857D01*
X128106904Y-99437380D01*
X127985952Y-99376904D01*
X127865000Y-99255952D01*
X127804523Y-99074523D01*
X127804523Y-98953571D01*
X127865000Y-98772142D01*
X127925476Y-98711666D01*
X129074523Y-97502142D02*
X129074523Y-98227857D01*
X129074523Y-97865000D02*
X127804523Y-97865000D01*
X127985952Y-97985952D01*
X128106904Y-98106904D01*
X128167380Y-98227857D01*
X120038333Y-92703571D02*
X119977857Y-92764047D01*
X119796428Y-92824523D01*
X119675476Y-92824523D01*
X119494047Y-92764047D01*
X119373095Y-92643095D01*
X119312619Y-92522142D01*
X119252142Y-92280238D01*
X119252142Y-92098809D01*
X119312619Y-91856904D01*
X119373095Y-91735952D01*
X119494047Y-91615000D01*
X119675476Y-91554523D01*
X119796428Y-91554523D01*
X119977857Y-91615000D01*
X120038333Y-91675476D01*
X120522142Y-91675476D02*
X120582619Y-91615000D01*
X120703571Y-91554523D01*
X121005952Y-91554523D01*
X121126904Y-91615000D01*
X121187380Y-91675476D01*
X121247857Y-91796428D01*
X121247857Y-91917380D01*
X121187380Y-92098809D01*
X120461666Y-92824523D01*
X121247857Y-92824523D01*
X160574523Y-113566428D02*
X159969761Y-113989761D01*
X160574523Y-114292142D02*
X159304523Y-114292142D01*
X159304523Y-113808333D01*
X159365000Y-113687380D01*
X159425476Y-113626904D01*
X159546428Y-113566428D01*
X159727857Y-113566428D01*
X159848809Y-113626904D01*
X159909285Y-113687380D01*
X159969761Y-113808333D01*
X159969761Y-114292142D01*
X160574523Y-112356904D02*
X160574523Y-113082619D01*
X160574523Y-112719761D02*
X159304523Y-112719761D01*
X159485952Y-112840714D01*
X159606904Y-112961666D01*
X159667380Y-113082619D01*
X159425476Y-111873095D02*
X159365000Y-111812619D01*
X159304523Y-111691666D01*
X159304523Y-111389285D01*
X159365000Y-111268333D01*
X159425476Y-111207857D01*
X159546428Y-111147380D01*
X159667380Y-111147380D01*
X159848809Y-111207857D01*
X160574523Y-111933571D01*
X160574523Y-111147380D01*
X82554523Y-53778095D02*
X83461666Y-53778095D01*
X83643095Y-53838571D01*
X83764047Y-53959523D01*
X83824523Y-54140952D01*
X83824523Y-54261904D01*
X83824523Y-52508095D02*
X83824523Y-53233809D01*
X83824523Y-52870952D02*
X82554523Y-52870952D01*
X82735952Y-52991904D01*
X82856904Y-53112857D01*
X82917380Y-53233809D01*
X82554523Y-51721904D02*
X82554523Y-51600952D01*
X82615000Y-51480000D01*
X82675476Y-51419523D01*
X82796428Y-51359047D01*
X83038333Y-51298571D01*
X83340714Y-51298571D01*
X83582619Y-51359047D01*
X83703571Y-51419523D01*
X83764047Y-51480000D01*
X83824523Y-51600952D01*
X83824523Y-51721904D01*
X83764047Y-51842857D01*
X83703571Y-51903333D01*
X83582619Y-51963809D01*
X83340714Y-52024285D01*
X83038333Y-52024285D01*
X82796428Y-51963809D01*
X82675476Y-51903333D01*
X82615000Y-51842857D01*
X82554523Y-51721904D01*
X120260238Y-103574523D02*
X120260238Y-102304523D01*
X121590714Y-103453571D02*
X121530238Y-103514047D01*
X121348809Y-103574523D01*
X121227857Y-103574523D01*
X121046428Y-103514047D01*
X120925476Y-103393095D01*
X120865000Y-103272142D01*
X120804523Y-103030238D01*
X120804523Y-102848809D01*
X120865000Y-102606904D01*
X120925476Y-102485952D01*
X121046428Y-102365000D01*
X121227857Y-102304523D01*
X121348809Y-102304523D01*
X121530238Y-102365000D01*
X121590714Y-102425476D01*
X122679285Y-102727857D02*
X122679285Y-103574523D01*
X122376904Y-102244047D02*
X122074523Y-103151190D01*
X122860714Y-103151190D01*
X110788333Y-93574523D02*
X110365000Y-92969761D01*
X110062619Y-93574523D02*
X110062619Y-92304523D01*
X110546428Y-92304523D01*
X110667380Y-92365000D01*
X110727857Y-92425476D01*
X110788333Y-92546428D01*
X110788333Y-92727857D01*
X110727857Y-92848809D01*
X110667380Y-92909285D01*
X110546428Y-92969761D01*
X110062619Y-92969761D01*
X111997857Y-93574523D02*
X111272142Y-93574523D01*
X111635000Y-93574523D02*
X111635000Y-92304523D01*
X111514047Y-92485952D01*
X111393095Y-92606904D01*
X111272142Y-92667380D01*
X163933571Y-93824523D02*
X163510238Y-93219761D01*
X163207857Y-93824523D02*
X163207857Y-92554523D01*
X163691666Y-92554523D01*
X163812619Y-92615000D01*
X163873095Y-92675476D01*
X163933571Y-92796428D01*
X163933571Y-92977857D01*
X163873095Y-93098809D01*
X163812619Y-93159285D01*
X163691666Y-93219761D01*
X163207857Y-93219761D01*
X165143095Y-93824523D02*
X164417380Y-93824523D01*
X164780238Y-93824523D02*
X164780238Y-92554523D01*
X164659285Y-92735952D01*
X164538333Y-92856904D01*
X164417380Y-92917380D01*
X166352619Y-93824523D02*
X165626904Y-93824523D01*
X165989761Y-93824523D02*
X165989761Y-92554523D01*
X165868809Y-92735952D01*
X165747857Y-92856904D01*
X165626904Y-92917380D01*
X132038333Y-99574523D02*
X131615000Y-98969761D01*
X131312619Y-99574523D02*
X131312619Y-98304523D01*
X131796428Y-98304523D01*
X131917380Y-98365000D01*
X131977857Y-98425476D01*
X132038333Y-98546428D01*
X132038333Y-98727857D01*
X131977857Y-98848809D01*
X131917380Y-98909285D01*
X131796428Y-98969761D01*
X131312619Y-98969761D01*
X132764047Y-98848809D02*
X132643095Y-98788333D01*
X132582619Y-98727857D01*
X132522142Y-98606904D01*
X132522142Y-98546428D01*
X132582619Y-98425476D01*
X132643095Y-98365000D01*
X132764047Y-98304523D01*
X133005952Y-98304523D01*
X133126904Y-98365000D01*
X133187380Y-98425476D01*
X133247857Y-98546428D01*
X133247857Y-98606904D01*
X133187380Y-98727857D01*
X133126904Y-98788333D01*
X133005952Y-98848809D01*
X132764047Y-98848809D01*
X132643095Y-98909285D01*
X132582619Y-98969761D01*
X132522142Y-99090714D01*
X132522142Y-99332619D01*
X132582619Y-99453571D01*
X132643095Y-99514047D01*
X132764047Y-99574523D01*
X133005952Y-99574523D01*
X133126904Y-99514047D01*
X133187380Y-99453571D01*
X133247857Y-99332619D01*
X133247857Y-99090714D01*
X133187380Y-98969761D01*
X133126904Y-98909285D01*
X133005952Y-98848809D01*
X140183571Y-112953571D02*
X140123095Y-113014047D01*
X139941666Y-113074523D01*
X139820714Y-113074523D01*
X139639285Y-113014047D01*
X139518333Y-112893095D01*
X139457857Y-112772142D01*
X139397380Y-112530238D01*
X139397380Y-112348809D01*
X139457857Y-112106904D01*
X139518333Y-111985952D01*
X139639285Y-111865000D01*
X139820714Y-111804523D01*
X139941666Y-111804523D01*
X140123095Y-111865000D01*
X140183571Y-111925476D01*
X141393095Y-113074523D02*
X140667380Y-113074523D01*
X141030238Y-113074523D02*
X141030238Y-111804523D01*
X140909285Y-111985952D01*
X140788333Y-112106904D01*
X140667380Y-112167380D01*
X142602619Y-113074523D02*
X141876904Y-113074523D01*
X142239761Y-113074523D02*
X142239761Y-111804523D01*
X142118809Y-111985952D01*
X141997857Y-112106904D01*
X141876904Y-112167380D01*
X149010238Y-104574523D02*
X149010238Y-103304523D01*
X150340714Y-104453571D02*
X150280238Y-104514047D01*
X150098809Y-104574523D01*
X149977857Y-104574523D01*
X149796428Y-104514047D01*
X149675476Y-104393095D01*
X149615000Y-104272142D01*
X149554523Y-104030238D01*
X149554523Y-103848809D01*
X149615000Y-103606904D01*
X149675476Y-103485952D01*
X149796428Y-103365000D01*
X149977857Y-103304523D01*
X150098809Y-103304523D01*
X150280238Y-103365000D01*
X150340714Y-103425476D01*
X150824523Y-103425476D02*
X150885000Y-103365000D01*
X151005952Y-103304523D01*
X151308333Y-103304523D01*
X151429285Y-103365000D01*
X151489761Y-103425476D01*
X151550238Y-103546428D01*
X151550238Y-103667380D01*
X151489761Y-103848809D01*
X150764047Y-104574523D01*
X151550238Y-104574523D01*
X175974523Y-107110333D02*
X176881666Y-107110333D01*
X177063095Y-107170809D01*
X177184047Y-107291761D01*
X177244523Y-107473190D01*
X177244523Y-107594142D01*
X175974523Y-105900809D02*
X175974523Y-106505571D01*
X176579285Y-106566047D01*
X176518809Y-106505571D01*
X176458333Y-106384619D01*
X176458333Y-106082238D01*
X176518809Y-105961285D01*
X176579285Y-105900809D01*
X176700238Y-105840333D01*
X177002619Y-105840333D01*
X177123571Y-105900809D01*
X177184047Y-105961285D01*
X177244523Y-106082238D01*
X177244523Y-106384619D01*
X177184047Y-106505571D01*
X177123571Y-106566047D01*
X106129047Y-102445476D02*
X106008095Y-102385000D01*
X105887142Y-102264047D01*
X105705714Y-102082619D01*
X105584761Y-102022142D01*
X105463809Y-102022142D01*
X105524285Y-102324523D02*
X105403333Y-102264047D01*
X105282380Y-102143095D01*
X105221904Y-101901190D01*
X105221904Y-101477857D01*
X105282380Y-101235952D01*
X105403333Y-101115000D01*
X105524285Y-101054523D01*
X105766190Y-101054523D01*
X105887142Y-101115000D01*
X106008095Y-101235952D01*
X106068571Y-101477857D01*
X106068571Y-101901190D01*
X106008095Y-102143095D01*
X105887142Y-102264047D01*
X105766190Y-102324523D01*
X105524285Y-102324523D01*
X107278095Y-102324523D02*
X106552380Y-102324523D01*
X106915238Y-102324523D02*
X106915238Y-101054523D01*
X106794285Y-101235952D01*
X106673333Y-101356904D01*
X106552380Y-101417380D01*
X118788333Y-123074523D02*
X118365000Y-122469761D01*
X118062619Y-123074523D02*
X118062619Y-121804523D01*
X118546428Y-121804523D01*
X118667380Y-121865000D01*
X118727857Y-121925476D01*
X118788333Y-122046428D01*
X118788333Y-122227857D01*
X118727857Y-122348809D01*
X118667380Y-122409285D01*
X118546428Y-122469761D01*
X118062619Y-122469761D01*
X119211666Y-121804523D02*
X119997857Y-121804523D01*
X119574523Y-122288333D01*
X119755952Y-122288333D01*
X119876904Y-122348809D01*
X119937380Y-122409285D01*
X119997857Y-122530238D01*
X119997857Y-122832619D01*
X119937380Y-122953571D01*
X119876904Y-123014047D01*
X119755952Y-123074523D01*
X119393095Y-123074523D01*
X119272142Y-123014047D01*
X119211666Y-122953571D01*
X99324523Y-104687380D02*
X98054523Y-104687380D01*
X98054523Y-104385000D01*
X98115000Y-104203571D01*
X98235952Y-104082619D01*
X98356904Y-104022142D01*
X98598809Y-103961666D01*
X98780238Y-103961666D01*
X99022142Y-104022142D01*
X99143095Y-104082619D01*
X99264047Y-104203571D01*
X99324523Y-104385000D01*
X99324523Y-104687380D01*
X99324523Y-102752142D02*
X99324523Y-103477857D01*
X99324523Y-103115000D02*
X98054523Y-103115000D01*
X98235952Y-103235952D01*
X98356904Y-103356904D01*
X98417380Y-103477857D01*
X117288333Y-116703571D02*
X117227857Y-116764047D01*
X117046428Y-116824523D01*
X116925476Y-116824523D01*
X116744047Y-116764047D01*
X116623095Y-116643095D01*
X116562619Y-116522142D01*
X116502142Y-116280238D01*
X116502142Y-116098809D01*
X116562619Y-115856904D01*
X116623095Y-115735952D01*
X116744047Y-115615000D01*
X116925476Y-115554523D01*
X117046428Y-115554523D01*
X117227857Y-115615000D01*
X117288333Y-115675476D01*
X118014047Y-116098809D02*
X117893095Y-116038333D01*
X117832619Y-115977857D01*
X117772142Y-115856904D01*
X117772142Y-115796428D01*
X117832619Y-115675476D01*
X117893095Y-115615000D01*
X118014047Y-115554523D01*
X118255952Y-115554523D01*
X118376904Y-115615000D01*
X118437380Y-115675476D01*
X118497857Y-115796428D01*
X118497857Y-115856904D01*
X118437380Y-115977857D01*
X118376904Y-116038333D01*
X118255952Y-116098809D01*
X118014047Y-116098809D01*
X117893095Y-116159285D01*
X117832619Y-116219761D01*
X117772142Y-116340714D01*
X117772142Y-116582619D01*
X117832619Y-116703571D01*
X117893095Y-116764047D01*
X118014047Y-116824523D01*
X118255952Y-116824523D01*
X118376904Y-116764047D01*
X118437380Y-116703571D01*
X118497857Y-116582619D01*
X118497857Y-116340714D01*
X118437380Y-116219761D01*
X118376904Y-116159285D01*
X118255952Y-116098809D01*
X121804523Y-71193333D02*
X122711666Y-71193333D01*
X122893095Y-71253809D01*
X123014047Y-71374761D01*
X123074523Y-71556190D01*
X123074523Y-71677142D01*
X123074523Y-70528095D02*
X123074523Y-70286190D01*
X123014047Y-70165238D01*
X122953571Y-70104761D01*
X122772142Y-69983809D01*
X122530238Y-69923333D01*
X122046428Y-69923333D01*
X121925476Y-69983809D01*
X121865000Y-70044285D01*
X121804523Y-70165238D01*
X121804523Y-70407142D01*
X121865000Y-70528095D01*
X121925476Y-70588571D01*
X122046428Y-70649047D01*
X122348809Y-70649047D01*
X122469761Y-70588571D01*
X122530238Y-70528095D01*
X122590714Y-70407142D01*
X122590714Y-70165238D01*
X122530238Y-70044285D01*
X122469761Y-69983809D01*
X122348809Y-69923333D01*
D13*
X176092380Y-87773333D02*
X176806666Y-87773333D01*
X176949523Y-87820952D01*
X177044761Y-87916190D01*
X177092380Y-88059047D01*
X177092380Y-88154285D01*
X176187619Y-87344761D02*
X176140000Y-87297142D01*
X176092380Y-87201904D01*
X176092380Y-86963809D01*
X176140000Y-86868571D01*
X176187619Y-86820952D01*
X176282857Y-86773333D01*
X176378095Y-86773333D01*
X176520952Y-86820952D01*
X177092380Y-87392380D01*
X177092380Y-86773333D01*
X135574857Y-114200266D02*
X135879619Y-114200266D01*
X135513904Y-114383123D02*
X135727238Y-113743123D01*
X135940571Y-114383123D01*
X136489142Y-114383123D02*
X136123428Y-114383123D01*
X136306285Y-114383123D02*
X136306285Y-113743123D01*
X136245333Y-113834552D01*
X136184380Y-113895504D01*
X136123428Y-113925980D01*
D12*
X112038333Y-111453571D02*
X111977857Y-111514047D01*
X111796428Y-111574523D01*
X111675476Y-111574523D01*
X111494047Y-111514047D01*
X111373095Y-111393095D01*
X111312619Y-111272142D01*
X111252142Y-111030238D01*
X111252142Y-110848809D01*
X111312619Y-110606904D01*
X111373095Y-110485952D01*
X111494047Y-110365000D01*
X111675476Y-110304523D01*
X111796428Y-110304523D01*
X111977857Y-110365000D01*
X112038333Y-110425476D01*
X113126904Y-110304523D02*
X112885000Y-110304523D01*
X112764047Y-110365000D01*
X112703571Y-110425476D01*
X112582619Y-110606904D01*
X112522142Y-110848809D01*
X112522142Y-111332619D01*
X112582619Y-111453571D01*
X112643095Y-111514047D01*
X112764047Y-111574523D01*
X113005952Y-111574523D01*
X113126904Y-111514047D01*
X113187380Y-111453571D01*
X113247857Y-111332619D01*
X113247857Y-111030238D01*
X113187380Y-110909285D01*
X113126904Y-110848809D01*
X113005952Y-110788333D01*
X112764047Y-110788333D01*
X112643095Y-110848809D01*
X112582619Y-110909285D01*
X112522142Y-111030238D01*
X97304523Y-53133333D02*
X98211666Y-53133333D01*
X98393095Y-53193809D01*
X98514047Y-53314761D01*
X98574523Y-53496190D01*
X98574523Y-53617142D01*
X97848809Y-52347142D02*
X97788333Y-52468095D01*
X97727857Y-52528571D01*
X97606904Y-52589047D01*
X97546428Y-52589047D01*
X97425476Y-52528571D01*
X97365000Y-52468095D01*
X97304523Y-52347142D01*
X97304523Y-52105238D01*
X97365000Y-51984285D01*
X97425476Y-51923809D01*
X97546428Y-51863333D01*
X97606904Y-51863333D01*
X97727857Y-51923809D01*
X97788333Y-51984285D01*
X97848809Y-52105238D01*
X97848809Y-52347142D01*
X97909285Y-52468095D01*
X97969761Y-52528571D01*
X98090714Y-52589047D01*
X98332619Y-52589047D01*
X98453571Y-52528571D01*
X98514047Y-52468095D01*
X98574523Y-52347142D01*
X98574523Y-52105238D01*
X98514047Y-51984285D01*
X98453571Y-51923809D01*
X98332619Y-51863333D01*
X98090714Y-51863333D01*
X97969761Y-51923809D01*
X97909285Y-51984285D01*
X97848809Y-52105238D01*
X127038333Y-63453571D02*
X126977857Y-63514047D01*
X126796428Y-63574523D01*
X126675476Y-63574523D01*
X126494047Y-63514047D01*
X126373095Y-63393095D01*
X126312619Y-63272142D01*
X126252142Y-63030238D01*
X126252142Y-62848809D01*
X126312619Y-62606904D01*
X126373095Y-62485952D01*
X126494047Y-62365000D01*
X126675476Y-62304523D01*
X126796428Y-62304523D01*
X126977857Y-62365000D01*
X127038333Y-62425476D01*
X127461666Y-62304523D02*
X128247857Y-62304523D01*
X127824523Y-62788333D01*
X128005952Y-62788333D01*
X128126904Y-62848809D01*
X128187380Y-62909285D01*
X128247857Y-63030238D01*
X128247857Y-63332619D01*
X128187380Y-63453571D01*
X128126904Y-63514047D01*
X128005952Y-63574523D01*
X127643095Y-63574523D01*
X127522142Y-63514047D01*
X127461666Y-63453571D01*
X82554523Y-68818095D02*
X83461666Y-68818095D01*
X83643095Y-68878571D01*
X83764047Y-68999523D01*
X83824523Y-69180952D01*
X83824523Y-69301904D01*
X83824523Y-67548095D02*
X83824523Y-68273809D01*
X83824523Y-67910952D02*
X82554523Y-67910952D01*
X82735952Y-68031904D01*
X82856904Y-68152857D01*
X82917380Y-68273809D01*
X82554523Y-67124761D02*
X82554523Y-66338571D01*
X83038333Y-66761904D01*
X83038333Y-66580476D01*
X83098809Y-66459523D01*
X83159285Y-66399047D01*
X83280238Y-66338571D01*
X83582619Y-66338571D01*
X83703571Y-66399047D01*
X83764047Y-66459523D01*
X83824523Y-66580476D01*
X83824523Y-66943333D01*
X83764047Y-67064285D01*
X83703571Y-67124761D01*
D13*
X175652380Y-77613333D02*
X176366666Y-77613333D01*
X176509523Y-77660952D01*
X176604761Y-77756190D01*
X176652380Y-77899047D01*
X176652380Y-77994285D01*
X176652380Y-76613333D02*
X176652380Y-77184761D01*
X176652380Y-76899047D02*
X175652380Y-76899047D01*
X175795238Y-76994285D01*
X175890476Y-77089523D01*
X175938095Y-77184761D01*
D12*
X141933571Y-94453571D02*
X141873095Y-94514047D01*
X141691666Y-94574523D01*
X141570714Y-94574523D01*
X141389285Y-94514047D01*
X141268333Y-94393095D01*
X141207857Y-94272142D01*
X141147380Y-94030238D01*
X141147380Y-93848809D01*
X141207857Y-93606904D01*
X141268333Y-93485952D01*
X141389285Y-93365000D01*
X141570714Y-93304523D01*
X141691666Y-93304523D01*
X141873095Y-93365000D01*
X141933571Y-93425476D01*
X143143095Y-94574523D02*
X142417380Y-94574523D01*
X142780238Y-94574523D02*
X142780238Y-93304523D01*
X142659285Y-93485952D01*
X142538333Y-93606904D01*
X142417380Y-93667380D01*
X143626904Y-93425476D02*
X143687380Y-93365000D01*
X143808333Y-93304523D01*
X144110714Y-93304523D01*
X144231666Y-93365000D01*
X144292142Y-93425476D01*
X144352619Y-93546428D01*
X144352619Y-93667380D01*
X144292142Y-93848809D01*
X143566428Y-94574523D01*
X144352619Y-94574523D01*
X160038333Y-108324523D02*
X159615000Y-107719761D01*
X159312619Y-108324523D02*
X159312619Y-107054523D01*
X159796428Y-107054523D01*
X159917380Y-107115000D01*
X159977857Y-107175476D01*
X160038333Y-107296428D01*
X160038333Y-107477857D01*
X159977857Y-107598809D01*
X159917380Y-107659285D01*
X159796428Y-107719761D01*
X159312619Y-107719761D01*
X161126904Y-107054523D02*
X160885000Y-107054523D01*
X160764047Y-107115000D01*
X160703571Y-107175476D01*
X160582619Y-107356904D01*
X160522142Y-107598809D01*
X160522142Y-108082619D01*
X160582619Y-108203571D01*
X160643095Y-108264047D01*
X160764047Y-108324523D01*
X161005952Y-108324523D01*
X161126904Y-108264047D01*
X161187380Y-108203571D01*
X161247857Y-108082619D01*
X161247857Y-107780238D01*
X161187380Y-107659285D01*
X161126904Y-107598809D01*
X161005952Y-107538333D01*
X160764047Y-107538333D01*
X160643095Y-107598809D01*
X160582619Y-107659285D01*
X160522142Y-107780238D01*
X148288333Y-93574523D02*
X147865000Y-92969761D01*
X147562619Y-93574523D02*
X147562619Y-92304523D01*
X148046428Y-92304523D01*
X148167380Y-92365000D01*
X148227857Y-92425476D01*
X148288333Y-92546428D01*
X148288333Y-92727857D01*
X148227857Y-92848809D01*
X148167380Y-92909285D01*
X148046428Y-92969761D01*
X147562619Y-92969761D01*
X149376904Y-92727857D02*
X149376904Y-93574523D01*
X149074523Y-92244047D02*
X148772142Y-93151190D01*
X149558333Y-93151190D01*
X128824523Y-118239761D02*
X127554523Y-118239761D01*
X128703571Y-116909285D02*
X128764047Y-116969761D01*
X128824523Y-117151190D01*
X128824523Y-117272142D01*
X128764047Y-117453571D01*
X128643095Y-117574523D01*
X128522142Y-117635000D01*
X128280238Y-117695476D01*
X128098809Y-117695476D01*
X127856904Y-117635000D01*
X127735952Y-117574523D01*
X127615000Y-117453571D01*
X127554523Y-117272142D01*
X127554523Y-117151190D01*
X127615000Y-116969761D01*
X127675476Y-116909285D01*
X127554523Y-116485952D02*
X127554523Y-115699761D01*
X128038333Y-116123095D01*
X128038333Y-115941666D01*
X128098809Y-115820714D01*
X128159285Y-115760238D01*
X128280238Y-115699761D01*
X128582619Y-115699761D01*
X128703571Y-115760238D01*
X128764047Y-115820714D01*
X128824523Y-115941666D01*
X128824523Y-116304523D01*
X128764047Y-116425476D01*
X128703571Y-116485952D01*
X108433571Y-121574523D02*
X108010238Y-120969761D01*
X107707857Y-121574523D02*
X107707857Y-120304523D01*
X108191666Y-120304523D01*
X108312619Y-120365000D01*
X108373095Y-120425476D01*
X108433571Y-120546428D01*
X108433571Y-120727857D01*
X108373095Y-120848809D01*
X108312619Y-120909285D01*
X108191666Y-120969761D01*
X107707857Y-120969761D01*
X109643095Y-121574523D02*
X108917380Y-121574523D01*
X109280238Y-121574523D02*
X109280238Y-120304523D01*
X109159285Y-120485952D01*
X109038333Y-120606904D01*
X108917380Y-120667380D01*
X110731666Y-120727857D02*
X110731666Y-121574523D01*
X110429285Y-120244047D02*
X110126904Y-121151190D01*
X110913095Y-121151190D01*
X148183571Y-73453571D02*
X148123095Y-73514047D01*
X147941666Y-73574523D01*
X147820714Y-73574523D01*
X147639285Y-73514047D01*
X147518333Y-73393095D01*
X147457857Y-73272142D01*
X147397380Y-73030238D01*
X147397380Y-72848809D01*
X147457857Y-72606904D01*
X147518333Y-72485952D01*
X147639285Y-72365000D01*
X147820714Y-72304523D01*
X147941666Y-72304523D01*
X148123095Y-72365000D01*
X148183571Y-72425476D01*
X149393095Y-73574523D02*
X148667380Y-73574523D01*
X149030238Y-73574523D02*
X149030238Y-72304523D01*
X148909285Y-72485952D01*
X148788333Y-72606904D01*
X148667380Y-72667380D01*
X150179285Y-72304523D02*
X150300238Y-72304523D01*
X150421190Y-72365000D01*
X150481666Y-72425476D01*
X150542142Y-72546428D01*
X150602619Y-72788333D01*
X150602619Y-73090714D01*
X150542142Y-73332619D01*
X150481666Y-73453571D01*
X150421190Y-73514047D01*
X150300238Y-73574523D01*
X150179285Y-73574523D01*
X150058333Y-73514047D01*
X149997857Y-73453571D01*
X149937380Y-73332619D01*
X149876904Y-73090714D01*
X149876904Y-72788333D01*
X149937380Y-72546428D01*
X149997857Y-72425476D01*
X150058333Y-72365000D01*
X150179285Y-72304523D01*
X147824523Y-113316428D02*
X147219761Y-113739761D01*
X147824523Y-114042142D02*
X146554523Y-114042142D01*
X146554523Y-113558333D01*
X146615000Y-113437380D01*
X146675476Y-113376904D01*
X146796428Y-113316428D01*
X146977857Y-113316428D01*
X147098809Y-113376904D01*
X147159285Y-113437380D01*
X147219761Y-113558333D01*
X147219761Y-114042142D01*
X147824523Y-112106904D02*
X147824523Y-112832619D01*
X147824523Y-112469761D02*
X146554523Y-112469761D01*
X146735952Y-112590714D01*
X146856904Y-112711666D01*
X146917380Y-112832619D01*
X146554523Y-111683571D02*
X146554523Y-110897380D01*
X147038333Y-111320714D01*
X147038333Y-111139285D01*
X147098809Y-111018333D01*
X147159285Y-110957857D01*
X147280238Y-110897380D01*
X147582619Y-110897380D01*
X147703571Y-110957857D01*
X147764047Y-111018333D01*
X147824523Y-111139285D01*
X147824523Y-111502142D01*
X147764047Y-111623095D01*
X147703571Y-111683571D01*
D13*
X175652380Y-138573333D02*
X176366666Y-138573333D01*
X176509523Y-138620952D01*
X176604761Y-138716190D01*
X176652380Y-138859047D01*
X176652380Y-138954285D01*
X175985714Y-137668571D02*
X176652380Y-137668571D01*
X175604761Y-137906666D02*
X176319047Y-138144761D01*
X176319047Y-137525714D01*
D12*
X141538333Y-117324523D02*
X141115000Y-116719761D01*
X140812619Y-117324523D02*
X140812619Y-116054523D01*
X141296428Y-116054523D01*
X141417380Y-116115000D01*
X141477857Y-116175476D01*
X141538333Y-116296428D01*
X141538333Y-116477857D01*
X141477857Y-116598809D01*
X141417380Y-116659285D01*
X141296428Y-116719761D01*
X140812619Y-116719761D01*
X142143095Y-117324523D02*
X142385000Y-117324523D01*
X142505952Y-117264047D01*
X142566428Y-117203571D01*
X142687380Y-117022142D01*
X142747857Y-116780238D01*
X142747857Y-116296428D01*
X142687380Y-116175476D01*
X142626904Y-116115000D01*
X142505952Y-116054523D01*
X142264047Y-116054523D01*
X142143095Y-116115000D01*
X142082619Y-116175476D01*
X142022142Y-116296428D01*
X142022142Y-116598809D01*
X142082619Y-116719761D01*
X142143095Y-116780238D01*
X142264047Y-116840714D01*
X142505952Y-116840714D01*
X142626904Y-116780238D01*
X142687380Y-116719761D01*
X142747857Y-116598809D01*
X126453571Y-70276428D02*
X126514047Y-70336904D01*
X126574523Y-70518333D01*
X126574523Y-70639285D01*
X126514047Y-70820714D01*
X126393095Y-70941666D01*
X126272142Y-71002142D01*
X126030238Y-71062619D01*
X125848809Y-71062619D01*
X125606904Y-71002142D01*
X125485952Y-70941666D01*
X125365000Y-70820714D01*
X125304523Y-70639285D01*
X125304523Y-70518333D01*
X125365000Y-70336904D01*
X125425476Y-70276428D01*
X126574523Y-69066904D02*
X126574523Y-69792619D01*
X126574523Y-69429761D02*
X125304523Y-69429761D01*
X125485952Y-69550714D01*
X125606904Y-69671666D01*
X125667380Y-69792619D01*
X125304523Y-68643571D02*
X125304523Y-67857380D01*
X125788333Y-68280714D01*
X125788333Y-68099285D01*
X125848809Y-67978333D01*
X125909285Y-67917857D01*
X126030238Y-67857380D01*
X126332619Y-67857380D01*
X126453571Y-67917857D01*
X126514047Y-67978333D01*
X126574523Y-68099285D01*
X126574523Y-68462142D01*
X126514047Y-68583095D01*
X126453571Y-68643571D01*
X162038333Y-117453571D02*
X161977857Y-117514047D01*
X161796428Y-117574523D01*
X161675476Y-117574523D01*
X161494047Y-117514047D01*
X161373095Y-117393095D01*
X161312619Y-117272142D01*
X161252142Y-117030238D01*
X161252142Y-116848809D01*
X161312619Y-116606904D01*
X161373095Y-116485952D01*
X161494047Y-116365000D01*
X161675476Y-116304523D01*
X161796428Y-116304523D01*
X161977857Y-116365000D01*
X162038333Y-116425476D01*
X163187380Y-116304523D02*
X162582619Y-116304523D01*
X162522142Y-116909285D01*
X162582619Y-116848809D01*
X162703571Y-116788333D01*
X163005952Y-116788333D01*
X163126904Y-116848809D01*
X163187380Y-116909285D01*
X163247857Y-117030238D01*
X163247857Y-117332619D01*
X163187380Y-117453571D01*
X163126904Y-117514047D01*
X163005952Y-117574523D01*
X162703571Y-117574523D01*
X162582619Y-117514047D01*
X162522142Y-117453571D01*
X125674523Y-61088095D02*
X126581666Y-61088095D01*
X126763095Y-61148571D01*
X126884047Y-61269523D01*
X126944523Y-61450952D01*
X126944523Y-61571904D01*
X126944523Y-59818095D02*
X126944523Y-60543809D01*
X126944523Y-60180952D02*
X125674523Y-60180952D01*
X125855952Y-60301904D01*
X125976904Y-60422857D01*
X126037380Y-60543809D01*
X126944523Y-58608571D02*
X126944523Y-59334285D01*
X126944523Y-58971428D02*
X125674523Y-58971428D01*
X125855952Y-59092380D01*
X125976904Y-59213333D01*
X126037380Y-59334285D01*
X98812619Y-95324523D02*
X98812619Y-94054523D01*
X99115000Y-94054523D01*
X99296428Y-94115000D01*
X99417380Y-94235952D01*
X99477857Y-94356904D01*
X99538333Y-94598809D01*
X99538333Y-94780238D01*
X99477857Y-95022142D01*
X99417380Y-95143095D01*
X99296428Y-95264047D01*
X99115000Y-95324523D01*
X98812619Y-95324523D01*
X100022142Y-94175476D02*
X100082619Y-94115000D01*
X100203571Y-94054523D01*
X100505952Y-94054523D01*
X100626904Y-94115000D01*
X100687380Y-94175476D01*
X100747857Y-94296428D01*
X100747857Y-94417380D01*
X100687380Y-94598809D01*
X99961666Y-95324523D01*
X100747857Y-95324523D01*
D13*
X176092380Y-128413333D02*
X176806666Y-128413333D01*
X176949523Y-128460952D01*
X177044761Y-128556190D01*
X177092380Y-128699047D01*
X177092380Y-128794285D01*
X176092380Y-128032380D02*
X176092380Y-127413333D01*
X176473333Y-127746666D01*
X176473333Y-127603809D01*
X176520952Y-127508571D01*
X176568571Y-127460952D01*
X176663809Y-127413333D01*
X176901904Y-127413333D01*
X176997142Y-127460952D01*
X177044761Y-127508571D01*
X177092380Y-127603809D01*
X177092380Y-127889523D01*
X177044761Y-127984761D01*
X176997142Y-128032380D01*
D12*
X91554523Y-58778095D02*
X92461666Y-58778095D01*
X92643095Y-58838571D01*
X92764047Y-58959523D01*
X92824523Y-59140952D01*
X92824523Y-59261904D01*
X92824523Y-57508095D02*
X92824523Y-58233809D01*
X92824523Y-57870952D02*
X91554523Y-57870952D01*
X91735952Y-57991904D01*
X91856904Y-58112857D01*
X91917380Y-58233809D01*
X91675476Y-57024285D02*
X91615000Y-56963809D01*
X91554523Y-56842857D01*
X91554523Y-56540476D01*
X91615000Y-56419523D01*
X91675476Y-56359047D01*
X91796428Y-56298571D01*
X91917380Y-56298571D01*
X92098809Y-56359047D01*
X92824523Y-57084761D01*
X92824523Y-56298571D01*
X92788333Y-111703571D02*
X92727857Y-111764047D01*
X92546428Y-111824523D01*
X92425476Y-111824523D01*
X92244047Y-111764047D01*
X92123095Y-111643095D01*
X92062619Y-111522142D01*
X92002142Y-111280238D01*
X92002142Y-111098809D01*
X92062619Y-110856904D01*
X92123095Y-110735952D01*
X92244047Y-110615000D01*
X92425476Y-110554523D01*
X92546428Y-110554523D01*
X92727857Y-110615000D01*
X92788333Y-110675476D01*
X93211666Y-110554523D02*
X94058333Y-110554523D01*
X93514047Y-111824523D01*
D13*
X96452380Y-104061904D02*
X97261904Y-104061904D01*
X97357142Y-104014285D01*
X97404761Y-103966666D01*
X97452380Y-103871428D01*
X97452380Y-103680952D01*
X97404761Y-103585714D01*
X97357142Y-103538095D01*
X97261904Y-103490476D01*
X96452380Y-103490476D01*
X97452380Y-102490476D02*
X97452380Y-103061904D01*
X97452380Y-102776190D02*
X96452380Y-102776190D01*
X96595238Y-102871428D01*
X96690476Y-102966666D01*
X96738095Y-103061904D01*
D12*
X135806666Y-68304523D02*
X135806666Y-69211666D01*
X135746190Y-69393095D01*
X135625238Y-69514047D01*
X135443809Y-69574523D01*
X135322857Y-69574523D01*
X136290476Y-68304523D02*
X137137142Y-68304523D01*
X136592857Y-69574523D01*
X133761904Y-72554523D02*
X133761904Y-73461666D01*
X133701428Y-73643095D01*
X133580476Y-73764047D01*
X133399047Y-73824523D01*
X133278095Y-73824523D01*
X135031904Y-73824523D02*
X134306190Y-73824523D01*
X134669047Y-73824523D02*
X134669047Y-72554523D01*
X134548095Y-72735952D01*
X134427142Y-72856904D01*
X134306190Y-72917380D01*
X136120476Y-72977857D02*
X136120476Y-73824523D01*
X135818095Y-72494047D02*
X135515714Y-73401190D01*
X136301904Y-73401190D01*
X134038333Y-123703571D02*
X133977857Y-123764047D01*
X133796428Y-123824523D01*
X133675476Y-123824523D01*
X133494047Y-123764047D01*
X133373095Y-123643095D01*
X133312619Y-123522142D01*
X133252142Y-123280238D01*
X133252142Y-123098809D01*
X133312619Y-122856904D01*
X133373095Y-122735952D01*
X133494047Y-122615000D01*
X133675476Y-122554523D01*
X133796428Y-122554523D01*
X133977857Y-122615000D01*
X134038333Y-122675476D01*
X135126904Y-122977857D02*
X135126904Y-123824523D01*
X134824523Y-122494047D02*
X134522142Y-123401190D01*
X135308333Y-123401190D01*
X135788333Y-91824523D02*
X135365000Y-91219761D01*
X135062619Y-91824523D02*
X135062619Y-90554523D01*
X135546428Y-90554523D01*
X135667380Y-90615000D01*
X135727857Y-90675476D01*
X135788333Y-90796428D01*
X135788333Y-90977857D01*
X135727857Y-91098809D01*
X135667380Y-91159285D01*
X135546428Y-91219761D01*
X135062619Y-91219761D01*
X136937380Y-90554523D02*
X136332619Y-90554523D01*
X136272142Y-91159285D01*
X136332619Y-91098809D01*
X136453571Y-91038333D01*
X136755952Y-91038333D01*
X136876904Y-91098809D01*
X136937380Y-91159285D01*
X136997857Y-91280238D01*
X136997857Y-91582619D01*
X136937380Y-91703571D01*
X136876904Y-91764047D01*
X136755952Y-91824523D01*
X136453571Y-91824523D01*
X136332619Y-91764047D01*
X136272142Y-91703571D01*
X113288333Y-108324523D02*
X112865000Y-107719761D01*
X112562619Y-108324523D02*
X112562619Y-107054523D01*
X113046428Y-107054523D01*
X113167380Y-107115000D01*
X113227857Y-107175476D01*
X113288333Y-107296428D01*
X113288333Y-107477857D01*
X113227857Y-107598809D01*
X113167380Y-107659285D01*
X113046428Y-107719761D01*
X112562619Y-107719761D01*
X113772142Y-107175476D02*
X113832619Y-107115000D01*
X113953571Y-107054523D01*
X114255952Y-107054523D01*
X114376904Y-107115000D01*
X114437380Y-107175476D01*
X114497857Y-107296428D01*
X114497857Y-107417380D01*
X114437380Y-107598809D01*
X113711666Y-108324523D01*
X114497857Y-108324523D01*
X135760238Y-104824523D02*
X135760238Y-103554523D01*
X137090714Y-104703571D02*
X137030238Y-104764047D01*
X136848809Y-104824523D01*
X136727857Y-104824523D01*
X136546428Y-104764047D01*
X136425476Y-104643095D01*
X136365000Y-104522142D01*
X136304523Y-104280238D01*
X136304523Y-104098809D01*
X136365000Y-103856904D01*
X136425476Y-103735952D01*
X136546428Y-103615000D01*
X136727857Y-103554523D01*
X136848809Y-103554523D01*
X137030238Y-103615000D01*
X137090714Y-103675476D01*
X138300238Y-104824523D02*
X137574523Y-104824523D01*
X137937380Y-104824523D02*
X137937380Y-103554523D01*
X137816428Y-103735952D01*
X137695476Y-103856904D01*
X137574523Y-103917380D01*
X128683571Y-105824523D02*
X128260238Y-105219761D01*
X127957857Y-105824523D02*
X127957857Y-104554523D01*
X128441666Y-104554523D01*
X128562619Y-104615000D01*
X128623095Y-104675476D01*
X128683571Y-104796428D01*
X128683571Y-104977857D01*
X128623095Y-105098809D01*
X128562619Y-105159285D01*
X128441666Y-105219761D01*
X127957857Y-105219761D01*
X129893095Y-105824523D02*
X129167380Y-105824523D01*
X129530238Y-105824523D02*
X129530238Y-104554523D01*
X129409285Y-104735952D01*
X129288333Y-104856904D01*
X129167380Y-104917380D01*
X130679285Y-104554523D02*
X130800238Y-104554523D01*
X130921190Y-104615000D01*
X130981666Y-104675476D01*
X131042142Y-104796428D01*
X131102619Y-105038333D01*
X131102619Y-105340714D01*
X131042142Y-105582619D01*
X130981666Y-105703571D01*
X130921190Y-105764047D01*
X130800238Y-105824523D01*
X130679285Y-105824523D01*
X130558333Y-105764047D01*
X130497857Y-105703571D01*
X130437380Y-105582619D01*
X130376904Y-105340714D01*
X130376904Y-105038333D01*
X130437380Y-104796428D01*
X130497857Y-104675476D01*
X130558333Y-104615000D01*
X130679285Y-104554523D01*
X99828809Y-114324523D02*
X99224047Y-114324523D01*
X99224047Y-113054523D01*
X100252142Y-113659285D02*
X100675476Y-113659285D01*
X100856904Y-114324523D02*
X100252142Y-114324523D01*
X100252142Y-113054523D01*
X100856904Y-113054523D01*
X101401190Y-114324523D02*
X101401190Y-113054523D01*
X101703571Y-113054523D01*
X101885000Y-113115000D01*
X102005952Y-113235952D01*
X102066428Y-113356904D01*
X102126904Y-113598809D01*
X102126904Y-113780238D01*
X102066428Y-114022142D01*
X102005952Y-114143095D01*
X101885000Y-114264047D01*
X101703571Y-114324523D01*
X101401190Y-114324523D01*
X103336428Y-114324523D02*
X102610714Y-114324523D01*
X102973571Y-114324523D02*
X102973571Y-113054523D01*
X102852619Y-113235952D01*
X102731666Y-113356904D01*
X102610714Y-113417380D01*
X155538333Y-73574523D02*
X155115000Y-72969761D01*
X154812619Y-73574523D02*
X154812619Y-72304523D01*
X155296428Y-72304523D01*
X155417380Y-72365000D01*
X155477857Y-72425476D01*
X155538333Y-72546428D01*
X155538333Y-72727857D01*
X155477857Y-72848809D01*
X155417380Y-72909285D01*
X155296428Y-72969761D01*
X154812619Y-72969761D01*
X155961666Y-72304523D02*
X156808333Y-72304523D01*
X156264047Y-73574523D01*
X154538333Y-123203571D02*
X154477857Y-123264047D01*
X154296428Y-123324523D01*
X154175476Y-123324523D01*
X153994047Y-123264047D01*
X153873095Y-123143095D01*
X153812619Y-123022142D01*
X153752142Y-122780238D01*
X153752142Y-122598809D01*
X153812619Y-122356904D01*
X153873095Y-122235952D01*
X153994047Y-122115000D01*
X154175476Y-122054523D01*
X154296428Y-122054523D01*
X154477857Y-122115000D01*
X154538333Y-122175476D01*
X155143095Y-123324523D02*
X155385000Y-123324523D01*
X155505952Y-123264047D01*
X155566428Y-123203571D01*
X155687380Y-123022142D01*
X155747857Y-122780238D01*
X155747857Y-122296428D01*
X155687380Y-122175476D01*
X155626904Y-122115000D01*
X155505952Y-122054523D01*
X155264047Y-122054523D01*
X155143095Y-122115000D01*
X155082619Y-122175476D01*
X155022142Y-122296428D01*
X155022142Y-122598809D01*
X155082619Y-122719761D01*
X155143095Y-122780238D01*
X155264047Y-122840714D01*
X155505952Y-122840714D01*
X155626904Y-122780238D01*
X155687380Y-122719761D01*
X155747857Y-122598809D01*
X100078809Y-121324523D02*
X99474047Y-121324523D01*
X99474047Y-120054523D01*
X100502142Y-120659285D02*
X100925476Y-120659285D01*
X101106904Y-121324523D02*
X100502142Y-121324523D01*
X100502142Y-120054523D01*
X101106904Y-120054523D01*
X101651190Y-121324523D02*
X101651190Y-120054523D01*
X101953571Y-120054523D01*
X102135000Y-120115000D01*
X102255952Y-120235952D01*
X102316428Y-120356904D01*
X102376904Y-120598809D01*
X102376904Y-120780238D01*
X102316428Y-121022142D01*
X102255952Y-121143095D01*
X102135000Y-121264047D01*
X101953571Y-121324523D01*
X101651190Y-121324523D01*
X102860714Y-120175476D02*
X102921190Y-120115000D01*
X103042142Y-120054523D01*
X103344523Y-120054523D01*
X103465476Y-120115000D01*
X103525952Y-120175476D01*
X103586428Y-120296428D01*
X103586428Y-120417380D01*
X103525952Y-120598809D01*
X102800238Y-121324523D01*
X103586428Y-121324523D01*
D13*
X153324857Y-92950266D02*
X153629619Y-92950266D01*
X153263904Y-93133123D02*
X153477238Y-92493123D01*
X153690571Y-93133123D01*
X153873428Y-92554076D02*
X153903904Y-92523600D01*
X153964857Y-92493123D01*
X154117238Y-92493123D01*
X154178190Y-92523600D01*
X154208666Y-92554076D01*
X154239142Y-92615028D01*
X154239142Y-92675980D01*
X154208666Y-92767409D01*
X153842952Y-93133123D01*
X154239142Y-93133123D01*
D14*
X133490000Y-67675000D02*
X129480000Y-67675000D01*
X133490000Y-70325000D02*
X133490000Y-67675000D01*
X128010000Y-69000000D02*
X128010000Y-70325000D01*
X128010000Y-70325000D02*
X133490000Y-70325000D01*
X120250000Y-91550000D02*
X120250000Y-92950000D01*
X159700000Y-112750000D02*
X160300000Y-112750000D01*
X81925000Y-51280000D02*
X81925000Y-56760000D01*
X83250000Y-51280000D02*
X81925000Y-51280000D01*
X81925000Y-56760000D02*
X84575000Y-56760000D01*
X84575000Y-56760000D02*
X84575000Y-52750000D01*
X124975000Y-105605000D02*
X123450000Y-105605000D01*
X111000000Y-92700000D02*
X111000000Y-93300000D01*
X164750000Y-92950000D02*
X164750000Y-93550000D01*
X132250000Y-98700000D02*
X132250000Y-99300000D01*
X148650000Y-106450000D02*
X148650000Y-101550000D01*
X146775000Y-101420000D02*
X148300000Y-101420000D01*
X151850000Y-106450000D02*
X148650000Y-106450000D01*
X151850000Y-101550000D02*
X151850000Y-106450000D01*
X148650000Y-101550000D02*
X151850000Y-101550000D01*
X175250000Y-103250000D02*
X176877000Y-103250000D01*
X175250000Y-110750000D02*
X176877000Y-110750000D01*
X180250000Y-103250000D02*
X180250000Y-110750000D01*
X174505890Y-108572000D02*
G75*
G03*
X174505890Y-108572000I-45890J0D01*
G01*
X105950000Y-100275000D02*
X106550000Y-100275000D01*
X105950000Y-103225000D02*
X105950000Y-100275000D01*
X106550000Y-100275000D02*
X106550000Y-103225000D01*
X108100000Y-103250000D02*
X106900000Y-103250000D01*
X106550000Y-103225000D02*
X105950000Y-103225000D01*
X119000000Y-122200000D02*
X119000000Y-122800000D01*
X100112000Y-106350000D02*
X100112000Y-100825000D01*
X97388000Y-101150000D02*
X97388000Y-106350000D01*
X117500000Y-115550000D02*
X117500000Y-116950000D01*
X122500000Y-72240000D02*
X123825000Y-72240000D01*
X123825000Y-66760000D02*
X121175000Y-66760000D01*
X123825000Y-72240000D02*
X123825000Y-66760000D01*
X121175000Y-66760000D02*
X121175000Y-70770000D01*
D15*
X175200000Y-88770000D02*
X173870000Y-88770000D01*
X172600000Y-86110000D02*
X91260000Y-86110000D01*
X172600000Y-86110000D02*
X172600000Y-88770000D01*
X91260000Y-86110000D02*
X91260000Y-88770000D01*
X175200000Y-87440000D02*
X175200000Y-88770000D01*
X172600000Y-88770000D02*
X91260000Y-88770000D01*
D14*
X134350000Y-115500000D02*
G75*
G03*
X134350000Y-115500000I-100000J0D01*
G01*
X112250000Y-111700000D02*
X112250000Y-110300000D01*
X96675000Y-51290000D02*
X96675000Y-59210000D01*
X98000000Y-51290000D02*
X96675000Y-51290000D01*
X96675000Y-59210000D02*
X99325000Y-59210000D01*
X99325000Y-59210000D02*
X99325000Y-52710000D01*
X84575000Y-69210000D02*
X84575000Y-61290000D01*
X81925000Y-61290000D02*
X81925000Y-67790000D01*
X83250000Y-69210000D02*
X84575000Y-69210000D01*
X84575000Y-61290000D02*
X81925000Y-61290000D01*
D15*
X173870000Y-75950000D02*
X175200000Y-75950000D01*
X172600000Y-78610000D02*
X91260000Y-78610000D01*
X172600000Y-75950000D02*
X172600000Y-78610000D01*
X175200000Y-75950000D02*
X175200000Y-77280000D01*
X91260000Y-75950000D02*
X91260000Y-78610000D01*
X172600000Y-75950000D02*
X91260000Y-75950000D01*
D14*
X148500000Y-92700000D02*
X148500000Y-93300000D01*
X130700000Y-118600000D02*
X125800000Y-118600000D01*
X125800000Y-118600000D02*
X125800000Y-115400000D01*
X130700000Y-115400000D02*
X130700000Y-118600000D01*
X125670000Y-120475000D02*
X125670000Y-118950000D01*
X125800000Y-115400000D02*
X130700000Y-115400000D01*
X109250000Y-120700000D02*
X109250000Y-121300000D01*
X146950000Y-112500000D02*
X147550000Y-112500000D01*
D15*
X173870000Y-136910000D02*
X175200000Y-136910000D01*
X172600000Y-136910000D02*
X172600000Y-139570000D01*
X91260000Y-136910000D02*
X91260000Y-139570000D01*
X175200000Y-136910000D02*
X175200000Y-138240000D01*
X172600000Y-139570000D02*
X91260000Y-139570000D01*
X172600000Y-136910000D02*
X91260000Y-136910000D01*
D14*
X141750000Y-116450000D02*
X141750000Y-117050000D01*
X162250000Y-116475000D02*
X162250000Y-117525000D01*
X125025000Y-61330000D02*
X126370000Y-61330000D01*
X125025000Y-51170000D02*
X125025000Y-61330000D01*
X175975000Y-61330000D02*
X175975000Y-51170000D01*
X97150000Y-96112000D02*
X102350000Y-96112000D01*
X102350000Y-93388000D02*
X96825000Y-93388000D01*
D15*
X172600000Y-126750000D02*
X172600000Y-129410000D01*
X175200000Y-129410000D02*
X173870000Y-129410000D01*
X91260000Y-126750000D02*
X91260000Y-129410000D01*
X172600000Y-126750000D02*
X91260000Y-126750000D01*
X175200000Y-128080000D02*
X175200000Y-129410000D01*
X172600000Y-129410000D02*
X91260000Y-129410000D01*
D14*
X92250000Y-59170000D02*
X93575000Y-59170000D01*
X93575000Y-51250000D02*
X90925000Y-51250000D01*
X93575000Y-59170000D02*
X93575000Y-51250000D01*
X90925000Y-51250000D02*
X90925000Y-57750000D01*
X93000000Y-110550000D02*
X93000000Y-111950000D01*
D15*
X95630000Y-100800000D02*
X95630000Y-101940000D01*
X91140000Y-104660000D02*
X91140000Y-101940000D01*
X95860000Y-101940000D02*
X95630000Y-101940000D01*
X95860000Y-101940000D02*
X95860000Y-104660000D01*
X91140000Y-101940000D02*
X91370000Y-101940000D01*
X92450000Y-104660000D02*
X91140000Y-104660000D01*
X95860000Y-104660000D02*
X94550000Y-104660000D01*
D14*
X134760000Y-69000000D02*
X134760000Y-70325000D01*
X140240000Y-67675000D02*
X136230000Y-67675000D01*
X134760000Y-70325000D02*
X140240000Y-70325000D01*
X140240000Y-70325000D02*
X140240000Y-67675000D01*
X136210000Y-71925000D02*
X128290000Y-71925000D01*
X128290000Y-71925000D02*
X128290000Y-74575000D01*
X128290000Y-74575000D02*
X134790000Y-74575000D01*
X136210000Y-73250000D02*
X136210000Y-71925000D01*
X136000000Y-90950000D02*
X136000000Y-91550000D01*
X113500000Y-107450000D02*
X113500000Y-108050000D01*
X133525000Y-101670000D02*
X135050000Y-101670000D01*
X138600000Y-101800000D02*
X138600000Y-106700000D01*
X135400000Y-106700000D02*
X135400000Y-101800000D01*
X138600000Y-106700000D02*
X135400000Y-106700000D01*
X135400000Y-101800000D02*
X138600000Y-101800000D01*
X129500000Y-105550000D02*
X129500000Y-104950000D01*
X99700000Y-114575000D02*
X102000000Y-114575000D01*
X99700000Y-112925000D02*
X99700000Y-114575000D01*
X102000000Y-112925000D02*
X99700000Y-112925000D01*
X103050000Y-121575000D02*
X103050000Y-119925000D01*
X100750000Y-121575000D02*
X103050000Y-121575000D01*
X103050000Y-119925000D02*
X100750000Y-119925000D01*
X152100000Y-94250000D02*
G75*
G03*
X152100000Y-94250000I-100000J0D01*
G01*
%LPC*%
D16*
X129480000Y-69000000D03*
D17*
X132020000Y-69000000D03*
D18*
X128500000Y-99210000D03*
X128500000Y-97790000D03*
D19*
X118860000Y-92250000D03*
X121640000Y-92250000D03*
D20*
X160000000Y-113550000D03*
X160000000Y-111950000D03*
D16*
X83250000Y-52750000D03*
D17*
X83250000Y-55290000D03*
D21*
X124212000Y-104905000D03*
X124212000Y-103635000D03*
X124212000Y-102365000D03*
X124212000Y-101095000D03*
X118788000Y-101095000D03*
X118788000Y-102365000D03*
X118788000Y-103635000D03*
X118788000Y-104905000D03*
D22*
X121500000Y-103000000D03*
D23*
X110200000Y-93000000D03*
X111800000Y-93000000D03*
X163950000Y-93250000D03*
X165550000Y-93250000D03*
X131450000Y-99000000D03*
X133050000Y-99000000D03*
D24*
X140290000Y-112500000D03*
X141710000Y-112500000D03*
D25*
X147538000Y-102095000D03*
X147538000Y-103365000D03*
X147538000Y-104635000D03*
X147538000Y-105905000D03*
X152962000Y-105905000D03*
X152962000Y-104635000D03*
X152962000Y-103365000D03*
X152962000Y-102095000D03*
D26*
X175440000Y-108300000D03*
X175440000Y-107650000D03*
X175440000Y-107000000D03*
X175440000Y-106350000D03*
X175440000Y-105700000D03*
D27*
X175800000Y-104547500D03*
X175800000Y-109452500D03*
D28*
X178100000Y-107837500D03*
X178100000Y-106162500D03*
D29*
X178100000Y-109912500D03*
X178100000Y-104087500D03*
D30*
X107500000Y-102700000D03*
X107500000Y-100800000D03*
X105000000Y-101750000D03*
D23*
X118200000Y-122500000D03*
X119800000Y-122500000D03*
D31*
X98750000Y-101600000D03*
X98750000Y-105900000D03*
D19*
X116110000Y-116250000D03*
X118890000Y-116250000D03*
D16*
X122500000Y-70770000D03*
D17*
X122500000Y-68230000D03*
D32*
X173870000Y-87440000D03*
D33*
X171330000Y-87440000D03*
X168790000Y-87440000D03*
X166250000Y-87440000D03*
X163710000Y-87440000D03*
X161170000Y-87440000D03*
X158630000Y-87440000D03*
X156090000Y-87440000D03*
X153550000Y-87440000D03*
X151010000Y-87440000D03*
X148470000Y-87440000D03*
X145930000Y-87440000D03*
X143390000Y-87440000D03*
X140850000Y-87440000D03*
X138310000Y-87440000D03*
X135770000Y-87440000D03*
X133230000Y-87440000D03*
X130690000Y-87440000D03*
X128150000Y-87440000D03*
X125610000Y-87440000D03*
X123070000Y-87440000D03*
X120530000Y-87440000D03*
X117990000Y-87440000D03*
X115450000Y-87440000D03*
X112910000Y-87440000D03*
X110370000Y-87440000D03*
X107830000Y-87440000D03*
X105290000Y-87440000D03*
X102750000Y-87440000D03*
X100210000Y-87440000D03*
X97670000Y-87440000D03*
X95130000Y-87440000D03*
X92590000Y-87440000D03*
D34*
X135250000Y-115500000D03*
X136750000Y-115500000D03*
D19*
X113640000Y-111000000D03*
X110860000Y-111000000D03*
D16*
X98000000Y-52710000D03*
D17*
X98000000Y-55250000D03*
X98000000Y-57790000D03*
D24*
X127710000Y-64500000D03*
X126290000Y-64500000D03*
D16*
X83250000Y-67790000D03*
D17*
X83250000Y-65250000D03*
X83250000Y-62710000D03*
D32*
X173870000Y-77280000D03*
D33*
X171330000Y-77280000D03*
X168790000Y-77280000D03*
X166250000Y-77280000D03*
X163710000Y-77280000D03*
X161170000Y-77280000D03*
X158630000Y-77280000D03*
X156090000Y-77280000D03*
X153550000Y-77280000D03*
X151010000Y-77280000D03*
X148470000Y-77280000D03*
X145930000Y-77280000D03*
X143390000Y-77280000D03*
X140850000Y-77280000D03*
X138310000Y-77280000D03*
X135770000Y-77280000D03*
X133230000Y-77280000D03*
X130690000Y-77280000D03*
X128150000Y-77280000D03*
X125610000Y-77280000D03*
X123070000Y-77280000D03*
X120530000Y-77280000D03*
X117990000Y-77280000D03*
X115450000Y-77280000D03*
X112910000Y-77280000D03*
X110370000Y-77280000D03*
X107830000Y-77280000D03*
X105290000Y-77280000D03*
X102750000Y-77280000D03*
X100210000Y-77280000D03*
X97670000Y-77280000D03*
X95130000Y-77280000D03*
X92590000Y-77280000D03*
D24*
X142040000Y-94000000D03*
X143460000Y-94000000D03*
D35*
X159700000Y-107750000D03*
X160800000Y-107750000D03*
D23*
X147700000Y-93000000D03*
X149300000Y-93000000D03*
D36*
X126345000Y-119712000D03*
X127615000Y-119712000D03*
X128885000Y-119712000D03*
X130155000Y-119712000D03*
X130155000Y-114288000D03*
X128885000Y-114288000D03*
X127615000Y-114288000D03*
X126345000Y-114288000D03*
D23*
X108450000Y-121000000D03*
X110050000Y-121000000D03*
D24*
X148290000Y-73000000D03*
X149710000Y-73000000D03*
D20*
X147250000Y-113300000D03*
X147250000Y-111700000D03*
D32*
X173870000Y-138240000D03*
D33*
X171330000Y-138240000D03*
X168790000Y-138240000D03*
X166250000Y-138240000D03*
X163710000Y-138240000D03*
X161170000Y-138240000D03*
X158630000Y-138240000D03*
X156090000Y-138240000D03*
X153550000Y-138240000D03*
X151010000Y-138240000D03*
X148470000Y-138240000D03*
X145930000Y-138240000D03*
X143390000Y-138240000D03*
X140850000Y-138240000D03*
X138310000Y-138240000D03*
X135770000Y-138240000D03*
X133230000Y-138240000D03*
X130690000Y-138240000D03*
X128150000Y-138240000D03*
X125610000Y-138240000D03*
X123070000Y-138240000D03*
X120530000Y-138240000D03*
X117990000Y-138240000D03*
X115450000Y-138240000D03*
X112910000Y-138240000D03*
X110370000Y-138240000D03*
X107830000Y-138240000D03*
X105290000Y-138240000D03*
X102750000Y-138240000D03*
X100210000Y-138240000D03*
X97670000Y-138240000D03*
X95130000Y-138240000D03*
X92590000Y-138240000D03*
D23*
X140950000Y-116750000D03*
X142550000Y-116750000D03*
D18*
X126000000Y-70170000D03*
X126000000Y-68750000D03*
D37*
X161430000Y-117000000D03*
X163070000Y-117000000D03*
D38*
X126370000Y-60060000D03*
D39*
X128910000Y-60060000D03*
X131450000Y-60060000D03*
X133990000Y-60060000D03*
X136530000Y-60060000D03*
X139070000Y-60060000D03*
X141610000Y-60060000D03*
X144150000Y-60060000D03*
X146690000Y-60060000D03*
X149230000Y-60060000D03*
X151770000Y-60060000D03*
X154310000Y-60060000D03*
X156850000Y-60060000D03*
X159390000Y-60060000D03*
X161930000Y-60060000D03*
X164470000Y-60060000D03*
X167010000Y-60060000D03*
X169550000Y-60060000D03*
X172090000Y-60060000D03*
X174630000Y-60060000D03*
X174630000Y-52440000D03*
X172090000Y-52440000D03*
X169550000Y-52440000D03*
X167010000Y-52440000D03*
X164470000Y-52440000D03*
X161930000Y-52440000D03*
X159390000Y-52440000D03*
X156850000Y-52440000D03*
X154310000Y-52440000D03*
X151770000Y-52440000D03*
X149230000Y-52440000D03*
X146690000Y-52440000D03*
X144150000Y-52440000D03*
X141610000Y-52440000D03*
X139070000Y-52440000D03*
X136530000Y-52440000D03*
X133990000Y-52440000D03*
X131450000Y-52440000D03*
X128910000Y-52440000D03*
X126370000Y-52440000D03*
D40*
X97600000Y-94750000D03*
X101900000Y-94750000D03*
D32*
X173870000Y-128080000D03*
D33*
X171330000Y-128080000D03*
X168790000Y-128080000D03*
X166250000Y-128080000D03*
X163710000Y-128080000D03*
X161170000Y-128080000D03*
X158630000Y-128080000D03*
X156090000Y-128080000D03*
X153550000Y-128080000D03*
X151010000Y-128080000D03*
X148470000Y-128080000D03*
X145930000Y-128080000D03*
X143390000Y-128080000D03*
X140850000Y-128080000D03*
X138310000Y-128080000D03*
X135770000Y-128080000D03*
X133230000Y-128080000D03*
X130690000Y-128080000D03*
X128150000Y-128080000D03*
X125610000Y-128080000D03*
X123070000Y-128080000D03*
X120530000Y-128080000D03*
X117990000Y-128080000D03*
X115450000Y-128080000D03*
X112910000Y-128080000D03*
X110370000Y-128080000D03*
X107830000Y-128080000D03*
X105290000Y-128080000D03*
X102750000Y-128080000D03*
X100210000Y-128080000D03*
X97670000Y-128080000D03*
X95130000Y-128080000D03*
X92590000Y-128080000D03*
D16*
X92250000Y-57750000D03*
D17*
X92250000Y-55210000D03*
X92250000Y-52670000D03*
D19*
X91610000Y-111250000D03*
X94390000Y-111250000D03*
D41*
X95000000Y-101350000D03*
D42*
X93500000Y-101437500D03*
D41*
X92000000Y-101350000D03*
D16*
X136230000Y-69000000D03*
D17*
X138770000Y-69000000D03*
D16*
X134790000Y-73250000D03*
D17*
X132250000Y-73250000D03*
X129710000Y-73250000D03*
D24*
X133540000Y-123250000D03*
X134960000Y-123250000D03*
D23*
X135200000Y-91250000D03*
X136800000Y-91250000D03*
X112700000Y-107750000D03*
X114300000Y-107750000D03*
D25*
X134288000Y-102345000D03*
X134288000Y-103615000D03*
X134288000Y-104885000D03*
X134288000Y-106155000D03*
X139712000Y-106155000D03*
X139712000Y-104885000D03*
X139712000Y-103615000D03*
X139712000Y-102345000D03*
D23*
X130300000Y-105250000D03*
X128700000Y-105250000D03*
X100500000Y-113750000D03*
X102000000Y-113750000D03*
D35*
X155200000Y-73000000D03*
X156300000Y-73000000D03*
D24*
X154040000Y-122750000D03*
X155460000Y-122750000D03*
D23*
X102250000Y-120750000D03*
X100750000Y-120750000D03*
D34*
X153000000Y-94250000D03*
X154500000Y-94250000D03*
M02*
