G04 #@! TF.GenerationSoftware,KiCad,Pcbnew,(6.0.2)*
G04 #@! TF.CreationDate,2022-04-16T20:00:21+02:00*
G04 #@! TF.ProjectId,main,6d61696e-2e6b-4696-9361-645f70636258,rev?*
G04 #@! TF.SameCoordinates,Original*
G04 #@! TF.FileFunction,Paste,Top*
G04 #@! TF.FilePolarity,Positive*
%FSLAX46Y46*%
G04 Gerber Fmt 4.6, Leading zero omitted, Abs format (unit mm)*
G04 Created by KiCad (PCBNEW (6.0.2)) date 2022-04-16 20:00:21*
%MOMM*%
%LPD*%
G01*
G04 APERTURE LIST*
%ADD10R,0.800000X0.800000*%
%ADD11R,0.450000X0.600000*%
%ADD12R,0.940000X0.730000*%
%ADD13R,0.980000X0.760000*%
%ADD14R,1.800000X3.400000*%
%ADD15R,0.700000X0.600000*%
%ADD16R,0.730000X0.940000*%
%ADD17R,0.950000X0.800000*%
%ADD18R,1.400000X0.600000*%
%ADD19R,0.650000X1.525000*%
%ADD20R,1.250000X0.650000*%
%ADD21R,0.435000X1.526000*%
%ADD22R,3.400000X1.800000*%
%ADD23R,0.750000X0.600000*%
%ADD24R,1.525000X0.650000*%
%ADD25R,0.800000X0.950000*%
%ADD26R,0.900000X0.950000*%
%ADD27R,0.900000X1.000000*%
%ADD28R,0.600000X0.450000*%
%ADD29R,0.950000X1.400000*%
%ADD30R,1.380000X0.450000*%
%ADD31R,2.100000X1.475000*%
%ADD32R,1.900000X1.175000*%
%ADD33R,1.900000X2.375000*%
G04 APERTURE END LIST*
D10*
X98870000Y-128205000D03*
X100370000Y-128205000D03*
D11*
X132620000Y-117655000D03*
X132620000Y-119755000D03*
D12*
X145620000Y-119915000D03*
X145620000Y-118495000D03*
X145620000Y-114915000D03*
X145620000Y-113495000D03*
D13*
X140120000Y-110995000D03*
X140120000Y-112415000D03*
D14*
X131120000Y-112205000D03*
D15*
X138070000Y-121705000D03*
X139170000Y-121705000D03*
D16*
X139540000Y-127705000D03*
X138120000Y-127705000D03*
D17*
X179620000Y-124005000D03*
X179620000Y-122405000D03*
D18*
X134750000Y-111050000D03*
X134750000Y-112000000D03*
X134750000Y-112950000D03*
X137250000Y-112950000D03*
X137250000Y-111050000D03*
D19*
X159715000Y-118417000D03*
X160985000Y-118417000D03*
X162255000Y-118417000D03*
X163525000Y-118417000D03*
X163525000Y-112993000D03*
X162255000Y-112993000D03*
X160985000Y-112993000D03*
X159715000Y-112993000D03*
D20*
X116570000Y-102755000D03*
X116570000Y-104655000D03*
X118670000Y-103705000D03*
D21*
X112398000Y-129917000D03*
X113032000Y-129917000D03*
X113668000Y-129917000D03*
X114302000Y-129917000D03*
X114938000Y-129917000D03*
X115572000Y-129917000D03*
X116208000Y-129917000D03*
X116842000Y-129917000D03*
X116842000Y-124493000D03*
X116208000Y-124493000D03*
X115572000Y-124493000D03*
X114938000Y-124493000D03*
X114302000Y-124493000D03*
X113668000Y-124493000D03*
X113032000Y-124493000D03*
X112398000Y-124493000D03*
D22*
X161970000Y-100350000D03*
D16*
X124290000Y-125000000D03*
X125710000Y-125000000D03*
D23*
X152270000Y-129705000D03*
X153370000Y-129705000D03*
D17*
X142120000Y-117005000D03*
X142120000Y-115405000D03*
D16*
X156540000Y-100705000D03*
X155120000Y-100705000D03*
D22*
X131020000Y-100350000D03*
D24*
X171908000Y-100300000D03*
X171908000Y-101570000D03*
X171908000Y-102840000D03*
X171908000Y-104110000D03*
X177332000Y-104110000D03*
X177332000Y-102840000D03*
X177332000Y-101570000D03*
X177332000Y-100300000D03*
D16*
X163410000Y-107705000D03*
X164830000Y-107705000D03*
D22*
X152000000Y-106900000D03*
D10*
X98870000Y-125205000D03*
X100370000Y-125205000D03*
D12*
X125000000Y-119290000D03*
X125000000Y-120710000D03*
D17*
X168620000Y-110505000D03*
X168620000Y-108905000D03*
D16*
X163410000Y-105205000D03*
X164830000Y-105205000D03*
D25*
X113320000Y-118205000D03*
X114920000Y-118205000D03*
D22*
X144120000Y-126405000D03*
D25*
X148345000Y-125155000D03*
X149945000Y-125155000D03*
D22*
X105000000Y-131000000D03*
D26*
X106370000Y-106705000D03*
X107870000Y-106705000D03*
D16*
X173410000Y-123205000D03*
X174830000Y-123205000D03*
D22*
X144120000Y-129205000D03*
D25*
X157200000Y-127000000D03*
X158800000Y-127000000D03*
D14*
X128320000Y-112315000D03*
D25*
X166320000Y-125205000D03*
X167920000Y-125205000D03*
D23*
X173170000Y-130205000D03*
X172070000Y-130205000D03*
D16*
X177410000Y-128705000D03*
X178830000Y-128705000D03*
D27*
X134445000Y-100225000D03*
X136045000Y-100225000D03*
D16*
X139620000Y-106000000D03*
X141040000Y-106000000D03*
D25*
X153620000Y-104205000D03*
X155220000Y-104205000D03*
D17*
X169120000Y-122005000D03*
X169120000Y-120405000D03*
D25*
X171820000Y-118205000D03*
X173420000Y-118205000D03*
D22*
X116650000Y-112130000D03*
D28*
X109570000Y-99705000D03*
X111670000Y-99705000D03*
D25*
X160865000Y-129205000D03*
X162465000Y-129205000D03*
D16*
X170910000Y-125705000D03*
X172330000Y-125705000D03*
D24*
X143908000Y-97800000D03*
X143908000Y-99070000D03*
X143908000Y-100340000D03*
X143908000Y-101610000D03*
X149332000Y-101610000D03*
X149332000Y-100340000D03*
X149332000Y-99070000D03*
X149332000Y-97800000D03*
D29*
X108170000Y-117525000D03*
X110070000Y-117525000D03*
D13*
X151120000Y-112915000D03*
X151120000Y-111495000D03*
X110620000Y-122125000D03*
X110620000Y-120705000D03*
D30*
X184840000Y-113212500D03*
X184840000Y-112562500D03*
X184840000Y-111912500D03*
X184840000Y-111262500D03*
X184840000Y-110612500D03*
D31*
X185200000Y-109460000D03*
X185200000Y-114365000D03*
D32*
X187500000Y-112750000D03*
X187500000Y-111075000D03*
D33*
X187500000Y-114825000D03*
X187500000Y-109000000D03*
M02*
