%FSLAX45Y45*%
G04 Gerber Fmt 4.5, Leading zero omitted, Abs format (unit mm)*
G04 Created by KiCad (PCBNEW (6.0.2)) date 2022-04-16 20:03:41*
%MOMM*%
%LPD*%
G01*
G04 APERTURE LIST*
%TA.AperFunction,Profile*%
%ADD10C,0.100000*%
%TD*%
%ADD11C,0.200000*%
%ADD12C,0.040000*%
%ADD13C,0.100000*%
%ADD14C,0.110000*%
%ADD15C,0.128000*%
G04 APERTURE END LIST*
D10*
X18700000Y-7800000D02*
X9300000Y-7800000D01*
X18700000Y-15100000D02*
X9300000Y-15100000D01*
X18800000Y-15100000D02*
X18700000Y-15100000D01*
X9300000Y-7800000D02*
X9300000Y-15100000D01*
X18800000Y-7800000D02*
X19000000Y-7800000D01*
X18800000Y-7800000D02*
X18700000Y-7800000D01*
X18800000Y-15100000D02*
X19000000Y-15100000D01*
X19000000Y-7800000D02*
X19000000Y-15100000D01*
D11*
D12*
X9880000Y-10080000D02*
X9920000Y-10120000D01*
X9920000Y-10080000D02*
X9880000Y-10120000D01*
X9980000Y-12180000D02*
X10020000Y-12220000D01*
X10020000Y-12180000D02*
X9980000Y-12220000D01*
X10380000Y-12380000D02*
X10420000Y-12420000D01*
X10420000Y-12380000D02*
X10380000Y-12420000D01*
X10480000Y-12580000D02*
X10520000Y-12620000D01*
X10520000Y-12580000D02*
X10480000Y-12620000D01*
X10980000Y-10280000D02*
X11020000Y-10320000D01*
X11020000Y-10280000D02*
X10980000Y-10320000D01*
X10980000Y-10580000D02*
X11020000Y-10620000D01*
X11020000Y-10580000D02*
X10980000Y-10620000D01*
X10980000Y-12680000D02*
X11020000Y-12720000D01*
X11020000Y-12680000D02*
X10980000Y-12720000D01*
X11077002Y-11282998D02*
X11117002Y-11322998D01*
X11117002Y-11282998D02*
X11077002Y-11322998D01*
X11280000Y-10280000D02*
X11320000Y-10320000D01*
X11320000Y-10280000D02*
X11280000Y-10320000D01*
X11280000Y-12080000D02*
X11320000Y-12120000D01*
X11320000Y-12080000D02*
X11280000Y-12120000D01*
X11380000Y-12280000D02*
X11420000Y-12320000D01*
X11420000Y-12280000D02*
X11380000Y-12320000D01*
X11380000Y-12580000D02*
X11420000Y-12620000D01*
X11420000Y-12580000D02*
X11380000Y-12620000D01*
X11478770Y-12078770D02*
X11518770Y-12118770D01*
X11518770Y-12078770D02*
X11478770Y-12118770D01*
X11480000Y-11880000D02*
X11520000Y-11920000D01*
X11520000Y-11880000D02*
X11480000Y-11920000D01*
X11581230Y-11478770D02*
X11621230Y-11518770D01*
X11621230Y-11478770D02*
X11581230Y-11518770D01*
X11664819Y-12295181D02*
X11704819Y-12335181D01*
X11704819Y-12295181D02*
X11664819Y-12335181D01*
X11680000Y-12180000D02*
X11720000Y-12220000D01*
X11720000Y-12180000D02*
X11680000Y-12220000D01*
X11720000Y-12852450D02*
X11760000Y-12892450D01*
X11760000Y-12852450D02*
X11720000Y-12892450D01*
X11878770Y-12281230D02*
X11918770Y-12321230D01*
X11918770Y-12281230D02*
X11878770Y-12321230D01*
X11880000Y-11880000D02*
X11920000Y-11920000D01*
X11920000Y-11880000D02*
X11880000Y-11920000D01*
X11880000Y-12780000D02*
X11920000Y-12820000D01*
X11920000Y-12780000D02*
X11880000Y-12820000D01*
X11980000Y-11180000D02*
X12020000Y-11220000D01*
X12020000Y-11180000D02*
X11980000Y-11220000D01*
X11980000Y-12380000D02*
X12020000Y-12420000D01*
X12020000Y-12380000D02*
X11980000Y-12420000D01*
X12080000Y-11380000D02*
X12120000Y-11420000D01*
X12120000Y-11380000D02*
X12080000Y-11420000D01*
X12081230Y-12578770D02*
X12121230Y-12618770D01*
X12121230Y-12578770D02*
X12081230Y-12618770D01*
X12280000Y-11480000D02*
X12320000Y-11520000D01*
X12320000Y-11480000D02*
X12280000Y-11520000D01*
X12280000Y-12822950D02*
X12320000Y-12862950D01*
X12320000Y-12822950D02*
X12280000Y-12862950D01*
X12380000Y-11780000D02*
X12420000Y-11820000D01*
X12420000Y-11780000D02*
X12380000Y-11820000D01*
X12380000Y-12580000D02*
X12420000Y-12620000D01*
X12420000Y-12580000D02*
X12380000Y-12620000D01*
X12580000Y-11280000D02*
X12620000Y-11320000D01*
X12620000Y-11280000D02*
X12580000Y-11320000D01*
X12580000Y-12208780D02*
X12620000Y-12248780D01*
X12620000Y-12208780D02*
X12580000Y-12248780D01*
X12581230Y-11081230D02*
X12621230Y-11121230D01*
X12621230Y-11081230D02*
X12581230Y-11121230D01*
X12680000Y-11680000D02*
X12720000Y-11720000D01*
X12720000Y-11680000D02*
X12680000Y-11720000D01*
X12680000Y-12380000D02*
X12720000Y-12420000D01*
X12720000Y-12380000D02*
X12680000Y-12420000D01*
X12769550Y-11880000D02*
X12809550Y-11920000D01*
X12809550Y-11880000D02*
X12769550Y-11920000D01*
X12969269Y-12897974D02*
X13009269Y-12937974D01*
X13009269Y-12897974D02*
X12969269Y-12937974D01*
X12980000Y-11680000D02*
X13020000Y-11720000D01*
X13020000Y-11680000D02*
X12980000Y-11720000D01*
X13080000Y-10180000D02*
X13120000Y-10220000D01*
X13120000Y-10180000D02*
X13080000Y-10220000D01*
X13080000Y-10480000D02*
X13120000Y-10520000D01*
X13120000Y-10480000D02*
X13080000Y-10520000D01*
X13151319Y-10851319D02*
X13191319Y-10891319D01*
X13191319Y-10851319D02*
X13151319Y-10891319D01*
X13280000Y-11280000D02*
X13320000Y-11320000D01*
X13320000Y-11280000D02*
X13280000Y-11320000D01*
X13288148Y-10923769D02*
X13328148Y-10963769D01*
X13328148Y-10923769D02*
X13288148Y-10963769D01*
X13352450Y-11180000D02*
X13392450Y-11220000D01*
X13392450Y-11180000D02*
X13352450Y-11220000D01*
X13380000Y-10880000D02*
X13420000Y-10920000D01*
X13420000Y-10880000D02*
X13380000Y-10920000D01*
X13480000Y-10880000D02*
X13520000Y-10920000D01*
X13520000Y-10880000D02*
X13480000Y-10920000D01*
X13480000Y-12480000D02*
X13520000Y-12520000D01*
X13520000Y-12480000D02*
X13480000Y-12520000D01*
X13503551Y-10989506D02*
X13543551Y-11029506D01*
X13543551Y-10989506D02*
X13503551Y-11029506D01*
X13578770Y-12781230D02*
X13618770Y-12821230D01*
X13618770Y-12781230D02*
X13578770Y-12821230D01*
X13580000Y-11330501D02*
X13620000Y-11370501D01*
X13620000Y-11330501D02*
X13580000Y-11370501D01*
X13580000Y-11480000D02*
X13620000Y-11520000D01*
X13620000Y-11480000D02*
X13580000Y-11520000D01*
X13678770Y-12881230D02*
X13718770Y-12921230D01*
X13718770Y-12881230D02*
X13678770Y-12921230D01*
X13680000Y-10880000D02*
X13720000Y-10920000D01*
X13720000Y-10880000D02*
X13680000Y-10920000D01*
X13681230Y-12678770D02*
X13721230Y-12718770D01*
X13721230Y-12678770D02*
X13681230Y-12718770D01*
X13707550Y-10580000D02*
X13747550Y-10620000D01*
X13747550Y-10580000D02*
X13707550Y-10620000D01*
X13707550Y-10780000D02*
X13747550Y-10820000D01*
X13747550Y-10780000D02*
X13707550Y-10820000D01*
X13731230Y-11528770D02*
X13771230Y-11568770D01*
X13771230Y-11528770D02*
X13731230Y-11568770D01*
X13766520Y-11330501D02*
X13806520Y-11370501D01*
X13806520Y-11330501D02*
X13766520Y-11370501D01*
X13780000Y-10480000D02*
X13820000Y-10520000D01*
X13820000Y-10480000D02*
X13780000Y-10520000D01*
X13791540Y-10267080D02*
X13831540Y-10307080D01*
X13831540Y-10267080D02*
X13791540Y-10307080D01*
X13880000Y-10780000D02*
X13920000Y-10820000D01*
X13920000Y-10780000D02*
X13880000Y-10820000D01*
X13880000Y-11480000D02*
X13920000Y-11520000D01*
X13920000Y-11480000D02*
X13880000Y-11520000D01*
X13897000Y-12150500D02*
X13937000Y-12190500D01*
X13937000Y-12150500D02*
X13897000Y-12190500D01*
X13978770Y-12278770D02*
X14018770Y-12318770D01*
X14018770Y-12278770D02*
X13978770Y-12318770D01*
X14080000Y-10780000D02*
X14120000Y-10820000D01*
X14120000Y-10780000D02*
X14080000Y-10820000D01*
X14080000Y-11052450D02*
X14120000Y-11092450D01*
X14120000Y-11052450D02*
X14080000Y-11092450D01*
X14080000Y-11380000D02*
X14120000Y-11420000D01*
X14120000Y-11380000D02*
X14080000Y-11420000D01*
X14084000Y-10580000D02*
X14124000Y-10620000D01*
X14124000Y-10580000D02*
X14084000Y-10620000D01*
X14180000Y-11780000D02*
X14220000Y-11820000D01*
X14220000Y-11780000D02*
X14180000Y-11820000D01*
X14280000Y-11080000D02*
X14320000Y-11120000D01*
X14320000Y-11080000D02*
X14280000Y-11120000D01*
X14480000Y-11080000D02*
X14520000Y-11120000D01*
X14520000Y-11080000D02*
X14480000Y-11120000D01*
X14542000Y-11829500D02*
X14582000Y-11869500D01*
X14582000Y-11829500D02*
X14542000Y-11869500D01*
X14578770Y-11081230D02*
X14618770Y-11121230D01*
X14618770Y-11081230D02*
X14578770Y-11121230D01*
X14780000Y-10880000D02*
X14820000Y-10920000D01*
X14820000Y-10880000D02*
X14780000Y-10920000D01*
X14880000Y-10307550D02*
X14920000Y-10347550D01*
X14920000Y-10307550D02*
X14880000Y-10347550D01*
X14980000Y-10580000D02*
X15020000Y-10620000D01*
X15020000Y-10580000D02*
X14980000Y-10620000D01*
X15080000Y-11480000D02*
X15120000Y-11520000D01*
X15120000Y-11480000D02*
X15080000Y-11520000D01*
X15080000Y-12780000D02*
X15120000Y-12820000D01*
X15120000Y-12780000D02*
X15080000Y-12820000D01*
X15180000Y-12280000D02*
X15220000Y-12320000D01*
X15220000Y-12280000D02*
X15180000Y-12320000D01*
X15180000Y-12580000D02*
X15220000Y-12620000D01*
X15220000Y-12580000D02*
X15180000Y-12620000D01*
X15181230Y-10181230D02*
X15221230Y-10221230D01*
X15221230Y-10181230D02*
X15181230Y-10221230D01*
X15200000Y-11052450D02*
X15240000Y-11092450D01*
X15240000Y-11052450D02*
X15200000Y-11092450D01*
X15280000Y-9880000D02*
X15320000Y-9920000D01*
X15320000Y-9880000D02*
X15280000Y-9920000D01*
X15480000Y-10180000D02*
X15520000Y-10220000D01*
X15520000Y-10180000D02*
X15480000Y-10220000D01*
X15480000Y-12180000D02*
X15520000Y-12220000D01*
X15520000Y-12180000D02*
X15480000Y-12220000D01*
X15480000Y-12380000D02*
X15520000Y-12420000D01*
X15520000Y-12380000D02*
X15480000Y-12420000D01*
X15580000Y-9780000D02*
X15620000Y-9820000D01*
X15620000Y-9780000D02*
X15580000Y-9820000D01*
X15680000Y-11180000D02*
X15720000Y-11220000D01*
X15720000Y-11180000D02*
X15680000Y-11220000D01*
X15778770Y-12481230D02*
X15818770Y-12521230D01*
X15818770Y-12481230D02*
X15778770Y-12521230D01*
X15880000Y-9680000D02*
X15920000Y-9720000D01*
X15920000Y-9680000D02*
X15880000Y-9720000D01*
X15880000Y-9880000D02*
X15920000Y-9920000D01*
X15920000Y-9880000D02*
X15880000Y-9920000D01*
X15880000Y-12280000D02*
X15920000Y-12320000D01*
X15920000Y-12280000D02*
X15880000Y-12320000D01*
X15980000Y-9780000D02*
X16020000Y-9820000D01*
X16020000Y-9780000D02*
X15980000Y-9820000D01*
X15980000Y-11415500D02*
X16020000Y-11455500D01*
X16020000Y-11415500D02*
X15980000Y-11455500D01*
X16280000Y-10980000D02*
X16320000Y-11020000D01*
X16320000Y-10980000D02*
X16280000Y-11020000D01*
X16280000Y-11680000D02*
X16320000Y-11720000D01*
X16320000Y-11680000D02*
X16280000Y-11720000D01*
X16380000Y-10280000D02*
X16420000Y-10320000D01*
X16420000Y-10280000D02*
X16380000Y-10320000D01*
X16380000Y-11980000D02*
X16420000Y-12020000D01*
X16420000Y-11980000D02*
X16380000Y-12020000D01*
X16392196Y-11267804D02*
X16432196Y-11307804D01*
X16432196Y-11267804D02*
X16392196Y-11307804D01*
X16407550Y-11780000D02*
X16447550Y-11820000D01*
X16447550Y-11780000D02*
X16407550Y-11820000D01*
X16407550Y-12080000D02*
X16447550Y-12120000D01*
X16447550Y-12080000D02*
X16407550Y-12120000D01*
X16480000Y-12180000D02*
X16520000Y-12220000D01*
X16520000Y-12180000D02*
X16480000Y-12220000D01*
X16480000Y-12380000D02*
X16520000Y-12420000D01*
X16520000Y-12380000D02*
X16480000Y-12420000D01*
X16480000Y-12680000D02*
X16520000Y-12720000D01*
X16520000Y-12680000D02*
X16480000Y-12720000D01*
X16580000Y-10380000D02*
X16620000Y-10420000D01*
X16620000Y-10380000D02*
X16580000Y-10420000D01*
X16580000Y-11980000D02*
X16620000Y-12020000D01*
X16620000Y-11980000D02*
X16580000Y-12020000D01*
X16580000Y-12180000D02*
X16620000Y-12220000D01*
X16620000Y-12180000D02*
X16580000Y-12220000D01*
X16580000Y-12380000D02*
X16620000Y-12420000D01*
X16620000Y-12380000D02*
X16580000Y-12420000D01*
X16580000Y-12880000D02*
X16620000Y-12920000D01*
X16620000Y-12880000D02*
X16580000Y-12920000D01*
X16624852Y-10924852D02*
X16664852Y-10964852D01*
X16664852Y-10924852D02*
X16624852Y-10964852D01*
X16652450Y-10680000D02*
X16692450Y-10720000D01*
X16692450Y-10680000D02*
X16652450Y-10720000D01*
X16652450Y-10680000D02*
X16692450Y-10720000D01*
X16692450Y-10680000D02*
X16652450Y-10720000D01*
X16724853Y-10824852D02*
X16764853Y-10864852D01*
X16764853Y-10824852D02*
X16724853Y-10864852D01*
X16769550Y-10681230D02*
X16809550Y-10721230D01*
X16809550Y-10681230D02*
X16769550Y-10721230D01*
X16780000Y-11480000D02*
X16820000Y-11520000D01*
X16820000Y-11480000D02*
X16780000Y-11520000D01*
X16780000Y-12080000D02*
X16820000Y-12120000D01*
X16820000Y-12080000D02*
X16780000Y-12120000D01*
X16831230Y-10528770D02*
X16871230Y-10568770D01*
X16871230Y-10528770D02*
X16831230Y-10568770D01*
X16880000Y-11180000D02*
X16920000Y-11220000D01*
X16920000Y-11180000D02*
X16880000Y-11220000D01*
X17180000Y-12710050D02*
X17220000Y-12750050D01*
X17220000Y-12710050D02*
X17180000Y-12750050D01*
X17187000Y-13000500D02*
X17227000Y-13040500D01*
X17227000Y-13000500D02*
X17187000Y-13040500D01*
X17248550Y-12480000D02*
X17288550Y-12520000D01*
X17288550Y-12480000D02*
X17248550Y-12520000D01*
X17380000Y-12680000D02*
X17420000Y-12720000D01*
X17420000Y-12680000D02*
X17380000Y-12720000D01*
X17380000Y-12980000D02*
X17420000Y-13020000D01*
X17420000Y-12980000D02*
X17380000Y-13020000D01*
X17480000Y-12480000D02*
X17520000Y-12520000D01*
X17520000Y-12480000D02*
X17480000Y-12520000D01*
X17580000Y-12480000D02*
X17620000Y-12520000D01*
X17620000Y-12480000D02*
X17580000Y-12520000D01*
X17680000Y-11380000D02*
X17720000Y-11420000D01*
X17720000Y-11380000D02*
X17680000Y-11420000D01*
X17680000Y-11680000D02*
X17720000Y-11720000D01*
X17720000Y-11680000D02*
X17680000Y-11720000D01*
X17680000Y-12680000D02*
X17720000Y-12720000D01*
X17720000Y-12680000D02*
X17680000Y-12720000D01*
X17680000Y-13180000D02*
X17720000Y-13220000D01*
X17720000Y-13180000D02*
X17680000Y-13220000D01*
X17780000Y-12980000D02*
X17820000Y-13020000D01*
X17820000Y-12980000D02*
X17780000Y-13020000D01*
X17880000Y-12080000D02*
X17920000Y-12120000D01*
X17920000Y-12080000D02*
X17880000Y-12120000D01*
X17980000Y-11380000D02*
X18020000Y-11420000D01*
X18020000Y-11380000D02*
X17980000Y-11420000D01*
D13*
X9916000Y-8384000D02*
G75*
G03*
X9916000Y-8384000I-50000J0D01*
G01*
X9916000Y-9400000D02*
G75*
G03*
X9916000Y-9400000I-50000J0D01*
G01*
X9916000Y-13464000D02*
G75*
G03*
X9916000Y-13464000I-50000J0D01*
G01*
X9916000Y-14480000D02*
G75*
G03*
X9916000Y-14480000I-50000J0D01*
G01*
X10170000Y-8384000D02*
G75*
G03*
X10170000Y-8384000I-50000J0D01*
G01*
X10170000Y-9400000D02*
G75*
G03*
X10170000Y-9400000I-50000J0D01*
G01*
X10170000Y-13464000D02*
G75*
G03*
X10170000Y-13464000I-50000J0D01*
G01*
X10170000Y-14480000D02*
G75*
G03*
X10170000Y-14480000I-50000J0D01*
G01*
X10424000Y-8384000D02*
G75*
G03*
X10424000Y-8384000I-50000J0D01*
G01*
X10424000Y-9400000D02*
G75*
G03*
X10424000Y-9400000I-50000J0D01*
G01*
X10424000Y-13464000D02*
G75*
G03*
X10424000Y-13464000I-50000J0D01*
G01*
X10424000Y-14480000D02*
G75*
G03*
X10424000Y-14480000I-50000J0D01*
G01*
X10678000Y-8384000D02*
G75*
G03*
X10678000Y-8384000I-50000J0D01*
G01*
X10678000Y-9400000D02*
G75*
G03*
X10678000Y-9400000I-50000J0D01*
G01*
X10678000Y-13464000D02*
G75*
G03*
X10678000Y-13464000I-50000J0D01*
G01*
X10678000Y-14480000D02*
G75*
G03*
X10678000Y-14480000I-50000J0D01*
G01*
X10932000Y-8384000D02*
G75*
G03*
X10932000Y-8384000I-50000J0D01*
G01*
X10932000Y-9400000D02*
G75*
G03*
X10932000Y-9400000I-50000J0D01*
G01*
X10932000Y-13464000D02*
G75*
G03*
X10932000Y-13464000I-50000J0D01*
G01*
X10932000Y-14480000D02*
G75*
G03*
X10932000Y-14480000I-50000J0D01*
G01*
X11186000Y-8384000D02*
G75*
G03*
X11186000Y-8384000I-50000J0D01*
G01*
X11186000Y-9400000D02*
G75*
G03*
X11186000Y-9400000I-50000J0D01*
G01*
X11186000Y-13464000D02*
G75*
G03*
X11186000Y-13464000I-50000J0D01*
G01*
X11186000Y-14480000D02*
G75*
G03*
X11186000Y-14480000I-50000J0D01*
G01*
X11440000Y-8384000D02*
G75*
G03*
X11440000Y-8384000I-50000J0D01*
G01*
X11440000Y-9400000D02*
G75*
G03*
X11440000Y-9400000I-50000J0D01*
G01*
X11440000Y-13464000D02*
G75*
G03*
X11440000Y-13464000I-50000J0D01*
G01*
X11440000Y-14480000D02*
G75*
G03*
X11440000Y-14480000I-50000J0D01*
G01*
X11694000Y-8384000D02*
G75*
G03*
X11694000Y-8384000I-50000J0D01*
G01*
X11694000Y-9400000D02*
G75*
G03*
X11694000Y-9400000I-50000J0D01*
G01*
X11694000Y-13464000D02*
G75*
G03*
X11694000Y-13464000I-50000J0D01*
G01*
X11694000Y-14480000D02*
G75*
G03*
X11694000Y-14480000I-50000J0D01*
G01*
X11948000Y-8384000D02*
G75*
G03*
X11948000Y-8384000I-50000J0D01*
G01*
X11948000Y-9400000D02*
G75*
G03*
X11948000Y-9400000I-50000J0D01*
G01*
X11948000Y-13464000D02*
G75*
G03*
X11948000Y-13464000I-50000J0D01*
G01*
X11948000Y-14480000D02*
G75*
G03*
X11948000Y-14480000I-50000J0D01*
G01*
X12202000Y-8384000D02*
G75*
G03*
X12202000Y-8384000I-50000J0D01*
G01*
X12202000Y-9400000D02*
G75*
G03*
X12202000Y-9400000I-50000J0D01*
G01*
X12202000Y-13464000D02*
G75*
G03*
X12202000Y-13464000I-50000J0D01*
G01*
X12202000Y-14480000D02*
G75*
G03*
X12202000Y-14480000I-50000J0D01*
G01*
X12456000Y-8384000D02*
G75*
G03*
X12456000Y-8384000I-50000J0D01*
G01*
X12456000Y-9400000D02*
G75*
G03*
X12456000Y-9400000I-50000J0D01*
G01*
X12456000Y-13464000D02*
G75*
G03*
X12456000Y-13464000I-50000J0D01*
G01*
X12456000Y-14480000D02*
G75*
G03*
X12456000Y-14480000I-50000J0D01*
G01*
X12710000Y-8384000D02*
G75*
G03*
X12710000Y-8384000I-50000J0D01*
G01*
X12710000Y-9400000D02*
G75*
G03*
X12710000Y-9400000I-50000J0D01*
G01*
X12710000Y-13464000D02*
G75*
G03*
X12710000Y-13464000I-50000J0D01*
G01*
X12710000Y-14480000D02*
G75*
G03*
X12710000Y-14480000I-50000J0D01*
G01*
X12964000Y-8384000D02*
G75*
G03*
X12964000Y-8384000I-50000J0D01*
G01*
X12964000Y-9400000D02*
G75*
G03*
X12964000Y-9400000I-50000J0D01*
G01*
X12964000Y-13464000D02*
G75*
G03*
X12964000Y-13464000I-50000J0D01*
G01*
X12964000Y-14480000D02*
G75*
G03*
X12964000Y-14480000I-50000J0D01*
G01*
X13218000Y-8384000D02*
G75*
G03*
X13218000Y-8384000I-50000J0D01*
G01*
X13218000Y-9400000D02*
G75*
G03*
X13218000Y-9400000I-50000J0D01*
G01*
X13218000Y-13464000D02*
G75*
G03*
X13218000Y-13464000I-50000J0D01*
G01*
X13218000Y-14480000D02*
G75*
G03*
X13218000Y-14480000I-50000J0D01*
G01*
X13472000Y-8384000D02*
G75*
G03*
X13472000Y-8384000I-50000J0D01*
G01*
X13472000Y-9400000D02*
G75*
G03*
X13472000Y-9400000I-50000J0D01*
G01*
X13472000Y-13464000D02*
G75*
G03*
X13472000Y-13464000I-50000J0D01*
G01*
X13472000Y-14480000D02*
G75*
G03*
X13472000Y-14480000I-50000J0D01*
G01*
X13726000Y-8384000D02*
G75*
G03*
X13726000Y-8384000I-50000J0D01*
G01*
X13726000Y-9400000D02*
G75*
G03*
X13726000Y-9400000I-50000J0D01*
G01*
X13726000Y-13464000D02*
G75*
G03*
X13726000Y-13464000I-50000J0D01*
G01*
X13726000Y-14480000D02*
G75*
G03*
X13726000Y-14480000I-50000J0D01*
G01*
X13980000Y-8384000D02*
G75*
G03*
X13980000Y-8384000I-50000J0D01*
G01*
X13980000Y-9400000D02*
G75*
G03*
X13980000Y-9400000I-50000J0D01*
G01*
X13980000Y-13464000D02*
G75*
G03*
X13980000Y-13464000I-50000J0D01*
G01*
X13980000Y-14480000D02*
G75*
G03*
X13980000Y-14480000I-50000J0D01*
G01*
X14234000Y-8384000D02*
G75*
G03*
X14234000Y-8384000I-50000J0D01*
G01*
X14234000Y-9400000D02*
G75*
G03*
X14234000Y-9400000I-50000J0D01*
G01*
X14234000Y-13464000D02*
G75*
G03*
X14234000Y-13464000I-50000J0D01*
G01*
X14234000Y-14480000D02*
G75*
G03*
X14234000Y-14480000I-50000J0D01*
G01*
X14488000Y-8384000D02*
G75*
G03*
X14488000Y-8384000I-50000J0D01*
G01*
X14488000Y-9400000D02*
G75*
G03*
X14488000Y-9400000I-50000J0D01*
G01*
X14488000Y-13464000D02*
G75*
G03*
X14488000Y-13464000I-50000J0D01*
G01*
X14488000Y-14480000D02*
G75*
G03*
X14488000Y-14480000I-50000J0D01*
G01*
X14742000Y-8384000D02*
G75*
G03*
X14742000Y-8384000I-50000J0D01*
G01*
X14742000Y-9400000D02*
G75*
G03*
X14742000Y-9400000I-50000J0D01*
G01*
X14742000Y-13464000D02*
G75*
G03*
X14742000Y-13464000I-50000J0D01*
G01*
X14742000Y-14480000D02*
G75*
G03*
X14742000Y-14480000I-50000J0D01*
G01*
X14996000Y-8384000D02*
G75*
G03*
X14996000Y-8384000I-50000J0D01*
G01*
X14996000Y-9400000D02*
G75*
G03*
X14996000Y-9400000I-50000J0D01*
G01*
X14996000Y-13464000D02*
G75*
G03*
X14996000Y-13464000I-50000J0D01*
G01*
X14996000Y-14480000D02*
G75*
G03*
X14996000Y-14480000I-50000J0D01*
G01*
X15250000Y-8384000D02*
G75*
G03*
X15250000Y-8384000I-50000J0D01*
G01*
X15250000Y-9400000D02*
G75*
G03*
X15250000Y-9400000I-50000J0D01*
G01*
X15250000Y-13464000D02*
G75*
G03*
X15250000Y-13464000I-50000J0D01*
G01*
X15250000Y-14480000D02*
G75*
G03*
X15250000Y-14480000I-50000J0D01*
G01*
X15504000Y-8384000D02*
G75*
G03*
X15504000Y-8384000I-50000J0D01*
G01*
X15504000Y-9400000D02*
G75*
G03*
X15504000Y-9400000I-50000J0D01*
G01*
X15504000Y-13464000D02*
G75*
G03*
X15504000Y-13464000I-50000J0D01*
G01*
X15504000Y-14480000D02*
G75*
G03*
X15504000Y-14480000I-50000J0D01*
G01*
X15758000Y-8384000D02*
G75*
G03*
X15758000Y-8384000I-50000J0D01*
G01*
X15758000Y-9400000D02*
G75*
G03*
X15758000Y-9400000I-50000J0D01*
G01*
X15758000Y-13464000D02*
G75*
G03*
X15758000Y-13464000I-50000J0D01*
G01*
X15758000Y-14480000D02*
G75*
G03*
X15758000Y-14480000I-50000J0D01*
G01*
X16012000Y-8384000D02*
G75*
G03*
X16012000Y-8384000I-50000J0D01*
G01*
X16012000Y-9400000D02*
G75*
G03*
X16012000Y-9400000I-50000J0D01*
G01*
X16012000Y-13464000D02*
G75*
G03*
X16012000Y-13464000I-50000J0D01*
G01*
X16012000Y-14480000D02*
G75*
G03*
X16012000Y-14480000I-50000J0D01*
G01*
X16266000Y-8384000D02*
G75*
G03*
X16266000Y-8384000I-50000J0D01*
G01*
X16266000Y-9400000D02*
G75*
G03*
X16266000Y-9400000I-50000J0D01*
G01*
X16266000Y-13464000D02*
G75*
G03*
X16266000Y-13464000I-50000J0D01*
G01*
X16266000Y-14480000D02*
G75*
G03*
X16266000Y-14480000I-50000J0D01*
G01*
X16520000Y-8384000D02*
G75*
G03*
X16520000Y-8384000I-50000J0D01*
G01*
X16520000Y-9400000D02*
G75*
G03*
X16520000Y-9400000I-50000J0D01*
G01*
X16520000Y-13464000D02*
G75*
G03*
X16520000Y-13464000I-50000J0D01*
G01*
X16520000Y-14480000D02*
G75*
G03*
X16520000Y-14480000I-50000J0D01*
G01*
X16774000Y-8384000D02*
G75*
G03*
X16774000Y-8384000I-50000J0D01*
G01*
X16774000Y-9400000D02*
G75*
G03*
X16774000Y-9400000I-50000J0D01*
G01*
X16774000Y-13464000D02*
G75*
G03*
X16774000Y-13464000I-50000J0D01*
G01*
X16774000Y-14480000D02*
G75*
G03*
X16774000Y-14480000I-50000J0D01*
G01*
X17028000Y-8384000D02*
G75*
G03*
X17028000Y-8384000I-50000J0D01*
G01*
X17028000Y-9400000D02*
G75*
G03*
X17028000Y-9400000I-50000J0D01*
G01*
X17028000Y-13464000D02*
G75*
G03*
X17028000Y-13464000I-50000J0D01*
G01*
X17028000Y-14480000D02*
G75*
G03*
X17028000Y-14480000I-50000J0D01*
G01*
X17282000Y-8384000D02*
G75*
G03*
X17282000Y-8384000I-50000J0D01*
G01*
X17282000Y-9400000D02*
G75*
G03*
X17282000Y-9400000I-50000J0D01*
G01*
X17282000Y-13464000D02*
G75*
G03*
X17282000Y-13464000I-50000J0D01*
G01*
X17282000Y-14480000D02*
G75*
G03*
X17282000Y-14480000I-50000J0D01*
G01*
X17536000Y-8384000D02*
G75*
G03*
X17536000Y-8384000I-50000J0D01*
G01*
X17536000Y-9400000D02*
G75*
G03*
X17536000Y-9400000I-50000J0D01*
G01*
X17536000Y-13464000D02*
G75*
G03*
X17536000Y-13464000I-50000J0D01*
G01*
X17536000Y-14480000D02*
G75*
G03*
X17536000Y-14480000I-50000J0D01*
G01*
X17790000Y-8384000D02*
G75*
G03*
X17790000Y-8384000I-50000J0D01*
G01*
X17790000Y-9400000D02*
G75*
G03*
X17790000Y-9400000I-50000J0D01*
G01*
X17790000Y-13464000D02*
G75*
G03*
X17790000Y-13464000I-50000J0D01*
G01*
X17790000Y-14480000D02*
G75*
G03*
X17790000Y-14480000I-50000J0D01*
G01*
X18044000Y-8384000D02*
G75*
G03*
X18044000Y-8384000I-50000J0D01*
G01*
X18044000Y-9400000D02*
G75*
G03*
X18044000Y-9400000I-50000J0D01*
G01*
X18044000Y-13464000D02*
G75*
G03*
X18044000Y-13464000I-50000J0D01*
G01*
X18044000Y-14480000D02*
G75*
G03*
X18044000Y-14480000I-50000J0D01*
G01*
D14*
X9854000Y-10315500D02*
X9854000Y-10425500D01*
X9799000Y-10370500D02*
X9909000Y-10370500D01*
X9862000Y-10915500D02*
X9862000Y-11025500D01*
X9807000Y-10970500D02*
X9917000Y-10970500D01*
X9908000Y-9815500D02*
X9908000Y-9925500D01*
X9853000Y-9870500D02*
X9963000Y-9870500D01*
X10108000Y-10315500D02*
X10108000Y-10425500D01*
X10053000Y-10370500D02*
X10163000Y-10370500D01*
X10116000Y-10915500D02*
X10116000Y-11025500D01*
X10061000Y-10970500D02*
X10171000Y-10970500D01*
X10162000Y-9815500D02*
X10162000Y-9925500D01*
X10107000Y-9870500D02*
X10217000Y-9870500D01*
X10362000Y-10315500D02*
X10362000Y-10425500D01*
X10307000Y-10370500D02*
X10417000Y-10370500D01*
X11221500Y-10768000D02*
X11221500Y-10878000D01*
X11166500Y-10823000D02*
X11276500Y-10823000D01*
X11475500Y-10768000D02*
X11475500Y-10878000D01*
X11420500Y-10823000D02*
X11530500Y-10823000D01*
X14501500Y-10705000D02*
X14501500Y-10815000D01*
X14446500Y-10760000D02*
X14556500Y-10760000D01*
X14755500Y-10705000D02*
X14755500Y-10815000D01*
X14700500Y-10760000D02*
X14810500Y-10760000D01*
D15*
X12653255Y-12815755D02*
X12653255Y-12725245D01*
X12562745Y-12725245D01*
X12562745Y-12815755D01*
X12653255Y-12815755D01*
X12907255Y-12815755D02*
X12907255Y-12725245D01*
X12816745Y-12725245D01*
X12816745Y-12815755D01*
X12907255Y-12815755D01*
X13161255Y-12815755D02*
X13161255Y-12725245D01*
X13070745Y-12725245D01*
X13070745Y-12815755D01*
X13161255Y-12815755D01*
D11*
X9552619Y-15415476D02*
X9552619Y-15215476D01*
X9600238Y-15215476D01*
X9628810Y-15225000D01*
X9647857Y-15244048D01*
X9657381Y-15263095D01*
X9666905Y-15301190D01*
X9666905Y-15329762D01*
X9657381Y-15367857D01*
X9647857Y-15386905D01*
X9628810Y-15405952D01*
X9600238Y-15415476D01*
X9552619Y-15415476D01*
X9752619Y-15415476D02*
X9752619Y-15282143D01*
X9752619Y-15320238D02*
X9762143Y-15301190D01*
X9771667Y-15291667D01*
X9790714Y-15282143D01*
X9809762Y-15282143D01*
X9876429Y-15415476D02*
X9876429Y-15282143D01*
X9876429Y-15215476D02*
X9866905Y-15225000D01*
X9876429Y-15234524D01*
X9885952Y-15225000D01*
X9876429Y-15215476D01*
X9876429Y-15234524D01*
X10000238Y-15415476D02*
X9981190Y-15405952D01*
X9971667Y-15386905D01*
X9971667Y-15215476D01*
X10105000Y-15415476D02*
X10085952Y-15405952D01*
X10076429Y-15386905D01*
X10076429Y-15215476D01*
X10333571Y-15415476D02*
X10333571Y-15215476D01*
X10400238Y-15358333D01*
X10466905Y-15215476D01*
X10466905Y-15415476D01*
X10647857Y-15415476D02*
X10647857Y-15310714D01*
X10638333Y-15291667D01*
X10619286Y-15282143D01*
X10581190Y-15282143D01*
X10562143Y-15291667D01*
X10647857Y-15405952D02*
X10628810Y-15415476D01*
X10581190Y-15415476D01*
X10562143Y-15405952D01*
X10552619Y-15386905D01*
X10552619Y-15367857D01*
X10562143Y-15348809D01*
X10581190Y-15339286D01*
X10628810Y-15339286D01*
X10647857Y-15329762D01*
X10743095Y-15282143D02*
X10743095Y-15482143D01*
X10743095Y-15291667D02*
X10762143Y-15282143D01*
X10800238Y-15282143D01*
X10819286Y-15291667D01*
X10828810Y-15301190D01*
X10838333Y-15320238D01*
X10838333Y-15377381D01*
X10828810Y-15396428D01*
X10819286Y-15405952D01*
X10800238Y-15415476D01*
X10762143Y-15415476D01*
X10743095Y-15405952D01*
X10924048Y-15396428D02*
X10933571Y-15405952D01*
X10924048Y-15415476D01*
X10914524Y-15405952D01*
X10924048Y-15396428D01*
X10924048Y-15415476D01*
X10924048Y-15291667D02*
X10933571Y-15301190D01*
X10924048Y-15310714D01*
X10914524Y-15301190D01*
X10924048Y-15291667D01*
X10924048Y-15310714D01*
D12*
X9255000Y-15725000D02*
X9295000Y-15765000D01*
X9295000Y-15725000D02*
X9255000Y-15765000D01*
D11*
X9590714Y-15635476D02*
X9609762Y-15635476D01*
X9628810Y-15645000D01*
X9638333Y-15654524D01*
X9647857Y-15673571D01*
X9657381Y-15711667D01*
X9657381Y-15759286D01*
X9647857Y-15797381D01*
X9638333Y-15816428D01*
X9628810Y-15825952D01*
X9609762Y-15835476D01*
X9590714Y-15835476D01*
X9571667Y-15825952D01*
X9562143Y-15816428D01*
X9552619Y-15797381D01*
X9543095Y-15759286D01*
X9543095Y-15711667D01*
X9552619Y-15673571D01*
X9562143Y-15654524D01*
X9571667Y-15645000D01*
X9590714Y-15635476D01*
X9743095Y-15816428D02*
X9752619Y-15825952D01*
X9743095Y-15835476D01*
X9733571Y-15825952D01*
X9743095Y-15816428D01*
X9743095Y-15835476D01*
X9924048Y-15702143D02*
X9924048Y-15835476D01*
X9876429Y-15625952D02*
X9828810Y-15768809D01*
X9952619Y-15768809D01*
X10066905Y-15635476D02*
X10085952Y-15635476D01*
X10105000Y-15645000D01*
X10114524Y-15654524D01*
X10124048Y-15673571D01*
X10133571Y-15711667D01*
X10133571Y-15759286D01*
X10124048Y-15797381D01*
X10114524Y-15816428D01*
X10105000Y-15825952D01*
X10085952Y-15835476D01*
X10066905Y-15835476D01*
X10047857Y-15825952D01*
X10038333Y-15816428D01*
X10028810Y-15797381D01*
X10019286Y-15759286D01*
X10019286Y-15711667D01*
X10028810Y-15673571D01*
X10038333Y-15654524D01*
X10047857Y-15645000D01*
X10066905Y-15635476D01*
X10257381Y-15635476D02*
X10276429Y-15635476D01*
X10295476Y-15645000D01*
X10305000Y-15654524D01*
X10314524Y-15673571D01*
X10324048Y-15711667D01*
X10324048Y-15759286D01*
X10314524Y-15797381D01*
X10305000Y-15816428D01*
X10295476Y-15825952D01*
X10276429Y-15835476D01*
X10257381Y-15835476D01*
X10238333Y-15825952D01*
X10228810Y-15816428D01*
X10219286Y-15797381D01*
X10209762Y-15759286D01*
X10209762Y-15711667D01*
X10219286Y-15673571D01*
X10228810Y-15654524D01*
X10238333Y-15645000D01*
X10257381Y-15635476D01*
X10409762Y-15835476D02*
X10409762Y-15702143D01*
X10409762Y-15721190D02*
X10419286Y-15711667D01*
X10438333Y-15702143D01*
X10466905Y-15702143D01*
X10485952Y-15711667D01*
X10495476Y-15730714D01*
X10495476Y-15835476D01*
X10495476Y-15730714D02*
X10505000Y-15711667D01*
X10524048Y-15702143D01*
X10552619Y-15702143D01*
X10571667Y-15711667D01*
X10581190Y-15730714D01*
X10581190Y-15835476D01*
X10676429Y-15835476D02*
X10676429Y-15702143D01*
X10676429Y-15721190D02*
X10685952Y-15711667D01*
X10705000Y-15702143D01*
X10733571Y-15702143D01*
X10752619Y-15711667D01*
X10762143Y-15730714D01*
X10762143Y-15835476D01*
X10762143Y-15730714D02*
X10771667Y-15711667D01*
X10790714Y-15702143D01*
X10819286Y-15702143D01*
X10838333Y-15711667D01*
X10847857Y-15730714D01*
X10847857Y-15835476D01*
X11238333Y-15625952D02*
X11066905Y-15883095D01*
X11495476Y-15635476D02*
X11514524Y-15635476D01*
X11533571Y-15645000D01*
X11543095Y-15654524D01*
X11552619Y-15673571D01*
X11562143Y-15711667D01*
X11562143Y-15759286D01*
X11552619Y-15797381D01*
X11543095Y-15816428D01*
X11533571Y-15825952D01*
X11514524Y-15835476D01*
X11495476Y-15835476D01*
X11476428Y-15825952D01*
X11466905Y-15816428D01*
X11457381Y-15797381D01*
X11447857Y-15759286D01*
X11447857Y-15711667D01*
X11457381Y-15673571D01*
X11466905Y-15654524D01*
X11476428Y-15645000D01*
X11495476Y-15635476D01*
X11647857Y-15816428D02*
X11657381Y-15825952D01*
X11647857Y-15835476D01*
X11638333Y-15825952D01*
X11647857Y-15816428D01*
X11647857Y-15835476D01*
X11781190Y-15635476D02*
X11800238Y-15635476D01*
X11819286Y-15645000D01*
X11828809Y-15654524D01*
X11838333Y-15673571D01*
X11847857Y-15711667D01*
X11847857Y-15759286D01*
X11838333Y-15797381D01*
X11828809Y-15816428D01*
X11819286Y-15825952D01*
X11800238Y-15835476D01*
X11781190Y-15835476D01*
X11762143Y-15825952D01*
X11752619Y-15816428D01*
X11743095Y-15797381D01*
X11733571Y-15759286D01*
X11733571Y-15711667D01*
X11743095Y-15673571D01*
X11752619Y-15654524D01*
X11762143Y-15645000D01*
X11781190Y-15635476D01*
X12038333Y-15835476D02*
X11924048Y-15835476D01*
X11981190Y-15835476D02*
X11981190Y-15635476D01*
X11962143Y-15664048D01*
X11943095Y-15683095D01*
X11924048Y-15692619D01*
X12219286Y-15635476D02*
X12124048Y-15635476D01*
X12114524Y-15730714D01*
X12124048Y-15721190D01*
X12143095Y-15711667D01*
X12190714Y-15711667D01*
X12209762Y-15721190D01*
X12219286Y-15730714D01*
X12228809Y-15749762D01*
X12228809Y-15797381D01*
X12219286Y-15816428D01*
X12209762Y-15825952D01*
X12190714Y-15835476D01*
X12143095Y-15835476D01*
X12124048Y-15825952D01*
X12114524Y-15816428D01*
X12295476Y-15635476D02*
X12428809Y-15635476D01*
X12343095Y-15835476D01*
X12495476Y-15635476D02*
X12495476Y-15673571D01*
X12571667Y-15635476D02*
X12571667Y-15673571D01*
X12866905Y-15911667D02*
X12857381Y-15902143D01*
X12838333Y-15873571D01*
X12828809Y-15854524D01*
X12819286Y-15825952D01*
X12809762Y-15778333D01*
X12809762Y-15740238D01*
X12819286Y-15692619D01*
X12828809Y-15664048D01*
X12838333Y-15645000D01*
X12857381Y-15616428D01*
X12866905Y-15606905D01*
X13047857Y-15835476D02*
X12933571Y-15835476D01*
X12990714Y-15835476D02*
X12990714Y-15635476D01*
X12971667Y-15664048D01*
X12952619Y-15683095D01*
X12933571Y-15692619D01*
X13114524Y-15635476D02*
X13238333Y-15635476D01*
X13171667Y-15711667D01*
X13200238Y-15711667D01*
X13219286Y-15721190D01*
X13228809Y-15730714D01*
X13238333Y-15749762D01*
X13238333Y-15797381D01*
X13228809Y-15816428D01*
X13219286Y-15825952D01*
X13200238Y-15835476D01*
X13143095Y-15835476D01*
X13124048Y-15825952D01*
X13114524Y-15816428D01*
X13428809Y-15835476D02*
X13314524Y-15835476D01*
X13371667Y-15835476D02*
X13371667Y-15635476D01*
X13352619Y-15664048D01*
X13333571Y-15683095D01*
X13314524Y-15692619D01*
X13666905Y-15835476D02*
X13666905Y-15635476D01*
X13752619Y-15835476D02*
X13752619Y-15730714D01*
X13743095Y-15711667D01*
X13724048Y-15702143D01*
X13695476Y-15702143D01*
X13676428Y-15711667D01*
X13666905Y-15721190D01*
X13876428Y-15835476D02*
X13857381Y-15825952D01*
X13847857Y-15816428D01*
X13838333Y-15797381D01*
X13838333Y-15740238D01*
X13847857Y-15721190D01*
X13857381Y-15711667D01*
X13876428Y-15702143D01*
X13905000Y-15702143D01*
X13924048Y-15711667D01*
X13933571Y-15721190D01*
X13943095Y-15740238D01*
X13943095Y-15797381D01*
X13933571Y-15816428D01*
X13924048Y-15825952D01*
X13905000Y-15835476D01*
X13876428Y-15835476D01*
X14057381Y-15835476D02*
X14038333Y-15825952D01*
X14028809Y-15806905D01*
X14028809Y-15635476D01*
X14209762Y-15825952D02*
X14190714Y-15835476D01*
X14152619Y-15835476D01*
X14133571Y-15825952D01*
X14124048Y-15806905D01*
X14124048Y-15730714D01*
X14133571Y-15711667D01*
X14152619Y-15702143D01*
X14190714Y-15702143D01*
X14209762Y-15711667D01*
X14219286Y-15730714D01*
X14219286Y-15749762D01*
X14124048Y-15768809D01*
X14295476Y-15825952D02*
X14314524Y-15835476D01*
X14352619Y-15835476D01*
X14371667Y-15825952D01*
X14381190Y-15806905D01*
X14381190Y-15797381D01*
X14371667Y-15778333D01*
X14352619Y-15768809D01*
X14324048Y-15768809D01*
X14305000Y-15759286D01*
X14295476Y-15740238D01*
X14295476Y-15730714D01*
X14305000Y-15711667D01*
X14324048Y-15702143D01*
X14352619Y-15702143D01*
X14371667Y-15711667D01*
X14447857Y-15911667D02*
X14457381Y-15902143D01*
X14476428Y-15873571D01*
X14485952Y-15854524D01*
X14495476Y-15825952D01*
X14505000Y-15778333D01*
X14505000Y-15740238D01*
X14495476Y-15692619D01*
X14485952Y-15664048D01*
X14476428Y-15645000D01*
X14457381Y-15616428D01*
X14447857Y-15606905D01*
D13*
X9295000Y-16009000D02*
G75*
G03*
X9295000Y-16009000I-50000J0D01*
G01*
D11*
X9657381Y-16099476D02*
X9543095Y-16099476D01*
X9600238Y-16099476D02*
X9600238Y-15899476D01*
X9581190Y-15928048D01*
X9562143Y-15947095D01*
X9543095Y-15956619D01*
X9743095Y-16080428D02*
X9752619Y-16089952D01*
X9743095Y-16099476D01*
X9733571Y-16089952D01*
X9743095Y-16080428D01*
X9743095Y-16099476D01*
X9876429Y-15899476D02*
X9895476Y-15899476D01*
X9914524Y-15909000D01*
X9924048Y-15918524D01*
X9933571Y-15937571D01*
X9943095Y-15975667D01*
X9943095Y-16023286D01*
X9933571Y-16061381D01*
X9924048Y-16080428D01*
X9914524Y-16089952D01*
X9895476Y-16099476D01*
X9876429Y-16099476D01*
X9857381Y-16089952D01*
X9847857Y-16080428D01*
X9838333Y-16061381D01*
X9828810Y-16023286D01*
X9828810Y-15975667D01*
X9838333Y-15937571D01*
X9847857Y-15918524D01*
X9857381Y-15909000D01*
X9876429Y-15899476D01*
X10066905Y-15899476D02*
X10085952Y-15899476D01*
X10105000Y-15909000D01*
X10114524Y-15918524D01*
X10124048Y-15937571D01*
X10133571Y-15975667D01*
X10133571Y-16023286D01*
X10124048Y-16061381D01*
X10114524Y-16080428D01*
X10105000Y-16089952D01*
X10085952Y-16099476D01*
X10066905Y-16099476D01*
X10047857Y-16089952D01*
X10038333Y-16080428D01*
X10028810Y-16061381D01*
X10019286Y-16023286D01*
X10019286Y-15975667D01*
X10028810Y-15937571D01*
X10038333Y-15918524D01*
X10047857Y-15909000D01*
X10066905Y-15899476D01*
X10257381Y-15899476D02*
X10276429Y-15899476D01*
X10295476Y-15909000D01*
X10305000Y-15918524D01*
X10314524Y-15937571D01*
X10324048Y-15975667D01*
X10324048Y-16023286D01*
X10314524Y-16061381D01*
X10305000Y-16080428D01*
X10295476Y-16089952D01*
X10276429Y-16099476D01*
X10257381Y-16099476D01*
X10238333Y-16089952D01*
X10228810Y-16080428D01*
X10219286Y-16061381D01*
X10209762Y-16023286D01*
X10209762Y-15975667D01*
X10219286Y-15937571D01*
X10228810Y-15918524D01*
X10238333Y-15909000D01*
X10257381Y-15899476D01*
X10409762Y-16099476D02*
X10409762Y-15966143D01*
X10409762Y-15985190D02*
X10419286Y-15975667D01*
X10438333Y-15966143D01*
X10466905Y-15966143D01*
X10485952Y-15975667D01*
X10495476Y-15994714D01*
X10495476Y-16099476D01*
X10495476Y-15994714D02*
X10505000Y-15975667D01*
X10524048Y-15966143D01*
X10552619Y-15966143D01*
X10571667Y-15975667D01*
X10581190Y-15994714D01*
X10581190Y-16099476D01*
X10676429Y-16099476D02*
X10676429Y-15966143D01*
X10676429Y-15985190D02*
X10685952Y-15975667D01*
X10705000Y-15966143D01*
X10733571Y-15966143D01*
X10752619Y-15975667D01*
X10762143Y-15994714D01*
X10762143Y-16099476D01*
X10762143Y-15994714D02*
X10771667Y-15975667D01*
X10790714Y-15966143D01*
X10819286Y-15966143D01*
X10838333Y-15975667D01*
X10847857Y-15994714D01*
X10847857Y-16099476D01*
X11238333Y-15889952D02*
X11066905Y-16147095D01*
X11495476Y-15899476D02*
X11514524Y-15899476D01*
X11533571Y-15909000D01*
X11543095Y-15918524D01*
X11552619Y-15937571D01*
X11562143Y-15975667D01*
X11562143Y-16023286D01*
X11552619Y-16061381D01*
X11543095Y-16080428D01*
X11533571Y-16089952D01*
X11514524Y-16099476D01*
X11495476Y-16099476D01*
X11476428Y-16089952D01*
X11466905Y-16080428D01*
X11457381Y-16061381D01*
X11447857Y-16023286D01*
X11447857Y-15975667D01*
X11457381Y-15937571D01*
X11466905Y-15918524D01*
X11476428Y-15909000D01*
X11495476Y-15899476D01*
X11647857Y-16080428D02*
X11657381Y-16089952D01*
X11647857Y-16099476D01*
X11638333Y-16089952D01*
X11647857Y-16080428D01*
X11647857Y-16099476D01*
X11781190Y-15899476D02*
X11800238Y-15899476D01*
X11819286Y-15909000D01*
X11828809Y-15918524D01*
X11838333Y-15937571D01*
X11847857Y-15975667D01*
X11847857Y-16023286D01*
X11838333Y-16061381D01*
X11828809Y-16080428D01*
X11819286Y-16089952D01*
X11800238Y-16099476D01*
X11781190Y-16099476D01*
X11762143Y-16089952D01*
X11752619Y-16080428D01*
X11743095Y-16061381D01*
X11733571Y-16023286D01*
X11733571Y-15975667D01*
X11743095Y-15937571D01*
X11752619Y-15918524D01*
X11762143Y-15909000D01*
X11781190Y-15899476D01*
X11914524Y-15899476D02*
X12038333Y-15899476D01*
X11971667Y-15975667D01*
X12000238Y-15975667D01*
X12019286Y-15985190D01*
X12028809Y-15994714D01*
X12038333Y-16013762D01*
X12038333Y-16061381D01*
X12028809Y-16080428D01*
X12019286Y-16089952D01*
X12000238Y-16099476D01*
X11943095Y-16099476D01*
X11924048Y-16089952D01*
X11914524Y-16080428D01*
X12133571Y-16099476D02*
X12171667Y-16099476D01*
X12190714Y-16089952D01*
X12200238Y-16080428D01*
X12219286Y-16051857D01*
X12228809Y-16013762D01*
X12228809Y-15937571D01*
X12219286Y-15918524D01*
X12209762Y-15909000D01*
X12190714Y-15899476D01*
X12152619Y-15899476D01*
X12133571Y-15909000D01*
X12124048Y-15918524D01*
X12114524Y-15937571D01*
X12114524Y-15985190D01*
X12124048Y-16004238D01*
X12133571Y-16013762D01*
X12152619Y-16023286D01*
X12190714Y-16023286D01*
X12209762Y-16013762D01*
X12219286Y-16004238D01*
X12228809Y-15985190D01*
X12400238Y-15966143D02*
X12400238Y-16099476D01*
X12352619Y-15889952D02*
X12305000Y-16032809D01*
X12428809Y-16032809D01*
X12495476Y-15899476D02*
X12495476Y-15937571D01*
X12571667Y-15899476D02*
X12571667Y-15937571D01*
X12866905Y-16175667D02*
X12857381Y-16166143D01*
X12838333Y-16137571D01*
X12828809Y-16118524D01*
X12819286Y-16089952D01*
X12809762Y-16042333D01*
X12809762Y-16004238D01*
X12819286Y-15956619D01*
X12828809Y-15928048D01*
X12838333Y-15909000D01*
X12857381Y-15880428D01*
X12866905Y-15870905D01*
X13047857Y-16099476D02*
X12933571Y-16099476D01*
X12990714Y-16099476D02*
X12990714Y-15899476D01*
X12971667Y-15928048D01*
X12952619Y-15947095D01*
X12933571Y-15956619D01*
X13114524Y-15899476D02*
X13238333Y-15899476D01*
X13171667Y-15975667D01*
X13200238Y-15975667D01*
X13219286Y-15985190D01*
X13228809Y-15994714D01*
X13238333Y-16013762D01*
X13238333Y-16061381D01*
X13228809Y-16080428D01*
X13219286Y-16089952D01*
X13200238Y-16099476D01*
X13143095Y-16099476D01*
X13124048Y-16089952D01*
X13114524Y-16080428D01*
X13314524Y-15918524D02*
X13324048Y-15909000D01*
X13343095Y-15899476D01*
X13390714Y-15899476D01*
X13409762Y-15909000D01*
X13419286Y-15918524D01*
X13428809Y-15937571D01*
X13428809Y-15956619D01*
X13419286Y-15985190D01*
X13305000Y-16099476D01*
X13428809Y-16099476D01*
X13666905Y-16099476D02*
X13666905Y-15899476D01*
X13752619Y-16099476D02*
X13752619Y-15994714D01*
X13743095Y-15975667D01*
X13724048Y-15966143D01*
X13695476Y-15966143D01*
X13676428Y-15975667D01*
X13666905Y-15985190D01*
X13876428Y-16099476D02*
X13857381Y-16089952D01*
X13847857Y-16080428D01*
X13838333Y-16061381D01*
X13838333Y-16004238D01*
X13847857Y-15985190D01*
X13857381Y-15975667D01*
X13876428Y-15966143D01*
X13905000Y-15966143D01*
X13924048Y-15975667D01*
X13933571Y-15985190D01*
X13943095Y-16004238D01*
X13943095Y-16061381D01*
X13933571Y-16080428D01*
X13924048Y-16089952D01*
X13905000Y-16099476D01*
X13876428Y-16099476D01*
X14057381Y-16099476D02*
X14038333Y-16089952D01*
X14028809Y-16070905D01*
X14028809Y-15899476D01*
X14209762Y-16089952D02*
X14190714Y-16099476D01*
X14152619Y-16099476D01*
X14133571Y-16089952D01*
X14124048Y-16070905D01*
X14124048Y-15994714D01*
X14133571Y-15975667D01*
X14152619Y-15966143D01*
X14190714Y-15966143D01*
X14209762Y-15975667D01*
X14219286Y-15994714D01*
X14219286Y-16013762D01*
X14124048Y-16032809D01*
X14295476Y-16089952D02*
X14314524Y-16099476D01*
X14352619Y-16099476D01*
X14371667Y-16089952D01*
X14381190Y-16070905D01*
X14381190Y-16061381D01*
X14371667Y-16042333D01*
X14352619Y-16032809D01*
X14324048Y-16032809D01*
X14305000Y-16023286D01*
X14295476Y-16004238D01*
X14295476Y-15994714D01*
X14305000Y-15975667D01*
X14324048Y-15966143D01*
X14352619Y-15966143D01*
X14371667Y-15975667D01*
X14447857Y-16175667D02*
X14457381Y-16166143D01*
X14476428Y-16137571D01*
X14485952Y-16118524D01*
X14495476Y-16089952D01*
X14505000Y-16042333D01*
X14505000Y-16004238D01*
X14495476Y-15956619D01*
X14485952Y-15928048D01*
X14476428Y-15909000D01*
X14457381Y-15880428D01*
X14447857Y-15870905D01*
D14*
X9240000Y-16218000D02*
X9240000Y-16328000D01*
X9185000Y-16273000D02*
X9295000Y-16273000D01*
D11*
X9657381Y-16363476D02*
X9543095Y-16363476D01*
X9600238Y-16363476D02*
X9600238Y-16163476D01*
X9581190Y-16192048D01*
X9562143Y-16211095D01*
X9543095Y-16220619D01*
X9743095Y-16344428D02*
X9752619Y-16353952D01*
X9743095Y-16363476D01*
X9733571Y-16353952D01*
X9743095Y-16344428D01*
X9743095Y-16363476D01*
X9943095Y-16363476D02*
X9828810Y-16363476D01*
X9885952Y-16363476D02*
X9885952Y-16163476D01*
X9866905Y-16192048D01*
X9847857Y-16211095D01*
X9828810Y-16220619D01*
X10066905Y-16163476D02*
X10085952Y-16163476D01*
X10105000Y-16173000D01*
X10114524Y-16182524D01*
X10124048Y-16201571D01*
X10133571Y-16239667D01*
X10133571Y-16287286D01*
X10124048Y-16325381D01*
X10114524Y-16344428D01*
X10105000Y-16353952D01*
X10085952Y-16363476D01*
X10066905Y-16363476D01*
X10047857Y-16353952D01*
X10038333Y-16344428D01*
X10028810Y-16325381D01*
X10019286Y-16287286D01*
X10019286Y-16239667D01*
X10028810Y-16201571D01*
X10038333Y-16182524D01*
X10047857Y-16173000D01*
X10066905Y-16163476D01*
X10257381Y-16163476D02*
X10276429Y-16163476D01*
X10295476Y-16173000D01*
X10305000Y-16182524D01*
X10314524Y-16201571D01*
X10324048Y-16239667D01*
X10324048Y-16287286D01*
X10314524Y-16325381D01*
X10305000Y-16344428D01*
X10295476Y-16353952D01*
X10276429Y-16363476D01*
X10257381Y-16363476D01*
X10238333Y-16353952D01*
X10228810Y-16344428D01*
X10219286Y-16325381D01*
X10209762Y-16287286D01*
X10209762Y-16239667D01*
X10219286Y-16201571D01*
X10228810Y-16182524D01*
X10238333Y-16173000D01*
X10257381Y-16163476D01*
X10409762Y-16363476D02*
X10409762Y-16230143D01*
X10409762Y-16249190D02*
X10419286Y-16239667D01*
X10438333Y-16230143D01*
X10466905Y-16230143D01*
X10485952Y-16239667D01*
X10495476Y-16258714D01*
X10495476Y-16363476D01*
X10495476Y-16258714D02*
X10505000Y-16239667D01*
X10524048Y-16230143D01*
X10552619Y-16230143D01*
X10571667Y-16239667D01*
X10581190Y-16258714D01*
X10581190Y-16363476D01*
X10676429Y-16363476D02*
X10676429Y-16230143D01*
X10676429Y-16249190D02*
X10685952Y-16239667D01*
X10705000Y-16230143D01*
X10733571Y-16230143D01*
X10752619Y-16239667D01*
X10762143Y-16258714D01*
X10762143Y-16363476D01*
X10762143Y-16258714D02*
X10771667Y-16239667D01*
X10790714Y-16230143D01*
X10819286Y-16230143D01*
X10838333Y-16239667D01*
X10847857Y-16258714D01*
X10847857Y-16363476D01*
X11238333Y-16153952D02*
X11066905Y-16411095D01*
X11495476Y-16163476D02*
X11514524Y-16163476D01*
X11533571Y-16173000D01*
X11543095Y-16182524D01*
X11552619Y-16201571D01*
X11562143Y-16239667D01*
X11562143Y-16287286D01*
X11552619Y-16325381D01*
X11543095Y-16344428D01*
X11533571Y-16353952D01*
X11514524Y-16363476D01*
X11495476Y-16363476D01*
X11476428Y-16353952D01*
X11466905Y-16344428D01*
X11457381Y-16325381D01*
X11447857Y-16287286D01*
X11447857Y-16239667D01*
X11457381Y-16201571D01*
X11466905Y-16182524D01*
X11476428Y-16173000D01*
X11495476Y-16163476D01*
X11647857Y-16344428D02*
X11657381Y-16353952D01*
X11647857Y-16363476D01*
X11638333Y-16353952D01*
X11647857Y-16344428D01*
X11647857Y-16363476D01*
X11781190Y-16163476D02*
X11800238Y-16163476D01*
X11819286Y-16173000D01*
X11828809Y-16182524D01*
X11838333Y-16201571D01*
X11847857Y-16239667D01*
X11847857Y-16287286D01*
X11838333Y-16325381D01*
X11828809Y-16344428D01*
X11819286Y-16353952D01*
X11800238Y-16363476D01*
X11781190Y-16363476D01*
X11762143Y-16353952D01*
X11752619Y-16344428D01*
X11743095Y-16325381D01*
X11733571Y-16287286D01*
X11733571Y-16239667D01*
X11743095Y-16201571D01*
X11752619Y-16182524D01*
X11762143Y-16173000D01*
X11781190Y-16163476D01*
X12019286Y-16230143D02*
X12019286Y-16363476D01*
X11971667Y-16153952D02*
X11924048Y-16296809D01*
X12047857Y-16296809D01*
X12105000Y-16163476D02*
X12228809Y-16163476D01*
X12162143Y-16239667D01*
X12190714Y-16239667D01*
X12209762Y-16249190D01*
X12219286Y-16258714D01*
X12228809Y-16277762D01*
X12228809Y-16325381D01*
X12219286Y-16344428D01*
X12209762Y-16353952D01*
X12190714Y-16363476D01*
X12133571Y-16363476D01*
X12114524Y-16353952D01*
X12105000Y-16344428D01*
X12295476Y-16163476D02*
X12419286Y-16163476D01*
X12352619Y-16239667D01*
X12381190Y-16239667D01*
X12400238Y-16249190D01*
X12409762Y-16258714D01*
X12419286Y-16277762D01*
X12419286Y-16325381D01*
X12409762Y-16344428D01*
X12400238Y-16353952D01*
X12381190Y-16363476D01*
X12324048Y-16363476D01*
X12305000Y-16353952D01*
X12295476Y-16344428D01*
X12495476Y-16163476D02*
X12495476Y-16201571D01*
X12571667Y-16163476D02*
X12571667Y-16201571D01*
X12866905Y-16439667D02*
X12857381Y-16430143D01*
X12838333Y-16401571D01*
X12828809Y-16382524D01*
X12819286Y-16353952D01*
X12809762Y-16306333D01*
X12809762Y-16268238D01*
X12819286Y-16220619D01*
X12828809Y-16192048D01*
X12838333Y-16173000D01*
X12857381Y-16144428D01*
X12866905Y-16134905D01*
X13047857Y-16363476D02*
X12933571Y-16363476D01*
X12990714Y-16363476D02*
X12990714Y-16163476D01*
X12971667Y-16192048D01*
X12952619Y-16211095D01*
X12933571Y-16220619D01*
X13238333Y-16363476D02*
X13124048Y-16363476D01*
X13181190Y-16363476D02*
X13181190Y-16163476D01*
X13162143Y-16192048D01*
X13143095Y-16211095D01*
X13124048Y-16220619D01*
X13476428Y-16363476D02*
X13476428Y-16163476D01*
X13562143Y-16363476D02*
X13562143Y-16258714D01*
X13552619Y-16239667D01*
X13533571Y-16230143D01*
X13505000Y-16230143D01*
X13485952Y-16239667D01*
X13476428Y-16249190D01*
X13685952Y-16363476D02*
X13666905Y-16353952D01*
X13657381Y-16344428D01*
X13647857Y-16325381D01*
X13647857Y-16268238D01*
X13657381Y-16249190D01*
X13666905Y-16239667D01*
X13685952Y-16230143D01*
X13714524Y-16230143D01*
X13733571Y-16239667D01*
X13743095Y-16249190D01*
X13752619Y-16268238D01*
X13752619Y-16325381D01*
X13743095Y-16344428D01*
X13733571Y-16353952D01*
X13714524Y-16363476D01*
X13685952Y-16363476D01*
X13866905Y-16363476D02*
X13847857Y-16353952D01*
X13838333Y-16334905D01*
X13838333Y-16163476D01*
X14019286Y-16353952D02*
X14000238Y-16363476D01*
X13962143Y-16363476D01*
X13943095Y-16353952D01*
X13933571Y-16334905D01*
X13933571Y-16258714D01*
X13943095Y-16239667D01*
X13962143Y-16230143D01*
X14000238Y-16230143D01*
X14019286Y-16239667D01*
X14028809Y-16258714D01*
X14028809Y-16277762D01*
X13933571Y-16296809D01*
X14105000Y-16353952D02*
X14124048Y-16363476D01*
X14162143Y-16363476D01*
X14181190Y-16353952D01*
X14190714Y-16334905D01*
X14190714Y-16325381D01*
X14181190Y-16306333D01*
X14162143Y-16296809D01*
X14133571Y-16296809D01*
X14114524Y-16287286D01*
X14105000Y-16268238D01*
X14105000Y-16258714D01*
X14114524Y-16239667D01*
X14133571Y-16230143D01*
X14162143Y-16230143D01*
X14181190Y-16239667D01*
X14257381Y-16439667D02*
X14266905Y-16430143D01*
X14285952Y-16401571D01*
X14295476Y-16382524D01*
X14305000Y-16353952D01*
X14314524Y-16306333D01*
X14314524Y-16268238D01*
X14305000Y-16220619D01*
X14295476Y-16192048D01*
X14285952Y-16173000D01*
X14266905Y-16144428D01*
X14257381Y-16134905D01*
D15*
X9276255Y-16582255D02*
X9276255Y-16491745D01*
X9185745Y-16491745D01*
X9185745Y-16582255D01*
X9276255Y-16582255D01*
D11*
X9657381Y-16627476D02*
X9543095Y-16627476D01*
X9600238Y-16627476D02*
X9600238Y-16427476D01*
X9581190Y-16456048D01*
X9562143Y-16475095D01*
X9543095Y-16484619D01*
X9743095Y-16608428D02*
X9752619Y-16617952D01*
X9743095Y-16627476D01*
X9733571Y-16617952D01*
X9743095Y-16608428D01*
X9743095Y-16627476D01*
X9828810Y-16446524D02*
X9838333Y-16437000D01*
X9857381Y-16427476D01*
X9905000Y-16427476D01*
X9924048Y-16437000D01*
X9933571Y-16446524D01*
X9943095Y-16465571D01*
X9943095Y-16484619D01*
X9933571Y-16513190D01*
X9819286Y-16627476D01*
X9943095Y-16627476D01*
X10057381Y-16513190D02*
X10038333Y-16503667D01*
X10028810Y-16494143D01*
X10019286Y-16475095D01*
X10019286Y-16465571D01*
X10028810Y-16446524D01*
X10038333Y-16437000D01*
X10057381Y-16427476D01*
X10095476Y-16427476D01*
X10114524Y-16437000D01*
X10124048Y-16446524D01*
X10133571Y-16465571D01*
X10133571Y-16475095D01*
X10124048Y-16494143D01*
X10114524Y-16503667D01*
X10095476Y-16513190D01*
X10057381Y-16513190D01*
X10038333Y-16522714D01*
X10028810Y-16532238D01*
X10019286Y-16551286D01*
X10019286Y-16589381D01*
X10028810Y-16608428D01*
X10038333Y-16617952D01*
X10057381Y-16627476D01*
X10095476Y-16627476D01*
X10114524Y-16617952D01*
X10124048Y-16608428D01*
X10133571Y-16589381D01*
X10133571Y-16551286D01*
X10124048Y-16532238D01*
X10114524Y-16522714D01*
X10095476Y-16513190D01*
X10257381Y-16427476D02*
X10276429Y-16427476D01*
X10295476Y-16437000D01*
X10305000Y-16446524D01*
X10314524Y-16465571D01*
X10324048Y-16503667D01*
X10324048Y-16551286D01*
X10314524Y-16589381D01*
X10305000Y-16608428D01*
X10295476Y-16617952D01*
X10276429Y-16627476D01*
X10257381Y-16627476D01*
X10238333Y-16617952D01*
X10228810Y-16608428D01*
X10219286Y-16589381D01*
X10209762Y-16551286D01*
X10209762Y-16503667D01*
X10219286Y-16465571D01*
X10228810Y-16446524D01*
X10238333Y-16437000D01*
X10257381Y-16427476D01*
X10409762Y-16627476D02*
X10409762Y-16494143D01*
X10409762Y-16513190D02*
X10419286Y-16503667D01*
X10438333Y-16494143D01*
X10466905Y-16494143D01*
X10485952Y-16503667D01*
X10495476Y-16522714D01*
X10495476Y-16627476D01*
X10495476Y-16522714D02*
X10505000Y-16503667D01*
X10524048Y-16494143D01*
X10552619Y-16494143D01*
X10571667Y-16503667D01*
X10581190Y-16522714D01*
X10581190Y-16627476D01*
X10676429Y-16627476D02*
X10676429Y-16494143D01*
X10676429Y-16513190D02*
X10685952Y-16503667D01*
X10705000Y-16494143D01*
X10733571Y-16494143D01*
X10752619Y-16503667D01*
X10762143Y-16522714D01*
X10762143Y-16627476D01*
X10762143Y-16522714D02*
X10771667Y-16503667D01*
X10790714Y-16494143D01*
X10819286Y-16494143D01*
X10838333Y-16503667D01*
X10847857Y-16522714D01*
X10847857Y-16627476D01*
X11238333Y-16417952D02*
X11066905Y-16675095D01*
X11495476Y-16427476D02*
X11514524Y-16427476D01*
X11533571Y-16437000D01*
X11543095Y-16446524D01*
X11552619Y-16465571D01*
X11562143Y-16503667D01*
X11562143Y-16551286D01*
X11552619Y-16589381D01*
X11543095Y-16608428D01*
X11533571Y-16617952D01*
X11514524Y-16627476D01*
X11495476Y-16627476D01*
X11476428Y-16617952D01*
X11466905Y-16608428D01*
X11457381Y-16589381D01*
X11447857Y-16551286D01*
X11447857Y-16503667D01*
X11457381Y-16465571D01*
X11466905Y-16446524D01*
X11476428Y-16437000D01*
X11495476Y-16427476D01*
X11647857Y-16608428D02*
X11657381Y-16617952D01*
X11647857Y-16627476D01*
X11638333Y-16617952D01*
X11647857Y-16608428D01*
X11647857Y-16627476D01*
X11781190Y-16427476D02*
X11800238Y-16427476D01*
X11819286Y-16437000D01*
X11828809Y-16446524D01*
X11838333Y-16465571D01*
X11847857Y-16503667D01*
X11847857Y-16551286D01*
X11838333Y-16589381D01*
X11828809Y-16608428D01*
X11819286Y-16617952D01*
X11800238Y-16627476D01*
X11781190Y-16627476D01*
X11762143Y-16617952D01*
X11752619Y-16608428D01*
X11743095Y-16589381D01*
X11733571Y-16551286D01*
X11733571Y-16503667D01*
X11743095Y-16465571D01*
X11752619Y-16446524D01*
X11762143Y-16437000D01*
X11781190Y-16427476D01*
X12028809Y-16427476D02*
X11933571Y-16427476D01*
X11924048Y-16522714D01*
X11933571Y-16513190D01*
X11952619Y-16503667D01*
X12000238Y-16503667D01*
X12019286Y-16513190D01*
X12028809Y-16522714D01*
X12038333Y-16541762D01*
X12038333Y-16589381D01*
X12028809Y-16608428D01*
X12019286Y-16617952D01*
X12000238Y-16627476D01*
X11952619Y-16627476D01*
X11933571Y-16617952D01*
X11924048Y-16608428D01*
X12162143Y-16427476D02*
X12181190Y-16427476D01*
X12200238Y-16437000D01*
X12209762Y-16446524D01*
X12219286Y-16465571D01*
X12228809Y-16503667D01*
X12228809Y-16551286D01*
X12219286Y-16589381D01*
X12209762Y-16608428D01*
X12200238Y-16617952D01*
X12181190Y-16627476D01*
X12162143Y-16627476D01*
X12143095Y-16617952D01*
X12133571Y-16608428D01*
X12124048Y-16589381D01*
X12114524Y-16551286D01*
X12114524Y-16503667D01*
X12124048Y-16465571D01*
X12133571Y-16446524D01*
X12143095Y-16437000D01*
X12162143Y-16427476D01*
X12400238Y-16494143D02*
X12400238Y-16627476D01*
X12352619Y-16417952D02*
X12305000Y-16560809D01*
X12428809Y-16560809D01*
X12495476Y-16427476D02*
X12495476Y-16465571D01*
X12571667Y-16427476D02*
X12571667Y-16465571D01*
X12866905Y-16703667D02*
X12857381Y-16694143D01*
X12838333Y-16665571D01*
X12828809Y-16646524D01*
X12819286Y-16617952D01*
X12809762Y-16570333D01*
X12809762Y-16532238D01*
X12819286Y-16484619D01*
X12828809Y-16456048D01*
X12838333Y-16437000D01*
X12857381Y-16408428D01*
X12866905Y-16398905D01*
X12924048Y-16427476D02*
X13047857Y-16427476D01*
X12981190Y-16503667D01*
X13009762Y-16503667D01*
X13028809Y-16513190D01*
X13038333Y-16522714D01*
X13047857Y-16541762D01*
X13047857Y-16589381D01*
X13038333Y-16608428D01*
X13028809Y-16617952D01*
X13009762Y-16627476D01*
X12952619Y-16627476D01*
X12933571Y-16617952D01*
X12924048Y-16608428D01*
X13285952Y-16627476D02*
X13285952Y-16427476D01*
X13371667Y-16627476D02*
X13371667Y-16522714D01*
X13362143Y-16503667D01*
X13343095Y-16494143D01*
X13314524Y-16494143D01*
X13295476Y-16503667D01*
X13285952Y-16513190D01*
X13495476Y-16627476D02*
X13476428Y-16617952D01*
X13466905Y-16608428D01*
X13457381Y-16589381D01*
X13457381Y-16532238D01*
X13466905Y-16513190D01*
X13476428Y-16503667D01*
X13495476Y-16494143D01*
X13524048Y-16494143D01*
X13543095Y-16503667D01*
X13552619Y-16513190D01*
X13562143Y-16532238D01*
X13562143Y-16589381D01*
X13552619Y-16608428D01*
X13543095Y-16617952D01*
X13524048Y-16627476D01*
X13495476Y-16627476D01*
X13676428Y-16627476D02*
X13657381Y-16617952D01*
X13647857Y-16598905D01*
X13647857Y-16427476D01*
X13828809Y-16617952D02*
X13809762Y-16627476D01*
X13771667Y-16627476D01*
X13752619Y-16617952D01*
X13743095Y-16598905D01*
X13743095Y-16522714D01*
X13752619Y-16503667D01*
X13771667Y-16494143D01*
X13809762Y-16494143D01*
X13828809Y-16503667D01*
X13838333Y-16522714D01*
X13838333Y-16541762D01*
X13743095Y-16560809D01*
X13914524Y-16617952D02*
X13933571Y-16627476D01*
X13971667Y-16627476D01*
X13990714Y-16617952D01*
X14000238Y-16598905D01*
X14000238Y-16589381D01*
X13990714Y-16570333D01*
X13971667Y-16560809D01*
X13943095Y-16560809D01*
X13924048Y-16551286D01*
X13914524Y-16532238D01*
X13914524Y-16522714D01*
X13924048Y-16503667D01*
X13943095Y-16494143D01*
X13971667Y-16494143D01*
X13990714Y-16503667D01*
X14066905Y-16703667D02*
X14076428Y-16694143D01*
X14095476Y-16665571D01*
X14105000Y-16646524D01*
X14114524Y-16617952D01*
X14124048Y-16570333D01*
X14124048Y-16532238D01*
X14114524Y-16484619D01*
X14105000Y-16456048D01*
X14095476Y-16437000D01*
X14076428Y-16408428D01*
X14066905Y-16398905D01*
M02*
