G04 #@! TF.GenerationSoftware,KiCad,Pcbnew,(6.0.2)*
G04 #@! TF.CreationDate,2022-04-23T16:48:43+02:00*
G04 #@! TF.ProjectId,main,6d61696e-2e6b-4696-9361-645f70636258,rev?*
G04 #@! TF.SameCoordinates,Original*
G04 #@! TF.FileFunction,Soldermask,Top*
G04 #@! TF.FilePolarity,Negative*
%FSLAX46Y46*%
G04 Gerber Fmt 4.6, Leading zero omitted, Abs format (unit mm)*
G04 Created by KiCad (PCBNEW (6.0.2)) date 2022-04-23 16:48:43*
%MOMM*%
%LPD*%
G01*
G04 APERTURE LIST*
G04 Aperture macros list*
%AMFreePoly0*
4,1,9,3.862500,-0.866500,0.737500,-0.866500,0.737500,-0.450000,-0.737500,-0.450000,-0.737500,0.450000,0.737500,0.450000,0.737500,0.866500,3.862500,0.866500,3.862500,-0.866500,3.862500,-0.866500,$1*%
G04 Aperture macros list end*
%ADD10R,1.650000X1.650000*%
%ADD11C,1.650000*%
%ADD12R,0.940000X0.730000*%
%ADD13R,1.050000X1.820000*%
%ADD14R,0.950000X0.900000*%
%ADD15R,1.525000X0.700000*%
%ADD16R,2.513000X3.402000*%
%ADD17R,0.900000X0.950000*%
%ADD18R,0.730000X0.940000*%
%ADD19R,1.525000X0.650000*%
%ADD20R,1.380000X0.450000*%
%ADD21R,2.100000X1.475000*%
%ADD22R,1.900000X1.175000*%
%ADD23R,1.900000X2.375000*%
%ADD24R,1.200000X0.600000*%
%ADD25R,1.550000X2.350000*%
%ADD26R,1.700000X1.700000*%
%ADD27O,1.700000X1.700000*%
%ADD28R,0.800000X0.800000*%
%ADD29R,0.750000X0.600000*%
%ADD30R,0.650000X1.525000*%
%ADD31R,0.910000X1.390000*%
%ADD32R,1.425000X1.425000*%
%ADD33C,1.425000*%
%ADD34R,2.350000X1.550000*%
%ADD35R,0.900000X1.300000*%
%ADD36FreePoly0,270.000000*%
G04 APERTURE END LIST*
D10*
X129480000Y-69000000D03*
D11*
X132020000Y-69000000D03*
D12*
X128500000Y-99210000D03*
X128500000Y-97790000D03*
D13*
X118860000Y-92250000D03*
X121640000Y-92250000D03*
D14*
X160000000Y-113550000D03*
X160000000Y-111950000D03*
D10*
X83250000Y-52750000D03*
D11*
X83250000Y-55290000D03*
D15*
X124212000Y-104905000D03*
X124212000Y-103635000D03*
X124212000Y-102365000D03*
X124212000Y-101095000D03*
X118788000Y-101095000D03*
X118788000Y-102365000D03*
X118788000Y-103635000D03*
X118788000Y-104905000D03*
D16*
X121500000Y-103000000D03*
D17*
X110200000Y-93000000D03*
X111800000Y-93000000D03*
X163950000Y-93250000D03*
X165550000Y-93250000D03*
X131450000Y-99000000D03*
X133050000Y-99000000D03*
D18*
X140290000Y-112500000D03*
X141710000Y-112500000D03*
D19*
X147538000Y-102095000D03*
X147538000Y-103365000D03*
X147538000Y-104635000D03*
X147538000Y-105905000D03*
X152962000Y-105905000D03*
X152962000Y-104635000D03*
X152962000Y-103365000D03*
X152962000Y-102095000D03*
D20*
X175440000Y-108300000D03*
X175440000Y-107650000D03*
X175440000Y-107000000D03*
X175440000Y-106350000D03*
X175440000Y-105700000D03*
D21*
X175800000Y-104547500D03*
X175800000Y-109452500D03*
D22*
X178100000Y-107837500D03*
X178100000Y-106162500D03*
D23*
X178100000Y-109912500D03*
X178100000Y-104087500D03*
D24*
X107500000Y-102700000D03*
X107500000Y-100800000D03*
X105000000Y-101750000D03*
D17*
X118200000Y-122500000D03*
X119800000Y-122500000D03*
D25*
X98750000Y-101600000D03*
X98750000Y-105900000D03*
D13*
X116110000Y-116250000D03*
X118890000Y-116250000D03*
D10*
X122500000Y-70770000D03*
D11*
X122500000Y-68230000D03*
D26*
X173870000Y-87440000D03*
D27*
X171330000Y-87440000D03*
X168790000Y-87440000D03*
X166250000Y-87440000D03*
X163710000Y-87440000D03*
X161170000Y-87440000D03*
X158630000Y-87440000D03*
X156090000Y-87440000D03*
X153550000Y-87440000D03*
X151010000Y-87440000D03*
X148470000Y-87440000D03*
X145930000Y-87440000D03*
X143390000Y-87440000D03*
X140850000Y-87440000D03*
X138310000Y-87440000D03*
X135770000Y-87440000D03*
X133230000Y-87440000D03*
X130690000Y-87440000D03*
X128150000Y-87440000D03*
X125610000Y-87440000D03*
X123070000Y-87440000D03*
X120530000Y-87440000D03*
X117990000Y-87440000D03*
X115450000Y-87440000D03*
X112910000Y-87440000D03*
X110370000Y-87440000D03*
X107830000Y-87440000D03*
X105290000Y-87440000D03*
X102750000Y-87440000D03*
X100210000Y-87440000D03*
X97670000Y-87440000D03*
X95130000Y-87440000D03*
X92590000Y-87440000D03*
D28*
X135250000Y-115500000D03*
X136750000Y-115500000D03*
D13*
X113640000Y-111000000D03*
X110860000Y-111000000D03*
D10*
X98000000Y-52710000D03*
D11*
X98000000Y-55250000D03*
X98000000Y-57790000D03*
D18*
X127710000Y-64500000D03*
X126290000Y-64500000D03*
D10*
X83250000Y-67790000D03*
D11*
X83250000Y-65250000D03*
X83250000Y-62710000D03*
D26*
X173870000Y-77280000D03*
D27*
X171330000Y-77280000D03*
X168790000Y-77280000D03*
X166250000Y-77280000D03*
X163710000Y-77280000D03*
X161170000Y-77280000D03*
X158630000Y-77280000D03*
X156090000Y-77280000D03*
X153550000Y-77280000D03*
X151010000Y-77280000D03*
X148470000Y-77280000D03*
X145930000Y-77280000D03*
X143390000Y-77280000D03*
X140850000Y-77280000D03*
X138310000Y-77280000D03*
X135770000Y-77280000D03*
X133230000Y-77280000D03*
X130690000Y-77280000D03*
X128150000Y-77280000D03*
X125610000Y-77280000D03*
X123070000Y-77280000D03*
X120530000Y-77280000D03*
X117990000Y-77280000D03*
X115450000Y-77280000D03*
X112910000Y-77280000D03*
X110370000Y-77280000D03*
X107830000Y-77280000D03*
X105290000Y-77280000D03*
X102750000Y-77280000D03*
X100210000Y-77280000D03*
X97670000Y-77280000D03*
X95130000Y-77280000D03*
X92590000Y-77280000D03*
D18*
X142040000Y-94000000D03*
X143460000Y-94000000D03*
D29*
X159700000Y-107750000D03*
X160800000Y-107750000D03*
D17*
X147700000Y-93000000D03*
X149300000Y-93000000D03*
D30*
X126345000Y-119712000D03*
X127615000Y-119712000D03*
X128885000Y-119712000D03*
X130155000Y-119712000D03*
X130155000Y-114288000D03*
X128885000Y-114288000D03*
X127615000Y-114288000D03*
X126345000Y-114288000D03*
D17*
X108450000Y-121000000D03*
X110050000Y-121000000D03*
D18*
X148290000Y-73000000D03*
X149710000Y-73000000D03*
D14*
X147250000Y-113300000D03*
X147250000Y-111700000D03*
D26*
X173870000Y-138240000D03*
D27*
X171330000Y-138240000D03*
X168790000Y-138240000D03*
X166250000Y-138240000D03*
X163710000Y-138240000D03*
X161170000Y-138240000D03*
X158630000Y-138240000D03*
X156090000Y-138240000D03*
X153550000Y-138240000D03*
X151010000Y-138240000D03*
X148470000Y-138240000D03*
X145930000Y-138240000D03*
X143390000Y-138240000D03*
X140850000Y-138240000D03*
X138310000Y-138240000D03*
X135770000Y-138240000D03*
X133230000Y-138240000D03*
X130690000Y-138240000D03*
X128150000Y-138240000D03*
X125610000Y-138240000D03*
X123070000Y-138240000D03*
X120530000Y-138240000D03*
X117990000Y-138240000D03*
X115450000Y-138240000D03*
X112910000Y-138240000D03*
X110370000Y-138240000D03*
X107830000Y-138240000D03*
X105290000Y-138240000D03*
X102750000Y-138240000D03*
X100210000Y-138240000D03*
X97670000Y-138240000D03*
X95130000Y-138240000D03*
X92590000Y-138240000D03*
D17*
X140950000Y-116750000D03*
X142550000Y-116750000D03*
D12*
X126000000Y-70170000D03*
X126000000Y-68750000D03*
D31*
X161430000Y-117000000D03*
X163070000Y-117000000D03*
D32*
X126370000Y-60060000D03*
D33*
X128910000Y-60060000D03*
X131450000Y-60060000D03*
X133990000Y-60060000D03*
X136530000Y-60060000D03*
X139070000Y-60060000D03*
X141610000Y-60060000D03*
X144150000Y-60060000D03*
X146690000Y-60060000D03*
X149230000Y-60060000D03*
X151770000Y-60060000D03*
X154310000Y-60060000D03*
X156850000Y-60060000D03*
X159390000Y-60060000D03*
X161930000Y-60060000D03*
X164470000Y-60060000D03*
X167010000Y-60060000D03*
X169550000Y-60060000D03*
X172090000Y-60060000D03*
X174630000Y-60060000D03*
X174630000Y-52440000D03*
X172090000Y-52440000D03*
X169550000Y-52440000D03*
X167010000Y-52440000D03*
X164470000Y-52440000D03*
X161930000Y-52440000D03*
X159390000Y-52440000D03*
X156850000Y-52440000D03*
X154310000Y-52440000D03*
X151770000Y-52440000D03*
X149230000Y-52440000D03*
X146690000Y-52440000D03*
X144150000Y-52440000D03*
X141610000Y-52440000D03*
X139070000Y-52440000D03*
X136530000Y-52440000D03*
X133990000Y-52440000D03*
X131450000Y-52440000D03*
X128910000Y-52440000D03*
X126370000Y-52440000D03*
D34*
X97600000Y-94750000D03*
X101900000Y-94750000D03*
D26*
X173870000Y-128080000D03*
D27*
X171330000Y-128080000D03*
X168790000Y-128080000D03*
X166250000Y-128080000D03*
X163710000Y-128080000D03*
X161170000Y-128080000D03*
X158630000Y-128080000D03*
X156090000Y-128080000D03*
X153550000Y-128080000D03*
X151010000Y-128080000D03*
X148470000Y-128080000D03*
X145930000Y-128080000D03*
X143390000Y-128080000D03*
X140850000Y-128080000D03*
X138310000Y-128080000D03*
X135770000Y-128080000D03*
X133230000Y-128080000D03*
X130690000Y-128080000D03*
X128150000Y-128080000D03*
X125610000Y-128080000D03*
X123070000Y-128080000D03*
X120530000Y-128080000D03*
X117990000Y-128080000D03*
X115450000Y-128080000D03*
X112910000Y-128080000D03*
X110370000Y-128080000D03*
X107830000Y-128080000D03*
X105290000Y-128080000D03*
X102750000Y-128080000D03*
X100210000Y-128080000D03*
X97670000Y-128080000D03*
X95130000Y-128080000D03*
X92590000Y-128080000D03*
D10*
X92250000Y-57750000D03*
D11*
X92250000Y-55210000D03*
X92250000Y-52670000D03*
D13*
X91610000Y-111250000D03*
X94390000Y-111250000D03*
D35*
X95000000Y-101350000D03*
D36*
X93500000Y-101437500D03*
D35*
X92000000Y-101350000D03*
D10*
X136230000Y-69000000D03*
D11*
X138770000Y-69000000D03*
D10*
X134790000Y-73250000D03*
D11*
X132250000Y-73250000D03*
X129710000Y-73250000D03*
D18*
X133540000Y-123250000D03*
X134960000Y-123250000D03*
D17*
X135200000Y-91250000D03*
X136800000Y-91250000D03*
X112700000Y-107750000D03*
X114300000Y-107750000D03*
D19*
X134288000Y-102345000D03*
X134288000Y-103615000D03*
X134288000Y-104885000D03*
X134288000Y-106155000D03*
X139712000Y-106155000D03*
X139712000Y-104885000D03*
X139712000Y-103615000D03*
X139712000Y-102345000D03*
D17*
X130300000Y-105250000D03*
X128700000Y-105250000D03*
X100500000Y-113750000D03*
X102000000Y-113750000D03*
D29*
X155200000Y-73000000D03*
X156300000Y-73000000D03*
D18*
X154040000Y-122750000D03*
X155460000Y-122750000D03*
D17*
X102250000Y-120750000D03*
X100750000Y-120750000D03*
D10*
X152000000Y-64000000D03*
D11*
X152000000Y-66540000D03*
X152000000Y-69080000D03*
D28*
X153000000Y-94250000D03*
X154500000Y-94250000D03*
M02*
