G04 #@! TF.GenerationSoftware,KiCad,Pcbnew,(6.0.2)*
G04 #@! TF.CreationDate,2022-04-16T20:00:21+02:00*
G04 #@! TF.ProjectId,main,6d61696e-2e6b-4696-9361-645f70636258,rev?*
G04 #@! TF.SameCoordinates,Original*
G04 #@! TF.FileFunction,Legend,Top*
G04 #@! TF.FilePolarity,Positive*
%FSLAX46Y46*%
G04 Gerber Fmt 4.6, Leading zero omitted, Abs format (unit mm)*
G04 Created by KiCad (PCBNEW (6.0.2)) date 2022-04-16 20:00:21*
%MOMM*%
%LPD*%
G01*
G04 APERTURE LIST*
%ADD10C,0.100000*%
%ADD11C,0.300000*%
%ADD12C,0.150000*%
%ADD13C,0.254000*%
%ADD14C,0.200000*%
%ADD15C,0.120000*%
%ADD16C,2.100000*%
%ADD17R,0.800000X0.800000*%
%ADD18R,0.450000X0.600000*%
%ADD19R,0.940000X0.730000*%
%ADD20R,0.980000X0.760000*%
%ADD21R,1.800000X3.400000*%
%ADD22R,0.700000X0.600000*%
%ADD23R,0.730000X0.940000*%
%ADD24R,0.950000X0.800000*%
%ADD25R,1.400000X0.600000*%
%ADD26R,0.650000X1.525000*%
%ADD27R,1.650000X1.650000*%
%ADD28C,1.650000*%
%ADD29R,1.250000X0.650000*%
%ADD30R,0.435000X1.526000*%
%ADD31R,3.400000X1.800000*%
%ADD32R,0.750000X0.600000*%
%ADD33R,1.920000X1.920000*%
%ADD34C,1.920000*%
%ADD35R,1.525000X0.650000*%
%ADD36R,1.700000X1.700000*%
%ADD37O,1.700000X1.700000*%
%ADD38R,0.800000X0.950000*%
%ADD39R,0.900000X0.950000*%
%ADD40R,0.900000X1.000000*%
%ADD41R,0.600000X0.450000*%
%ADD42R,0.950000X1.400000*%
%ADD43R,1.380000X0.450000*%
%ADD44R,2.100000X1.475000*%
%ADD45R,1.900000X1.175000*%
%ADD46R,1.900000X2.375000*%
G04 APERTURE END LIST*
D10*
X179050000Y-106535000D02*
X189210000Y-106535000D01*
X189210000Y-106535000D02*
X189210000Y-116695000D01*
X189210000Y-116695000D02*
X179050000Y-116695000D01*
X179050000Y-116695000D02*
X179050000Y-106535000D01*
D11*
X181226190Y-113224761D02*
X181226190Y-114843809D01*
X181321428Y-115034285D01*
X181416666Y-115129523D01*
X181607142Y-115224761D01*
X181988095Y-115224761D01*
X182178571Y-115129523D01*
X182273809Y-115034285D01*
X182369047Y-114843809D01*
X182369047Y-113224761D01*
X183226190Y-115129523D02*
X183511904Y-115224761D01*
X183988095Y-115224761D01*
X184178571Y-115129523D01*
X184273809Y-115034285D01*
X184369047Y-114843809D01*
X184369047Y-114653333D01*
X184273809Y-114462857D01*
X184178571Y-114367619D01*
X183988095Y-114272380D01*
X183607142Y-114177142D01*
X183416666Y-114081904D01*
X183321428Y-113986666D01*
X183226190Y-113796190D01*
X183226190Y-113605714D01*
X183321428Y-113415238D01*
X183416666Y-113320000D01*
X183607142Y-113224761D01*
X184083333Y-113224761D01*
X184369047Y-113320000D01*
X185892857Y-114177142D02*
X186178571Y-114272380D01*
X186273809Y-114367619D01*
X186369047Y-114558095D01*
X186369047Y-114843809D01*
X186273809Y-115034285D01*
X186178571Y-115129523D01*
X185988095Y-115224761D01*
X185226190Y-115224761D01*
X185226190Y-113224761D01*
X185892857Y-113224761D01*
X186083333Y-113320000D01*
X186178571Y-113415238D01*
X186273809Y-113605714D01*
X186273809Y-113796190D01*
X186178571Y-113986666D01*
X186083333Y-114081904D01*
X185892857Y-114177142D01*
X185226190Y-114177142D01*
D12*
X184594666Y-80056380D02*
X184261333Y-79580190D01*
X184023238Y-80056380D02*
X184023238Y-79056380D01*
X184404190Y-79056380D01*
X184499428Y-79104000D01*
X184547047Y-79151619D01*
X184594666Y-79246857D01*
X184594666Y-79389714D01*
X184547047Y-79484952D01*
X184499428Y-79532571D01*
X184404190Y-79580190D01*
X184023238Y-79580190D01*
X185023238Y-79532571D02*
X185356571Y-79532571D01*
X185499428Y-80056380D02*
X185023238Y-80056380D01*
X185023238Y-79056380D01*
X185499428Y-79056380D01*
X186261333Y-79532571D02*
X185928000Y-79532571D01*
X185928000Y-80056380D02*
X185928000Y-79056380D01*
X186404190Y-79056380D01*
X186928000Y-79056380D02*
X186928000Y-79294476D01*
X186689904Y-79199238D02*
X186928000Y-79294476D01*
X187166095Y-79199238D01*
X186785142Y-79484952D02*
X186928000Y-79294476D01*
X187070857Y-79484952D01*
X187689904Y-79056380D02*
X187689904Y-79294476D01*
X187451809Y-79199238D02*
X187689904Y-79294476D01*
X187928000Y-79199238D01*
X187547047Y-79484952D02*
X187689904Y-79294476D01*
X187832761Y-79484952D01*
X185102666Y-144064380D02*
X184769333Y-143588190D01*
X184531238Y-144064380D02*
X184531238Y-143064380D01*
X184912190Y-143064380D01*
X185007428Y-143112000D01*
X185055047Y-143159619D01*
X185102666Y-143254857D01*
X185102666Y-143397714D01*
X185055047Y-143492952D01*
X185007428Y-143540571D01*
X184912190Y-143588190D01*
X184531238Y-143588190D01*
X185531238Y-143540571D02*
X185864571Y-143540571D01*
X186007428Y-144064380D02*
X185531238Y-144064380D01*
X185531238Y-143064380D01*
X186007428Y-143064380D01*
X186769333Y-143540571D02*
X186436000Y-143540571D01*
X186436000Y-144064380D02*
X186436000Y-143064380D01*
X186912190Y-143064380D01*
X187436000Y-143064380D02*
X187436000Y-143302476D01*
X187197904Y-143207238D02*
X187436000Y-143302476D01*
X187674095Y-143207238D01*
X187293142Y-143492952D02*
X187436000Y-143302476D01*
X187578857Y-143492952D01*
X188197904Y-143064380D02*
X188197904Y-143302476D01*
X187959809Y-143207238D02*
X188197904Y-143302476D01*
X188436000Y-143207238D01*
X188055047Y-143492952D02*
X188197904Y-143302476D01*
X188340761Y-143492952D01*
X99194857Y-126905266D02*
X99499619Y-126905266D01*
X99133904Y-127088123D02*
X99347238Y-126448123D01*
X99560571Y-127088123D01*
X99743428Y-126509076D02*
X99773904Y-126478600D01*
X99834857Y-126448123D01*
X99987238Y-126448123D01*
X100048190Y-126478600D01*
X100078666Y-126509076D01*
X100109142Y-126570028D01*
X100109142Y-126630980D01*
X100078666Y-126722409D01*
X99712952Y-127088123D01*
X100109142Y-127088123D01*
X134922380Y-119443095D02*
X133922380Y-119443095D01*
X133922380Y-119205000D01*
X133970000Y-119062142D01*
X134065238Y-118966904D01*
X134160476Y-118919285D01*
X134350952Y-118871666D01*
X134493809Y-118871666D01*
X134684285Y-118919285D01*
X134779523Y-118966904D01*
X134874761Y-119062142D01*
X134922380Y-119205000D01*
X134922380Y-119443095D01*
X134017619Y-118490714D02*
X133970000Y-118443095D01*
X133922380Y-118347857D01*
X133922380Y-118109761D01*
X133970000Y-118014523D01*
X134017619Y-117966904D01*
X134112857Y-117919285D01*
X134208095Y-117919285D01*
X134350952Y-117966904D01*
X134922380Y-118538333D01*
X134922380Y-117919285D01*
D13*
X146073571Y-119416666D02*
X146134047Y-119477142D01*
X146194523Y-119658571D01*
X146194523Y-119779523D01*
X146134047Y-119960952D01*
X146013095Y-120081904D01*
X145892142Y-120142380D01*
X145650238Y-120202857D01*
X145468809Y-120202857D01*
X145226904Y-120142380D01*
X145105952Y-120081904D01*
X144985000Y-119960952D01*
X144924523Y-119779523D01*
X144924523Y-119658571D01*
X144985000Y-119477142D01*
X145045476Y-119416666D01*
X145468809Y-118690952D02*
X145408333Y-118811904D01*
X145347857Y-118872380D01*
X145226904Y-118932857D01*
X145166428Y-118932857D01*
X145045476Y-118872380D01*
X144985000Y-118811904D01*
X144924523Y-118690952D01*
X144924523Y-118449047D01*
X144985000Y-118328095D01*
X145045476Y-118267619D01*
X145166428Y-118207142D01*
X145226904Y-118207142D01*
X145347857Y-118267619D01*
X145408333Y-118328095D01*
X145468809Y-118449047D01*
X145468809Y-118690952D01*
X145529285Y-118811904D01*
X145589761Y-118872380D01*
X145710714Y-118932857D01*
X145952619Y-118932857D01*
X146073571Y-118872380D01*
X146134047Y-118811904D01*
X146194523Y-118690952D01*
X146194523Y-118449047D01*
X146134047Y-118328095D01*
X146073571Y-118267619D01*
X145952619Y-118207142D01*
X145710714Y-118207142D01*
X145589761Y-118267619D01*
X145529285Y-118328095D01*
X145468809Y-118449047D01*
X146073571Y-115021428D02*
X146134047Y-115081904D01*
X146194523Y-115263333D01*
X146194523Y-115384285D01*
X146134047Y-115565714D01*
X146013095Y-115686666D01*
X145892142Y-115747142D01*
X145650238Y-115807619D01*
X145468809Y-115807619D01*
X145226904Y-115747142D01*
X145105952Y-115686666D01*
X144985000Y-115565714D01*
X144924523Y-115384285D01*
X144924523Y-115263333D01*
X144985000Y-115081904D01*
X145045476Y-115021428D01*
X146194523Y-113811904D02*
X146194523Y-114537619D01*
X146194523Y-114174761D02*
X144924523Y-114174761D01*
X145105952Y-114295714D01*
X145226904Y-114416666D01*
X145287380Y-114537619D01*
X144924523Y-112662857D02*
X144924523Y-113267619D01*
X145529285Y-113328095D01*
X145468809Y-113267619D01*
X145408333Y-113146666D01*
X145408333Y-112844285D01*
X145468809Y-112723333D01*
X145529285Y-112662857D01*
X145650238Y-112602380D01*
X145952619Y-112602380D01*
X146073571Y-112662857D01*
X146134047Y-112723333D01*
X146194523Y-112844285D01*
X146194523Y-113146666D01*
X146134047Y-113267619D01*
X146073571Y-113328095D01*
X140573571Y-111916666D02*
X140634047Y-111977142D01*
X140694523Y-112158571D01*
X140694523Y-112279523D01*
X140634047Y-112460952D01*
X140513095Y-112581904D01*
X140392142Y-112642380D01*
X140150238Y-112702857D01*
X139968809Y-112702857D01*
X139726904Y-112642380D01*
X139605952Y-112581904D01*
X139485000Y-112460952D01*
X139424523Y-112279523D01*
X139424523Y-112158571D01*
X139485000Y-111977142D01*
X139545476Y-111916666D01*
X139847857Y-110828095D02*
X140694523Y-110828095D01*
X139364047Y-111130476D02*
X140271190Y-111432857D01*
X140271190Y-110646666D01*
X130424523Y-113807619D02*
X130424523Y-113081904D01*
X131694523Y-113444761D02*
X130424523Y-113444761D01*
X131694523Y-112658571D02*
X130424523Y-112658571D01*
X130424523Y-112174761D01*
X130485000Y-112053809D01*
X130545476Y-111993333D01*
X130666428Y-111932857D01*
X130847857Y-111932857D01*
X130968809Y-111993333D01*
X131029285Y-112053809D01*
X131089761Y-112174761D01*
X131089761Y-112658571D01*
X131694523Y-110723333D02*
X131694523Y-111449047D01*
X131694523Y-111086190D02*
X130424523Y-111086190D01*
X130605952Y-111207142D01*
X130726904Y-111328095D01*
X130787380Y-111449047D01*
X138408333Y-122279523D02*
X137985000Y-121674761D01*
X137682619Y-122279523D02*
X137682619Y-121009523D01*
X138166428Y-121009523D01*
X138287380Y-121070000D01*
X138347857Y-121130476D01*
X138408333Y-121251428D01*
X138408333Y-121432857D01*
X138347857Y-121553809D01*
X138287380Y-121614285D01*
X138166428Y-121674761D01*
X137682619Y-121674761D01*
X139617857Y-122279523D02*
X138892142Y-122279523D01*
X139255000Y-122279523D02*
X139255000Y-121009523D01*
X139134047Y-121190952D01*
X139013095Y-121311904D01*
X138892142Y-121372380D01*
X138618333Y-128158571D02*
X138557857Y-128219047D01*
X138376428Y-128279523D01*
X138255476Y-128279523D01*
X138074047Y-128219047D01*
X137953095Y-128098095D01*
X137892619Y-127977142D01*
X137832142Y-127735238D01*
X137832142Y-127553809D01*
X137892619Y-127311904D01*
X137953095Y-127190952D01*
X138074047Y-127070000D01*
X138255476Y-127009523D01*
X138376428Y-127009523D01*
X138557857Y-127070000D01*
X138618333Y-127130476D01*
X139827857Y-128279523D02*
X139102142Y-128279523D01*
X139465000Y-128279523D02*
X139465000Y-127009523D01*
X139344047Y-127190952D01*
X139223095Y-127311904D01*
X139102142Y-127372380D01*
X180194523Y-123416666D02*
X179589761Y-123840000D01*
X180194523Y-124142380D02*
X178924523Y-124142380D01*
X178924523Y-123658571D01*
X178985000Y-123537619D01*
X179045476Y-123477142D01*
X179166428Y-123416666D01*
X179347857Y-123416666D01*
X179468809Y-123477142D01*
X179529285Y-123537619D01*
X179589761Y-123658571D01*
X179589761Y-124142380D01*
X179347857Y-122328095D02*
X180194523Y-122328095D01*
X178864047Y-122630476D02*
X179771190Y-122932857D01*
X179771190Y-122146666D01*
X134760238Y-112574523D02*
X134760238Y-111304523D01*
X136090714Y-112453571D02*
X136030238Y-112514047D01*
X135848809Y-112574523D01*
X135727857Y-112574523D01*
X135546428Y-112514047D01*
X135425476Y-112393095D01*
X135365000Y-112272142D01*
X135304523Y-112030238D01*
X135304523Y-111848809D01*
X135365000Y-111606904D01*
X135425476Y-111485952D01*
X135546428Y-111365000D01*
X135727857Y-111304523D01*
X135848809Y-111304523D01*
X136030238Y-111365000D01*
X136090714Y-111425476D01*
X137239761Y-111304523D02*
X136635000Y-111304523D01*
X136574523Y-111909285D01*
X136635000Y-111848809D01*
X136755952Y-111788333D01*
X137058333Y-111788333D01*
X137179285Y-111848809D01*
X137239761Y-111909285D01*
X137300238Y-112030238D01*
X137300238Y-112332619D01*
X137239761Y-112453571D01*
X137179285Y-112514047D01*
X137058333Y-112574523D01*
X136755952Y-112574523D01*
X136635000Y-112514047D01*
X136574523Y-112453571D01*
X162194523Y-116944761D02*
X160924523Y-116944761D01*
X162073571Y-115614285D02*
X162134047Y-115674761D01*
X162194523Y-115856190D01*
X162194523Y-115977142D01*
X162134047Y-116158571D01*
X162013095Y-116279523D01*
X161892142Y-116340000D01*
X161650238Y-116400476D01*
X161468809Y-116400476D01*
X161226904Y-116340000D01*
X161105952Y-116279523D01*
X160985000Y-116158571D01*
X160924523Y-115977142D01*
X160924523Y-115856190D01*
X160985000Y-115674761D01*
X161045476Y-115614285D01*
X162194523Y-114404761D02*
X162194523Y-115130476D01*
X162194523Y-114767619D02*
X160924523Y-114767619D01*
X161105952Y-114888571D01*
X161226904Y-115009523D01*
X161287380Y-115130476D01*
X111791666Y-107534523D02*
X111791666Y-108441666D01*
X111731190Y-108623095D01*
X111610238Y-108744047D01*
X111428809Y-108804523D01*
X111307857Y-108804523D01*
X112275476Y-107534523D02*
X113122142Y-107534523D01*
X112577857Y-108804523D01*
X116380238Y-104279523D02*
X116380238Y-103009523D01*
X117710714Y-104158571D02*
X117650238Y-104219047D01*
X117468809Y-104279523D01*
X117347857Y-104279523D01*
X117166428Y-104219047D01*
X117045476Y-104098095D01*
X116985000Y-103977142D01*
X116924523Y-103735238D01*
X116924523Y-103553809D01*
X116985000Y-103311904D01*
X117045476Y-103190952D01*
X117166428Y-103070000D01*
X117347857Y-103009523D01*
X117468809Y-103009523D01*
X117650238Y-103070000D01*
X117710714Y-103130476D01*
X118799285Y-103009523D02*
X118557380Y-103009523D01*
X118436428Y-103070000D01*
X118375952Y-103130476D01*
X118255000Y-103311904D01*
X118194523Y-103553809D01*
X118194523Y-104037619D01*
X118255000Y-104158571D01*
X118315476Y-104219047D01*
X118436428Y-104279523D01*
X118678333Y-104279523D01*
X118799285Y-104219047D01*
X118859761Y-104158571D01*
X118920238Y-104037619D01*
X118920238Y-103735238D01*
X118859761Y-103614285D01*
X118799285Y-103553809D01*
X118678333Y-103493333D01*
X118436428Y-103493333D01*
X118315476Y-103553809D01*
X118255000Y-103614285D01*
X118194523Y-103735238D01*
X115194523Y-128444761D02*
X113924523Y-128444761D01*
X115073571Y-127114285D02*
X115134047Y-127174761D01*
X115194523Y-127356190D01*
X115194523Y-127477142D01*
X115134047Y-127658571D01*
X115013095Y-127779523D01*
X114892142Y-127840000D01*
X114650238Y-127900476D01*
X114468809Y-127900476D01*
X114226904Y-127840000D01*
X114105952Y-127779523D01*
X113985000Y-127658571D01*
X113924523Y-127477142D01*
X113924523Y-127356190D01*
X113985000Y-127174761D01*
X114045476Y-127114285D01*
X114347857Y-126025714D02*
X115194523Y-126025714D01*
X113864047Y-126328095D02*
X114771190Y-126630476D01*
X114771190Y-125844285D01*
X160367380Y-99654523D02*
X161093095Y-99654523D01*
X160730238Y-100924523D02*
X160730238Y-99654523D01*
X161516428Y-100924523D02*
X161516428Y-99654523D01*
X162000238Y-99654523D01*
X162121190Y-99715000D01*
X162181666Y-99775476D01*
X162242142Y-99896428D01*
X162242142Y-100077857D01*
X162181666Y-100198809D01*
X162121190Y-100259285D01*
X162000238Y-100319761D01*
X161516428Y-100319761D01*
X162846904Y-100924523D02*
X163088809Y-100924523D01*
X163209761Y-100864047D01*
X163270238Y-100803571D01*
X163391190Y-100622142D01*
X163451666Y-100380238D01*
X163451666Y-99896428D01*
X163391190Y-99775476D01*
X163330714Y-99715000D01*
X163209761Y-99654523D01*
X162967857Y-99654523D01*
X162846904Y-99715000D01*
X162786428Y-99775476D01*
X162725952Y-99896428D01*
X162725952Y-100198809D01*
X162786428Y-100319761D01*
X162846904Y-100380238D01*
X162967857Y-100440714D01*
X163209761Y-100440714D01*
X163330714Y-100380238D01*
X163391190Y-100319761D01*
X163451666Y-100198809D01*
X124788333Y-125453571D02*
X124727857Y-125514047D01*
X124546428Y-125574523D01*
X124425476Y-125574523D01*
X124244047Y-125514047D01*
X124123095Y-125393095D01*
X124062619Y-125272142D01*
X124002142Y-125030238D01*
X124002142Y-124848809D01*
X124062619Y-124606904D01*
X124123095Y-124485952D01*
X124244047Y-124365000D01*
X124425476Y-124304523D01*
X124546428Y-124304523D01*
X124727857Y-124365000D01*
X124788333Y-124425476D01*
X125272142Y-124425476D02*
X125332619Y-124365000D01*
X125453571Y-124304523D01*
X125755952Y-124304523D01*
X125876904Y-124365000D01*
X125937380Y-124425476D01*
X125997857Y-124546428D01*
X125997857Y-124667380D01*
X125937380Y-124848809D01*
X125211666Y-125574523D01*
X125997857Y-125574523D01*
X152608333Y-130279523D02*
X152185000Y-129674761D01*
X151882619Y-130279523D02*
X151882619Y-129009523D01*
X152366428Y-129009523D01*
X152487380Y-129070000D01*
X152547857Y-129130476D01*
X152608333Y-129251428D01*
X152608333Y-129432857D01*
X152547857Y-129553809D01*
X152487380Y-129614285D01*
X152366428Y-129674761D01*
X151882619Y-129674761D01*
X153696904Y-129009523D02*
X153455000Y-129009523D01*
X153334047Y-129070000D01*
X153273571Y-129130476D01*
X153152619Y-129311904D01*
X153092142Y-129553809D01*
X153092142Y-130037619D01*
X153152619Y-130158571D01*
X153213095Y-130219047D01*
X153334047Y-130279523D01*
X153575952Y-130279523D01*
X153696904Y-130219047D01*
X153757380Y-130158571D01*
X153817857Y-130037619D01*
X153817857Y-129735238D01*
X153757380Y-129614285D01*
X153696904Y-129553809D01*
X153575952Y-129493333D01*
X153334047Y-129493333D01*
X153213095Y-129553809D01*
X153152619Y-129614285D01*
X153092142Y-129735238D01*
X142694523Y-117021428D02*
X142089761Y-117444761D01*
X142694523Y-117747142D02*
X141424523Y-117747142D01*
X141424523Y-117263333D01*
X141485000Y-117142380D01*
X141545476Y-117081904D01*
X141666428Y-117021428D01*
X141847857Y-117021428D01*
X141968809Y-117081904D01*
X142029285Y-117142380D01*
X142089761Y-117263333D01*
X142089761Y-117747142D01*
X142694523Y-115811904D02*
X142694523Y-116537619D01*
X142694523Y-116174761D02*
X141424523Y-116174761D01*
X141605952Y-116295714D01*
X141726904Y-116416666D01*
X141787380Y-116537619D01*
X141424523Y-114662857D02*
X141424523Y-115267619D01*
X142029285Y-115328095D01*
X141968809Y-115267619D01*
X141908333Y-115146666D01*
X141908333Y-114844285D01*
X141968809Y-114723333D01*
X142029285Y-114662857D01*
X142150238Y-114602380D01*
X142452619Y-114602380D01*
X142573571Y-114662857D01*
X142634047Y-114723333D01*
X142694523Y-114844285D01*
X142694523Y-115146666D01*
X142634047Y-115267619D01*
X142573571Y-115328095D01*
X155013571Y-101158571D02*
X154953095Y-101219047D01*
X154771666Y-101279523D01*
X154650714Y-101279523D01*
X154469285Y-101219047D01*
X154348333Y-101098095D01*
X154287857Y-100977142D01*
X154227380Y-100735238D01*
X154227380Y-100553809D01*
X154287857Y-100311904D01*
X154348333Y-100190952D01*
X154469285Y-100070000D01*
X154650714Y-100009523D01*
X154771666Y-100009523D01*
X154953095Y-100070000D01*
X155013571Y-100130476D01*
X156223095Y-101279523D02*
X155497380Y-101279523D01*
X155860238Y-101279523D02*
X155860238Y-100009523D01*
X155739285Y-100190952D01*
X155618333Y-100311904D01*
X155497380Y-100372380D01*
X156706904Y-100130476D02*
X156767380Y-100070000D01*
X156888333Y-100009523D01*
X157190714Y-100009523D01*
X157311666Y-100070000D01*
X157372142Y-100130476D01*
X157432619Y-100251428D01*
X157432619Y-100372380D01*
X157372142Y-100553809D01*
X156646428Y-101279523D01*
X157432619Y-101279523D01*
X131039047Y-128400476D02*
X130918095Y-128340000D01*
X130797142Y-128219047D01*
X130615714Y-128037619D01*
X130494761Y-127977142D01*
X130373809Y-127977142D01*
X130434285Y-128279523D02*
X130313333Y-128219047D01*
X130192380Y-128098095D01*
X130131904Y-127856190D01*
X130131904Y-127432857D01*
X130192380Y-127190952D01*
X130313333Y-127070000D01*
X130434285Y-127009523D01*
X130676190Y-127009523D01*
X130797142Y-127070000D01*
X130918095Y-127190952D01*
X130978571Y-127432857D01*
X130978571Y-127856190D01*
X130918095Y-128098095D01*
X130797142Y-128219047D01*
X130676190Y-128279523D01*
X130434285Y-128279523D01*
X132188095Y-128279523D02*
X131462380Y-128279523D01*
X131825238Y-128279523D02*
X131825238Y-127009523D01*
X131704285Y-127190952D01*
X131583333Y-127311904D01*
X131462380Y-127372380D01*
X129417380Y-99654523D02*
X130143095Y-99654523D01*
X129780238Y-100924523D02*
X129780238Y-99654523D01*
X130566428Y-100924523D02*
X130566428Y-99654523D01*
X131050238Y-99654523D01*
X131171190Y-99715000D01*
X131231666Y-99775476D01*
X131292142Y-99896428D01*
X131292142Y-100077857D01*
X131231666Y-100198809D01*
X131171190Y-100259285D01*
X131050238Y-100319761D01*
X130566428Y-100319761D01*
X131775952Y-99775476D02*
X131836428Y-99715000D01*
X131957380Y-99654523D01*
X132259761Y-99654523D01*
X132380714Y-99715000D01*
X132441190Y-99775476D01*
X132501666Y-99896428D01*
X132501666Y-100017380D01*
X132441190Y-100198809D01*
X131715476Y-100924523D01*
X132501666Y-100924523D01*
X173380238Y-102779523D02*
X173380238Y-101509523D01*
X174710714Y-102658571D02*
X174650238Y-102719047D01*
X174468809Y-102779523D01*
X174347857Y-102779523D01*
X174166428Y-102719047D01*
X174045476Y-102598095D01*
X173985000Y-102477142D01*
X173924523Y-102235238D01*
X173924523Y-102053809D01*
X173985000Y-101811904D01*
X174045476Y-101690952D01*
X174166428Y-101570000D01*
X174347857Y-101509523D01*
X174468809Y-101509523D01*
X174650238Y-101570000D01*
X174710714Y-101630476D01*
X175134047Y-101509523D02*
X175920238Y-101509523D01*
X175496904Y-101993333D01*
X175678333Y-101993333D01*
X175799285Y-102053809D01*
X175859761Y-102114285D01*
X175920238Y-102235238D01*
X175920238Y-102537619D01*
X175859761Y-102658571D01*
X175799285Y-102719047D01*
X175678333Y-102779523D01*
X175315476Y-102779523D01*
X175194523Y-102719047D01*
X175134047Y-102658571D01*
X103196666Y-103009523D02*
X103196666Y-103916666D01*
X103136190Y-104098095D01*
X103015238Y-104219047D01*
X102833809Y-104279523D01*
X102712857Y-104279523D01*
X103982857Y-103553809D02*
X103861904Y-103493333D01*
X103801428Y-103432857D01*
X103740952Y-103311904D01*
X103740952Y-103251428D01*
X103801428Y-103130476D01*
X103861904Y-103070000D01*
X103982857Y-103009523D01*
X104224761Y-103009523D01*
X104345714Y-103070000D01*
X104406190Y-103130476D01*
X104466666Y-103251428D01*
X104466666Y-103311904D01*
X104406190Y-103432857D01*
X104345714Y-103493333D01*
X104224761Y-103553809D01*
X103982857Y-103553809D01*
X103861904Y-103614285D01*
X103801428Y-103674761D01*
X103740952Y-103795714D01*
X103740952Y-104037619D01*
X103801428Y-104158571D01*
X103861904Y-104219047D01*
X103982857Y-104279523D01*
X104224761Y-104279523D01*
X104345714Y-104219047D01*
X104406190Y-104158571D01*
X104466666Y-104037619D01*
X104466666Y-103795714D01*
X104406190Y-103674761D01*
X104345714Y-103614285D01*
X104224761Y-103553809D01*
X163303571Y-108158571D02*
X163243095Y-108219047D01*
X163061666Y-108279523D01*
X162940714Y-108279523D01*
X162759285Y-108219047D01*
X162638333Y-108098095D01*
X162577857Y-107977142D01*
X162517380Y-107735238D01*
X162517380Y-107553809D01*
X162577857Y-107311904D01*
X162638333Y-107190952D01*
X162759285Y-107070000D01*
X162940714Y-107009523D01*
X163061666Y-107009523D01*
X163243095Y-107070000D01*
X163303571Y-107130476D01*
X164513095Y-108279523D02*
X163787380Y-108279523D01*
X164150238Y-108279523D02*
X164150238Y-107009523D01*
X164029285Y-107190952D01*
X163908333Y-107311904D01*
X163787380Y-107372380D01*
X164936428Y-107009523D02*
X165722619Y-107009523D01*
X165299285Y-107493333D01*
X165480714Y-107493333D01*
X165601666Y-107553809D01*
X165662142Y-107614285D01*
X165722619Y-107735238D01*
X165722619Y-108037619D01*
X165662142Y-108158571D01*
X165601666Y-108219047D01*
X165480714Y-108279523D01*
X165117857Y-108279523D01*
X164996904Y-108219047D01*
X164936428Y-108158571D01*
X150397380Y-106204523D02*
X151123095Y-106204523D01*
X150760238Y-107474523D02*
X150760238Y-106204523D01*
X151546428Y-107474523D02*
X151546428Y-106204523D01*
X152030238Y-106204523D01*
X152151190Y-106265000D01*
X152211666Y-106325476D01*
X152272142Y-106446428D01*
X152272142Y-106627857D01*
X152211666Y-106748809D01*
X152151190Y-106809285D01*
X152030238Y-106869761D01*
X151546428Y-106869761D01*
X152997857Y-106748809D02*
X152876904Y-106688333D01*
X152816428Y-106627857D01*
X152755952Y-106506904D01*
X152755952Y-106446428D01*
X152816428Y-106325476D01*
X152876904Y-106265000D01*
X152997857Y-106204523D01*
X153239761Y-106204523D01*
X153360714Y-106265000D01*
X153421190Y-106325476D01*
X153481666Y-106446428D01*
X153481666Y-106506904D01*
X153421190Y-106627857D01*
X153360714Y-106688333D01*
X153239761Y-106748809D01*
X152997857Y-106748809D01*
X152876904Y-106809285D01*
X152816428Y-106869761D01*
X152755952Y-106990714D01*
X152755952Y-107232619D01*
X152816428Y-107353571D01*
X152876904Y-107414047D01*
X152997857Y-107474523D01*
X153239761Y-107474523D01*
X153360714Y-107414047D01*
X153421190Y-107353571D01*
X153481666Y-107232619D01*
X153481666Y-106990714D01*
X153421190Y-106869761D01*
X153360714Y-106809285D01*
X153239761Y-106748809D01*
D12*
X182162380Y-94333333D02*
X182876666Y-94333333D01*
X183019523Y-94380952D01*
X183114761Y-94476190D01*
X183162380Y-94619047D01*
X183162380Y-94714285D01*
X182257619Y-93904761D02*
X182210000Y-93857142D01*
X182162380Y-93761904D01*
X182162380Y-93523809D01*
X182210000Y-93428571D01*
X182257619Y-93380952D01*
X182352857Y-93333333D01*
X182448095Y-93333333D01*
X182590952Y-93380952D01*
X183162380Y-93952380D01*
X183162380Y-93333333D01*
X99194857Y-123905266D02*
X99499619Y-123905266D01*
X99133904Y-124088123D02*
X99347238Y-123448123D01*
X99560571Y-124088123D01*
X100109142Y-124088123D02*
X99743428Y-124088123D01*
X99926285Y-124088123D02*
X99926285Y-123448123D01*
X99865333Y-123539552D01*
X99804380Y-123600504D01*
X99743428Y-123630980D01*
D13*
X144591666Y-106904523D02*
X144591666Y-107811666D01*
X144531190Y-107993095D01*
X144410238Y-108114047D01*
X144228809Y-108174523D01*
X144107857Y-108174523D01*
X145256904Y-108174523D02*
X145498809Y-108174523D01*
X145619761Y-108114047D01*
X145680238Y-108053571D01*
X145801190Y-107872142D01*
X145861666Y-107630238D01*
X145861666Y-107146428D01*
X145801190Y-107025476D01*
X145740714Y-106965000D01*
X145619761Y-106904523D01*
X145377857Y-106904523D01*
X145256904Y-106965000D01*
X145196428Y-107025476D01*
X145135952Y-107146428D01*
X145135952Y-107448809D01*
X145196428Y-107569761D01*
X145256904Y-107630238D01*
X145377857Y-107690714D01*
X145619761Y-107690714D01*
X145740714Y-107630238D01*
X145801190Y-107569761D01*
X145861666Y-107448809D01*
X125453571Y-120211666D02*
X125514047Y-120272142D01*
X125574523Y-120453571D01*
X125574523Y-120574523D01*
X125514047Y-120755952D01*
X125393095Y-120876904D01*
X125272142Y-120937380D01*
X125030238Y-120997857D01*
X124848809Y-120997857D01*
X124606904Y-120937380D01*
X124485952Y-120876904D01*
X124365000Y-120755952D01*
X124304523Y-120574523D01*
X124304523Y-120453571D01*
X124365000Y-120272142D01*
X124425476Y-120211666D01*
X124304523Y-119788333D02*
X124304523Y-118941666D01*
X125574523Y-119485952D01*
X169194523Y-110521428D02*
X168589761Y-110944761D01*
X169194523Y-111247142D02*
X167924523Y-111247142D01*
X167924523Y-110763333D01*
X167985000Y-110642380D01*
X168045476Y-110581904D01*
X168166428Y-110521428D01*
X168347857Y-110521428D01*
X168468809Y-110581904D01*
X168529285Y-110642380D01*
X168589761Y-110763333D01*
X168589761Y-111247142D01*
X169194523Y-109311904D02*
X169194523Y-110037619D01*
X169194523Y-109674761D02*
X167924523Y-109674761D01*
X168105952Y-109795714D01*
X168226904Y-109916666D01*
X168287380Y-110037619D01*
X168045476Y-108828095D02*
X167985000Y-108767619D01*
X167924523Y-108646666D01*
X167924523Y-108344285D01*
X167985000Y-108223333D01*
X168045476Y-108162857D01*
X168166428Y-108102380D01*
X168287380Y-108102380D01*
X168468809Y-108162857D01*
X169194523Y-108888571D01*
X169194523Y-108102380D01*
X163303571Y-105658571D02*
X163243095Y-105719047D01*
X163061666Y-105779523D01*
X162940714Y-105779523D01*
X162759285Y-105719047D01*
X162638333Y-105598095D01*
X162577857Y-105477142D01*
X162517380Y-105235238D01*
X162517380Y-105053809D01*
X162577857Y-104811904D01*
X162638333Y-104690952D01*
X162759285Y-104570000D01*
X162940714Y-104509523D01*
X163061666Y-104509523D01*
X163243095Y-104570000D01*
X163303571Y-104630476D01*
X164513095Y-105779523D02*
X163787380Y-105779523D01*
X164150238Y-105779523D02*
X164150238Y-104509523D01*
X164029285Y-104690952D01*
X163908333Y-104811904D01*
X163787380Y-104872380D01*
X165722619Y-105779523D02*
X164996904Y-105779523D01*
X165359761Y-105779523D02*
X165359761Y-104509523D01*
X165238809Y-104690952D01*
X165117857Y-104811904D01*
X164996904Y-104872380D01*
X113908333Y-118779523D02*
X113485000Y-118174761D01*
X113182619Y-118779523D02*
X113182619Y-117509523D01*
X113666428Y-117509523D01*
X113787380Y-117570000D01*
X113847857Y-117630476D01*
X113908333Y-117751428D01*
X113908333Y-117932857D01*
X113847857Y-118053809D01*
X113787380Y-118114285D01*
X113666428Y-118174761D01*
X113182619Y-118174761D01*
X114331666Y-117509523D02*
X115117857Y-117509523D01*
X114694523Y-117993333D01*
X114875952Y-117993333D01*
X114996904Y-118053809D01*
X115057380Y-118114285D01*
X115117857Y-118235238D01*
X115117857Y-118537619D01*
X115057380Y-118658571D01*
X114996904Y-118719047D01*
X114875952Y-118779523D01*
X114513095Y-118779523D01*
X114392142Y-118719047D01*
X114331666Y-118658571D01*
X142517380Y-125709523D02*
X143243095Y-125709523D01*
X142880238Y-126979523D02*
X142880238Y-125709523D01*
X143666428Y-126979523D02*
X143666428Y-125709523D01*
X144150238Y-125709523D01*
X144271190Y-125770000D01*
X144331666Y-125830476D01*
X144392142Y-125951428D01*
X144392142Y-126132857D01*
X144331666Y-126253809D01*
X144271190Y-126314285D01*
X144150238Y-126374761D01*
X143666428Y-126374761D01*
X144815476Y-125709523D02*
X145662142Y-125709523D01*
X145117857Y-126979523D01*
X148933333Y-125729523D02*
X148510000Y-125124761D01*
X148207619Y-125729523D02*
X148207619Y-124459523D01*
X148691428Y-124459523D01*
X148812380Y-124520000D01*
X148872857Y-124580476D01*
X148933333Y-124701428D01*
X148933333Y-124882857D01*
X148872857Y-125003809D01*
X148812380Y-125064285D01*
X148691428Y-125124761D01*
X148207619Y-125124761D01*
X149659047Y-125003809D02*
X149538095Y-124943333D01*
X149477619Y-124882857D01*
X149417142Y-124761904D01*
X149417142Y-124701428D01*
X149477619Y-124580476D01*
X149538095Y-124520000D01*
X149659047Y-124459523D01*
X149900952Y-124459523D01*
X150021904Y-124520000D01*
X150082380Y-124580476D01*
X150142857Y-124701428D01*
X150142857Y-124761904D01*
X150082380Y-124882857D01*
X150021904Y-124943333D01*
X149900952Y-125003809D01*
X149659047Y-125003809D01*
X149538095Y-125064285D01*
X149477619Y-125124761D01*
X149417142Y-125245714D01*
X149417142Y-125487619D01*
X149477619Y-125608571D01*
X149538095Y-125669047D01*
X149659047Y-125729523D01*
X149900952Y-125729523D01*
X150021904Y-125669047D01*
X150082380Y-125608571D01*
X150142857Y-125487619D01*
X150142857Y-125245714D01*
X150082380Y-125124761D01*
X150021904Y-125064285D01*
X149900952Y-125003809D01*
X103397380Y-130304523D02*
X104123095Y-130304523D01*
X103760238Y-131574523D02*
X103760238Y-130304523D01*
X104546428Y-131574523D02*
X104546428Y-130304523D01*
X105030238Y-130304523D01*
X105151190Y-130365000D01*
X105211666Y-130425476D01*
X105272142Y-130546428D01*
X105272142Y-130727857D01*
X105211666Y-130848809D01*
X105151190Y-130909285D01*
X105030238Y-130969761D01*
X104546428Y-130969761D01*
X106360714Y-130304523D02*
X106118809Y-130304523D01*
X105997857Y-130365000D01*
X105937380Y-130425476D01*
X105816428Y-130606904D01*
X105755952Y-130848809D01*
X105755952Y-131332619D01*
X105816428Y-131453571D01*
X105876904Y-131514047D01*
X105997857Y-131574523D01*
X106239761Y-131574523D01*
X106360714Y-131514047D01*
X106421190Y-131453571D01*
X106481666Y-131332619D01*
X106481666Y-131030238D01*
X106421190Y-130909285D01*
X106360714Y-130848809D01*
X106239761Y-130788333D01*
X105997857Y-130788333D01*
X105876904Y-130848809D01*
X105816428Y-130909285D01*
X105755952Y-131030238D01*
X100591904Y-98009523D02*
X100591904Y-98916666D01*
X100531428Y-99098095D01*
X100410476Y-99219047D01*
X100229047Y-99279523D01*
X100108095Y-99279523D01*
X101861904Y-99279523D02*
X101136190Y-99279523D01*
X101499047Y-99279523D02*
X101499047Y-98009523D01*
X101378095Y-98190952D01*
X101257142Y-98311904D01*
X101136190Y-98372380D01*
X102648095Y-98009523D02*
X102769047Y-98009523D01*
X102890000Y-98070000D01*
X102950476Y-98130476D01*
X103010952Y-98251428D01*
X103071428Y-98493333D01*
X103071428Y-98795714D01*
X103010952Y-99037619D01*
X102950476Y-99158571D01*
X102890000Y-99219047D01*
X102769047Y-99279523D01*
X102648095Y-99279523D01*
X102527142Y-99219047D01*
X102466666Y-99158571D01*
X102406190Y-99037619D01*
X102345714Y-98795714D01*
X102345714Y-98493333D01*
X102406190Y-98251428D01*
X102466666Y-98130476D01*
X102527142Y-98070000D01*
X102648095Y-98009523D01*
X106182619Y-107279523D02*
X106182619Y-106009523D01*
X106485000Y-106009523D01*
X106666428Y-106070000D01*
X106787380Y-106190952D01*
X106847857Y-106311904D01*
X106908333Y-106553809D01*
X106908333Y-106735238D01*
X106847857Y-106977142D01*
X106787380Y-107098095D01*
X106666428Y-107219047D01*
X106485000Y-107279523D01*
X106182619Y-107279523D01*
X108117857Y-107279523D02*
X107392142Y-107279523D01*
X107755000Y-107279523D02*
X107755000Y-106009523D01*
X107634047Y-106190952D01*
X107513095Y-106311904D01*
X107392142Y-106372380D01*
D12*
X181722380Y-84173333D02*
X182436666Y-84173333D01*
X182579523Y-84220952D01*
X182674761Y-84316190D01*
X182722380Y-84459047D01*
X182722380Y-84554285D01*
X182722380Y-83173333D02*
X182722380Y-83744761D01*
X182722380Y-83459047D02*
X181722380Y-83459047D01*
X181865238Y-83554285D01*
X181960476Y-83649523D01*
X182008095Y-83744761D01*
D13*
X173303571Y-123658571D02*
X173243095Y-123719047D01*
X173061666Y-123779523D01*
X172940714Y-123779523D01*
X172759285Y-123719047D01*
X172638333Y-123598095D01*
X172577857Y-123477142D01*
X172517380Y-123235238D01*
X172517380Y-123053809D01*
X172577857Y-122811904D01*
X172638333Y-122690952D01*
X172759285Y-122570000D01*
X172940714Y-122509523D01*
X173061666Y-122509523D01*
X173243095Y-122570000D01*
X173303571Y-122630476D01*
X174513095Y-123779523D02*
X173787380Y-123779523D01*
X174150238Y-123779523D02*
X174150238Y-122509523D01*
X174029285Y-122690952D01*
X173908333Y-122811904D01*
X173787380Y-122872380D01*
X175299285Y-122509523D02*
X175420238Y-122509523D01*
X175541190Y-122570000D01*
X175601666Y-122630476D01*
X175662142Y-122751428D01*
X175722619Y-122993333D01*
X175722619Y-123295714D01*
X175662142Y-123537619D01*
X175601666Y-123658571D01*
X175541190Y-123719047D01*
X175420238Y-123779523D01*
X175299285Y-123779523D01*
X175178333Y-123719047D01*
X175117857Y-123658571D01*
X175057380Y-123537619D01*
X174996904Y-123295714D01*
X174996904Y-122993333D01*
X175057380Y-122751428D01*
X175117857Y-122630476D01*
X175178333Y-122570000D01*
X175299285Y-122509523D01*
X142517380Y-128509523D02*
X143243095Y-128509523D01*
X142880238Y-129779523D02*
X142880238Y-128509523D01*
X143666428Y-129779523D02*
X143666428Y-128509523D01*
X144150238Y-128509523D01*
X144271190Y-128570000D01*
X144331666Y-128630476D01*
X144392142Y-128751428D01*
X144392142Y-128932857D01*
X144331666Y-129053809D01*
X144271190Y-129114285D01*
X144150238Y-129174761D01*
X143666428Y-129174761D01*
X145541190Y-128509523D02*
X144936428Y-128509523D01*
X144875952Y-129114285D01*
X144936428Y-129053809D01*
X145057380Y-128993333D01*
X145359761Y-128993333D01*
X145480714Y-129053809D01*
X145541190Y-129114285D01*
X145601666Y-129235238D01*
X145601666Y-129537619D01*
X145541190Y-129658571D01*
X145480714Y-129719047D01*
X145359761Y-129779523D01*
X145057380Y-129779523D01*
X144936428Y-129719047D01*
X144875952Y-129658571D01*
X157183571Y-127574523D02*
X156760238Y-126969761D01*
X156457857Y-127574523D02*
X156457857Y-126304523D01*
X156941666Y-126304523D01*
X157062619Y-126365000D01*
X157123095Y-126425476D01*
X157183571Y-126546428D01*
X157183571Y-126727857D01*
X157123095Y-126848809D01*
X157062619Y-126909285D01*
X156941666Y-126969761D01*
X156457857Y-126969761D01*
X158393095Y-127574523D02*
X157667380Y-127574523D01*
X158030238Y-127574523D02*
X158030238Y-126304523D01*
X157909285Y-126485952D01*
X157788333Y-126606904D01*
X157667380Y-126667380D01*
X159481666Y-126727857D02*
X159481666Y-127574523D01*
X159179285Y-126244047D02*
X158876904Y-127151190D01*
X159663095Y-127151190D01*
X127624523Y-113917619D02*
X127624523Y-113191904D01*
X128894523Y-113554761D02*
X127624523Y-113554761D01*
X128894523Y-112768571D02*
X127624523Y-112768571D01*
X127624523Y-112284761D01*
X127685000Y-112163809D01*
X127745476Y-112103333D01*
X127866428Y-112042857D01*
X128047857Y-112042857D01*
X128168809Y-112103333D01*
X128229285Y-112163809D01*
X128289761Y-112284761D01*
X128289761Y-112768571D01*
X127624523Y-111619523D02*
X127624523Y-110833333D01*
X128108333Y-111256666D01*
X128108333Y-111075238D01*
X128168809Y-110954285D01*
X128229285Y-110893809D01*
X128350238Y-110833333D01*
X128652619Y-110833333D01*
X128773571Y-110893809D01*
X128834047Y-110954285D01*
X128894523Y-111075238D01*
X128894523Y-111438095D01*
X128834047Y-111559047D01*
X128773571Y-111619523D01*
X166908333Y-125779523D02*
X166485000Y-125174761D01*
X166182619Y-125779523D02*
X166182619Y-124509523D01*
X166666428Y-124509523D01*
X166787380Y-124570000D01*
X166847857Y-124630476D01*
X166908333Y-124751428D01*
X166908333Y-124932857D01*
X166847857Y-125053809D01*
X166787380Y-125114285D01*
X166666428Y-125174761D01*
X166182619Y-125174761D01*
X167513095Y-125779523D02*
X167755000Y-125779523D01*
X167875952Y-125719047D01*
X167936428Y-125658571D01*
X168057380Y-125477142D01*
X168117857Y-125235238D01*
X168117857Y-124751428D01*
X168057380Y-124630476D01*
X167996904Y-124570000D01*
X167875952Y-124509523D01*
X167634047Y-124509523D01*
X167513095Y-124570000D01*
X167452619Y-124630476D01*
X167392142Y-124751428D01*
X167392142Y-125053809D01*
X167452619Y-125174761D01*
X167513095Y-125235238D01*
X167634047Y-125295714D01*
X167875952Y-125295714D01*
X167996904Y-125235238D01*
X168057380Y-125174761D01*
X168117857Y-125053809D01*
D12*
X181722380Y-145133333D02*
X182436666Y-145133333D01*
X182579523Y-145180952D01*
X182674761Y-145276190D01*
X182722380Y-145419047D01*
X182722380Y-145514285D01*
X182055714Y-144228571D02*
X182722380Y-144228571D01*
X181674761Y-144466666D02*
X182389047Y-144704761D01*
X182389047Y-144085714D01*
D13*
X172408333Y-130779523D02*
X171985000Y-130174761D01*
X171682619Y-130779523D02*
X171682619Y-129509523D01*
X172166428Y-129509523D01*
X172287380Y-129570000D01*
X172347857Y-129630476D01*
X172408333Y-129751428D01*
X172408333Y-129932857D01*
X172347857Y-130053809D01*
X172287380Y-130114285D01*
X172166428Y-130174761D01*
X171682619Y-130174761D01*
X172831666Y-129509523D02*
X173678333Y-129509523D01*
X173134047Y-130779523D01*
X177303571Y-129158571D02*
X177243095Y-129219047D01*
X177061666Y-129279523D01*
X176940714Y-129279523D01*
X176759285Y-129219047D01*
X176638333Y-129098095D01*
X176577857Y-128977142D01*
X176517380Y-128735238D01*
X176517380Y-128553809D01*
X176577857Y-128311904D01*
X176638333Y-128190952D01*
X176759285Y-128070000D01*
X176940714Y-128009523D01*
X177061666Y-128009523D01*
X177243095Y-128070000D01*
X177303571Y-128130476D01*
X178513095Y-129279523D02*
X177787380Y-129279523D01*
X178150238Y-129279523D02*
X178150238Y-128009523D01*
X178029285Y-128190952D01*
X177908333Y-128311904D01*
X177787380Y-128372380D01*
X179601666Y-128432857D02*
X179601666Y-129279523D01*
X179299285Y-127949047D02*
X178996904Y-128856190D01*
X179783095Y-128856190D01*
X134186666Y-100134285D02*
X133763333Y-100134285D01*
X133763333Y-100799523D02*
X133763333Y-99529523D01*
X134368095Y-99529523D01*
X135275238Y-100134285D02*
X135456666Y-100194761D01*
X135517142Y-100255238D01*
X135577619Y-100376190D01*
X135577619Y-100557619D01*
X135517142Y-100678571D01*
X135456666Y-100739047D01*
X135335714Y-100799523D01*
X134851904Y-100799523D01*
X134851904Y-99529523D01*
X135275238Y-99529523D01*
X135396190Y-99590000D01*
X135456666Y-99650476D01*
X135517142Y-99771428D01*
X135517142Y-99892380D01*
X135456666Y-100013333D01*
X135396190Y-100073809D01*
X135275238Y-100134285D01*
X134851904Y-100134285D01*
X136787142Y-100799523D02*
X136061428Y-100799523D01*
X136424285Y-100799523D02*
X136424285Y-99529523D01*
X136303333Y-99710952D01*
X136182380Y-99831904D01*
X136061428Y-99892380D01*
X140118333Y-106453571D02*
X140057857Y-106514047D01*
X139876428Y-106574523D01*
X139755476Y-106574523D01*
X139574047Y-106514047D01*
X139453095Y-106393095D01*
X139392619Y-106272142D01*
X139332142Y-106030238D01*
X139332142Y-105848809D01*
X139392619Y-105606904D01*
X139453095Y-105485952D01*
X139574047Y-105365000D01*
X139755476Y-105304523D01*
X139876428Y-105304523D01*
X140057857Y-105365000D01*
X140118333Y-105425476D01*
X141267380Y-105304523D02*
X140662619Y-105304523D01*
X140602142Y-105909285D01*
X140662619Y-105848809D01*
X140783571Y-105788333D01*
X141085952Y-105788333D01*
X141206904Y-105848809D01*
X141267380Y-105909285D01*
X141327857Y-106030238D01*
X141327857Y-106332619D01*
X141267380Y-106453571D01*
X141206904Y-106514047D01*
X141085952Y-106574523D01*
X140783571Y-106574523D01*
X140662619Y-106514047D01*
X140602142Y-106453571D01*
X153603571Y-104779523D02*
X153180238Y-104174761D01*
X152877857Y-104779523D02*
X152877857Y-103509523D01*
X153361666Y-103509523D01*
X153482619Y-103570000D01*
X153543095Y-103630476D01*
X153603571Y-103751428D01*
X153603571Y-103932857D01*
X153543095Y-104053809D01*
X153482619Y-104114285D01*
X153361666Y-104174761D01*
X152877857Y-104174761D01*
X154813095Y-104779523D02*
X154087380Y-104779523D01*
X154450238Y-104779523D02*
X154450238Y-103509523D01*
X154329285Y-103690952D01*
X154208333Y-103811904D01*
X154087380Y-103872380D01*
X155236428Y-103509523D02*
X156022619Y-103509523D01*
X155599285Y-103993333D01*
X155780714Y-103993333D01*
X155901666Y-104053809D01*
X155962142Y-104114285D01*
X156022619Y-104235238D01*
X156022619Y-104537619D01*
X155962142Y-104658571D01*
X155901666Y-104719047D01*
X155780714Y-104779523D01*
X155417857Y-104779523D01*
X155296904Y-104719047D01*
X155236428Y-104658571D01*
X169694523Y-122021428D02*
X169089761Y-122444761D01*
X169694523Y-122747142D02*
X168424523Y-122747142D01*
X168424523Y-122263333D01*
X168485000Y-122142380D01*
X168545476Y-122081904D01*
X168666428Y-122021428D01*
X168847857Y-122021428D01*
X168968809Y-122081904D01*
X169029285Y-122142380D01*
X169089761Y-122263333D01*
X169089761Y-122747142D01*
X169694523Y-120811904D02*
X169694523Y-121537619D01*
X169694523Y-121174761D02*
X168424523Y-121174761D01*
X168605952Y-121295714D01*
X168726904Y-121416666D01*
X168787380Y-121537619D01*
X168424523Y-120025714D02*
X168424523Y-119904761D01*
X168485000Y-119783809D01*
X168545476Y-119723333D01*
X168666428Y-119662857D01*
X168908333Y-119602380D01*
X169210714Y-119602380D01*
X169452619Y-119662857D01*
X169573571Y-119723333D01*
X169634047Y-119783809D01*
X169694523Y-119904761D01*
X169694523Y-120025714D01*
X169634047Y-120146666D01*
X169573571Y-120207142D01*
X169452619Y-120267619D01*
X169210714Y-120328095D01*
X168908333Y-120328095D01*
X168666428Y-120267619D01*
X168545476Y-120207142D01*
X168485000Y-120146666D01*
X168424523Y-120025714D01*
D12*
X182162380Y-134973333D02*
X182876666Y-134973333D01*
X183019523Y-135020952D01*
X183114761Y-135116190D01*
X183162380Y-135259047D01*
X183162380Y-135354285D01*
X182162380Y-134592380D02*
X182162380Y-133973333D01*
X182543333Y-134306666D01*
X182543333Y-134163809D01*
X182590952Y-134068571D01*
X182638571Y-134020952D01*
X182733809Y-133973333D01*
X182971904Y-133973333D01*
X183067142Y-134020952D01*
X183114761Y-134068571D01*
X183162380Y-134163809D01*
X183162380Y-134449523D01*
X183114761Y-134544761D01*
X183067142Y-134592380D01*
D13*
X171803571Y-118779523D02*
X171380238Y-118174761D01*
X171077857Y-118779523D02*
X171077857Y-117509523D01*
X171561666Y-117509523D01*
X171682619Y-117570000D01*
X171743095Y-117630476D01*
X171803571Y-117751428D01*
X171803571Y-117932857D01*
X171743095Y-118053809D01*
X171682619Y-118114285D01*
X171561666Y-118174761D01*
X171077857Y-118174761D01*
X173013095Y-118779523D02*
X172287380Y-118779523D01*
X172650238Y-118779523D02*
X172650238Y-117509523D01*
X172529285Y-117690952D01*
X172408333Y-117811904D01*
X172287380Y-117872380D01*
X174222619Y-118779523D02*
X173496904Y-118779523D01*
X173859761Y-118779523D02*
X173859761Y-117509523D01*
X173738809Y-117690952D01*
X173617857Y-117811904D01*
X173496904Y-117872380D01*
X98196666Y-109009523D02*
X98196666Y-109916666D01*
X98136190Y-110098095D01*
X98015238Y-110219047D01*
X97833809Y-110279523D01*
X97712857Y-110279523D01*
X99345714Y-109009523D02*
X99103809Y-109009523D01*
X98982857Y-109070000D01*
X98922380Y-109130476D01*
X98801428Y-109311904D01*
X98740952Y-109553809D01*
X98740952Y-110037619D01*
X98801428Y-110158571D01*
X98861904Y-110219047D01*
X98982857Y-110279523D01*
X99224761Y-110279523D01*
X99345714Y-110219047D01*
X99406190Y-110158571D01*
X99466666Y-110037619D01*
X99466666Y-109735238D01*
X99406190Y-109614285D01*
X99345714Y-109553809D01*
X99224761Y-109493333D01*
X98982857Y-109493333D01*
X98861904Y-109553809D01*
X98801428Y-109614285D01*
X98740952Y-109735238D01*
X115047380Y-111434523D02*
X115773095Y-111434523D01*
X115410238Y-112704523D02*
X115410238Y-111434523D01*
X116196428Y-112704523D02*
X116196428Y-111434523D01*
X116680238Y-111434523D01*
X116801190Y-111495000D01*
X116861666Y-111555476D01*
X116922142Y-111676428D01*
X116922142Y-111857857D01*
X116861666Y-111978809D01*
X116801190Y-112039285D01*
X116680238Y-112099761D01*
X116196428Y-112099761D01*
X118010714Y-111857857D02*
X118010714Y-112704523D01*
X117708333Y-111374047D02*
X117405952Y-112281190D01*
X118192142Y-112281190D01*
D12*
X109881904Y-98307380D02*
X109881904Y-97307380D01*
X110120000Y-97307380D01*
X110262857Y-97355000D01*
X110358095Y-97450238D01*
X110405714Y-97545476D01*
X110453333Y-97735952D01*
X110453333Y-97878809D01*
X110405714Y-98069285D01*
X110358095Y-98164523D01*
X110262857Y-98259761D01*
X110120000Y-98307380D01*
X109881904Y-98307380D01*
X110786666Y-97307380D02*
X111405714Y-97307380D01*
X111072380Y-97688333D01*
X111215238Y-97688333D01*
X111310476Y-97735952D01*
X111358095Y-97783571D01*
X111405714Y-97878809D01*
X111405714Y-98116904D01*
X111358095Y-98212142D01*
X111310476Y-98259761D01*
X111215238Y-98307380D01*
X110929523Y-98307380D01*
X110834285Y-98259761D01*
X110786666Y-98212142D01*
D13*
X161453333Y-129779523D02*
X161030000Y-129174761D01*
X160727619Y-129779523D02*
X160727619Y-128509523D01*
X161211428Y-128509523D01*
X161332380Y-128570000D01*
X161392857Y-128630476D01*
X161453333Y-128751428D01*
X161453333Y-128932857D01*
X161392857Y-129053809D01*
X161332380Y-129114285D01*
X161211428Y-129174761D01*
X160727619Y-129174761D01*
X162602380Y-128509523D02*
X161997619Y-128509523D01*
X161937142Y-129114285D01*
X161997619Y-129053809D01*
X162118571Y-128993333D01*
X162420952Y-128993333D01*
X162541904Y-129053809D01*
X162602380Y-129114285D01*
X162662857Y-129235238D01*
X162662857Y-129537619D01*
X162602380Y-129658571D01*
X162541904Y-129719047D01*
X162420952Y-129779523D01*
X162118571Y-129779523D01*
X161997619Y-129719047D01*
X161937142Y-129658571D01*
X171408333Y-126158571D02*
X171347857Y-126219047D01*
X171166428Y-126279523D01*
X171045476Y-126279523D01*
X170864047Y-126219047D01*
X170743095Y-126098095D01*
X170682619Y-125977142D01*
X170622142Y-125735238D01*
X170622142Y-125553809D01*
X170682619Y-125311904D01*
X170743095Y-125190952D01*
X170864047Y-125070000D01*
X171045476Y-125009523D01*
X171166428Y-125009523D01*
X171347857Y-125070000D01*
X171408333Y-125130476D01*
X172013095Y-126279523D02*
X172255000Y-126279523D01*
X172375952Y-126219047D01*
X172436428Y-126158571D01*
X172557380Y-125977142D01*
X172617857Y-125735238D01*
X172617857Y-125251428D01*
X172557380Y-125130476D01*
X172496904Y-125070000D01*
X172375952Y-125009523D01*
X172134047Y-125009523D01*
X172013095Y-125070000D01*
X171952619Y-125130476D01*
X171892142Y-125251428D01*
X171892142Y-125553809D01*
X171952619Y-125674761D01*
X172013095Y-125735238D01*
X172134047Y-125795714D01*
X172375952Y-125795714D01*
X172496904Y-125735238D01*
X172557380Y-125674761D01*
X172617857Y-125553809D01*
X145380238Y-100279523D02*
X145380238Y-99009523D01*
X146710714Y-100158571D02*
X146650238Y-100219047D01*
X146468809Y-100279523D01*
X146347857Y-100279523D01*
X146166428Y-100219047D01*
X146045476Y-100098095D01*
X145985000Y-99977142D01*
X145924523Y-99735238D01*
X145924523Y-99553809D01*
X145985000Y-99311904D01*
X146045476Y-99190952D01*
X146166428Y-99070000D01*
X146347857Y-99009523D01*
X146468809Y-99009523D01*
X146650238Y-99070000D01*
X146710714Y-99130476D01*
X147194523Y-99130476D02*
X147255000Y-99070000D01*
X147375952Y-99009523D01*
X147678333Y-99009523D01*
X147799285Y-99070000D01*
X147859761Y-99130476D01*
X147920238Y-99251428D01*
X147920238Y-99372380D01*
X147859761Y-99553809D01*
X147134047Y-100279523D01*
X147920238Y-100279523D01*
X108908333Y-118099523D02*
X108485000Y-117494761D01*
X108182619Y-118099523D02*
X108182619Y-116829523D01*
X108666428Y-116829523D01*
X108787380Y-116890000D01*
X108847857Y-116950476D01*
X108908333Y-117071428D01*
X108908333Y-117252857D01*
X108847857Y-117373809D01*
X108787380Y-117434285D01*
X108666428Y-117494761D01*
X108182619Y-117494761D01*
X109392142Y-116950476D02*
X109452619Y-116890000D01*
X109573571Y-116829523D01*
X109875952Y-116829523D01*
X109996904Y-116890000D01*
X110057380Y-116950476D01*
X110117857Y-117071428D01*
X110117857Y-117192380D01*
X110057380Y-117373809D01*
X109331666Y-118099523D01*
X110117857Y-118099523D01*
X151573571Y-112416666D02*
X151634047Y-112477142D01*
X151694523Y-112658571D01*
X151694523Y-112779523D01*
X151634047Y-112960952D01*
X151513095Y-113081904D01*
X151392142Y-113142380D01*
X151150238Y-113202857D01*
X150968809Y-113202857D01*
X150726904Y-113142380D01*
X150605952Y-113081904D01*
X150485000Y-112960952D01*
X150424523Y-112779523D01*
X150424523Y-112658571D01*
X150485000Y-112477142D01*
X150545476Y-112416666D01*
X150424523Y-111993333D02*
X150424523Y-111207142D01*
X150908333Y-111630476D01*
X150908333Y-111449047D01*
X150968809Y-111328095D01*
X151029285Y-111267619D01*
X151150238Y-111207142D01*
X151452619Y-111207142D01*
X151573571Y-111267619D01*
X151634047Y-111328095D01*
X151694523Y-111449047D01*
X151694523Y-111811904D01*
X151634047Y-111932857D01*
X151573571Y-111993333D01*
X111073571Y-121626666D02*
X111134047Y-121687142D01*
X111194523Y-121868571D01*
X111194523Y-121989523D01*
X111134047Y-122170952D01*
X111013095Y-122291904D01*
X110892142Y-122352380D01*
X110650238Y-122412857D01*
X110468809Y-122412857D01*
X110226904Y-122352380D01*
X110105952Y-122291904D01*
X109985000Y-122170952D01*
X109924523Y-121989523D01*
X109924523Y-121868571D01*
X109985000Y-121687142D01*
X110045476Y-121626666D01*
X109924523Y-120538095D02*
X109924523Y-120780000D01*
X109985000Y-120900952D01*
X110045476Y-120961428D01*
X110226904Y-121082380D01*
X110468809Y-121142857D01*
X110952619Y-121142857D01*
X111073571Y-121082380D01*
X111134047Y-121021904D01*
X111194523Y-120900952D01*
X111194523Y-120659047D01*
X111134047Y-120538095D01*
X111073571Y-120477619D01*
X110952619Y-120417142D01*
X110650238Y-120417142D01*
X110529285Y-120477619D01*
X110468809Y-120538095D01*
X110408333Y-120659047D01*
X110408333Y-120900952D01*
X110468809Y-121021904D01*
X110529285Y-121082380D01*
X110650238Y-121142857D01*
X185374523Y-112022833D02*
X186281666Y-112022833D01*
X186463095Y-112083309D01*
X186584047Y-112204261D01*
X186644523Y-112385690D01*
X186644523Y-112506642D01*
X185374523Y-110813309D02*
X185374523Y-111418071D01*
X185979285Y-111478547D01*
X185918809Y-111418071D01*
X185858333Y-111297119D01*
X185858333Y-110994738D01*
X185918809Y-110873785D01*
X185979285Y-110813309D01*
X186100238Y-110752833D01*
X186402619Y-110752833D01*
X186523571Y-110813309D01*
X186584047Y-110873785D01*
X186644523Y-110994738D01*
X186644523Y-111297119D01*
X186584047Y-111418071D01*
X186523571Y-111478547D01*
D14*
X97970000Y-128205000D02*
G75*
G03*
X97970000Y-128205000I-100000J0D01*
G01*
D15*
X133470000Y-117205000D02*
X131770000Y-117205000D01*
X131770000Y-117205000D02*
X131770000Y-119755000D01*
X133470000Y-117205000D02*
X133470000Y-119755000D01*
D14*
X179320000Y-123205000D02*
X179920000Y-123205000D01*
X134050000Y-110500000D02*
X135450000Y-110500000D01*
X136200000Y-113450000D02*
X135800000Y-113450000D01*
X135800000Y-110550000D02*
X136200000Y-110550000D01*
X135800000Y-113450000D02*
X135800000Y-110550000D01*
X136200000Y-110550000D02*
X136200000Y-113450000D01*
X159040000Y-119180000D02*
X159040000Y-117655000D01*
X164070000Y-114105000D02*
X164070000Y-117305000D01*
X159170000Y-114105000D02*
X164070000Y-114105000D01*
X159170000Y-117305000D02*
X159170000Y-114105000D01*
X164070000Y-117305000D02*
X159170000Y-117305000D01*
X116225000Y-109555000D02*
X116225000Y-106905000D01*
X110745000Y-108230000D02*
X110745000Y-109555000D01*
X116225000Y-106905000D02*
X112215000Y-106905000D01*
X110745000Y-109555000D02*
X116225000Y-109555000D01*
X117695000Y-102275000D02*
X117695000Y-105135000D01*
X115945000Y-102180000D02*
X117195000Y-102180000D01*
X117695000Y-105135000D02*
X117545000Y-105135000D01*
X117545000Y-105135000D02*
X117545000Y-102275000D01*
X117545000Y-102275000D02*
X117695000Y-102275000D01*
X112169000Y-128805000D02*
X112169000Y-125605000D01*
X117071000Y-125605000D02*
X117071000Y-128805000D01*
X112169000Y-125605000D02*
X117071000Y-125605000D01*
X117071000Y-128805000D02*
X112169000Y-128805000D01*
X111830000Y-130680000D02*
X111830000Y-129155000D01*
X141820000Y-116205000D02*
X142420000Y-116205000D01*
X123350000Y-130900000D02*
X133890000Y-130900000D01*
X123350000Y-126210000D02*
X123350000Y-130900000D01*
X133890000Y-130900000D02*
X133890000Y-127705000D01*
X173020000Y-99755000D02*
X176220000Y-99755000D01*
X176220000Y-99755000D02*
X176220000Y-104655000D01*
X171145000Y-99625000D02*
X172670000Y-99625000D01*
X176220000Y-104655000D02*
X173020000Y-104655000D01*
X173020000Y-104655000D02*
X173020000Y-99755000D01*
X105040000Y-103705000D02*
X105040000Y-102380000D01*
X97120000Y-105030000D02*
X103620000Y-105030000D01*
X97120000Y-102380000D02*
X97120000Y-105030000D01*
X105040000Y-102380000D02*
X97120000Y-102380000D01*
D15*
X178670000Y-95330000D02*
X97330000Y-95330000D01*
X97330000Y-92670000D02*
X97330000Y-95330000D01*
X181270000Y-94000000D02*
X181270000Y-95330000D01*
X178670000Y-92670000D02*
X178670000Y-95330000D01*
X181270000Y-95330000D02*
X179940000Y-95330000D01*
X178670000Y-92670000D02*
X97330000Y-92670000D01*
D14*
X97970000Y-125205000D02*
G75*
G03*
X97970000Y-125205000I-100000J0D01*
G01*
X143545000Y-108925000D02*
X149025000Y-108925000D01*
X143545000Y-107600000D02*
X143545000Y-108925000D01*
X149025000Y-106275000D02*
X145015000Y-106275000D01*
X149025000Y-108925000D02*
X149025000Y-106275000D01*
X168320000Y-109705000D02*
X168920000Y-109705000D01*
X114120000Y-117905000D02*
X114120000Y-118505000D01*
X149145000Y-124855000D02*
X149145000Y-125455000D01*
X103090000Y-98705000D02*
X103090000Y-97380000D01*
X103090000Y-97380000D02*
X97610000Y-97380000D01*
X97610000Y-97380000D02*
X97610000Y-100030000D01*
X97610000Y-100030000D02*
X101620000Y-100030000D01*
X105570000Y-107530000D02*
X107870000Y-107530000D01*
X107870000Y-105880000D02*
X105570000Y-105880000D01*
X105570000Y-105880000D02*
X105570000Y-107530000D01*
D15*
X181270000Y-82510000D02*
X181270000Y-83840000D01*
X179940000Y-82510000D02*
X181270000Y-82510000D01*
X97330000Y-82510000D02*
X97330000Y-85170000D01*
X178670000Y-82510000D02*
X178670000Y-85170000D01*
X178670000Y-82510000D02*
X97330000Y-82510000D01*
X178670000Y-85170000D02*
X97330000Y-85170000D01*
D14*
X158000000Y-126700000D02*
X158000000Y-127300000D01*
X167120000Y-124905000D02*
X167120000Y-125505000D01*
D15*
X181270000Y-143470000D02*
X181270000Y-144800000D01*
X178670000Y-143470000D02*
X97330000Y-143470000D01*
X178670000Y-146130000D02*
X97330000Y-146130000D01*
X178670000Y-143470000D02*
X178670000Y-146130000D01*
X179940000Y-143470000D02*
X181270000Y-143470000D01*
X97330000Y-143470000D02*
X97330000Y-146130000D01*
D14*
X135245000Y-99925000D02*
X135245000Y-100525000D01*
X154420000Y-103905000D02*
X154420000Y-104505000D01*
X168820000Y-121205000D02*
X169420000Y-121205000D01*
D15*
X178670000Y-133310000D02*
X178670000Y-135970000D01*
X181270000Y-135970000D02*
X179940000Y-135970000D01*
X181270000Y-134640000D02*
X181270000Y-135970000D01*
X178670000Y-135970000D02*
X97330000Y-135970000D01*
X178670000Y-133310000D02*
X97330000Y-133310000D01*
X97330000Y-133310000D02*
X97330000Y-135970000D01*
D14*
X172620000Y-117905000D02*
X172620000Y-118505000D01*
X102630000Y-111030000D02*
X102630000Y-108380000D01*
X97150000Y-111030000D02*
X102630000Y-111030000D01*
X97150000Y-109705000D02*
X97150000Y-111030000D01*
X102630000Y-108380000D02*
X98620000Y-108380000D01*
D15*
X109120000Y-98855000D02*
X111670000Y-98855000D01*
X109120000Y-98855000D02*
X109120000Y-100555000D01*
X109120000Y-100555000D02*
X111670000Y-100555000D01*
D14*
X161665000Y-128905000D02*
X161665000Y-129505000D01*
X148220000Y-102155000D02*
X145020000Y-102155000D01*
X145020000Y-102155000D02*
X145020000Y-97255000D01*
X145020000Y-97255000D02*
X148220000Y-97255000D01*
X143145000Y-97125000D02*
X144670000Y-97125000D01*
X148220000Y-97255000D02*
X148220000Y-102155000D01*
X109120000Y-117000000D02*
X109120000Y-118050000D01*
X184650000Y-108162500D02*
X186277000Y-108162500D01*
X189650000Y-108162500D02*
X189650000Y-115662500D01*
X184650000Y-115662500D02*
X186277000Y-115662500D01*
X183905890Y-113484500D02*
G75*
G03*
X183905890Y-113484500I-45890J0D01*
G01*
%LPC*%
D16*
X185928000Y-82804000D03*
X186436000Y-146812000D03*
D17*
X98870000Y-128205000D03*
X100370000Y-128205000D03*
D18*
X132620000Y-117655000D03*
X132620000Y-119755000D03*
D19*
X145620000Y-119915000D03*
X145620000Y-118495000D03*
X145620000Y-114915000D03*
X145620000Y-113495000D03*
D20*
X140120000Y-110995000D03*
X140120000Y-112415000D03*
D21*
X131120000Y-112205000D03*
D22*
X138070000Y-121705000D03*
X139170000Y-121705000D03*
D23*
X139540000Y-127705000D03*
X138120000Y-127705000D03*
D24*
X179620000Y-124005000D03*
X179620000Y-122405000D03*
D25*
X134750000Y-111050000D03*
X134750000Y-112000000D03*
X134750000Y-112950000D03*
X137250000Y-112950000D03*
X137250000Y-111050000D03*
D26*
X159715000Y-118417000D03*
X160985000Y-118417000D03*
X162255000Y-118417000D03*
X163525000Y-118417000D03*
X163525000Y-112993000D03*
X162255000Y-112993000D03*
X160985000Y-112993000D03*
X159715000Y-112993000D03*
D27*
X112215000Y-108230000D03*
D28*
X114755000Y-108230000D03*
D29*
X116570000Y-102755000D03*
X116570000Y-104655000D03*
X118670000Y-103705000D03*
D30*
X112398000Y-129917000D03*
X113032000Y-129917000D03*
X113668000Y-129917000D03*
X114302000Y-129917000D03*
X114938000Y-129917000D03*
X115572000Y-129917000D03*
X116208000Y-129917000D03*
X116842000Y-129917000D03*
X116842000Y-124493000D03*
X116208000Y-124493000D03*
X115572000Y-124493000D03*
X114938000Y-124493000D03*
X114302000Y-124493000D03*
X113668000Y-124493000D03*
X113032000Y-124493000D03*
X112398000Y-124493000D03*
D31*
X161970000Y-100350000D03*
D23*
X124290000Y-125000000D03*
X125710000Y-125000000D03*
D32*
X152270000Y-129705000D03*
X153370000Y-129705000D03*
D24*
X142120000Y-117005000D03*
X142120000Y-115405000D03*
D23*
X156540000Y-100705000D03*
X155120000Y-100705000D03*
D33*
X131160000Y-127705000D03*
D34*
X128620000Y-127705000D03*
X126080000Y-127705000D03*
D31*
X131020000Y-100350000D03*
D35*
X171908000Y-100300000D03*
X171908000Y-101570000D03*
X171908000Y-102840000D03*
X171908000Y-104110000D03*
X177332000Y-104110000D03*
X177332000Y-102840000D03*
X177332000Y-101570000D03*
X177332000Y-100300000D03*
D27*
X103620000Y-103705000D03*
D28*
X101080000Y-103705000D03*
X98540000Y-103705000D03*
D23*
X163410000Y-107705000D03*
X164830000Y-107705000D03*
D31*
X152000000Y-106900000D03*
D36*
X179940000Y-94000000D03*
D37*
X177400000Y-94000000D03*
X174860000Y-94000000D03*
X172320000Y-94000000D03*
X169780000Y-94000000D03*
X167240000Y-94000000D03*
X164700000Y-94000000D03*
X162160000Y-94000000D03*
X159620000Y-94000000D03*
X157080000Y-94000000D03*
X154540000Y-94000000D03*
X152000000Y-94000000D03*
X149460000Y-94000000D03*
X146920000Y-94000000D03*
X144380000Y-94000000D03*
X141840000Y-94000000D03*
X139300000Y-94000000D03*
X136760000Y-94000000D03*
X134220000Y-94000000D03*
X131680000Y-94000000D03*
X129140000Y-94000000D03*
X126600000Y-94000000D03*
X124060000Y-94000000D03*
X121520000Y-94000000D03*
X118980000Y-94000000D03*
X116440000Y-94000000D03*
X113900000Y-94000000D03*
X111360000Y-94000000D03*
X108820000Y-94000000D03*
X106280000Y-94000000D03*
X103740000Y-94000000D03*
X101200000Y-94000000D03*
X98660000Y-94000000D03*
D17*
X98870000Y-125205000D03*
X100370000Y-125205000D03*
D27*
X145015000Y-107600000D03*
D28*
X147555000Y-107600000D03*
D19*
X125000000Y-119290000D03*
X125000000Y-120710000D03*
D24*
X168620000Y-110505000D03*
X168620000Y-108905000D03*
D23*
X163410000Y-105205000D03*
X164830000Y-105205000D03*
D38*
X113320000Y-118205000D03*
X114920000Y-118205000D03*
D31*
X144120000Y-126405000D03*
D38*
X148345000Y-125155000D03*
X149945000Y-125155000D03*
D31*
X105000000Y-131000000D03*
D27*
X101620000Y-98705000D03*
D28*
X99080000Y-98705000D03*
D39*
X106370000Y-106705000D03*
X107870000Y-106705000D03*
D36*
X179940000Y-83840000D03*
D37*
X177400000Y-83840000D03*
X174860000Y-83840000D03*
X172320000Y-83840000D03*
X169780000Y-83840000D03*
X167240000Y-83840000D03*
X164700000Y-83840000D03*
X162160000Y-83840000D03*
X159620000Y-83840000D03*
X157080000Y-83840000D03*
X154540000Y-83840000D03*
X152000000Y-83840000D03*
X149460000Y-83840000D03*
X146920000Y-83840000D03*
X144380000Y-83840000D03*
X141840000Y-83840000D03*
X139300000Y-83840000D03*
X136760000Y-83840000D03*
X134220000Y-83840000D03*
X131680000Y-83840000D03*
X129140000Y-83840000D03*
X126600000Y-83840000D03*
X124060000Y-83840000D03*
X121520000Y-83840000D03*
X118980000Y-83840000D03*
X116440000Y-83840000D03*
X113900000Y-83840000D03*
X111360000Y-83840000D03*
X108820000Y-83840000D03*
X106280000Y-83840000D03*
X103740000Y-83840000D03*
X101200000Y-83840000D03*
X98660000Y-83840000D03*
D23*
X173410000Y-123205000D03*
X174830000Y-123205000D03*
D31*
X144120000Y-129205000D03*
D38*
X157200000Y-127000000D03*
X158800000Y-127000000D03*
D21*
X128320000Y-112315000D03*
D38*
X166320000Y-125205000D03*
X167920000Y-125205000D03*
D36*
X179940000Y-144800000D03*
D37*
X177400000Y-144800000D03*
X174860000Y-144800000D03*
X172320000Y-144800000D03*
X169780000Y-144800000D03*
X167240000Y-144800000D03*
X164700000Y-144800000D03*
X162160000Y-144800000D03*
X159620000Y-144800000D03*
X157080000Y-144800000D03*
X154540000Y-144800000D03*
X152000000Y-144800000D03*
X149460000Y-144800000D03*
X146920000Y-144800000D03*
X144380000Y-144800000D03*
X141840000Y-144800000D03*
X139300000Y-144800000D03*
X136760000Y-144800000D03*
X134220000Y-144800000D03*
X131680000Y-144800000D03*
X129140000Y-144800000D03*
X126600000Y-144800000D03*
X124060000Y-144800000D03*
X121520000Y-144800000D03*
X118980000Y-144800000D03*
X116440000Y-144800000D03*
X113900000Y-144800000D03*
X111360000Y-144800000D03*
X108820000Y-144800000D03*
X106280000Y-144800000D03*
X103740000Y-144800000D03*
X101200000Y-144800000D03*
X98660000Y-144800000D03*
D32*
X173170000Y-130205000D03*
X172070000Y-130205000D03*
D23*
X177410000Y-128705000D03*
X178830000Y-128705000D03*
D40*
X134445000Y-100225000D03*
X136045000Y-100225000D03*
D23*
X139620000Y-106000000D03*
X141040000Y-106000000D03*
D38*
X153620000Y-104205000D03*
X155220000Y-104205000D03*
D24*
X169120000Y-122005000D03*
X169120000Y-120405000D03*
D36*
X179940000Y-134640000D03*
D37*
X177400000Y-134640000D03*
X174860000Y-134640000D03*
X172320000Y-134640000D03*
X169780000Y-134640000D03*
X167240000Y-134640000D03*
X164700000Y-134640000D03*
X162160000Y-134640000D03*
X159620000Y-134640000D03*
X157080000Y-134640000D03*
X154540000Y-134640000D03*
X152000000Y-134640000D03*
X149460000Y-134640000D03*
X146920000Y-134640000D03*
X144380000Y-134640000D03*
X141840000Y-134640000D03*
X139300000Y-134640000D03*
X136760000Y-134640000D03*
X134220000Y-134640000D03*
X131680000Y-134640000D03*
X129140000Y-134640000D03*
X126600000Y-134640000D03*
X124060000Y-134640000D03*
X121520000Y-134640000D03*
X118980000Y-134640000D03*
X116440000Y-134640000D03*
X113900000Y-134640000D03*
X111360000Y-134640000D03*
X108820000Y-134640000D03*
X106280000Y-134640000D03*
X103740000Y-134640000D03*
X101200000Y-134640000D03*
X98660000Y-134640000D03*
D38*
X171820000Y-118205000D03*
X173420000Y-118205000D03*
D27*
X98620000Y-109705000D03*
D28*
X101160000Y-109705000D03*
D31*
X116650000Y-112130000D03*
D41*
X109570000Y-99705000D03*
X111670000Y-99705000D03*
D38*
X160865000Y-129205000D03*
X162465000Y-129205000D03*
D23*
X170910000Y-125705000D03*
X172330000Y-125705000D03*
D35*
X143908000Y-97800000D03*
X143908000Y-99070000D03*
X143908000Y-100340000D03*
X143908000Y-101610000D03*
X149332000Y-101610000D03*
X149332000Y-100340000D03*
X149332000Y-99070000D03*
X149332000Y-97800000D03*
D42*
X108170000Y-117525000D03*
X110070000Y-117525000D03*
D20*
X151120000Y-112915000D03*
X151120000Y-111495000D03*
X110620000Y-122125000D03*
X110620000Y-120705000D03*
D43*
X184840000Y-113212500D03*
X184840000Y-112562500D03*
X184840000Y-111912500D03*
X184840000Y-111262500D03*
X184840000Y-110612500D03*
D44*
X185200000Y-109460000D03*
X185200000Y-114365000D03*
D45*
X187500000Y-112750000D03*
X187500000Y-111075000D03*
D46*
X187500000Y-114825000D03*
X187500000Y-109000000D03*
M02*
