M48
; DRILL file {KiCad (6.0.1)} date Fri Apr  8 17:51:29 2022
; FORMAT={-:-/ absolute / inch / decimal}
; #@! TF.CreationDate,2022-04-08T17:51:29+02:00
; #@! TF.GenerationSoftware,Kicad,Pcbnew,(6.0.1)
; #@! TF.FileFunction,Plated,1,2,PTH
FMAT,2
INCH
; #@! TA.AperFunction,Plated,PTH,ViaDrill
T1C0.0157
; #@! TA.AperFunction,Plated,PTH,ComponentDrill
T2C0.0276
; #@! TA.AperFunction,Plated,PTH,ComponentDrill
T3C0.0295
; #@! TA.AperFunction,Plated,PTH,ComponentDrill
T4C0.0394
; #@! TA.AperFunction,Plated,PTH,ComponentDrill
T5C0.0433
; #@! TA.AperFunction,Plated,PTH,ComponentDrill
T6C0.0504
; #@! TA.AperFunction,Plated,PTH,ComponentDrill
T7C0.0512
%
G90
G05
T1
X3.95Y-3.45
X4.0344Y-3.3839
X4.05Y-4.05
X4.1Y-3.4
X4.1Y-3.8
X4.1407Y-4.2234
X4.1742Y-3.5118
X4.188Y-4.0591
X4.2Y-3.9
X4.2346Y-3.5043
X4.2835Y-4.1447
X4.2848Y-4.3051
X4.3Y-4.4005
X4.35Y-3.65
X4.4Y-3.65
X4.4818Y-3.9779
X4.4951Y-4.1053
X4.5Y-3.6285
X4.5Y-3.7
X4.5Y-3.7797
X4.5Y-4.2
X4.5Y-4.3
X4.6Y-3.8
X4.6Y-3.9
X4.6063Y-4.4005
X4.7Y-3.1285
X4.7Y-3.7
X4.7Y-4.2
X4.7285Y-3.2963
X4.7441Y-3.4577
X4.75Y-4.35
X4.751Y-3.6683
X4.7539Y-3.5541
X4.7786Y-3.9189
X4.8Y-3.3
X4.8Y-3.3
X4.8Y-3.4
X4.8Y-3.7
X4.85Y-4.0
X4.85Y-4.2
X4.8618Y-3.8835
X4.8964Y-3.4323
X4.9Y-3.5715
X4.938Y-3.9026
X4.9547Y-3.5715
X4.9596Y-3.7715
X4.9977Y-3.3
X5.0Y-3.4
X5.0Y-4.0
X5.0148Y-3.5715
X5.049Y-3.6555
X5.0654Y-3.5039
X5.092Y-3.908
X5.1Y-3.8
X5.1044Y-3.5934
X5.1315Y-3.4
X5.1565Y-3.5817
X5.2Y-3.2
X5.2Y-3.5
X5.2278Y-3.5285
X5.2461Y-3.7539
X5.25Y-4.2
X5.2719Y-3.3443
X5.292Y-4.108
X5.307Y-3.6359
X5.3244Y-3.4756
X5.3278Y-3.9203
X5.3315Y-3.4
X5.3841Y-3.6159
X5.4Y-3.4
X5.4Y-3.4618
X5.4Y-3.5
X5.4Y-4.3
X5.4951Y-3.8049
X5.5Y-3.3622
X5.5Y-3.6
X5.5Y-3.6
X5.5Y-4.1
X5.5244Y-3.6756
X5.5728Y-3.4488
X5.6Y-3.3
X5.6393Y-3.3028
X5.7Y-3.3
X5.7031Y-3.8465
X5.7303Y-3.3612
X5.75Y-4.1
X5.7657Y-3.6614
X5.7736Y-3.2982
X5.7932Y-3.8285
X5.7932Y-3.872
X5.825Y-4.1
X5.8258Y-4.0187
X5.9075Y-3.9232
X5.939Y-4.0285
X5.9439Y-3.6053
X5.9676Y-3.9095
X5.975Y-3.5068
X5.9998Y-3.7306
X6.0172Y-4.0921
X6.05Y-4.2
X6.0522Y-3.6654
X6.0719Y-3.7136
X6.0817Y-4.06
X6.0916Y-3.7864
X6.1Y-3.2708
X6.15Y-3.95
X6.15Y-4.05
X6.1516Y-3.6673
X6.1516Y-3.7746
X6.1831Y-3.873
X6.2Y-3.3
X6.2Y-3.65
X6.2411Y-3.9587
X6.2677Y-3.6594
X6.2943Y-3.7795
X6.2963Y-3.8917
X6.3Y-3.5
X6.3Y-4.4
X6.3243Y-3.8341
X6.4Y-4.5
X6.4326Y-3.6888
X6.5Y-3.5
X6.5Y-3.5407
X6.5Y-4.1
X6.5Y-4.5
X6.5Y-4.8
X6.5217Y-4.0246
X6.5375Y-4.6625
X6.5492Y-3.6445
X6.6Y-4.4
X6.6Y-4.5
X6.6Y-4.8
X6.6299Y-3.7303
X6.6358Y-3.672
X6.6375Y-4.6625
X6.65Y-3.85
X6.7Y-4.6715
X6.7Y-4.8
X6.7091Y-4.3894
X6.7285Y-4.3285
X6.7285Y-4.3285
X6.7394Y-4.1
X6.75Y-4.5
X6.7559Y-4.0049
X6.8Y-3.4
X6.8Y-4.3285
X6.8Y-4.6715
X6.8Y-4.8
X6.8285Y-4.2293
X6.8307Y-4.0945
X6.8801Y-4.0943
X6.8831Y-3.578
X6.9Y-4.3
X6.9Y-4.6715
X6.9Y-4.8
X6.928Y-3.3877
X6.9609Y-3.6958
X6.9798Y-4.6715
X7.0Y-3.7003
X7.0202Y-4.7202
X7.0997Y-3.5973
X7.1289Y-3.8325
X7.254Y-3.8593
T2
X6.8887Y-3.7045
X6.8887Y-3.8955
T3
X5.5Y-4.2
X5.5Y-4.25
X5.5Y-4.3
T4
X3.9Y-2.6
X3.9Y-3.0
X3.9Y-4.6
X3.9Y-5.0
X4.0Y-2.6
X4.0Y-3.0
X4.0Y-4.6
X4.0Y-5.0
X4.1Y-2.6
X4.1Y-3.0
X4.1Y-4.6
X4.1Y-5.0
X4.2Y-2.6
X4.2Y-3.0
X4.2Y-4.6
X4.2Y-5.0
X4.3Y-2.6
X4.3Y-3.0
X4.3Y-4.6
X4.3Y-5.0
X4.4Y-2.6
X4.4Y-3.0
X4.4Y-4.6
X4.4Y-5.0
X4.5Y-2.6
X4.5Y-3.0
X4.5Y-4.6
X4.5Y-5.0
X4.6Y-2.6
X4.6Y-3.0
X4.6Y-4.6
X4.6Y-5.0
X4.7Y-2.6
X4.7Y-3.0
X4.7Y-4.6
X4.7Y-5.0
X4.8Y-2.6
X4.8Y-3.0
X4.8Y-4.6
X4.8Y-5.0
X4.9Y-2.6
X4.9Y-3.0
X4.9Y-4.6
X4.9Y-5.0
X5.0Y-2.6
X5.0Y-3.0
X5.0Y-4.6
X5.0Y-5.0
X5.1Y-2.6
X5.1Y-3.0
X5.1Y-4.6
X5.1Y-5.0
X5.2Y-2.6
X5.2Y-3.0
X5.2Y-4.6
X5.2Y-5.0
X5.3Y-2.6
X5.3Y-3.0
X5.3Y-4.6
X5.3Y-5.0
X5.4Y-2.6
X5.4Y-3.0
X5.4Y-4.6
X5.4Y-5.0
X5.5Y-2.6
X5.5Y-3.0
X5.5Y-4.6
X5.5Y-5.0
X5.6Y-2.6
X5.6Y-3.0
X5.6Y-4.6
X5.6Y-5.0
X5.7Y-2.6
X5.7Y-3.0
X5.7Y-4.6
X5.7Y-5.0
X5.8Y-2.6
X5.8Y-3.0
X5.8Y-4.6
X5.8Y-5.0
X5.9Y-2.6
X5.9Y-3.0
X5.9Y-4.6
X5.9Y-5.0
X6.0Y-2.6
X6.0Y-3.0
X6.0Y-4.6
X6.0Y-5.0
X6.1Y-2.6
X6.1Y-3.0
X6.1Y-4.6
X6.1Y-5.0
X6.2Y-2.6
X6.2Y-3.0
X6.2Y-4.6
X6.2Y-5.0
X6.3Y-2.6
X6.3Y-3.0
X6.3Y-4.6
X6.3Y-5.0
X6.4Y-2.6
X6.4Y-3.0
X6.4Y-4.6
X6.4Y-5.0
X6.5Y-2.6
X6.5Y-3.0
X6.5Y-4.6
X6.5Y-5.0
X6.6Y-2.6
X6.6Y-3.0
X6.6Y-4.6
X6.6Y-5.0
X6.7Y-2.6
X6.7Y-3.0
X6.7Y-4.6
X6.7Y-5.0
X6.8Y-2.6
X6.8Y-3.0
X6.8Y-4.6
X6.8Y-5.0
X6.9Y-2.6
X6.9Y-3.0
X6.9Y-4.6
X6.9Y-5.0
X7.0Y-2.6
X7.0Y-3.0
X7.0Y-4.6
X7.0Y-5.0
X7.1Y-2.6
X7.1Y-3.0
X7.1Y-4.6
X7.1Y-5.0
T5
X4.9Y-4.3
X5.0Y-4.3
X5.1Y-4.3
X6.3Y-4.1
X6.3Y-4.3
X6.4Y-4.1
X6.4Y-4.3
X6.6Y-3.2
X6.7Y-3.2
T6
X3.95Y-3.25
X4.05Y-3.25
X4.15Y-3.25
T7
X6.7836Y-3.6583
X6.7836Y-3.9417
T0
M30
