%TF.GenerationSoftware,KiCad,Pcbnew,(6.0.1)*%
%TF.CreationDate,2022-03-21T23:25:56+02:00*%
%TF.ProjectId,main,6d61696e-2e6b-4696-9361-645f70636258,rev?*%
%TF.SameCoordinates,Original*%
%TF.FileFunction,Soldermask,Top*%
%TF.FilePolarity,Negative*%
%FSLAX46Y46*%
G04 Gerber Fmt 4.6, Leading zero omitted, Abs format (unit mm)*
G04 Created by KiCad (PCBNEW (6.0.1)) date 2022-03-21 23:25:56*
%MOMM*%
%LPD*%
G01*
G04 APERTURE LIST*
G04 Aperture macros list*
%AMRoundRect*
0 Rectangle with rounded corners*
0 $1 Rounding radius*
0 $2 $3 $4 $5 $6 $7 $8 $9 X,Y pos of 4 corners*
0 Add a 4 corners polygon primitive as box body*
4,1,4,$2,$3,$4,$5,$6,$7,$8,$9,$2,$3,0*
0 Add four circle primitives for the rounded corners*
1,1,$1+$1,$2,$3*
1,1,$1+$1,$4,$5*
1,1,$1+$1,$6,$7*
1,1,$1+$1,$8,$9*
0 Add four rect primitives between the rounded corners*
20,1,$1+$1,$2,$3,$4,$5,0*
20,1,$1+$1,$4,$5,$6,$7,0*
20,1,$1+$1,$6,$7,$8,$9,0*
20,1,$1+$1,$8,$9,$2,$3,0*%
G04 Aperture macros list end*
%ADD10R,1.380000X0.450000*%
%ADD11R,2.100000X1.475000*%
%ADD12R,1.900000X1.175000*%
%ADD13R,1.900000X2.375000*%
%ADD14R,0.900000X1.000000*%
%ADD15R,0.760000X0.980000*%
%ADD16RoundRect,0.150000X-0.512500X-0.150000X0.512500X-0.150000X0.512500X0.150000X-0.512500X0.150000X0*%
%ADD17R,0.730000X0.940000*%
%ADD18R,0.950000X1.400000*%
%ADD19R,0.900000X0.950000*%
%ADD20R,0.800000X0.950000*%
%ADD21R,1.920000X1.920000*%
%ADD22C,1.920000*%
%ADD23R,1.700000X1.700000*%
%ADD24O,1.700000X1.700000*%
%ADD25R,1.250000X0.400000*%
%ADD26C,1.300000*%
%ADD27C,1.900000*%
%ADD28R,1.350000X0.600000*%
%ADD29R,0.800000X0.800000*%
%ADD30R,1.525000X0.650000*%
%ADD31R,0.600000X0.450000*%
%ADD32RoundRect,0.075000X-0.075000X-0.662500X0.075000X-0.662500X0.075000X0.662500X-0.075000X0.662500X0*%
%ADD33RoundRect,0.075000X-0.662500X-0.075000X0.662500X-0.075000X0.662500X0.075000X-0.662500X0.075000X0*%
%ADD34R,1.000000X1.500000*%
%ADD35R,0.750000X0.600000*%
%ADD36R,0.700000X0.600000*%
%ADD37R,0.450000X1.750000*%
%ADD38R,0.650000X1.525000*%
%ADD39C,2.390000*%
%ADD40C,3.450000*%
%ADD41R,6.350000X7.340000*%
%ADD42R,1.500000X1.050000*%
%ADD43O,1.500000X1.050000*%
G04 APERTURE END LIST*
D10*
%TO.C,J5*%
X182602212Y-95220000D03*
X182602212Y-95870000D03*
X182602212Y-96520000D03*
X182602212Y-97170000D03*
X182602212Y-97820000D03*
D11*
X182242212Y-98972500D03*
X182242212Y-94067500D03*
D12*
X179942212Y-95682500D03*
X179942212Y-97357500D03*
D13*
X179942212Y-93607500D03*
X179942212Y-99432500D03*
%TD*%
D14*
%TO.C,FB1*%
X107440000Y-101600000D03*
X105840000Y-101600000D03*
%TD*%
D15*
%TO.C,C6*%
X118670000Y-96520000D03*
X120090000Y-96520000D03*
%TD*%
D16*
%TO.C,U1*%
X133482500Y-98110000D03*
X133482500Y-99060000D03*
X133482500Y-100010000D03*
X135757500Y-100010000D03*
X135757500Y-98110000D03*
%TD*%
D17*
%TO.C,C12*%
X133910000Y-83820000D03*
X135330000Y-83820000D03*
%TD*%
D18*
%TO.C,R2*%
X105730000Y-91440000D03*
X107630000Y-91440000D03*
%TD*%
D19*
%TO.C,D1*%
X110440000Y-96805000D03*
X111940000Y-96805000D03*
%TD*%
D20*
%TO.C,R5*%
X118580000Y-88900000D03*
X120180000Y-88900000D03*
%TD*%
%TO.C,R9*%
X128740000Y-86360000D03*
X130340000Y-86360000D03*
%TD*%
D21*
%TO.C,Q1*%
X170180000Y-83820000D03*
D22*
X172720000Y-83820000D03*
X175260000Y-83820000D03*
%TD*%
D17*
%TO.C,C5*%
X125685000Y-97470000D03*
X127105000Y-97470000D03*
%TD*%
D23*
%TO.C,J2*%
X180340000Y-76200000D03*
D24*
X177800000Y-76200000D03*
X175260000Y-76200000D03*
X172720000Y-76200000D03*
X170180000Y-76200000D03*
X167640000Y-76200000D03*
X165100000Y-76200000D03*
X162560000Y-76200000D03*
X160020000Y-76200000D03*
X157480000Y-76200000D03*
X154940000Y-76200000D03*
X152400000Y-76200000D03*
X149860000Y-76200000D03*
X147320000Y-76200000D03*
X144780000Y-76200000D03*
X142240000Y-76200000D03*
X139700000Y-76200000D03*
X137160000Y-76200000D03*
X134620000Y-76200000D03*
X132080000Y-76200000D03*
X129540000Y-76200000D03*
X127000000Y-76200000D03*
X124460000Y-76200000D03*
X121920000Y-76200000D03*
X119380000Y-76200000D03*
X116840000Y-76200000D03*
X114300000Y-76200000D03*
X111760000Y-76200000D03*
X109220000Y-76200000D03*
X106680000Y-76200000D03*
X104140000Y-76200000D03*
X101600000Y-76200000D03*
X99060000Y-76200000D03*
%TD*%
D25*
%TO.C,J5*%
X174947212Y-95220000D03*
X174947212Y-95870000D03*
X174947212Y-96520000D03*
X174947212Y-97170000D03*
X174947212Y-97820000D03*
D26*
X174972212Y-94095000D03*
X174972212Y-98945000D03*
D27*
X172302212Y-92920000D03*
X172302212Y-100120000D03*
D28*
X172297212Y-95720000D03*
X172297212Y-97320000D03*
%TD*%
D29*
%TO.C,A2*%
X141490000Y-88900000D03*
X142990000Y-88900000D03*
%TD*%
D15*
%TO.C,C4*%
X179630000Y-78740000D03*
X181050000Y-78740000D03*
%TD*%
D30*
%TO.C,IC1*%
X147148000Y-94615000D03*
X147148000Y-95885000D03*
X147148000Y-97155000D03*
X147148000Y-98425000D03*
X152572000Y-98425000D03*
X152572000Y-97155000D03*
X152572000Y-95885000D03*
X152572000Y-94615000D03*
%TD*%
D31*
%TO.C,D3*%
X102650000Y-109220000D03*
X100550000Y-109220000D03*
%TD*%
D32*
%TO.C,MCU1*%
X159810000Y-92357500D03*
X160310000Y-92357500D03*
X160810000Y-92357500D03*
X161310000Y-92357500D03*
X161810000Y-92357500D03*
X162310000Y-92357500D03*
X162810000Y-92357500D03*
X163310000Y-92357500D03*
X163810000Y-92357500D03*
X164310000Y-92357500D03*
X164810000Y-92357500D03*
X165310000Y-92357500D03*
D33*
X166722500Y-93770000D03*
X166722500Y-94270000D03*
X166722500Y-94770000D03*
X166722500Y-95270000D03*
X166722500Y-95770000D03*
X166722500Y-96270000D03*
X166722500Y-96770000D03*
X166722500Y-97270000D03*
X166722500Y-97770000D03*
X166722500Y-98270000D03*
X166722500Y-98770000D03*
X166722500Y-99270000D03*
D32*
X165310000Y-100682500D03*
X164810000Y-100682500D03*
X164310000Y-100682500D03*
X163810000Y-100682500D03*
X163310000Y-100682500D03*
X162810000Y-100682500D03*
X162310000Y-100682500D03*
X161810000Y-100682500D03*
X161310000Y-100682500D03*
X160810000Y-100682500D03*
X160310000Y-100682500D03*
X159810000Y-100682500D03*
D33*
X158397500Y-99270000D03*
X158397500Y-98770000D03*
X158397500Y-98270000D03*
X158397500Y-97770000D03*
X158397500Y-97270000D03*
X158397500Y-96770000D03*
X158397500Y-96270000D03*
X158397500Y-95770000D03*
X158397500Y-95270000D03*
X158397500Y-94770000D03*
X158397500Y-94270000D03*
X158397500Y-93770000D03*
%TD*%
D29*
%TO.C,A1*%
X123710000Y-83820000D03*
X125210000Y-83820000D03*
%TD*%
D20*
%TO.C,R12*%
X119990000Y-103450000D03*
X121590000Y-103450000D03*
%TD*%
D31*
%TO.C,D2*%
X114440000Y-96830000D03*
X116540000Y-96830000D03*
%TD*%
D17*
%TO.C,C11*%
X139700000Y-83820000D03*
X141120000Y-83820000D03*
%TD*%
D23*
%TO.C,J1*%
X180340000Y-66040000D03*
D24*
X177800000Y-66040000D03*
X175260000Y-66040000D03*
X172720000Y-66040000D03*
X170180000Y-66040000D03*
X167640000Y-66040000D03*
X165100000Y-66040000D03*
X162560000Y-66040000D03*
X160020000Y-66040000D03*
X157480000Y-66040000D03*
X154940000Y-66040000D03*
X152400000Y-66040000D03*
X149860000Y-66040000D03*
X147320000Y-66040000D03*
X144780000Y-66040000D03*
X142240000Y-66040000D03*
X139700000Y-66040000D03*
X137160000Y-66040000D03*
X134620000Y-66040000D03*
X132080000Y-66040000D03*
X129540000Y-66040000D03*
X127000000Y-66040000D03*
X124460000Y-66040000D03*
X121920000Y-66040000D03*
X119380000Y-66040000D03*
X116840000Y-66040000D03*
X114300000Y-66040000D03*
X111760000Y-66040000D03*
X109220000Y-66040000D03*
X106680000Y-66040000D03*
X104140000Y-66040000D03*
X101600000Y-66040000D03*
X99060000Y-66040000D03*
%TD*%
D17*
%TO.C,C9*%
X144070000Y-96520000D03*
X145490000Y-96520000D03*
%TD*%
D20*
%TO.C,R13*%
X127940000Y-83820000D03*
X129540000Y-83820000D03*
%TD*%
D17*
%TO.C,C1*%
X122185000Y-97470000D03*
X123605000Y-97470000D03*
%TD*%
D34*
%TO.C,JP1*%
X158720000Y-81280000D03*
X160020000Y-81280000D03*
X161320000Y-81280000D03*
%TD*%
D20*
%TO.C,R4*%
X118580000Y-86360000D03*
X120180000Y-86360000D03*
%TD*%
D35*
%TO.C,R6*%
X128535000Y-88900000D03*
X129635000Y-88900000D03*
%TD*%
D20*
%TO.C,R10*%
X135420000Y-86360000D03*
X133820000Y-86360000D03*
%TD*%
D15*
%TO.C,C3*%
X123310000Y-92870000D03*
X124730000Y-92870000D03*
%TD*%
D17*
%TO.C,C7*%
X126825000Y-92850000D03*
X128245000Y-92850000D03*
%TD*%
%TO.C,C2*%
X111050000Y-109220000D03*
X112470000Y-109220000D03*
%TD*%
D36*
%TO.C,R1*%
X129270000Y-95070000D03*
X130370000Y-95070000D03*
%TD*%
D23*
%TO.C,J4*%
X180340000Y-127000000D03*
D24*
X177800000Y-127000000D03*
X175260000Y-127000000D03*
X172720000Y-127000000D03*
X170180000Y-127000000D03*
X167640000Y-127000000D03*
X165100000Y-127000000D03*
X162560000Y-127000000D03*
X160020000Y-127000000D03*
X157480000Y-127000000D03*
X154940000Y-127000000D03*
X152400000Y-127000000D03*
X149860000Y-127000000D03*
X147320000Y-127000000D03*
X144780000Y-127000000D03*
X142240000Y-127000000D03*
X139700000Y-127000000D03*
X137160000Y-127000000D03*
X134620000Y-127000000D03*
X132080000Y-127000000D03*
X129540000Y-127000000D03*
X127000000Y-127000000D03*
X124460000Y-127000000D03*
X121920000Y-127000000D03*
X119380000Y-127000000D03*
X116840000Y-127000000D03*
X114300000Y-127000000D03*
X111760000Y-127000000D03*
X109220000Y-127000000D03*
X106680000Y-127000000D03*
X104140000Y-127000000D03*
X101600000Y-127000000D03*
X99060000Y-127000000D03*
%TD*%
D37*
%TO.C,U2*%
X168495000Y-112820000D03*
X169145000Y-112820000D03*
X169795000Y-112820000D03*
X170445000Y-112820000D03*
X171095000Y-112820000D03*
X171745000Y-112820000D03*
X172395000Y-112820000D03*
X173045000Y-112820000D03*
X173695000Y-112820000D03*
X174345000Y-112820000D03*
X174995000Y-112820000D03*
X175645000Y-112820000D03*
X176295000Y-112820000D03*
X176945000Y-112820000D03*
X176945000Y-105620000D03*
X176295000Y-105620000D03*
X175645000Y-105620000D03*
X174995000Y-105620000D03*
X174345000Y-105620000D03*
X173695000Y-105620000D03*
X173045000Y-105620000D03*
X172395000Y-105620000D03*
X171745000Y-105620000D03*
X171095000Y-105620000D03*
X170445000Y-105620000D03*
X169795000Y-105620000D03*
X169145000Y-105620000D03*
X168495000Y-105620000D03*
%TD*%
D24*
%TO.C,J3*%
X99060000Y-116840000D03*
X101600000Y-116840000D03*
X104140000Y-116840000D03*
X106680000Y-116840000D03*
X109220000Y-116840000D03*
X111760000Y-116840000D03*
X114300000Y-116840000D03*
X116840000Y-116840000D03*
X119380000Y-116840000D03*
X121920000Y-116840000D03*
X124460000Y-116840000D03*
X127000000Y-116840000D03*
X129540000Y-116840000D03*
X132080000Y-116840000D03*
X134620000Y-116840000D03*
X137160000Y-116840000D03*
X139700000Y-116840000D03*
X142240000Y-116840000D03*
X144780000Y-116840000D03*
X147320000Y-116840000D03*
X149860000Y-116840000D03*
X152400000Y-116840000D03*
X154940000Y-116840000D03*
X157480000Y-116840000D03*
X160020000Y-116840000D03*
X162560000Y-116840000D03*
X165100000Y-116840000D03*
X167640000Y-116840000D03*
X170180000Y-116840000D03*
X172720000Y-116840000D03*
X175260000Y-116840000D03*
X177800000Y-116840000D03*
D23*
X180340000Y-116840000D03*
%TD*%
D35*
%TO.C,R7*%
X123910000Y-88900000D03*
X125010000Y-88900000D03*
%TD*%
D17*
%TO.C,C8*%
X123295000Y-95180000D03*
X124715000Y-95180000D03*
%TD*%
D20*
%TO.C,R11*%
X118580000Y-83820000D03*
X120180000Y-83820000D03*
%TD*%
%TO.C,R3*%
X107235000Y-109350000D03*
X108835000Y-109350000D03*
%TD*%
D38*
%TO.C,IC2*%
X147955000Y-89072000D03*
X149225000Y-89072000D03*
X150495000Y-89072000D03*
X151765000Y-89072000D03*
X151765000Y-83648000D03*
X150495000Y-83648000D03*
X149225000Y-83648000D03*
X147955000Y-83648000D03*
%TD*%
%TO.C,IC3*%
X147955000Y-109392000D03*
X149225000Y-109392000D03*
X150495000Y-109392000D03*
X151765000Y-109392000D03*
X151765000Y-103968000D03*
X150495000Y-103968000D03*
X149225000Y-103968000D03*
X147955000Y-103968000D03*
%TD*%
D20*
%TO.C,R8*%
X123660000Y-86360000D03*
X125260000Y-86360000D03*
%TD*%
D39*
%TO.C,BT1*%
X75820000Y-134990000D03*
D40*
X75820000Y-71460000D03*
X91820000Y-126660000D03*
D41*
X83820000Y-138390000D03*
X83820000Y-59730000D03*
%TD*%
D42*
%TO.C,U3*%
X139700000Y-106680000D03*
D43*
X139700000Y-107950000D03*
X139700000Y-109220000D03*
%TD*%
D17*
%TO.C,C10*%
X141530000Y-86360000D03*
X142950000Y-86360000D03*
%TD*%
M02*
