%FSLAX45Y45*%
G04 Gerber Fmt 4.5, Leading zero omitted, Abs format (unit mm)*
G04 Created by KiCad (PCBNEW (6.0.1)) date 2022-04-11 21:49:43*
%MOMM*%
%LPD*%
G01*
G04 APERTURE LIST*
%TA.AperFunction,Profile*%
%ADD10C,0.100000*%
%TD*%
%ADD11C,0.200000*%
%ADD12C,0.040000*%
%ADD13C,0.070000*%
%ADD14C,0.075000*%
%ADD15C,0.100000*%
%ADD16C,0.110000*%
%ADD17C,0.128000*%
%ADD18C,0.130000*%
G04 APERTURE END LIST*
D10*
X18796000Y-13208000D02*
X9906000Y-13208000D01*
X9906000Y-14478000D02*
X6604000Y-14478000D01*
X6604000Y-5334000D02*
X9906000Y-5334000D01*
X9906000Y-13208000D02*
X9906000Y-14478000D01*
X18796000Y-6096000D02*
X18796000Y-6350000D01*
X9906000Y-5334000D02*
X9906000Y-6096000D01*
X9906000Y-6096000D02*
X18796000Y-6096000D01*
X6604000Y-14478000D02*
X6604000Y-5334000D01*
X18796000Y-6350000D02*
X18796000Y-13208000D01*
D11*
D12*
X10013000Y-8743000D02*
X10053000Y-8783000D01*
X10053000Y-8743000D02*
X10013000Y-8783000D01*
X10227500Y-8575000D02*
X10267500Y-8615000D01*
X10267500Y-8575000D02*
X10227500Y-8615000D01*
X10267000Y-10267000D02*
X10307000Y-10307000D01*
X10307000Y-10267000D02*
X10267000Y-10307000D01*
X10394000Y-8616000D02*
X10434000Y-8656000D01*
X10434000Y-8616000D02*
X10394000Y-8656000D01*
X10394000Y-9632000D02*
X10434000Y-9672000D01*
X10434000Y-9632000D02*
X10394000Y-9672000D01*
X10497500Y-10707500D02*
X10537500Y-10747500D01*
X10537500Y-10707500D02*
X10497500Y-10747500D01*
X10582500Y-8900000D02*
X10622500Y-8940000D01*
X10622500Y-8900000D02*
X10582500Y-8940000D01*
X10617500Y-10290000D02*
X10657500Y-10330000D01*
X10657500Y-10290000D02*
X10617500Y-10330000D01*
X10648000Y-9886000D02*
X10688000Y-9926000D01*
X10688000Y-9886000D02*
X10648000Y-9926000D01*
X10735962Y-8880962D02*
X10775962Y-8920962D01*
X10775962Y-8880962D02*
X10735962Y-8920962D01*
X10860000Y-10507500D02*
X10900000Y-10547500D01*
X10900000Y-10507500D02*
X10860000Y-10547500D01*
X10863500Y-10915000D02*
X10903500Y-10955000D01*
X10903500Y-10915000D02*
X10863500Y-10955000D01*
X10902000Y-11157305D02*
X10942000Y-11197305D01*
X10942000Y-11157305D02*
X10902000Y-11197305D01*
X11029000Y-9251000D02*
X11069000Y-9291000D01*
X11069000Y-9251000D02*
X11029000Y-9291000D01*
X11156000Y-9251000D02*
X11196000Y-9291000D01*
X11196000Y-9251000D02*
X11156000Y-9291000D01*
X11363770Y-10083770D02*
X11403770Y-10123770D01*
X11403770Y-10083770D02*
X11363770Y-10123770D01*
X11397500Y-10407500D02*
X11437500Y-10447500D01*
X11437500Y-10407500D02*
X11397500Y-10447500D01*
X11410000Y-9196450D02*
X11450000Y-9236450D01*
X11450000Y-9196450D02*
X11410000Y-9236450D01*
X11410000Y-9378000D02*
X11450000Y-9418000D01*
X11450000Y-9378000D02*
X11410000Y-9418000D01*
X11410000Y-9580550D02*
X11450000Y-9620550D01*
X11450000Y-9580550D02*
X11410000Y-9620550D01*
X11410000Y-10648000D02*
X11450000Y-10688000D01*
X11450000Y-10648000D02*
X11410000Y-10688000D01*
X11410000Y-10902000D02*
X11450000Y-10942000D01*
X11450000Y-10902000D02*
X11410000Y-10942000D01*
X11664000Y-9632000D02*
X11704000Y-9672000D01*
X11704000Y-9632000D02*
X11664000Y-9672000D01*
X11664000Y-9886000D02*
X11704000Y-9926000D01*
X11704000Y-9886000D02*
X11664000Y-9926000D01*
X11680000Y-11157305D02*
X11720000Y-11197305D01*
X11720000Y-11157305D02*
X11680000Y-11197305D01*
X11918000Y-7926450D02*
X11958000Y-7966450D01*
X11958000Y-7926450D02*
X11918000Y-7966450D01*
X11918000Y-9378000D02*
X11958000Y-9418000D01*
X11958000Y-9378000D02*
X11918000Y-9418000D01*
X11918000Y-10648000D02*
X11958000Y-10688000D01*
X11958000Y-10648000D02*
X11918000Y-10688000D01*
X11990450Y-8352538D02*
X12030450Y-8392538D01*
X12030450Y-8352538D02*
X11990450Y-8392538D01*
X12030000Y-8762550D02*
X12070000Y-8802550D01*
X12070000Y-8762550D02*
X12030000Y-8802550D01*
X12045000Y-11029000D02*
X12085000Y-11069000D01*
X12085000Y-11029000D02*
X12045000Y-11069000D01*
X12047500Y-9297500D02*
X12087500Y-9337500D01*
X12087500Y-9297500D02*
X12047500Y-9337500D01*
X12055000Y-9007500D02*
X12095000Y-9047500D01*
X12095000Y-9007500D02*
X12055000Y-9047500D01*
X12117628Y-9934088D02*
X12157628Y-9974088D01*
X12157628Y-9934088D02*
X12117628Y-9974088D01*
X12172000Y-8362000D02*
X12212000Y-8402000D01*
X12212000Y-8362000D02*
X12172000Y-8402000D01*
X12172000Y-8616000D02*
X12212000Y-8656000D01*
X12212000Y-8616000D02*
X12172000Y-8656000D01*
X12172000Y-9378000D02*
X12212000Y-9418000D01*
X12212000Y-9378000D02*
X12172000Y-9418000D01*
X12299000Y-10140000D02*
X12339000Y-10180000D01*
X12339000Y-10140000D02*
X12299000Y-10180000D01*
X12299000Y-10648000D02*
X12339000Y-10688000D01*
X12339000Y-10648000D02*
X12299000Y-10688000D01*
X12329020Y-9844020D02*
X12369020Y-9884020D01*
X12369020Y-9844020D02*
X12329020Y-9884020D01*
X12416936Y-8697949D02*
X12456936Y-8737949D01*
X12456936Y-8697949D02*
X12416936Y-8737949D01*
X12426000Y-9051550D02*
X12466000Y-9091550D01*
X12466000Y-9051550D02*
X12426000Y-9091550D01*
X12522500Y-9892500D02*
X12562500Y-9932500D01*
X12562500Y-9892500D02*
X12522500Y-9932500D01*
X12565000Y-9051549D02*
X12605000Y-9091549D01*
X12605000Y-9051549D02*
X12565000Y-9091549D01*
X12674050Y-8362000D02*
X12714050Y-8402000D01*
X12714050Y-8362000D02*
X12674050Y-8402000D01*
X12680000Y-8616000D02*
X12720000Y-8656000D01*
X12720000Y-8616000D02*
X12680000Y-8656000D01*
X12680000Y-10140000D02*
X12720000Y-10180000D01*
X12720000Y-10140000D02*
X12680000Y-10180000D01*
X12717620Y-9051550D02*
X12757620Y-9091550D01*
X12757620Y-9051550D02*
X12717620Y-9091550D01*
X12804500Y-9265000D02*
X12844500Y-9305000D01*
X12844500Y-9265000D02*
X12804500Y-9305000D01*
X12846050Y-8879999D02*
X12886050Y-8919999D01*
X12886050Y-8879999D02*
X12846050Y-8919999D01*
X12913569Y-9906431D02*
X12953569Y-9946431D01*
X12953569Y-9906431D02*
X12913569Y-9946431D01*
X12934000Y-9632000D02*
X12974000Y-9672000D01*
X12974000Y-9632000D02*
X12934000Y-9672000D01*
X12945180Y-9107320D02*
X12985180Y-9147320D01*
X12985180Y-9107320D02*
X12945180Y-9147320D01*
X13014000Y-8616000D02*
X13054000Y-8656000D01*
X13054000Y-8616000D02*
X13014000Y-8656000D01*
X13077500Y-9077500D02*
X13117500Y-9117500D01*
X13117500Y-9077500D02*
X13077500Y-9117500D01*
X13188000Y-8108000D02*
X13228000Y-8148000D01*
X13228000Y-8108000D02*
X13188000Y-8148000D01*
X13188000Y-8870000D02*
X13228000Y-8910000D01*
X13228000Y-8870000D02*
X13188000Y-8910000D01*
X13258675Y-8942450D02*
X13298675Y-8982450D01*
X13298675Y-8942450D02*
X13258675Y-8982450D01*
X13305181Y-9514819D02*
X13345181Y-9554819D01*
X13345181Y-9514819D02*
X13305181Y-9554819D01*
X13315000Y-10648000D02*
X13355000Y-10688000D01*
X13355000Y-10648000D02*
X13315000Y-10688000D01*
X13370685Y-8474645D02*
X13410685Y-8514645D01*
X13410685Y-8474645D02*
X13370685Y-8514645D01*
X13421569Y-10414431D02*
X13461569Y-10454431D01*
X13461569Y-10414431D02*
X13421569Y-10454431D01*
X13459706Y-9215294D02*
X13499706Y-9255294D01*
X13499706Y-9215294D02*
X13459706Y-9255294D01*
X13504029Y-8807971D02*
X13544029Y-8847971D01*
X13544029Y-8807971D02*
X13504029Y-8847971D01*
X13512533Y-9937534D02*
X13552533Y-9977534D01*
X13552533Y-9937534D02*
X13512533Y-9977534D01*
X13522000Y-8616000D02*
X13562000Y-8656000D01*
X13562000Y-8616000D02*
X13522000Y-8656000D01*
X13655569Y-9164431D02*
X13695569Y-9204431D01*
X13695569Y-9164431D02*
X13655569Y-9204431D01*
X13696000Y-8616000D02*
X13736000Y-8656000D01*
X13736000Y-8616000D02*
X13696000Y-8656000D01*
X13696000Y-8772865D02*
X13736000Y-8812865D01*
X13736000Y-8772865D02*
X13696000Y-8812865D01*
X13696000Y-8870000D02*
X13736000Y-8910000D01*
X13736000Y-8870000D02*
X13696000Y-8910000D01*
X13696000Y-10902000D02*
X13736000Y-10942000D01*
X13736000Y-10902000D02*
X13696000Y-10942000D01*
X13937644Y-9644356D02*
X13977644Y-9684356D01*
X13977644Y-9644356D02*
X13937644Y-9684356D01*
X13950000Y-8520050D02*
X13990000Y-8560050D01*
X13990000Y-8520050D02*
X13950000Y-8560050D01*
X13950000Y-9124000D02*
X13990000Y-9164000D01*
X13990000Y-9124000D02*
X13950000Y-9164000D01*
X13950000Y-9124000D02*
X13990000Y-9164000D01*
X13990000Y-9124000D02*
X13950000Y-9164000D01*
X13950000Y-10394000D02*
X13990000Y-10434000D01*
X13990000Y-10394000D02*
X13950000Y-10434000D01*
X14012029Y-9315971D02*
X14052029Y-9355971D01*
X14052029Y-9315971D02*
X14012029Y-9355971D01*
X14135000Y-8740000D02*
X14175000Y-8780000D01*
X14175000Y-8740000D02*
X14135000Y-8780000D01*
X14204000Y-8362000D02*
X14244000Y-8402000D01*
X14244000Y-8362000D02*
X14204000Y-8402000D01*
X14303705Y-8369001D02*
X14343705Y-8409001D01*
X14343705Y-8369001D02*
X14303705Y-8409001D01*
X14458000Y-8362000D02*
X14498000Y-8402000D01*
X14498000Y-8362000D02*
X14458000Y-8402000D01*
X14465803Y-9750050D02*
X14505803Y-9790050D01*
X14505803Y-9750050D02*
X14465803Y-9790050D01*
X14535000Y-8517500D02*
X14575000Y-8557500D01*
X14575000Y-8517500D02*
X14535000Y-8557500D01*
X14585000Y-10394000D02*
X14625000Y-10434000D01*
X14625000Y-10394000D02*
X14585000Y-10434000D01*
X14625000Y-9280000D02*
X14665000Y-9320000D01*
X14665000Y-9280000D02*
X14625000Y-9320000D01*
X14645000Y-8357500D02*
X14685000Y-8397500D01*
X14685000Y-8357500D02*
X14645000Y-8397500D01*
X14694800Y-9704450D02*
X14734800Y-9744450D01*
X14734800Y-9704450D02*
X14694800Y-9744450D01*
X14694800Y-9815001D02*
X14734800Y-9855001D01*
X14734800Y-9815001D02*
X14694800Y-9855001D01*
X14775500Y-10393998D02*
X14815500Y-10433998D01*
X14815500Y-10393998D02*
X14775500Y-10433998D01*
X14777520Y-10187520D02*
X14817520Y-10227520D01*
X14817520Y-10187520D02*
X14777520Y-10227520D01*
X14984980Y-9944980D02*
X15024980Y-9984980D01*
X15024980Y-9944980D02*
X14984980Y-9984980D01*
X15065000Y-10212450D02*
X15105000Y-10252450D01*
X15105000Y-10212450D02*
X15065000Y-10252450D01*
X15077500Y-9137500D02*
X15117500Y-9177500D01*
X15117500Y-9137500D02*
X15077500Y-9177500D01*
X15137621Y-9910225D02*
X15177621Y-9950225D01*
X15177621Y-9910225D02*
X15137621Y-9950225D01*
X15156500Y-8887200D02*
X15196500Y-8927200D01*
X15196500Y-8887200D02*
X15156500Y-8927200D01*
X15219422Y-9455832D02*
X15259422Y-9495832D01*
X15259422Y-9455832D02*
X15219422Y-9495832D01*
X15263571Y-10373929D02*
X15303571Y-10413929D01*
X15303571Y-10373929D02*
X15263571Y-10413929D01*
X15347000Y-10648000D02*
X15387000Y-10688000D01*
X15387000Y-10648000D02*
X15347000Y-10688000D01*
X15352500Y-9290000D02*
X15392500Y-9330000D01*
X15392500Y-9290000D02*
X15352500Y-9330000D01*
X15402500Y-9412500D02*
X15442500Y-9452500D01*
X15442500Y-9412500D02*
X15402500Y-9452500D01*
X15427500Y-10292500D02*
X15467500Y-10332500D01*
X15467500Y-10292500D02*
X15427500Y-10332500D01*
X15452551Y-9597500D02*
X15492551Y-9637500D01*
X15492551Y-9597500D02*
X15452551Y-9637500D01*
X15474000Y-8287901D02*
X15514000Y-8327901D01*
X15514000Y-8287901D02*
X15474000Y-8327901D01*
X15601000Y-10013000D02*
X15641000Y-10053000D01*
X15641000Y-10013000D02*
X15601000Y-10053000D01*
X15601000Y-10267000D02*
X15641000Y-10307000D01*
X15641000Y-10267000D02*
X15601000Y-10307000D01*
X15605000Y-9295000D02*
X15645000Y-9335000D01*
X15645000Y-9295000D02*
X15605000Y-9335000D01*
X15605000Y-9567500D02*
X15645000Y-9607500D01*
X15645000Y-9567500D02*
X15605000Y-9607500D01*
X15685000Y-9817500D02*
X15725000Y-9857500D01*
X15725000Y-9817500D02*
X15685000Y-9857500D01*
X15728000Y-8362000D02*
X15768000Y-8402000D01*
X15768000Y-8362000D02*
X15728000Y-8402000D01*
X15728000Y-9251000D02*
X15768000Y-9291000D01*
X15768000Y-9251000D02*
X15728000Y-9291000D01*
X15832500Y-10035000D02*
X15872500Y-10075000D01*
X15872500Y-10035000D02*
X15832500Y-10075000D01*
X15900000Y-9275000D02*
X15940000Y-9315000D01*
X15940000Y-9275000D02*
X15900000Y-9315000D01*
X15967500Y-9580000D02*
X16007500Y-9620000D01*
X16007500Y-9580000D02*
X15967500Y-9620000D01*
X15972500Y-9865000D02*
X16012500Y-9905000D01*
X16012500Y-9865000D02*
X15972500Y-9905000D01*
X15982000Y-8870000D02*
X16022000Y-8910000D01*
X16022000Y-8870000D02*
X15982000Y-8910000D01*
X15982000Y-11156000D02*
X16022000Y-11196000D01*
X16022000Y-11156000D02*
X15982000Y-11196000D01*
X16043730Y-9718730D02*
X16083730Y-9758730D01*
X16083730Y-9718730D02*
X16043730Y-9758730D01*
X16236000Y-11410000D02*
X16276000Y-11450000D01*
X16276000Y-11410000D02*
X16236000Y-11450000D01*
X16318785Y-9349449D02*
X16358785Y-9389449D01*
X16358785Y-9349449D02*
X16318785Y-9389449D01*
X16490000Y-8870000D02*
X16530000Y-8910000D01*
X16530000Y-8870000D02*
X16490000Y-8910000D01*
X16490000Y-8973288D02*
X16530000Y-9013288D01*
X16530000Y-8973288D02*
X16490000Y-9013288D01*
X16490000Y-10394000D02*
X16530000Y-10434000D01*
X16530000Y-10394000D02*
X16490000Y-10434000D01*
X16490000Y-11410000D02*
X16530000Y-11450000D01*
X16530000Y-11410000D02*
X16490000Y-11450000D01*
X16490000Y-12172000D02*
X16530000Y-12212000D01*
X16530000Y-12172000D02*
X16490000Y-12212000D01*
X16545000Y-10202500D02*
X16585000Y-10242500D01*
X16585000Y-10202500D02*
X16545000Y-10242500D01*
X16585179Y-11822821D02*
X16625179Y-11862821D01*
X16625179Y-11822821D02*
X16585179Y-11862821D01*
X16615000Y-9237098D02*
X16655000Y-9277098D01*
X16655000Y-9237098D02*
X16615000Y-9277098D01*
X16744000Y-11156000D02*
X16784000Y-11196000D01*
X16784000Y-11156000D02*
X16744000Y-11196000D01*
X16744000Y-11410000D02*
X16784000Y-11450000D01*
X16784000Y-11410000D02*
X16744000Y-11450000D01*
X16744000Y-12172000D02*
X16784000Y-12212000D01*
X16784000Y-12172000D02*
X16744000Y-12212000D01*
X16820000Y-9455000D02*
X16860000Y-9495000D01*
X16860000Y-9455000D02*
X16820000Y-9495000D01*
X16834965Y-9307005D02*
X16874965Y-9347005D01*
X16874965Y-9307005D02*
X16834965Y-9347005D01*
X16839179Y-11822821D02*
X16879179Y-11862821D01*
X16879179Y-11822821D02*
X16839179Y-11862821D01*
X16871000Y-9759000D02*
X16911000Y-9799000D01*
X16911000Y-9759000D02*
X16871000Y-9799000D01*
X16998000Y-11845550D02*
X17038000Y-11885550D01*
X17038000Y-11845550D02*
X16998000Y-11885550D01*
X16998000Y-12172000D02*
X17038000Y-12212000D01*
X17038000Y-12172000D02*
X16998000Y-12212000D01*
X17021217Y-11129156D02*
X17061217Y-11169156D01*
X17061217Y-11129156D02*
X17021217Y-11169156D01*
X17070450Y-10974450D02*
X17110450Y-11014450D01*
X17110450Y-10974450D02*
X17070450Y-11014450D01*
X17070450Y-10974450D02*
X17110450Y-11014450D01*
X17110450Y-10974450D02*
X17070450Y-11014450D01*
X17097950Y-10394000D02*
X17137950Y-10434000D01*
X17137950Y-10394000D02*
X17097950Y-10434000D01*
X17125000Y-11410000D02*
X17165000Y-11450000D01*
X17165000Y-11410000D02*
X17125000Y-11450000D01*
X17140000Y-10152500D02*
X17180000Y-10192500D01*
X17180000Y-10152500D02*
X17140000Y-10192500D01*
X17252000Y-8616000D02*
X17292000Y-8656000D01*
X17292000Y-8616000D02*
X17252000Y-8656000D01*
X17252000Y-10974450D02*
X17292000Y-11014450D01*
X17292000Y-10974450D02*
X17252000Y-11014450D01*
X17252000Y-11845550D02*
X17292000Y-11885550D01*
X17292000Y-11845550D02*
X17252000Y-11885550D01*
X17252000Y-12172000D02*
X17292000Y-12212000D01*
X17292000Y-12172000D02*
X17252000Y-12212000D01*
X17324450Y-10722500D02*
X17364450Y-10762500D01*
X17364450Y-10722500D02*
X17324450Y-10762500D01*
X17330000Y-10379999D02*
X17370000Y-10419999D01*
X17370000Y-10379999D02*
X17330000Y-10419999D01*
X17455538Y-10379462D02*
X17495538Y-10419462D01*
X17495538Y-10379462D02*
X17455538Y-10419462D01*
X17463038Y-9068038D02*
X17503038Y-9108038D01*
X17503038Y-9068038D02*
X17463038Y-9108038D01*
X17506000Y-10902000D02*
X17546000Y-10942000D01*
X17546000Y-10902000D02*
X17506000Y-10942000D01*
X17506000Y-11845550D02*
X17546000Y-11885550D01*
X17546000Y-11845550D02*
X17506000Y-11885550D01*
X17506000Y-12172000D02*
X17546000Y-12212000D01*
X17546000Y-12172000D02*
X17506000Y-12212000D01*
X17577230Y-8584770D02*
X17617230Y-8624770D01*
X17617230Y-8584770D02*
X17577230Y-8624770D01*
X17660711Y-9367298D02*
X17700711Y-9407298D01*
X17700711Y-9367298D02*
X17660711Y-9407298D01*
X17708770Y-11845550D02*
X17748770Y-11885550D01*
X17748770Y-11845550D02*
X17708770Y-11885550D01*
X17760000Y-9378779D02*
X17800000Y-9418779D01*
X17800000Y-9378779D02*
X17760000Y-9418779D01*
X17811230Y-11969230D02*
X17851230Y-12009230D01*
X17851230Y-11969230D02*
X17811230Y-12009230D01*
X18013221Y-9117099D02*
X18053221Y-9157099D01*
X18053221Y-9117099D02*
X18013221Y-9157099D01*
X18087450Y-9714450D02*
X18127450Y-9754450D01*
X18127450Y-9714450D02*
X18087450Y-9754450D01*
X18405050Y-9782500D02*
X18445050Y-9822500D01*
X18445050Y-9782500D02*
X18405050Y-9822500D01*
D13*
X17532221Y-9409500D02*
G75*
G03*
X17532221Y-9409500I-35000J0D01*
G01*
X17532221Y-9894500D02*
G75*
G03*
X17532221Y-9894500I-35000J0D01*
G01*
D14*
X13970000Y-10630500D02*
X13970000Y-10705500D01*
X13932500Y-10668000D02*
X14007500Y-10668000D01*
X13970000Y-10757500D02*
X13970000Y-10832500D01*
X13932500Y-10795000D02*
X14007500Y-10795000D01*
X13970000Y-10884500D02*
X13970000Y-10959500D01*
X13932500Y-10922000D02*
X14007500Y-10922000D01*
D15*
X9941356Y-6639356D02*
X9941356Y-6568644D01*
X9870644Y-6568644D01*
X9870644Y-6639356D01*
X9941356Y-6639356D01*
X9941356Y-7655356D02*
X9941356Y-7584644D01*
X9870644Y-7584644D01*
X9870644Y-7655356D01*
X9941356Y-7655356D01*
X9941356Y-11719356D02*
X9941356Y-11648644D01*
X9870644Y-11648644D01*
X9870644Y-11719356D01*
X9941356Y-11719356D01*
X9941356Y-12735356D02*
X9941356Y-12664644D01*
X9870644Y-12664644D01*
X9870644Y-12735356D01*
X9941356Y-12735356D01*
X10195356Y-6639356D02*
X10195356Y-6568644D01*
X10124644Y-6568644D01*
X10124644Y-6639356D01*
X10195356Y-6639356D01*
X10195356Y-7655356D02*
X10195356Y-7584644D01*
X10124644Y-7584644D01*
X10124644Y-7655356D01*
X10195356Y-7655356D01*
X10195356Y-11719356D02*
X10195356Y-11648644D01*
X10124644Y-11648644D01*
X10124644Y-11719356D01*
X10195356Y-11719356D01*
X10195356Y-12735356D02*
X10195356Y-12664644D01*
X10124644Y-12664644D01*
X10124644Y-12735356D01*
X10195356Y-12735356D01*
X10449356Y-6639356D02*
X10449356Y-6568644D01*
X10378644Y-6568644D01*
X10378644Y-6639356D01*
X10449356Y-6639356D01*
X10449356Y-7655356D02*
X10449356Y-7584644D01*
X10378644Y-7584644D01*
X10378644Y-7655356D01*
X10449356Y-7655356D01*
X10449356Y-11719356D02*
X10449356Y-11648644D01*
X10378644Y-11648644D01*
X10378644Y-11719356D01*
X10449356Y-11719356D01*
X10449356Y-12735356D02*
X10449356Y-12664644D01*
X10378644Y-12664644D01*
X10378644Y-12735356D01*
X10449356Y-12735356D01*
X10703356Y-6639356D02*
X10703356Y-6568644D01*
X10632644Y-6568644D01*
X10632644Y-6639356D01*
X10703356Y-6639356D01*
X10703356Y-7655356D02*
X10703356Y-7584644D01*
X10632644Y-7584644D01*
X10632644Y-7655356D01*
X10703356Y-7655356D01*
X10703356Y-11719356D02*
X10703356Y-11648644D01*
X10632644Y-11648644D01*
X10632644Y-11719356D01*
X10703356Y-11719356D01*
X10703356Y-12735356D02*
X10703356Y-12664644D01*
X10632644Y-12664644D01*
X10632644Y-12735356D01*
X10703356Y-12735356D01*
X10957356Y-6639356D02*
X10957356Y-6568644D01*
X10886644Y-6568644D01*
X10886644Y-6639356D01*
X10957356Y-6639356D01*
X10957356Y-7655356D02*
X10957356Y-7584644D01*
X10886644Y-7584644D01*
X10886644Y-7655356D01*
X10957356Y-7655356D01*
X10957356Y-11719356D02*
X10957356Y-11648644D01*
X10886644Y-11648644D01*
X10886644Y-11719356D01*
X10957356Y-11719356D01*
X10957356Y-12735356D02*
X10957356Y-12664644D01*
X10886644Y-12664644D01*
X10886644Y-12735356D01*
X10957356Y-12735356D01*
X11211356Y-6639356D02*
X11211356Y-6568644D01*
X11140644Y-6568644D01*
X11140644Y-6639356D01*
X11211356Y-6639356D01*
X11211356Y-7655356D02*
X11211356Y-7584644D01*
X11140644Y-7584644D01*
X11140644Y-7655356D01*
X11211356Y-7655356D01*
X11211356Y-11719356D02*
X11211356Y-11648644D01*
X11140644Y-11648644D01*
X11140644Y-11719356D01*
X11211356Y-11719356D01*
X11211356Y-12735356D02*
X11211356Y-12664644D01*
X11140644Y-12664644D01*
X11140644Y-12735356D01*
X11211356Y-12735356D01*
X11465356Y-6639356D02*
X11465356Y-6568644D01*
X11394644Y-6568644D01*
X11394644Y-6639356D01*
X11465356Y-6639356D01*
X11465356Y-7655356D02*
X11465356Y-7584644D01*
X11394644Y-7584644D01*
X11394644Y-7655356D01*
X11465356Y-7655356D01*
X11465356Y-11719356D02*
X11465356Y-11648644D01*
X11394644Y-11648644D01*
X11394644Y-11719356D01*
X11465356Y-11719356D01*
X11465356Y-12735356D02*
X11465356Y-12664644D01*
X11394644Y-12664644D01*
X11394644Y-12735356D01*
X11465356Y-12735356D01*
X11719356Y-6639356D02*
X11719356Y-6568644D01*
X11648644Y-6568644D01*
X11648644Y-6639356D01*
X11719356Y-6639356D01*
X11719356Y-7655356D02*
X11719356Y-7584644D01*
X11648644Y-7584644D01*
X11648644Y-7655356D01*
X11719356Y-7655356D01*
X11719356Y-11719356D02*
X11719356Y-11648644D01*
X11648644Y-11648644D01*
X11648644Y-11719356D01*
X11719356Y-11719356D01*
X11719356Y-12735356D02*
X11719356Y-12664644D01*
X11648644Y-12664644D01*
X11648644Y-12735356D01*
X11719356Y-12735356D01*
X11973356Y-6639356D02*
X11973356Y-6568644D01*
X11902644Y-6568644D01*
X11902644Y-6639356D01*
X11973356Y-6639356D01*
X11973356Y-7655356D02*
X11973356Y-7584644D01*
X11902644Y-7584644D01*
X11902644Y-7655356D01*
X11973356Y-7655356D01*
X11973356Y-11719356D02*
X11973356Y-11648644D01*
X11902644Y-11648644D01*
X11902644Y-11719356D01*
X11973356Y-11719356D01*
X11973356Y-12735356D02*
X11973356Y-12664644D01*
X11902644Y-12664644D01*
X11902644Y-12735356D01*
X11973356Y-12735356D01*
X12227356Y-6639356D02*
X12227356Y-6568644D01*
X12156644Y-6568644D01*
X12156644Y-6639356D01*
X12227356Y-6639356D01*
X12227356Y-7655356D02*
X12227356Y-7584644D01*
X12156644Y-7584644D01*
X12156644Y-7655356D01*
X12227356Y-7655356D01*
X12227356Y-11719356D02*
X12227356Y-11648644D01*
X12156644Y-11648644D01*
X12156644Y-11719356D01*
X12227356Y-11719356D01*
X12227356Y-12735356D02*
X12227356Y-12664644D01*
X12156644Y-12664644D01*
X12156644Y-12735356D01*
X12227356Y-12735356D01*
X12481356Y-6639356D02*
X12481356Y-6568644D01*
X12410644Y-6568644D01*
X12410644Y-6639356D01*
X12481356Y-6639356D01*
X12481356Y-7655356D02*
X12481356Y-7584644D01*
X12410644Y-7584644D01*
X12410644Y-7655356D01*
X12481356Y-7655356D01*
X12481356Y-11719356D02*
X12481356Y-11648644D01*
X12410644Y-11648644D01*
X12410644Y-11719356D01*
X12481356Y-11719356D01*
X12481356Y-12735356D02*
X12481356Y-12664644D01*
X12410644Y-12664644D01*
X12410644Y-12735356D01*
X12481356Y-12735356D01*
X12735356Y-6639356D02*
X12735356Y-6568644D01*
X12664644Y-6568644D01*
X12664644Y-6639356D01*
X12735356Y-6639356D01*
X12735356Y-7655356D02*
X12735356Y-7584644D01*
X12664644Y-7584644D01*
X12664644Y-7655356D01*
X12735356Y-7655356D01*
X12735356Y-11719356D02*
X12735356Y-11648644D01*
X12664644Y-11648644D01*
X12664644Y-11719356D01*
X12735356Y-11719356D01*
X12735356Y-12735356D02*
X12735356Y-12664644D01*
X12664644Y-12664644D01*
X12664644Y-12735356D01*
X12735356Y-12735356D01*
X12989356Y-6639356D02*
X12989356Y-6568644D01*
X12918644Y-6568644D01*
X12918644Y-6639356D01*
X12989356Y-6639356D01*
X12989356Y-7655356D02*
X12989356Y-7584644D01*
X12918644Y-7584644D01*
X12918644Y-7655356D01*
X12989356Y-7655356D01*
X12989356Y-11719356D02*
X12989356Y-11648644D01*
X12918644Y-11648644D01*
X12918644Y-11719356D01*
X12989356Y-11719356D01*
X12989356Y-12735356D02*
X12989356Y-12664644D01*
X12918644Y-12664644D01*
X12918644Y-12735356D01*
X12989356Y-12735356D01*
X13243356Y-6639356D02*
X13243356Y-6568644D01*
X13172644Y-6568644D01*
X13172644Y-6639356D01*
X13243356Y-6639356D01*
X13243356Y-7655356D02*
X13243356Y-7584644D01*
X13172644Y-7584644D01*
X13172644Y-7655356D01*
X13243356Y-7655356D01*
X13243356Y-11719356D02*
X13243356Y-11648644D01*
X13172644Y-11648644D01*
X13172644Y-11719356D01*
X13243356Y-11719356D01*
X13243356Y-12735356D02*
X13243356Y-12664644D01*
X13172644Y-12664644D01*
X13172644Y-12735356D01*
X13243356Y-12735356D01*
X13497356Y-6639356D02*
X13497356Y-6568644D01*
X13426644Y-6568644D01*
X13426644Y-6639356D01*
X13497356Y-6639356D01*
X13497356Y-7655356D02*
X13497356Y-7584644D01*
X13426644Y-7584644D01*
X13426644Y-7655356D01*
X13497356Y-7655356D01*
X13497356Y-11719356D02*
X13497356Y-11648644D01*
X13426644Y-11648644D01*
X13426644Y-11719356D01*
X13497356Y-11719356D01*
X13497356Y-12735356D02*
X13497356Y-12664644D01*
X13426644Y-12664644D01*
X13426644Y-12735356D01*
X13497356Y-12735356D01*
X13751356Y-6639356D02*
X13751356Y-6568644D01*
X13680644Y-6568644D01*
X13680644Y-6639356D01*
X13751356Y-6639356D01*
X13751356Y-7655356D02*
X13751356Y-7584644D01*
X13680644Y-7584644D01*
X13680644Y-7655356D01*
X13751356Y-7655356D01*
X13751356Y-11719356D02*
X13751356Y-11648644D01*
X13680644Y-11648644D01*
X13680644Y-11719356D01*
X13751356Y-11719356D01*
X13751356Y-12735356D02*
X13751356Y-12664644D01*
X13680644Y-12664644D01*
X13680644Y-12735356D01*
X13751356Y-12735356D01*
X14005356Y-6639356D02*
X14005356Y-6568644D01*
X13934644Y-6568644D01*
X13934644Y-6639356D01*
X14005356Y-6639356D01*
X14005356Y-7655356D02*
X14005356Y-7584644D01*
X13934644Y-7584644D01*
X13934644Y-7655356D01*
X14005356Y-7655356D01*
X14005356Y-11719356D02*
X14005356Y-11648644D01*
X13934644Y-11648644D01*
X13934644Y-11719356D01*
X14005356Y-11719356D01*
X14005356Y-12735356D02*
X14005356Y-12664644D01*
X13934644Y-12664644D01*
X13934644Y-12735356D01*
X14005356Y-12735356D01*
X14259356Y-6639356D02*
X14259356Y-6568644D01*
X14188644Y-6568644D01*
X14188644Y-6639356D01*
X14259356Y-6639356D01*
X14259356Y-7655356D02*
X14259356Y-7584644D01*
X14188644Y-7584644D01*
X14188644Y-7655356D01*
X14259356Y-7655356D01*
X14259356Y-11719356D02*
X14259356Y-11648644D01*
X14188644Y-11648644D01*
X14188644Y-11719356D01*
X14259356Y-11719356D01*
X14259356Y-12735356D02*
X14259356Y-12664644D01*
X14188644Y-12664644D01*
X14188644Y-12735356D01*
X14259356Y-12735356D01*
X14513356Y-6639356D02*
X14513356Y-6568644D01*
X14442644Y-6568644D01*
X14442644Y-6639356D01*
X14513356Y-6639356D01*
X14513356Y-7655356D02*
X14513356Y-7584644D01*
X14442644Y-7584644D01*
X14442644Y-7655356D01*
X14513356Y-7655356D01*
X14513356Y-11719356D02*
X14513356Y-11648644D01*
X14442644Y-11648644D01*
X14442644Y-11719356D01*
X14513356Y-11719356D01*
X14513356Y-12735356D02*
X14513356Y-12664644D01*
X14442644Y-12664644D01*
X14442644Y-12735356D01*
X14513356Y-12735356D01*
X14767356Y-6639356D02*
X14767356Y-6568644D01*
X14696644Y-6568644D01*
X14696644Y-6639356D01*
X14767356Y-6639356D01*
X14767356Y-7655356D02*
X14767356Y-7584644D01*
X14696644Y-7584644D01*
X14696644Y-7655356D01*
X14767356Y-7655356D01*
X14767356Y-11719356D02*
X14767356Y-11648644D01*
X14696644Y-11648644D01*
X14696644Y-11719356D01*
X14767356Y-11719356D01*
X14767356Y-12735356D02*
X14767356Y-12664644D01*
X14696644Y-12664644D01*
X14696644Y-12735356D01*
X14767356Y-12735356D01*
X15021356Y-6639356D02*
X15021356Y-6568644D01*
X14950644Y-6568644D01*
X14950644Y-6639356D01*
X15021356Y-6639356D01*
X15021356Y-7655356D02*
X15021356Y-7584644D01*
X14950644Y-7584644D01*
X14950644Y-7655356D01*
X15021356Y-7655356D01*
X15021356Y-11719356D02*
X15021356Y-11648644D01*
X14950644Y-11648644D01*
X14950644Y-11719356D01*
X15021356Y-11719356D01*
X15021356Y-12735356D02*
X15021356Y-12664644D01*
X14950644Y-12664644D01*
X14950644Y-12735356D01*
X15021356Y-12735356D01*
X15275356Y-6639356D02*
X15275356Y-6568644D01*
X15204644Y-6568644D01*
X15204644Y-6639356D01*
X15275356Y-6639356D01*
X15275356Y-7655356D02*
X15275356Y-7584644D01*
X15204644Y-7584644D01*
X15204644Y-7655356D01*
X15275356Y-7655356D01*
X15275356Y-11719356D02*
X15275356Y-11648644D01*
X15204644Y-11648644D01*
X15204644Y-11719356D01*
X15275356Y-11719356D01*
X15275356Y-12735356D02*
X15275356Y-12664644D01*
X15204644Y-12664644D01*
X15204644Y-12735356D01*
X15275356Y-12735356D01*
X15529356Y-6639356D02*
X15529356Y-6568644D01*
X15458644Y-6568644D01*
X15458644Y-6639356D01*
X15529356Y-6639356D01*
X15529356Y-7655356D02*
X15529356Y-7584644D01*
X15458644Y-7584644D01*
X15458644Y-7655356D01*
X15529356Y-7655356D01*
X15529356Y-11719356D02*
X15529356Y-11648644D01*
X15458644Y-11648644D01*
X15458644Y-11719356D01*
X15529356Y-11719356D01*
X15529356Y-12735356D02*
X15529356Y-12664644D01*
X15458644Y-12664644D01*
X15458644Y-12735356D01*
X15529356Y-12735356D01*
X15783356Y-6639356D02*
X15783356Y-6568644D01*
X15712644Y-6568644D01*
X15712644Y-6639356D01*
X15783356Y-6639356D01*
X15783356Y-7655356D02*
X15783356Y-7584644D01*
X15712644Y-7584644D01*
X15712644Y-7655356D01*
X15783356Y-7655356D01*
X15783356Y-11719356D02*
X15783356Y-11648644D01*
X15712644Y-11648644D01*
X15712644Y-11719356D01*
X15783356Y-11719356D01*
X15783356Y-12735356D02*
X15783356Y-12664644D01*
X15712644Y-12664644D01*
X15712644Y-12735356D01*
X15783356Y-12735356D01*
X16037356Y-6639356D02*
X16037356Y-6568644D01*
X15966644Y-6568644D01*
X15966644Y-6639356D01*
X16037356Y-6639356D01*
X16037356Y-7655356D02*
X16037356Y-7584644D01*
X15966644Y-7584644D01*
X15966644Y-7655356D01*
X16037356Y-7655356D01*
X16037356Y-11719356D02*
X16037356Y-11648644D01*
X15966644Y-11648644D01*
X15966644Y-11719356D01*
X16037356Y-11719356D01*
X16037356Y-12735356D02*
X16037356Y-12664644D01*
X15966644Y-12664644D01*
X15966644Y-12735356D01*
X16037356Y-12735356D01*
X16291356Y-6639356D02*
X16291356Y-6568644D01*
X16220644Y-6568644D01*
X16220644Y-6639356D01*
X16291356Y-6639356D01*
X16291356Y-7655356D02*
X16291356Y-7584644D01*
X16220644Y-7584644D01*
X16220644Y-7655356D01*
X16291356Y-7655356D01*
X16291356Y-11719356D02*
X16291356Y-11648644D01*
X16220644Y-11648644D01*
X16220644Y-11719356D01*
X16291356Y-11719356D01*
X16291356Y-12735356D02*
X16291356Y-12664644D01*
X16220644Y-12664644D01*
X16220644Y-12735356D01*
X16291356Y-12735356D01*
X16545356Y-6639356D02*
X16545356Y-6568644D01*
X16474644Y-6568644D01*
X16474644Y-6639356D01*
X16545356Y-6639356D01*
X16545356Y-7655356D02*
X16545356Y-7584644D01*
X16474644Y-7584644D01*
X16474644Y-7655356D01*
X16545356Y-7655356D01*
X16545356Y-11719356D02*
X16545356Y-11648644D01*
X16474644Y-11648644D01*
X16474644Y-11719356D01*
X16545356Y-11719356D01*
X16545356Y-12735356D02*
X16545356Y-12664644D01*
X16474644Y-12664644D01*
X16474644Y-12735356D01*
X16545356Y-12735356D01*
X16799356Y-6639356D02*
X16799356Y-6568644D01*
X16728644Y-6568644D01*
X16728644Y-6639356D01*
X16799356Y-6639356D01*
X16799356Y-7655356D02*
X16799356Y-7584644D01*
X16728644Y-7584644D01*
X16728644Y-7655356D01*
X16799356Y-7655356D01*
X16799356Y-11719356D02*
X16799356Y-11648644D01*
X16728644Y-11648644D01*
X16728644Y-11719356D01*
X16799356Y-11719356D01*
X16799356Y-12735356D02*
X16799356Y-12664644D01*
X16728644Y-12664644D01*
X16728644Y-12735356D01*
X16799356Y-12735356D01*
X17053356Y-6639356D02*
X17053356Y-6568644D01*
X16982644Y-6568644D01*
X16982644Y-6639356D01*
X17053356Y-6639356D01*
X17053356Y-7655356D02*
X17053356Y-7584644D01*
X16982644Y-7584644D01*
X16982644Y-7655356D01*
X17053356Y-7655356D01*
X17053356Y-11719356D02*
X17053356Y-11648644D01*
X16982644Y-11648644D01*
X16982644Y-11719356D01*
X17053356Y-11719356D01*
X17053356Y-12735356D02*
X17053356Y-12664644D01*
X16982644Y-12664644D01*
X16982644Y-12735356D01*
X17053356Y-12735356D01*
X17307356Y-6639356D02*
X17307356Y-6568644D01*
X17236644Y-6568644D01*
X17236644Y-6639356D01*
X17307356Y-6639356D01*
X17307356Y-7655356D02*
X17307356Y-7584644D01*
X17236644Y-7584644D01*
X17236644Y-7655356D01*
X17307356Y-7655356D01*
X17307356Y-11719356D02*
X17307356Y-11648644D01*
X17236644Y-11648644D01*
X17236644Y-11719356D01*
X17307356Y-11719356D01*
X17307356Y-12735356D02*
X17307356Y-12664644D01*
X17236644Y-12664644D01*
X17236644Y-12735356D01*
X17307356Y-12735356D01*
X17561356Y-6639356D02*
X17561356Y-6568644D01*
X17490644Y-6568644D01*
X17490644Y-6639356D01*
X17561356Y-6639356D01*
X17561356Y-7655356D02*
X17561356Y-7584644D01*
X17490644Y-7584644D01*
X17490644Y-7655356D01*
X17561356Y-7655356D01*
X17561356Y-11719356D02*
X17561356Y-11648644D01*
X17490644Y-11648644D01*
X17490644Y-11719356D01*
X17561356Y-11719356D01*
X17561356Y-12735356D02*
X17561356Y-12664644D01*
X17490644Y-12664644D01*
X17490644Y-12735356D01*
X17561356Y-12735356D01*
X17815356Y-6639356D02*
X17815356Y-6568644D01*
X17744644Y-6568644D01*
X17744644Y-6639356D01*
X17815356Y-6639356D01*
X17815356Y-7655356D02*
X17815356Y-7584644D01*
X17744644Y-7584644D01*
X17744644Y-7655356D01*
X17815356Y-7655356D01*
X17815356Y-11719356D02*
X17815356Y-11648644D01*
X17744644Y-11648644D01*
X17744644Y-11719356D01*
X17815356Y-11719356D01*
X17815356Y-12735356D02*
X17815356Y-12664644D01*
X17744644Y-12664644D01*
X17744644Y-12735356D01*
X17815356Y-12735356D01*
X18069356Y-6639356D02*
X18069356Y-6568644D01*
X17998644Y-6568644D01*
X17998644Y-6639356D01*
X18069356Y-6639356D01*
X18069356Y-7655356D02*
X18069356Y-7584644D01*
X17998644Y-7584644D01*
X17998644Y-7655356D01*
X18069356Y-7655356D01*
X18069356Y-11719356D02*
X18069356Y-11648644D01*
X17998644Y-11648644D01*
X17998644Y-11719356D01*
X18069356Y-11719356D01*
X18069356Y-12735356D02*
X18069356Y-12664644D01*
X17998644Y-12664644D01*
X17998644Y-12735356D01*
X18069356Y-12735356D01*
D16*
X12446000Y-10977000D02*
X12501000Y-10922000D01*
X12446000Y-10867000D01*
X12391000Y-10922000D01*
X12446000Y-10977000D01*
X12700000Y-10977000D02*
X12755000Y-10922000D01*
X12700000Y-10867000D01*
X12645000Y-10922000D01*
X12700000Y-10977000D01*
X12954000Y-10977000D02*
X13009000Y-10922000D01*
X12954000Y-10867000D01*
X12899000Y-10922000D01*
X12954000Y-10977000D01*
X16002000Y-10469000D02*
X16057000Y-10414000D01*
X16002000Y-10359000D01*
X15947000Y-10414000D01*
X16002000Y-10469000D01*
X16002000Y-10977000D02*
X16057000Y-10922000D01*
X16002000Y-10867000D01*
X15947000Y-10922000D01*
X16002000Y-10977000D01*
X16256000Y-10469000D02*
X16311000Y-10414000D01*
X16256000Y-10359000D01*
X16201000Y-10414000D01*
X16256000Y-10469000D01*
X16256000Y-10977000D02*
X16311000Y-10922000D01*
X16256000Y-10867000D01*
X16201000Y-10922000D01*
X16256000Y-10977000D01*
X16764000Y-8183000D02*
X16819000Y-8128000D01*
X16764000Y-8073000D01*
X16709000Y-8128000D01*
X16764000Y-8183000D01*
X17018000Y-8183000D02*
X17073000Y-8128000D01*
X17018000Y-8073000D01*
X16963000Y-8128000D01*
X17018000Y-8183000D01*
D17*
X9969000Y-8191000D02*
X10097000Y-8319000D01*
X10097000Y-8191000D02*
X9969000Y-8319000D01*
X10097000Y-8255000D02*
G75*
G03*
X10097000Y-8255000I-64000J0D01*
G01*
X10223000Y-8191000D02*
X10351000Y-8319000D01*
X10351000Y-8191000D02*
X10223000Y-8319000D01*
X10351000Y-8255000D02*
G75*
G03*
X10351000Y-8255000I-64000J0D01*
G01*
X10477000Y-8191000D02*
X10605000Y-8319000D01*
X10605000Y-8191000D02*
X10477000Y-8319000D01*
X10605000Y-8255000D02*
G75*
G03*
X10605000Y-8255000I-64000J0D01*
G01*
D18*
X17165221Y-9227000D02*
X17295221Y-9357000D01*
X17295221Y-9227000D02*
X17165221Y-9357000D01*
X17230221Y-9227000D02*
X17230221Y-9357000D01*
X17165221Y-9292000D02*
X17295221Y-9292000D01*
X17165221Y-9947000D02*
X17295221Y-10077000D01*
X17295221Y-9947000D02*
X17165221Y-10077000D01*
X17230221Y-9947000D02*
X17230221Y-10077000D01*
X17165221Y-10012000D02*
X17295221Y-10012000D01*
D11*
X6856619Y-14793476D02*
X6856619Y-14593476D01*
X6904238Y-14593476D01*
X6932809Y-14603000D01*
X6951857Y-14622048D01*
X6961381Y-14641095D01*
X6970905Y-14679190D01*
X6970905Y-14707762D01*
X6961381Y-14745857D01*
X6951857Y-14764905D01*
X6932809Y-14783952D01*
X6904238Y-14793476D01*
X6856619Y-14793476D01*
X7056619Y-14793476D02*
X7056619Y-14660143D01*
X7056619Y-14698238D02*
X7066143Y-14679190D01*
X7075667Y-14669667D01*
X7094714Y-14660143D01*
X7113762Y-14660143D01*
X7180428Y-14793476D02*
X7180428Y-14660143D01*
X7180428Y-14593476D02*
X7170905Y-14603000D01*
X7180428Y-14612524D01*
X7189952Y-14603000D01*
X7180428Y-14593476D01*
X7180428Y-14612524D01*
X7304238Y-14793476D02*
X7285190Y-14783952D01*
X7275667Y-14764905D01*
X7275667Y-14593476D01*
X7409000Y-14793476D02*
X7389952Y-14783952D01*
X7380428Y-14764905D01*
X7380428Y-14593476D01*
X7637571Y-14793476D02*
X7637571Y-14593476D01*
X7704238Y-14736333D01*
X7770905Y-14593476D01*
X7770905Y-14793476D01*
X7951857Y-14793476D02*
X7951857Y-14688714D01*
X7942333Y-14669667D01*
X7923286Y-14660143D01*
X7885190Y-14660143D01*
X7866143Y-14669667D01*
X7951857Y-14783952D02*
X7932809Y-14793476D01*
X7885190Y-14793476D01*
X7866143Y-14783952D01*
X7856619Y-14764905D01*
X7856619Y-14745857D01*
X7866143Y-14726809D01*
X7885190Y-14717286D01*
X7932809Y-14717286D01*
X7951857Y-14707762D01*
X8047095Y-14660143D02*
X8047095Y-14860143D01*
X8047095Y-14669667D02*
X8066143Y-14660143D01*
X8104238Y-14660143D01*
X8123286Y-14669667D01*
X8132809Y-14679190D01*
X8142333Y-14698238D01*
X8142333Y-14755381D01*
X8132809Y-14774428D01*
X8123286Y-14783952D01*
X8104238Y-14793476D01*
X8066143Y-14793476D01*
X8047095Y-14783952D01*
X8228048Y-14774428D02*
X8237571Y-14783952D01*
X8228048Y-14793476D01*
X8218524Y-14783952D01*
X8228048Y-14774428D01*
X8228048Y-14793476D01*
X8228048Y-14669667D02*
X8237571Y-14679190D01*
X8228048Y-14688714D01*
X8218524Y-14679190D01*
X8228048Y-14669667D01*
X8228048Y-14688714D01*
D12*
X6559000Y-15103000D02*
X6599000Y-15143000D01*
X6599000Y-15103000D02*
X6559000Y-15143000D01*
D11*
X6894714Y-15013476D02*
X6913762Y-15013476D01*
X6932809Y-15023000D01*
X6942333Y-15032524D01*
X6951857Y-15051571D01*
X6961381Y-15089667D01*
X6961381Y-15137286D01*
X6951857Y-15175381D01*
X6942333Y-15194428D01*
X6932809Y-15203952D01*
X6913762Y-15213476D01*
X6894714Y-15213476D01*
X6875667Y-15203952D01*
X6866143Y-15194428D01*
X6856619Y-15175381D01*
X6847095Y-15137286D01*
X6847095Y-15089667D01*
X6856619Y-15051571D01*
X6866143Y-15032524D01*
X6875667Y-15023000D01*
X6894714Y-15013476D01*
X7047095Y-15194428D02*
X7056619Y-15203952D01*
X7047095Y-15213476D01*
X7037571Y-15203952D01*
X7047095Y-15194428D01*
X7047095Y-15213476D01*
X7228048Y-15080143D02*
X7228048Y-15213476D01*
X7180428Y-15003952D02*
X7132809Y-15146809D01*
X7256619Y-15146809D01*
X7370905Y-15013476D02*
X7389952Y-15013476D01*
X7409000Y-15023000D01*
X7418524Y-15032524D01*
X7428048Y-15051571D01*
X7437571Y-15089667D01*
X7437571Y-15137286D01*
X7428048Y-15175381D01*
X7418524Y-15194428D01*
X7409000Y-15203952D01*
X7389952Y-15213476D01*
X7370905Y-15213476D01*
X7351857Y-15203952D01*
X7342333Y-15194428D01*
X7332809Y-15175381D01*
X7323286Y-15137286D01*
X7323286Y-15089667D01*
X7332809Y-15051571D01*
X7342333Y-15032524D01*
X7351857Y-15023000D01*
X7370905Y-15013476D01*
X7561381Y-15013476D02*
X7580428Y-15013476D01*
X7599476Y-15023000D01*
X7609000Y-15032524D01*
X7618524Y-15051571D01*
X7628048Y-15089667D01*
X7628048Y-15137286D01*
X7618524Y-15175381D01*
X7609000Y-15194428D01*
X7599476Y-15203952D01*
X7580428Y-15213476D01*
X7561381Y-15213476D01*
X7542333Y-15203952D01*
X7532809Y-15194428D01*
X7523286Y-15175381D01*
X7513762Y-15137286D01*
X7513762Y-15089667D01*
X7523286Y-15051571D01*
X7532809Y-15032524D01*
X7542333Y-15023000D01*
X7561381Y-15013476D01*
X7713762Y-15213476D02*
X7713762Y-15080143D01*
X7713762Y-15099190D02*
X7723286Y-15089667D01*
X7742333Y-15080143D01*
X7770905Y-15080143D01*
X7789952Y-15089667D01*
X7799476Y-15108714D01*
X7799476Y-15213476D01*
X7799476Y-15108714D02*
X7809000Y-15089667D01*
X7828048Y-15080143D01*
X7856619Y-15080143D01*
X7875667Y-15089667D01*
X7885190Y-15108714D01*
X7885190Y-15213476D01*
X7980428Y-15213476D02*
X7980428Y-15080143D01*
X7980428Y-15099190D02*
X7989952Y-15089667D01*
X8009000Y-15080143D01*
X8037571Y-15080143D01*
X8056619Y-15089667D01*
X8066143Y-15108714D01*
X8066143Y-15213476D01*
X8066143Y-15108714D02*
X8075667Y-15089667D01*
X8094714Y-15080143D01*
X8123286Y-15080143D01*
X8142333Y-15089667D01*
X8151857Y-15108714D01*
X8151857Y-15213476D01*
X8542333Y-15003952D02*
X8370905Y-15261095D01*
X8799476Y-15013476D02*
X8818524Y-15013476D01*
X8837571Y-15023000D01*
X8847095Y-15032524D01*
X8856619Y-15051571D01*
X8866143Y-15089667D01*
X8866143Y-15137286D01*
X8856619Y-15175381D01*
X8847095Y-15194428D01*
X8837571Y-15203952D01*
X8818524Y-15213476D01*
X8799476Y-15213476D01*
X8780429Y-15203952D01*
X8770905Y-15194428D01*
X8761381Y-15175381D01*
X8751857Y-15137286D01*
X8751857Y-15089667D01*
X8761381Y-15051571D01*
X8770905Y-15032524D01*
X8780429Y-15023000D01*
X8799476Y-15013476D01*
X8951857Y-15194428D02*
X8961381Y-15203952D01*
X8951857Y-15213476D01*
X8942333Y-15203952D01*
X8951857Y-15194428D01*
X8951857Y-15213476D01*
X9085190Y-15013476D02*
X9104238Y-15013476D01*
X9123286Y-15023000D01*
X9132810Y-15032524D01*
X9142333Y-15051571D01*
X9151857Y-15089667D01*
X9151857Y-15137286D01*
X9142333Y-15175381D01*
X9132810Y-15194428D01*
X9123286Y-15203952D01*
X9104238Y-15213476D01*
X9085190Y-15213476D01*
X9066143Y-15203952D01*
X9056619Y-15194428D01*
X9047095Y-15175381D01*
X9037571Y-15137286D01*
X9037571Y-15089667D01*
X9047095Y-15051571D01*
X9056619Y-15032524D01*
X9066143Y-15023000D01*
X9085190Y-15013476D01*
X9342333Y-15213476D02*
X9228048Y-15213476D01*
X9285190Y-15213476D02*
X9285190Y-15013476D01*
X9266143Y-15042048D01*
X9247095Y-15061095D01*
X9228048Y-15070619D01*
X9523286Y-15013476D02*
X9428048Y-15013476D01*
X9418524Y-15108714D01*
X9428048Y-15099190D01*
X9447095Y-15089667D01*
X9494714Y-15089667D01*
X9513762Y-15099190D01*
X9523286Y-15108714D01*
X9532810Y-15127762D01*
X9532810Y-15175381D01*
X9523286Y-15194428D01*
X9513762Y-15203952D01*
X9494714Y-15213476D01*
X9447095Y-15213476D01*
X9428048Y-15203952D01*
X9418524Y-15194428D01*
X9599476Y-15013476D02*
X9732810Y-15013476D01*
X9647095Y-15213476D01*
X9799476Y-15013476D02*
X9799476Y-15051571D01*
X9875667Y-15013476D02*
X9875667Y-15051571D01*
X10170905Y-15289667D02*
X10161381Y-15280143D01*
X10142333Y-15251571D01*
X10132810Y-15232524D01*
X10123286Y-15203952D01*
X10113762Y-15156333D01*
X10113762Y-15118238D01*
X10123286Y-15070619D01*
X10132810Y-15042048D01*
X10142333Y-15023000D01*
X10161381Y-14994428D01*
X10170905Y-14984905D01*
X10351857Y-15213476D02*
X10237571Y-15213476D01*
X10294714Y-15213476D02*
X10294714Y-15013476D01*
X10275667Y-15042048D01*
X10256619Y-15061095D01*
X10237571Y-15070619D01*
X10523286Y-15013476D02*
X10485190Y-15013476D01*
X10466143Y-15023000D01*
X10456619Y-15032524D01*
X10437571Y-15061095D01*
X10428048Y-15099190D01*
X10428048Y-15175381D01*
X10437571Y-15194428D01*
X10447095Y-15203952D01*
X10466143Y-15213476D01*
X10504238Y-15213476D01*
X10523286Y-15203952D01*
X10532810Y-15194428D01*
X10542333Y-15175381D01*
X10542333Y-15127762D01*
X10532810Y-15108714D01*
X10523286Y-15099190D01*
X10504238Y-15089667D01*
X10466143Y-15089667D01*
X10447095Y-15099190D01*
X10437571Y-15108714D01*
X10428048Y-15127762D01*
X10732810Y-15213476D02*
X10618524Y-15213476D01*
X10675667Y-15213476D02*
X10675667Y-15013476D01*
X10656619Y-15042048D01*
X10637571Y-15061095D01*
X10618524Y-15070619D01*
X10970905Y-15213476D02*
X10970905Y-15013476D01*
X11056619Y-15213476D02*
X11056619Y-15108714D01*
X11047095Y-15089667D01*
X11028048Y-15080143D01*
X10999476Y-15080143D01*
X10980429Y-15089667D01*
X10970905Y-15099190D01*
X11180429Y-15213476D02*
X11161381Y-15203952D01*
X11151857Y-15194428D01*
X11142333Y-15175381D01*
X11142333Y-15118238D01*
X11151857Y-15099190D01*
X11161381Y-15089667D01*
X11180429Y-15080143D01*
X11209000Y-15080143D01*
X11228048Y-15089667D01*
X11237571Y-15099190D01*
X11247095Y-15118238D01*
X11247095Y-15175381D01*
X11237571Y-15194428D01*
X11228048Y-15203952D01*
X11209000Y-15213476D01*
X11180429Y-15213476D01*
X11361381Y-15213476D02*
X11342333Y-15203952D01*
X11332809Y-15184905D01*
X11332809Y-15013476D01*
X11513762Y-15203952D02*
X11494714Y-15213476D01*
X11456619Y-15213476D01*
X11437571Y-15203952D01*
X11428048Y-15184905D01*
X11428048Y-15108714D01*
X11437571Y-15089667D01*
X11456619Y-15080143D01*
X11494714Y-15080143D01*
X11513762Y-15089667D01*
X11523286Y-15108714D01*
X11523286Y-15127762D01*
X11428048Y-15146809D01*
X11599476Y-15203952D02*
X11618524Y-15213476D01*
X11656619Y-15213476D01*
X11675667Y-15203952D01*
X11685190Y-15184905D01*
X11685190Y-15175381D01*
X11675667Y-15156333D01*
X11656619Y-15146809D01*
X11628048Y-15146809D01*
X11609000Y-15137286D01*
X11599476Y-15118238D01*
X11599476Y-15108714D01*
X11609000Y-15089667D01*
X11628048Y-15080143D01*
X11656619Y-15080143D01*
X11675667Y-15089667D01*
X11751857Y-15289667D02*
X11761381Y-15280143D01*
X11780428Y-15251571D01*
X11789952Y-15232524D01*
X11799476Y-15203952D01*
X11809000Y-15156333D01*
X11809000Y-15118238D01*
X11799476Y-15070619D01*
X11789952Y-15042048D01*
X11780428Y-15023000D01*
X11761381Y-14994428D01*
X11751857Y-14984905D01*
D13*
X6599000Y-15387000D02*
G75*
G03*
X6599000Y-15387000I-35000J0D01*
G01*
D11*
X6894714Y-15277476D02*
X6913762Y-15277476D01*
X6932809Y-15287000D01*
X6942333Y-15296524D01*
X6951857Y-15315571D01*
X6961381Y-15353667D01*
X6961381Y-15401286D01*
X6951857Y-15439381D01*
X6942333Y-15458428D01*
X6932809Y-15467952D01*
X6913762Y-15477476D01*
X6894714Y-15477476D01*
X6875667Y-15467952D01*
X6866143Y-15458428D01*
X6856619Y-15439381D01*
X6847095Y-15401286D01*
X6847095Y-15353667D01*
X6856619Y-15315571D01*
X6866143Y-15296524D01*
X6875667Y-15287000D01*
X6894714Y-15277476D01*
X7047095Y-15458428D02*
X7056619Y-15467952D01*
X7047095Y-15477476D01*
X7037571Y-15467952D01*
X7047095Y-15458428D01*
X7047095Y-15477476D01*
X7123286Y-15277476D02*
X7256619Y-15277476D01*
X7170905Y-15477476D01*
X7370905Y-15277476D02*
X7389952Y-15277476D01*
X7409000Y-15287000D01*
X7418524Y-15296524D01*
X7428048Y-15315571D01*
X7437571Y-15353667D01*
X7437571Y-15401286D01*
X7428048Y-15439381D01*
X7418524Y-15458428D01*
X7409000Y-15467952D01*
X7389952Y-15477476D01*
X7370905Y-15477476D01*
X7351857Y-15467952D01*
X7342333Y-15458428D01*
X7332809Y-15439381D01*
X7323286Y-15401286D01*
X7323286Y-15353667D01*
X7332809Y-15315571D01*
X7342333Y-15296524D01*
X7351857Y-15287000D01*
X7370905Y-15277476D01*
X7561381Y-15277476D02*
X7580428Y-15277476D01*
X7599476Y-15287000D01*
X7609000Y-15296524D01*
X7618524Y-15315571D01*
X7628048Y-15353667D01*
X7628048Y-15401286D01*
X7618524Y-15439381D01*
X7609000Y-15458428D01*
X7599476Y-15467952D01*
X7580428Y-15477476D01*
X7561381Y-15477476D01*
X7542333Y-15467952D01*
X7532809Y-15458428D01*
X7523286Y-15439381D01*
X7513762Y-15401286D01*
X7513762Y-15353667D01*
X7523286Y-15315571D01*
X7532809Y-15296524D01*
X7542333Y-15287000D01*
X7561381Y-15277476D01*
X7713762Y-15477476D02*
X7713762Y-15344143D01*
X7713762Y-15363190D02*
X7723286Y-15353667D01*
X7742333Y-15344143D01*
X7770905Y-15344143D01*
X7789952Y-15353667D01*
X7799476Y-15372714D01*
X7799476Y-15477476D01*
X7799476Y-15372714D02*
X7809000Y-15353667D01*
X7828048Y-15344143D01*
X7856619Y-15344143D01*
X7875667Y-15353667D01*
X7885190Y-15372714D01*
X7885190Y-15477476D01*
X7980428Y-15477476D02*
X7980428Y-15344143D01*
X7980428Y-15363190D02*
X7989952Y-15353667D01*
X8009000Y-15344143D01*
X8037571Y-15344143D01*
X8056619Y-15353667D01*
X8066143Y-15372714D01*
X8066143Y-15477476D01*
X8066143Y-15372714D02*
X8075667Y-15353667D01*
X8094714Y-15344143D01*
X8123286Y-15344143D01*
X8142333Y-15353667D01*
X8151857Y-15372714D01*
X8151857Y-15477476D01*
X8542333Y-15267952D02*
X8370905Y-15525095D01*
X8799476Y-15277476D02*
X8818524Y-15277476D01*
X8837571Y-15287000D01*
X8847095Y-15296524D01*
X8856619Y-15315571D01*
X8866143Y-15353667D01*
X8866143Y-15401286D01*
X8856619Y-15439381D01*
X8847095Y-15458428D01*
X8837571Y-15467952D01*
X8818524Y-15477476D01*
X8799476Y-15477476D01*
X8780429Y-15467952D01*
X8770905Y-15458428D01*
X8761381Y-15439381D01*
X8751857Y-15401286D01*
X8751857Y-15353667D01*
X8761381Y-15315571D01*
X8770905Y-15296524D01*
X8780429Y-15287000D01*
X8799476Y-15277476D01*
X8951857Y-15458428D02*
X8961381Y-15467952D01*
X8951857Y-15477476D01*
X8942333Y-15467952D01*
X8951857Y-15458428D01*
X8951857Y-15477476D01*
X9085190Y-15277476D02*
X9104238Y-15277476D01*
X9123286Y-15287000D01*
X9132810Y-15296524D01*
X9142333Y-15315571D01*
X9151857Y-15353667D01*
X9151857Y-15401286D01*
X9142333Y-15439381D01*
X9132810Y-15458428D01*
X9123286Y-15467952D01*
X9104238Y-15477476D01*
X9085190Y-15477476D01*
X9066143Y-15467952D01*
X9056619Y-15458428D01*
X9047095Y-15439381D01*
X9037571Y-15401286D01*
X9037571Y-15353667D01*
X9047095Y-15315571D01*
X9056619Y-15296524D01*
X9066143Y-15287000D01*
X9085190Y-15277476D01*
X9228048Y-15296524D02*
X9237571Y-15287000D01*
X9256619Y-15277476D01*
X9304238Y-15277476D01*
X9323286Y-15287000D01*
X9332810Y-15296524D01*
X9342333Y-15315571D01*
X9342333Y-15334619D01*
X9332810Y-15363190D01*
X9218524Y-15477476D01*
X9342333Y-15477476D01*
X9409000Y-15277476D02*
X9542333Y-15277476D01*
X9456619Y-15477476D01*
X9704238Y-15277476D02*
X9666143Y-15277476D01*
X9647095Y-15287000D01*
X9637571Y-15296524D01*
X9618524Y-15325095D01*
X9609000Y-15363190D01*
X9609000Y-15439381D01*
X9618524Y-15458428D01*
X9628048Y-15467952D01*
X9647095Y-15477476D01*
X9685190Y-15477476D01*
X9704238Y-15467952D01*
X9713762Y-15458428D01*
X9723286Y-15439381D01*
X9723286Y-15391762D01*
X9713762Y-15372714D01*
X9704238Y-15363190D01*
X9685190Y-15353667D01*
X9647095Y-15353667D01*
X9628048Y-15363190D01*
X9618524Y-15372714D01*
X9609000Y-15391762D01*
X9799476Y-15277476D02*
X9799476Y-15315571D01*
X9875667Y-15277476D02*
X9875667Y-15315571D01*
X10170905Y-15553667D02*
X10161381Y-15544143D01*
X10142333Y-15515571D01*
X10132810Y-15496524D01*
X10123286Y-15467952D01*
X10113762Y-15420333D01*
X10113762Y-15382238D01*
X10123286Y-15334619D01*
X10132810Y-15306048D01*
X10142333Y-15287000D01*
X10161381Y-15258428D01*
X10170905Y-15248905D01*
X10237571Y-15296524D02*
X10247095Y-15287000D01*
X10266143Y-15277476D01*
X10313762Y-15277476D01*
X10332810Y-15287000D01*
X10342333Y-15296524D01*
X10351857Y-15315571D01*
X10351857Y-15334619D01*
X10342333Y-15363190D01*
X10228048Y-15477476D01*
X10351857Y-15477476D01*
X10589952Y-15477476D02*
X10589952Y-15277476D01*
X10675667Y-15477476D02*
X10675667Y-15372714D01*
X10666143Y-15353667D01*
X10647095Y-15344143D01*
X10618524Y-15344143D01*
X10599476Y-15353667D01*
X10589952Y-15363190D01*
X10799476Y-15477476D02*
X10780429Y-15467952D01*
X10770905Y-15458428D01*
X10761381Y-15439381D01*
X10761381Y-15382238D01*
X10770905Y-15363190D01*
X10780429Y-15353667D01*
X10799476Y-15344143D01*
X10828048Y-15344143D01*
X10847095Y-15353667D01*
X10856619Y-15363190D01*
X10866143Y-15382238D01*
X10866143Y-15439381D01*
X10856619Y-15458428D01*
X10847095Y-15467952D01*
X10828048Y-15477476D01*
X10799476Y-15477476D01*
X10980429Y-15477476D02*
X10961381Y-15467952D01*
X10951857Y-15448905D01*
X10951857Y-15277476D01*
X11132810Y-15467952D02*
X11113762Y-15477476D01*
X11075667Y-15477476D01*
X11056619Y-15467952D01*
X11047095Y-15448905D01*
X11047095Y-15372714D01*
X11056619Y-15353667D01*
X11075667Y-15344143D01*
X11113762Y-15344143D01*
X11132810Y-15353667D01*
X11142333Y-15372714D01*
X11142333Y-15391762D01*
X11047095Y-15410809D01*
X11218524Y-15467952D02*
X11237571Y-15477476D01*
X11275667Y-15477476D01*
X11294714Y-15467952D01*
X11304238Y-15448905D01*
X11304238Y-15439381D01*
X11294714Y-15420333D01*
X11275667Y-15410809D01*
X11247095Y-15410809D01*
X11228048Y-15401286D01*
X11218524Y-15382238D01*
X11218524Y-15372714D01*
X11228048Y-15353667D01*
X11247095Y-15344143D01*
X11275667Y-15344143D01*
X11294714Y-15353667D01*
X11370905Y-15553667D02*
X11380428Y-15544143D01*
X11399476Y-15515571D01*
X11409000Y-15496524D01*
X11418524Y-15467952D01*
X11428048Y-15420333D01*
X11428048Y-15382238D01*
X11418524Y-15334619D01*
X11409000Y-15306048D01*
X11399476Y-15287000D01*
X11380428Y-15258428D01*
X11370905Y-15248905D01*
D14*
X6561500Y-15613500D02*
X6561500Y-15688500D01*
X6524000Y-15651000D02*
X6599000Y-15651000D01*
D11*
X6894714Y-15541476D02*
X6913762Y-15541476D01*
X6932809Y-15551000D01*
X6942333Y-15560524D01*
X6951857Y-15579571D01*
X6961381Y-15617667D01*
X6961381Y-15665286D01*
X6951857Y-15703381D01*
X6942333Y-15722428D01*
X6932809Y-15731952D01*
X6913762Y-15741476D01*
X6894714Y-15741476D01*
X6875667Y-15731952D01*
X6866143Y-15722428D01*
X6856619Y-15703381D01*
X6847095Y-15665286D01*
X6847095Y-15617667D01*
X6856619Y-15579571D01*
X6866143Y-15560524D01*
X6875667Y-15551000D01*
X6894714Y-15541476D01*
X7047095Y-15722428D02*
X7056619Y-15731952D01*
X7047095Y-15741476D01*
X7037571Y-15731952D01*
X7047095Y-15722428D01*
X7047095Y-15741476D01*
X7123286Y-15541476D02*
X7256619Y-15541476D01*
X7170905Y-15741476D01*
X7428048Y-15541476D02*
X7332809Y-15541476D01*
X7323286Y-15636714D01*
X7332809Y-15627190D01*
X7351857Y-15617667D01*
X7399476Y-15617667D01*
X7418524Y-15627190D01*
X7428048Y-15636714D01*
X7437571Y-15655762D01*
X7437571Y-15703381D01*
X7428048Y-15722428D01*
X7418524Y-15731952D01*
X7399476Y-15741476D01*
X7351857Y-15741476D01*
X7332809Y-15731952D01*
X7323286Y-15722428D01*
X7561381Y-15541476D02*
X7580428Y-15541476D01*
X7599476Y-15551000D01*
X7609000Y-15560524D01*
X7618524Y-15579571D01*
X7628048Y-15617667D01*
X7628048Y-15665286D01*
X7618524Y-15703381D01*
X7609000Y-15722428D01*
X7599476Y-15731952D01*
X7580428Y-15741476D01*
X7561381Y-15741476D01*
X7542333Y-15731952D01*
X7532809Y-15722428D01*
X7523286Y-15703381D01*
X7513762Y-15665286D01*
X7513762Y-15617667D01*
X7523286Y-15579571D01*
X7532809Y-15560524D01*
X7542333Y-15551000D01*
X7561381Y-15541476D01*
X7713762Y-15741476D02*
X7713762Y-15608143D01*
X7713762Y-15627190D02*
X7723286Y-15617667D01*
X7742333Y-15608143D01*
X7770905Y-15608143D01*
X7789952Y-15617667D01*
X7799476Y-15636714D01*
X7799476Y-15741476D01*
X7799476Y-15636714D02*
X7809000Y-15617667D01*
X7828048Y-15608143D01*
X7856619Y-15608143D01*
X7875667Y-15617667D01*
X7885190Y-15636714D01*
X7885190Y-15741476D01*
X7980428Y-15741476D02*
X7980428Y-15608143D01*
X7980428Y-15627190D02*
X7989952Y-15617667D01*
X8009000Y-15608143D01*
X8037571Y-15608143D01*
X8056619Y-15617667D01*
X8066143Y-15636714D01*
X8066143Y-15741476D01*
X8066143Y-15636714D02*
X8075667Y-15617667D01*
X8094714Y-15608143D01*
X8123286Y-15608143D01*
X8142333Y-15617667D01*
X8151857Y-15636714D01*
X8151857Y-15741476D01*
X8542333Y-15531952D02*
X8370905Y-15789095D01*
X8799476Y-15541476D02*
X8818524Y-15541476D01*
X8837571Y-15551000D01*
X8847095Y-15560524D01*
X8856619Y-15579571D01*
X8866143Y-15617667D01*
X8866143Y-15665286D01*
X8856619Y-15703381D01*
X8847095Y-15722428D01*
X8837571Y-15731952D01*
X8818524Y-15741476D01*
X8799476Y-15741476D01*
X8780429Y-15731952D01*
X8770905Y-15722428D01*
X8761381Y-15703381D01*
X8751857Y-15665286D01*
X8751857Y-15617667D01*
X8761381Y-15579571D01*
X8770905Y-15560524D01*
X8780429Y-15551000D01*
X8799476Y-15541476D01*
X8951857Y-15722428D02*
X8961381Y-15731952D01*
X8951857Y-15741476D01*
X8942333Y-15731952D01*
X8951857Y-15722428D01*
X8951857Y-15741476D01*
X9085190Y-15541476D02*
X9104238Y-15541476D01*
X9123286Y-15551000D01*
X9132810Y-15560524D01*
X9142333Y-15579571D01*
X9151857Y-15617667D01*
X9151857Y-15665286D01*
X9142333Y-15703381D01*
X9132810Y-15722428D01*
X9123286Y-15731952D01*
X9104238Y-15741476D01*
X9085190Y-15741476D01*
X9066143Y-15731952D01*
X9056619Y-15722428D01*
X9047095Y-15703381D01*
X9037571Y-15665286D01*
X9037571Y-15617667D01*
X9047095Y-15579571D01*
X9056619Y-15560524D01*
X9066143Y-15551000D01*
X9085190Y-15541476D01*
X9228048Y-15560524D02*
X9237571Y-15551000D01*
X9256619Y-15541476D01*
X9304238Y-15541476D01*
X9323286Y-15551000D01*
X9332810Y-15560524D01*
X9342333Y-15579571D01*
X9342333Y-15598619D01*
X9332810Y-15627190D01*
X9218524Y-15741476D01*
X9342333Y-15741476D01*
X9437571Y-15741476D02*
X9475667Y-15741476D01*
X9494714Y-15731952D01*
X9504238Y-15722428D01*
X9523286Y-15693857D01*
X9532810Y-15655762D01*
X9532810Y-15579571D01*
X9523286Y-15560524D01*
X9513762Y-15551000D01*
X9494714Y-15541476D01*
X9456619Y-15541476D01*
X9437571Y-15551000D01*
X9428048Y-15560524D01*
X9418524Y-15579571D01*
X9418524Y-15627190D01*
X9428048Y-15646238D01*
X9437571Y-15655762D01*
X9456619Y-15665286D01*
X9494714Y-15665286D01*
X9513762Y-15655762D01*
X9523286Y-15646238D01*
X9532810Y-15627190D01*
X9713762Y-15541476D02*
X9618524Y-15541476D01*
X9609000Y-15636714D01*
X9618524Y-15627190D01*
X9637571Y-15617667D01*
X9685190Y-15617667D01*
X9704238Y-15627190D01*
X9713762Y-15636714D01*
X9723286Y-15655762D01*
X9723286Y-15703381D01*
X9713762Y-15722428D01*
X9704238Y-15731952D01*
X9685190Y-15741476D01*
X9637571Y-15741476D01*
X9618524Y-15731952D01*
X9609000Y-15722428D01*
X9799476Y-15541476D02*
X9799476Y-15579571D01*
X9875667Y-15541476D02*
X9875667Y-15579571D01*
X10170905Y-15817667D02*
X10161381Y-15808143D01*
X10142333Y-15779571D01*
X10132810Y-15760524D01*
X10123286Y-15731952D01*
X10113762Y-15684333D01*
X10113762Y-15646238D01*
X10123286Y-15598619D01*
X10132810Y-15570048D01*
X10142333Y-15551000D01*
X10161381Y-15522428D01*
X10170905Y-15512905D01*
X10228048Y-15541476D02*
X10351857Y-15541476D01*
X10285190Y-15617667D01*
X10313762Y-15617667D01*
X10332810Y-15627190D01*
X10342333Y-15636714D01*
X10351857Y-15655762D01*
X10351857Y-15703381D01*
X10342333Y-15722428D01*
X10332810Y-15731952D01*
X10313762Y-15741476D01*
X10256619Y-15741476D01*
X10237571Y-15731952D01*
X10228048Y-15722428D01*
X10589952Y-15741476D02*
X10589952Y-15541476D01*
X10675667Y-15741476D02*
X10675667Y-15636714D01*
X10666143Y-15617667D01*
X10647095Y-15608143D01*
X10618524Y-15608143D01*
X10599476Y-15617667D01*
X10589952Y-15627190D01*
X10799476Y-15741476D02*
X10780429Y-15731952D01*
X10770905Y-15722428D01*
X10761381Y-15703381D01*
X10761381Y-15646238D01*
X10770905Y-15627190D01*
X10780429Y-15617667D01*
X10799476Y-15608143D01*
X10828048Y-15608143D01*
X10847095Y-15617667D01*
X10856619Y-15627190D01*
X10866143Y-15646238D01*
X10866143Y-15703381D01*
X10856619Y-15722428D01*
X10847095Y-15731952D01*
X10828048Y-15741476D01*
X10799476Y-15741476D01*
X10980429Y-15741476D02*
X10961381Y-15731952D01*
X10951857Y-15712905D01*
X10951857Y-15541476D01*
X11132810Y-15731952D02*
X11113762Y-15741476D01*
X11075667Y-15741476D01*
X11056619Y-15731952D01*
X11047095Y-15712905D01*
X11047095Y-15636714D01*
X11056619Y-15617667D01*
X11075667Y-15608143D01*
X11113762Y-15608143D01*
X11132810Y-15617667D01*
X11142333Y-15636714D01*
X11142333Y-15655762D01*
X11047095Y-15674809D01*
X11218524Y-15731952D02*
X11237571Y-15741476D01*
X11275667Y-15741476D01*
X11294714Y-15731952D01*
X11304238Y-15712905D01*
X11304238Y-15703381D01*
X11294714Y-15684333D01*
X11275667Y-15674809D01*
X11247095Y-15674809D01*
X11228048Y-15665286D01*
X11218524Y-15646238D01*
X11218524Y-15636714D01*
X11228048Y-15617667D01*
X11247095Y-15608143D01*
X11275667Y-15608143D01*
X11294714Y-15617667D01*
X11370905Y-15817667D02*
X11380428Y-15808143D01*
X11399476Y-15779571D01*
X11409000Y-15760524D01*
X11418524Y-15731952D01*
X11428048Y-15684333D01*
X11428048Y-15646238D01*
X11418524Y-15598619D01*
X11409000Y-15570048D01*
X11399476Y-15551000D01*
X11380428Y-15522428D01*
X11370905Y-15512905D01*
D15*
X6584356Y-15950356D02*
X6584356Y-15879644D01*
X6513644Y-15879644D01*
X6513644Y-15950356D01*
X6584356Y-15950356D01*
D11*
X6961381Y-16005476D02*
X6847095Y-16005476D01*
X6904238Y-16005476D02*
X6904238Y-15805476D01*
X6885190Y-15834048D01*
X6866143Y-15853095D01*
X6847095Y-15862619D01*
X7047095Y-15986428D02*
X7056619Y-15995952D01*
X7047095Y-16005476D01*
X7037571Y-15995952D01*
X7047095Y-15986428D01*
X7047095Y-16005476D01*
X7180428Y-15805476D02*
X7199476Y-15805476D01*
X7218524Y-15815000D01*
X7228048Y-15824524D01*
X7237571Y-15843571D01*
X7247095Y-15881667D01*
X7247095Y-15929286D01*
X7237571Y-15967381D01*
X7228048Y-15986428D01*
X7218524Y-15995952D01*
X7199476Y-16005476D01*
X7180428Y-16005476D01*
X7161381Y-15995952D01*
X7151857Y-15986428D01*
X7142333Y-15967381D01*
X7132809Y-15929286D01*
X7132809Y-15881667D01*
X7142333Y-15843571D01*
X7151857Y-15824524D01*
X7161381Y-15815000D01*
X7180428Y-15805476D01*
X7370905Y-15805476D02*
X7389952Y-15805476D01*
X7409000Y-15815000D01*
X7418524Y-15824524D01*
X7428048Y-15843571D01*
X7437571Y-15881667D01*
X7437571Y-15929286D01*
X7428048Y-15967381D01*
X7418524Y-15986428D01*
X7409000Y-15995952D01*
X7389952Y-16005476D01*
X7370905Y-16005476D01*
X7351857Y-15995952D01*
X7342333Y-15986428D01*
X7332809Y-15967381D01*
X7323286Y-15929286D01*
X7323286Y-15881667D01*
X7332809Y-15843571D01*
X7342333Y-15824524D01*
X7351857Y-15815000D01*
X7370905Y-15805476D01*
X7561381Y-15805476D02*
X7580428Y-15805476D01*
X7599476Y-15815000D01*
X7609000Y-15824524D01*
X7618524Y-15843571D01*
X7628048Y-15881667D01*
X7628048Y-15929286D01*
X7618524Y-15967381D01*
X7609000Y-15986428D01*
X7599476Y-15995952D01*
X7580428Y-16005476D01*
X7561381Y-16005476D01*
X7542333Y-15995952D01*
X7532809Y-15986428D01*
X7523286Y-15967381D01*
X7513762Y-15929286D01*
X7513762Y-15881667D01*
X7523286Y-15843571D01*
X7532809Y-15824524D01*
X7542333Y-15815000D01*
X7561381Y-15805476D01*
X7713762Y-16005476D02*
X7713762Y-15872143D01*
X7713762Y-15891190D02*
X7723286Y-15881667D01*
X7742333Y-15872143D01*
X7770905Y-15872143D01*
X7789952Y-15881667D01*
X7799476Y-15900714D01*
X7799476Y-16005476D01*
X7799476Y-15900714D02*
X7809000Y-15881667D01*
X7828048Y-15872143D01*
X7856619Y-15872143D01*
X7875667Y-15881667D01*
X7885190Y-15900714D01*
X7885190Y-16005476D01*
X7980428Y-16005476D02*
X7980428Y-15872143D01*
X7980428Y-15891190D02*
X7989952Y-15881667D01*
X8009000Y-15872143D01*
X8037571Y-15872143D01*
X8056619Y-15881667D01*
X8066143Y-15900714D01*
X8066143Y-16005476D01*
X8066143Y-15900714D02*
X8075667Y-15881667D01*
X8094714Y-15872143D01*
X8123286Y-15872143D01*
X8142333Y-15881667D01*
X8151857Y-15900714D01*
X8151857Y-16005476D01*
X8542333Y-15795952D02*
X8370905Y-16053095D01*
X8799476Y-15805476D02*
X8818524Y-15805476D01*
X8837571Y-15815000D01*
X8847095Y-15824524D01*
X8856619Y-15843571D01*
X8866143Y-15881667D01*
X8866143Y-15929286D01*
X8856619Y-15967381D01*
X8847095Y-15986428D01*
X8837571Y-15995952D01*
X8818524Y-16005476D01*
X8799476Y-16005476D01*
X8780429Y-15995952D01*
X8770905Y-15986428D01*
X8761381Y-15967381D01*
X8751857Y-15929286D01*
X8751857Y-15881667D01*
X8761381Y-15843571D01*
X8770905Y-15824524D01*
X8780429Y-15815000D01*
X8799476Y-15805476D01*
X8951857Y-15986428D02*
X8961381Y-15995952D01*
X8951857Y-16005476D01*
X8942333Y-15995952D01*
X8951857Y-15986428D01*
X8951857Y-16005476D01*
X9085190Y-15805476D02*
X9104238Y-15805476D01*
X9123286Y-15815000D01*
X9132810Y-15824524D01*
X9142333Y-15843571D01*
X9151857Y-15881667D01*
X9151857Y-15929286D01*
X9142333Y-15967381D01*
X9132810Y-15986428D01*
X9123286Y-15995952D01*
X9104238Y-16005476D01*
X9085190Y-16005476D01*
X9066143Y-15995952D01*
X9056619Y-15986428D01*
X9047095Y-15967381D01*
X9037571Y-15929286D01*
X9037571Y-15881667D01*
X9047095Y-15843571D01*
X9056619Y-15824524D01*
X9066143Y-15815000D01*
X9085190Y-15805476D01*
X9218524Y-15805476D02*
X9342333Y-15805476D01*
X9275667Y-15881667D01*
X9304238Y-15881667D01*
X9323286Y-15891190D01*
X9332810Y-15900714D01*
X9342333Y-15919762D01*
X9342333Y-15967381D01*
X9332810Y-15986428D01*
X9323286Y-15995952D01*
X9304238Y-16005476D01*
X9247095Y-16005476D01*
X9228048Y-15995952D01*
X9218524Y-15986428D01*
X9437571Y-16005476D02*
X9475667Y-16005476D01*
X9494714Y-15995952D01*
X9504238Y-15986428D01*
X9523286Y-15957857D01*
X9532810Y-15919762D01*
X9532810Y-15843571D01*
X9523286Y-15824524D01*
X9513762Y-15815000D01*
X9494714Y-15805476D01*
X9456619Y-15805476D01*
X9437571Y-15815000D01*
X9428048Y-15824524D01*
X9418524Y-15843571D01*
X9418524Y-15891190D01*
X9428048Y-15910238D01*
X9437571Y-15919762D01*
X9456619Y-15929286D01*
X9494714Y-15929286D01*
X9513762Y-15919762D01*
X9523286Y-15910238D01*
X9532810Y-15891190D01*
X9704238Y-15872143D02*
X9704238Y-16005476D01*
X9656619Y-15795952D02*
X9609000Y-15938809D01*
X9732810Y-15938809D01*
X9799476Y-15805476D02*
X9799476Y-15843571D01*
X9875667Y-15805476D02*
X9875667Y-15843571D01*
X10170905Y-16081667D02*
X10161381Y-16072143D01*
X10142333Y-16043571D01*
X10132810Y-16024524D01*
X10123286Y-15995952D01*
X10113762Y-15948333D01*
X10113762Y-15910238D01*
X10123286Y-15862619D01*
X10132810Y-15834048D01*
X10142333Y-15815000D01*
X10161381Y-15786428D01*
X10170905Y-15776905D01*
X10351857Y-16005476D02*
X10237571Y-16005476D01*
X10294714Y-16005476D02*
X10294714Y-15805476D01*
X10275667Y-15834048D01*
X10256619Y-15853095D01*
X10237571Y-15862619D01*
X10418524Y-15805476D02*
X10542333Y-15805476D01*
X10475667Y-15881667D01*
X10504238Y-15881667D01*
X10523286Y-15891190D01*
X10532810Y-15900714D01*
X10542333Y-15919762D01*
X10542333Y-15967381D01*
X10532810Y-15986428D01*
X10523286Y-15995952D01*
X10504238Y-16005476D01*
X10447095Y-16005476D01*
X10428048Y-15995952D01*
X10418524Y-15986428D01*
X10618524Y-15824524D02*
X10628048Y-15815000D01*
X10647095Y-15805476D01*
X10694714Y-15805476D01*
X10713762Y-15815000D01*
X10723286Y-15824524D01*
X10732810Y-15843571D01*
X10732810Y-15862619D01*
X10723286Y-15891190D01*
X10609000Y-16005476D01*
X10732810Y-16005476D01*
X10970905Y-16005476D02*
X10970905Y-15805476D01*
X11056619Y-16005476D02*
X11056619Y-15900714D01*
X11047095Y-15881667D01*
X11028048Y-15872143D01*
X10999476Y-15872143D01*
X10980429Y-15881667D01*
X10970905Y-15891190D01*
X11180429Y-16005476D02*
X11161381Y-15995952D01*
X11151857Y-15986428D01*
X11142333Y-15967381D01*
X11142333Y-15910238D01*
X11151857Y-15891190D01*
X11161381Y-15881667D01*
X11180429Y-15872143D01*
X11209000Y-15872143D01*
X11228048Y-15881667D01*
X11237571Y-15891190D01*
X11247095Y-15910238D01*
X11247095Y-15967381D01*
X11237571Y-15986428D01*
X11228048Y-15995952D01*
X11209000Y-16005476D01*
X11180429Y-16005476D01*
X11361381Y-16005476D02*
X11342333Y-15995952D01*
X11332809Y-15976905D01*
X11332809Y-15805476D01*
X11513762Y-15995952D02*
X11494714Y-16005476D01*
X11456619Y-16005476D01*
X11437571Y-15995952D01*
X11428048Y-15976905D01*
X11428048Y-15900714D01*
X11437571Y-15881667D01*
X11456619Y-15872143D01*
X11494714Y-15872143D01*
X11513762Y-15881667D01*
X11523286Y-15900714D01*
X11523286Y-15919762D01*
X11428048Y-15938809D01*
X11599476Y-15995952D02*
X11618524Y-16005476D01*
X11656619Y-16005476D01*
X11675667Y-15995952D01*
X11685190Y-15976905D01*
X11685190Y-15967381D01*
X11675667Y-15948333D01*
X11656619Y-15938809D01*
X11628048Y-15938809D01*
X11609000Y-15929286D01*
X11599476Y-15910238D01*
X11599476Y-15900714D01*
X11609000Y-15881667D01*
X11628048Y-15872143D01*
X11656619Y-15872143D01*
X11675667Y-15881667D01*
X11751857Y-16081667D02*
X11761381Y-16072143D01*
X11780428Y-16043571D01*
X11789952Y-16024524D01*
X11799476Y-15995952D01*
X11809000Y-15948333D01*
X11809000Y-15910238D01*
X11799476Y-15862619D01*
X11789952Y-15834048D01*
X11780428Y-15815000D01*
X11761381Y-15786428D01*
X11751857Y-15776905D01*
D16*
X6544000Y-16234000D02*
X6599000Y-16179000D01*
X6544000Y-16124000D01*
X6489000Y-16179000D01*
X6544000Y-16234000D01*
D11*
X6961381Y-16269476D02*
X6847095Y-16269476D01*
X6904238Y-16269476D02*
X6904238Y-16069476D01*
X6885190Y-16098048D01*
X6866143Y-16117095D01*
X6847095Y-16126619D01*
X7047095Y-16250428D02*
X7056619Y-16259952D01*
X7047095Y-16269476D01*
X7037571Y-16259952D01*
X7047095Y-16250428D01*
X7047095Y-16269476D01*
X7247095Y-16269476D02*
X7132809Y-16269476D01*
X7189952Y-16269476D02*
X7189952Y-16069476D01*
X7170905Y-16098048D01*
X7151857Y-16117095D01*
X7132809Y-16126619D01*
X7370905Y-16069476D02*
X7389952Y-16069476D01*
X7409000Y-16079000D01*
X7418524Y-16088524D01*
X7428048Y-16107571D01*
X7437571Y-16145667D01*
X7437571Y-16193286D01*
X7428048Y-16231381D01*
X7418524Y-16250428D01*
X7409000Y-16259952D01*
X7389952Y-16269476D01*
X7370905Y-16269476D01*
X7351857Y-16259952D01*
X7342333Y-16250428D01*
X7332809Y-16231381D01*
X7323286Y-16193286D01*
X7323286Y-16145667D01*
X7332809Y-16107571D01*
X7342333Y-16088524D01*
X7351857Y-16079000D01*
X7370905Y-16069476D01*
X7561381Y-16069476D02*
X7580428Y-16069476D01*
X7599476Y-16079000D01*
X7609000Y-16088524D01*
X7618524Y-16107571D01*
X7628048Y-16145667D01*
X7628048Y-16193286D01*
X7618524Y-16231381D01*
X7609000Y-16250428D01*
X7599476Y-16259952D01*
X7580428Y-16269476D01*
X7561381Y-16269476D01*
X7542333Y-16259952D01*
X7532809Y-16250428D01*
X7523286Y-16231381D01*
X7513762Y-16193286D01*
X7513762Y-16145667D01*
X7523286Y-16107571D01*
X7532809Y-16088524D01*
X7542333Y-16079000D01*
X7561381Y-16069476D01*
X7713762Y-16269476D02*
X7713762Y-16136143D01*
X7713762Y-16155190D02*
X7723286Y-16145667D01*
X7742333Y-16136143D01*
X7770905Y-16136143D01*
X7789952Y-16145667D01*
X7799476Y-16164714D01*
X7799476Y-16269476D01*
X7799476Y-16164714D02*
X7809000Y-16145667D01*
X7828048Y-16136143D01*
X7856619Y-16136143D01*
X7875667Y-16145667D01*
X7885190Y-16164714D01*
X7885190Y-16269476D01*
X7980428Y-16269476D02*
X7980428Y-16136143D01*
X7980428Y-16155190D02*
X7989952Y-16145667D01*
X8009000Y-16136143D01*
X8037571Y-16136143D01*
X8056619Y-16145667D01*
X8066143Y-16164714D01*
X8066143Y-16269476D01*
X8066143Y-16164714D02*
X8075667Y-16145667D01*
X8094714Y-16136143D01*
X8123286Y-16136143D01*
X8142333Y-16145667D01*
X8151857Y-16164714D01*
X8151857Y-16269476D01*
X8542333Y-16059952D02*
X8370905Y-16317095D01*
X8799476Y-16069476D02*
X8818524Y-16069476D01*
X8837571Y-16079000D01*
X8847095Y-16088524D01*
X8856619Y-16107571D01*
X8866143Y-16145667D01*
X8866143Y-16193286D01*
X8856619Y-16231381D01*
X8847095Y-16250428D01*
X8837571Y-16259952D01*
X8818524Y-16269476D01*
X8799476Y-16269476D01*
X8780429Y-16259952D01*
X8770905Y-16250428D01*
X8761381Y-16231381D01*
X8751857Y-16193286D01*
X8751857Y-16145667D01*
X8761381Y-16107571D01*
X8770905Y-16088524D01*
X8780429Y-16079000D01*
X8799476Y-16069476D01*
X8951857Y-16250428D02*
X8961381Y-16259952D01*
X8951857Y-16269476D01*
X8942333Y-16259952D01*
X8951857Y-16250428D01*
X8951857Y-16269476D01*
X9085190Y-16069476D02*
X9104238Y-16069476D01*
X9123286Y-16079000D01*
X9132810Y-16088524D01*
X9142333Y-16107571D01*
X9151857Y-16145667D01*
X9151857Y-16193286D01*
X9142333Y-16231381D01*
X9132810Y-16250428D01*
X9123286Y-16259952D01*
X9104238Y-16269476D01*
X9085190Y-16269476D01*
X9066143Y-16259952D01*
X9056619Y-16250428D01*
X9047095Y-16231381D01*
X9037571Y-16193286D01*
X9037571Y-16145667D01*
X9047095Y-16107571D01*
X9056619Y-16088524D01*
X9066143Y-16079000D01*
X9085190Y-16069476D01*
X9323286Y-16136143D02*
X9323286Y-16269476D01*
X9275667Y-16059952D02*
X9228048Y-16202809D01*
X9351857Y-16202809D01*
X9409000Y-16069476D02*
X9532810Y-16069476D01*
X9466143Y-16145667D01*
X9494714Y-16145667D01*
X9513762Y-16155190D01*
X9523286Y-16164714D01*
X9532810Y-16183762D01*
X9532810Y-16231381D01*
X9523286Y-16250428D01*
X9513762Y-16259952D01*
X9494714Y-16269476D01*
X9437571Y-16269476D01*
X9418524Y-16259952D01*
X9409000Y-16250428D01*
X9599476Y-16069476D02*
X9723286Y-16069476D01*
X9656619Y-16145667D01*
X9685190Y-16145667D01*
X9704238Y-16155190D01*
X9713762Y-16164714D01*
X9723286Y-16183762D01*
X9723286Y-16231381D01*
X9713762Y-16250428D01*
X9704238Y-16259952D01*
X9685190Y-16269476D01*
X9628048Y-16269476D01*
X9609000Y-16259952D01*
X9599476Y-16250428D01*
X9799476Y-16069476D02*
X9799476Y-16107571D01*
X9875667Y-16069476D02*
X9875667Y-16107571D01*
X10170905Y-16345667D02*
X10161381Y-16336143D01*
X10142333Y-16307571D01*
X10132810Y-16288524D01*
X10123286Y-16259952D01*
X10113762Y-16212333D01*
X10113762Y-16174238D01*
X10123286Y-16126619D01*
X10132810Y-16098048D01*
X10142333Y-16079000D01*
X10161381Y-16050428D01*
X10170905Y-16040905D01*
X10256619Y-16269476D02*
X10294714Y-16269476D01*
X10313762Y-16259952D01*
X10323286Y-16250428D01*
X10342333Y-16221857D01*
X10351857Y-16183762D01*
X10351857Y-16107571D01*
X10342333Y-16088524D01*
X10332810Y-16079000D01*
X10313762Y-16069476D01*
X10275667Y-16069476D01*
X10256619Y-16079000D01*
X10247095Y-16088524D01*
X10237571Y-16107571D01*
X10237571Y-16155190D01*
X10247095Y-16174238D01*
X10256619Y-16183762D01*
X10275667Y-16193286D01*
X10313762Y-16193286D01*
X10332810Y-16183762D01*
X10342333Y-16174238D01*
X10351857Y-16155190D01*
X10589952Y-16269476D02*
X10589952Y-16069476D01*
X10675667Y-16269476D02*
X10675667Y-16164714D01*
X10666143Y-16145667D01*
X10647095Y-16136143D01*
X10618524Y-16136143D01*
X10599476Y-16145667D01*
X10589952Y-16155190D01*
X10799476Y-16269476D02*
X10780429Y-16259952D01*
X10770905Y-16250428D01*
X10761381Y-16231381D01*
X10761381Y-16174238D01*
X10770905Y-16155190D01*
X10780429Y-16145667D01*
X10799476Y-16136143D01*
X10828048Y-16136143D01*
X10847095Y-16145667D01*
X10856619Y-16155190D01*
X10866143Y-16174238D01*
X10866143Y-16231381D01*
X10856619Y-16250428D01*
X10847095Y-16259952D01*
X10828048Y-16269476D01*
X10799476Y-16269476D01*
X10980429Y-16269476D02*
X10961381Y-16259952D01*
X10951857Y-16240905D01*
X10951857Y-16069476D01*
X11132810Y-16259952D02*
X11113762Y-16269476D01*
X11075667Y-16269476D01*
X11056619Y-16259952D01*
X11047095Y-16240905D01*
X11047095Y-16164714D01*
X11056619Y-16145667D01*
X11075667Y-16136143D01*
X11113762Y-16136143D01*
X11132810Y-16145667D01*
X11142333Y-16164714D01*
X11142333Y-16183762D01*
X11047095Y-16202809D01*
X11218524Y-16259952D02*
X11237571Y-16269476D01*
X11275667Y-16269476D01*
X11294714Y-16259952D01*
X11304238Y-16240905D01*
X11304238Y-16231381D01*
X11294714Y-16212333D01*
X11275667Y-16202809D01*
X11247095Y-16202809D01*
X11228048Y-16193286D01*
X11218524Y-16174238D01*
X11218524Y-16164714D01*
X11228048Y-16145667D01*
X11247095Y-16136143D01*
X11275667Y-16136143D01*
X11294714Y-16145667D01*
X11370905Y-16345667D02*
X11380428Y-16336143D01*
X11399476Y-16307571D01*
X11409000Y-16288524D01*
X11418524Y-16259952D01*
X11428048Y-16212333D01*
X11428048Y-16174238D01*
X11418524Y-16126619D01*
X11409000Y-16098048D01*
X11399476Y-16079000D01*
X11380428Y-16050428D01*
X11370905Y-16040905D01*
D17*
X6471000Y-16379000D02*
X6599000Y-16507000D01*
X6599000Y-16379000D02*
X6471000Y-16507000D01*
X6599000Y-16443000D02*
G75*
G03*
X6599000Y-16443000I-64000J0D01*
G01*
D11*
X6961381Y-16533476D02*
X6847095Y-16533476D01*
X6904238Y-16533476D02*
X6904238Y-16333476D01*
X6885190Y-16362048D01*
X6866143Y-16381095D01*
X6847095Y-16390619D01*
X7047095Y-16514428D02*
X7056619Y-16523952D01*
X7047095Y-16533476D01*
X7037571Y-16523952D01*
X7047095Y-16514428D01*
X7047095Y-16533476D01*
X7132809Y-16352524D02*
X7142333Y-16343000D01*
X7161381Y-16333476D01*
X7209000Y-16333476D01*
X7228048Y-16343000D01*
X7237571Y-16352524D01*
X7247095Y-16371571D01*
X7247095Y-16390619D01*
X7237571Y-16419190D01*
X7123286Y-16533476D01*
X7247095Y-16533476D01*
X7361381Y-16419190D02*
X7342333Y-16409667D01*
X7332809Y-16400143D01*
X7323286Y-16381095D01*
X7323286Y-16371571D01*
X7332809Y-16352524D01*
X7342333Y-16343000D01*
X7361381Y-16333476D01*
X7399476Y-16333476D01*
X7418524Y-16343000D01*
X7428048Y-16352524D01*
X7437571Y-16371571D01*
X7437571Y-16381095D01*
X7428048Y-16400143D01*
X7418524Y-16409667D01*
X7399476Y-16419190D01*
X7361381Y-16419190D01*
X7342333Y-16428714D01*
X7332809Y-16438238D01*
X7323286Y-16457286D01*
X7323286Y-16495381D01*
X7332809Y-16514428D01*
X7342333Y-16523952D01*
X7361381Y-16533476D01*
X7399476Y-16533476D01*
X7418524Y-16523952D01*
X7428048Y-16514428D01*
X7437571Y-16495381D01*
X7437571Y-16457286D01*
X7428048Y-16438238D01*
X7418524Y-16428714D01*
X7399476Y-16419190D01*
X7561381Y-16333476D02*
X7580428Y-16333476D01*
X7599476Y-16343000D01*
X7609000Y-16352524D01*
X7618524Y-16371571D01*
X7628048Y-16409667D01*
X7628048Y-16457286D01*
X7618524Y-16495381D01*
X7609000Y-16514428D01*
X7599476Y-16523952D01*
X7580428Y-16533476D01*
X7561381Y-16533476D01*
X7542333Y-16523952D01*
X7532809Y-16514428D01*
X7523286Y-16495381D01*
X7513762Y-16457286D01*
X7513762Y-16409667D01*
X7523286Y-16371571D01*
X7532809Y-16352524D01*
X7542333Y-16343000D01*
X7561381Y-16333476D01*
X7713762Y-16533476D02*
X7713762Y-16400143D01*
X7713762Y-16419190D02*
X7723286Y-16409667D01*
X7742333Y-16400143D01*
X7770905Y-16400143D01*
X7789952Y-16409667D01*
X7799476Y-16428714D01*
X7799476Y-16533476D01*
X7799476Y-16428714D02*
X7809000Y-16409667D01*
X7828048Y-16400143D01*
X7856619Y-16400143D01*
X7875667Y-16409667D01*
X7885190Y-16428714D01*
X7885190Y-16533476D01*
X7980428Y-16533476D02*
X7980428Y-16400143D01*
X7980428Y-16419190D02*
X7989952Y-16409667D01*
X8009000Y-16400143D01*
X8037571Y-16400143D01*
X8056619Y-16409667D01*
X8066143Y-16428714D01*
X8066143Y-16533476D01*
X8066143Y-16428714D02*
X8075667Y-16409667D01*
X8094714Y-16400143D01*
X8123286Y-16400143D01*
X8142333Y-16409667D01*
X8151857Y-16428714D01*
X8151857Y-16533476D01*
X8542333Y-16323952D02*
X8370905Y-16581095D01*
X8799476Y-16333476D02*
X8818524Y-16333476D01*
X8837571Y-16343000D01*
X8847095Y-16352524D01*
X8856619Y-16371571D01*
X8866143Y-16409667D01*
X8866143Y-16457286D01*
X8856619Y-16495381D01*
X8847095Y-16514428D01*
X8837571Y-16523952D01*
X8818524Y-16533476D01*
X8799476Y-16533476D01*
X8780429Y-16523952D01*
X8770905Y-16514428D01*
X8761381Y-16495381D01*
X8751857Y-16457286D01*
X8751857Y-16409667D01*
X8761381Y-16371571D01*
X8770905Y-16352524D01*
X8780429Y-16343000D01*
X8799476Y-16333476D01*
X8951857Y-16514428D02*
X8961381Y-16523952D01*
X8951857Y-16533476D01*
X8942333Y-16523952D01*
X8951857Y-16514428D01*
X8951857Y-16533476D01*
X9085190Y-16333476D02*
X9104238Y-16333476D01*
X9123286Y-16343000D01*
X9132810Y-16352524D01*
X9142333Y-16371571D01*
X9151857Y-16409667D01*
X9151857Y-16457286D01*
X9142333Y-16495381D01*
X9132810Y-16514428D01*
X9123286Y-16523952D01*
X9104238Y-16533476D01*
X9085190Y-16533476D01*
X9066143Y-16523952D01*
X9056619Y-16514428D01*
X9047095Y-16495381D01*
X9037571Y-16457286D01*
X9037571Y-16409667D01*
X9047095Y-16371571D01*
X9056619Y-16352524D01*
X9066143Y-16343000D01*
X9085190Y-16333476D01*
X9332810Y-16333476D02*
X9237571Y-16333476D01*
X9228048Y-16428714D01*
X9237571Y-16419190D01*
X9256619Y-16409667D01*
X9304238Y-16409667D01*
X9323286Y-16419190D01*
X9332810Y-16428714D01*
X9342333Y-16447762D01*
X9342333Y-16495381D01*
X9332810Y-16514428D01*
X9323286Y-16523952D01*
X9304238Y-16533476D01*
X9256619Y-16533476D01*
X9237571Y-16523952D01*
X9228048Y-16514428D01*
X9466143Y-16333476D02*
X9485190Y-16333476D01*
X9504238Y-16343000D01*
X9513762Y-16352524D01*
X9523286Y-16371571D01*
X9532810Y-16409667D01*
X9532810Y-16457286D01*
X9523286Y-16495381D01*
X9513762Y-16514428D01*
X9504238Y-16523952D01*
X9485190Y-16533476D01*
X9466143Y-16533476D01*
X9447095Y-16523952D01*
X9437571Y-16514428D01*
X9428048Y-16495381D01*
X9418524Y-16457286D01*
X9418524Y-16409667D01*
X9428048Y-16371571D01*
X9437571Y-16352524D01*
X9447095Y-16343000D01*
X9466143Y-16333476D01*
X9704238Y-16400143D02*
X9704238Y-16533476D01*
X9656619Y-16323952D02*
X9609000Y-16466809D01*
X9732810Y-16466809D01*
X9799476Y-16333476D02*
X9799476Y-16371571D01*
X9875667Y-16333476D02*
X9875667Y-16371571D01*
X10170905Y-16609667D02*
X10161381Y-16600143D01*
X10142333Y-16571571D01*
X10132810Y-16552524D01*
X10123286Y-16523952D01*
X10113762Y-16476333D01*
X10113762Y-16438238D01*
X10123286Y-16390619D01*
X10132810Y-16362048D01*
X10142333Y-16343000D01*
X10161381Y-16314428D01*
X10170905Y-16304905D01*
X10228048Y-16333476D02*
X10351857Y-16333476D01*
X10285190Y-16409667D01*
X10313762Y-16409667D01*
X10332810Y-16419190D01*
X10342333Y-16428714D01*
X10351857Y-16447762D01*
X10351857Y-16495381D01*
X10342333Y-16514428D01*
X10332810Y-16523952D01*
X10313762Y-16533476D01*
X10256619Y-16533476D01*
X10237571Y-16523952D01*
X10228048Y-16514428D01*
X10589952Y-16533476D02*
X10589952Y-16333476D01*
X10675667Y-16533476D02*
X10675667Y-16428714D01*
X10666143Y-16409667D01*
X10647095Y-16400143D01*
X10618524Y-16400143D01*
X10599476Y-16409667D01*
X10589952Y-16419190D01*
X10799476Y-16533476D02*
X10780429Y-16523952D01*
X10770905Y-16514428D01*
X10761381Y-16495381D01*
X10761381Y-16438238D01*
X10770905Y-16419190D01*
X10780429Y-16409667D01*
X10799476Y-16400143D01*
X10828048Y-16400143D01*
X10847095Y-16409667D01*
X10856619Y-16419190D01*
X10866143Y-16438238D01*
X10866143Y-16495381D01*
X10856619Y-16514428D01*
X10847095Y-16523952D01*
X10828048Y-16533476D01*
X10799476Y-16533476D01*
X10980429Y-16533476D02*
X10961381Y-16523952D01*
X10951857Y-16504905D01*
X10951857Y-16333476D01*
X11132810Y-16523952D02*
X11113762Y-16533476D01*
X11075667Y-16533476D01*
X11056619Y-16523952D01*
X11047095Y-16504905D01*
X11047095Y-16428714D01*
X11056619Y-16409667D01*
X11075667Y-16400143D01*
X11113762Y-16400143D01*
X11132810Y-16409667D01*
X11142333Y-16428714D01*
X11142333Y-16447762D01*
X11047095Y-16466809D01*
X11218524Y-16523952D02*
X11237571Y-16533476D01*
X11275667Y-16533476D01*
X11294714Y-16523952D01*
X11304238Y-16504905D01*
X11304238Y-16495381D01*
X11294714Y-16476333D01*
X11275667Y-16466809D01*
X11247095Y-16466809D01*
X11228048Y-16457286D01*
X11218524Y-16438238D01*
X11218524Y-16428714D01*
X11228048Y-16409667D01*
X11247095Y-16400143D01*
X11275667Y-16400143D01*
X11294714Y-16409667D01*
X11370905Y-16609667D02*
X11380428Y-16600143D01*
X11399476Y-16571571D01*
X11409000Y-16552524D01*
X11418524Y-16523952D01*
X11428048Y-16476333D01*
X11428048Y-16438238D01*
X11418524Y-16390619D01*
X11409000Y-16362048D01*
X11399476Y-16343000D01*
X11380428Y-16314428D01*
X11370905Y-16304905D01*
D18*
X6469000Y-16642000D02*
X6599000Y-16772000D01*
X6599000Y-16642000D02*
X6469000Y-16772000D01*
X6534000Y-16642000D02*
X6534000Y-16772000D01*
X6469000Y-16707000D02*
X6599000Y-16707000D01*
D11*
X6961381Y-16797476D02*
X6847095Y-16797476D01*
X6904238Y-16797476D02*
X6904238Y-16597476D01*
X6885190Y-16626048D01*
X6866143Y-16645095D01*
X6847095Y-16654619D01*
X7047095Y-16778429D02*
X7056619Y-16787952D01*
X7047095Y-16797476D01*
X7037571Y-16787952D01*
X7047095Y-16778429D01*
X7047095Y-16797476D01*
X7123286Y-16597476D02*
X7247095Y-16597476D01*
X7180428Y-16673667D01*
X7209000Y-16673667D01*
X7228048Y-16683190D01*
X7237571Y-16692714D01*
X7247095Y-16711762D01*
X7247095Y-16759381D01*
X7237571Y-16778429D01*
X7228048Y-16787952D01*
X7209000Y-16797476D01*
X7151857Y-16797476D01*
X7132809Y-16787952D01*
X7123286Y-16778429D01*
X7370905Y-16597476D02*
X7389952Y-16597476D01*
X7409000Y-16607000D01*
X7418524Y-16616524D01*
X7428048Y-16635571D01*
X7437571Y-16673667D01*
X7437571Y-16721286D01*
X7428048Y-16759381D01*
X7418524Y-16778429D01*
X7409000Y-16787952D01*
X7389952Y-16797476D01*
X7370905Y-16797476D01*
X7351857Y-16787952D01*
X7342333Y-16778429D01*
X7332809Y-16759381D01*
X7323286Y-16721286D01*
X7323286Y-16673667D01*
X7332809Y-16635571D01*
X7342333Y-16616524D01*
X7351857Y-16607000D01*
X7370905Y-16597476D01*
X7561381Y-16597476D02*
X7580428Y-16597476D01*
X7599476Y-16607000D01*
X7609000Y-16616524D01*
X7618524Y-16635571D01*
X7628048Y-16673667D01*
X7628048Y-16721286D01*
X7618524Y-16759381D01*
X7609000Y-16778429D01*
X7599476Y-16787952D01*
X7580428Y-16797476D01*
X7561381Y-16797476D01*
X7542333Y-16787952D01*
X7532809Y-16778429D01*
X7523286Y-16759381D01*
X7513762Y-16721286D01*
X7513762Y-16673667D01*
X7523286Y-16635571D01*
X7532809Y-16616524D01*
X7542333Y-16607000D01*
X7561381Y-16597476D01*
X7713762Y-16797476D02*
X7713762Y-16664143D01*
X7713762Y-16683190D02*
X7723286Y-16673667D01*
X7742333Y-16664143D01*
X7770905Y-16664143D01*
X7789952Y-16673667D01*
X7799476Y-16692714D01*
X7799476Y-16797476D01*
X7799476Y-16692714D02*
X7809000Y-16673667D01*
X7828048Y-16664143D01*
X7856619Y-16664143D01*
X7875667Y-16673667D01*
X7885190Y-16692714D01*
X7885190Y-16797476D01*
X7980428Y-16797476D02*
X7980428Y-16664143D01*
X7980428Y-16683190D02*
X7989952Y-16673667D01*
X8009000Y-16664143D01*
X8037571Y-16664143D01*
X8056619Y-16673667D01*
X8066143Y-16692714D01*
X8066143Y-16797476D01*
X8066143Y-16692714D02*
X8075667Y-16673667D01*
X8094714Y-16664143D01*
X8123286Y-16664143D01*
X8142333Y-16673667D01*
X8151857Y-16692714D01*
X8151857Y-16797476D01*
X8542333Y-16587952D02*
X8370905Y-16845095D01*
X8799476Y-16597476D02*
X8818524Y-16597476D01*
X8837571Y-16607000D01*
X8847095Y-16616524D01*
X8856619Y-16635571D01*
X8866143Y-16673667D01*
X8866143Y-16721286D01*
X8856619Y-16759381D01*
X8847095Y-16778429D01*
X8837571Y-16787952D01*
X8818524Y-16797476D01*
X8799476Y-16797476D01*
X8780429Y-16787952D01*
X8770905Y-16778429D01*
X8761381Y-16759381D01*
X8751857Y-16721286D01*
X8751857Y-16673667D01*
X8761381Y-16635571D01*
X8770905Y-16616524D01*
X8780429Y-16607000D01*
X8799476Y-16597476D01*
X8951857Y-16778429D02*
X8961381Y-16787952D01*
X8951857Y-16797476D01*
X8942333Y-16787952D01*
X8951857Y-16778429D01*
X8951857Y-16797476D01*
X9085190Y-16597476D02*
X9104238Y-16597476D01*
X9123286Y-16607000D01*
X9132810Y-16616524D01*
X9142333Y-16635571D01*
X9151857Y-16673667D01*
X9151857Y-16721286D01*
X9142333Y-16759381D01*
X9132810Y-16778429D01*
X9123286Y-16787952D01*
X9104238Y-16797476D01*
X9085190Y-16797476D01*
X9066143Y-16787952D01*
X9056619Y-16778429D01*
X9047095Y-16759381D01*
X9037571Y-16721286D01*
X9037571Y-16673667D01*
X9047095Y-16635571D01*
X9056619Y-16616524D01*
X9066143Y-16607000D01*
X9085190Y-16597476D01*
X9332810Y-16597476D02*
X9237571Y-16597476D01*
X9228048Y-16692714D01*
X9237571Y-16683190D01*
X9256619Y-16673667D01*
X9304238Y-16673667D01*
X9323286Y-16683190D01*
X9332810Y-16692714D01*
X9342333Y-16711762D01*
X9342333Y-16759381D01*
X9332810Y-16778429D01*
X9323286Y-16787952D01*
X9304238Y-16797476D01*
X9256619Y-16797476D01*
X9237571Y-16787952D01*
X9228048Y-16778429D01*
X9532810Y-16797476D02*
X9418524Y-16797476D01*
X9475667Y-16797476D02*
X9475667Y-16597476D01*
X9456619Y-16626048D01*
X9437571Y-16645095D01*
X9418524Y-16654619D01*
X9609000Y-16616524D02*
X9618524Y-16607000D01*
X9637571Y-16597476D01*
X9685190Y-16597476D01*
X9704238Y-16607000D01*
X9713762Y-16616524D01*
X9723286Y-16635571D01*
X9723286Y-16654619D01*
X9713762Y-16683190D01*
X9599476Y-16797476D01*
X9723286Y-16797476D01*
X9799476Y-16597476D02*
X9799476Y-16635571D01*
X9875667Y-16597476D02*
X9875667Y-16635571D01*
X10170905Y-16873667D02*
X10161381Y-16864143D01*
X10142333Y-16835571D01*
X10132810Y-16816524D01*
X10123286Y-16787952D01*
X10113762Y-16740333D01*
X10113762Y-16702238D01*
X10123286Y-16654619D01*
X10132810Y-16626048D01*
X10142333Y-16607000D01*
X10161381Y-16578428D01*
X10170905Y-16568905D01*
X10237571Y-16616524D02*
X10247095Y-16607000D01*
X10266143Y-16597476D01*
X10313762Y-16597476D01*
X10332810Y-16607000D01*
X10342333Y-16616524D01*
X10351857Y-16635571D01*
X10351857Y-16654619D01*
X10342333Y-16683190D01*
X10228048Y-16797476D01*
X10351857Y-16797476D01*
X10589952Y-16797476D02*
X10589952Y-16597476D01*
X10675667Y-16797476D02*
X10675667Y-16692714D01*
X10666143Y-16673667D01*
X10647095Y-16664143D01*
X10618524Y-16664143D01*
X10599476Y-16673667D01*
X10589952Y-16683190D01*
X10799476Y-16797476D02*
X10780429Y-16787952D01*
X10770905Y-16778429D01*
X10761381Y-16759381D01*
X10761381Y-16702238D01*
X10770905Y-16683190D01*
X10780429Y-16673667D01*
X10799476Y-16664143D01*
X10828048Y-16664143D01*
X10847095Y-16673667D01*
X10856619Y-16683190D01*
X10866143Y-16702238D01*
X10866143Y-16759381D01*
X10856619Y-16778429D01*
X10847095Y-16787952D01*
X10828048Y-16797476D01*
X10799476Y-16797476D01*
X10980429Y-16797476D02*
X10961381Y-16787952D01*
X10951857Y-16768905D01*
X10951857Y-16597476D01*
X11132810Y-16787952D02*
X11113762Y-16797476D01*
X11075667Y-16797476D01*
X11056619Y-16787952D01*
X11047095Y-16768905D01*
X11047095Y-16692714D01*
X11056619Y-16673667D01*
X11075667Y-16664143D01*
X11113762Y-16664143D01*
X11132810Y-16673667D01*
X11142333Y-16692714D01*
X11142333Y-16711762D01*
X11047095Y-16730809D01*
X11218524Y-16787952D02*
X11237571Y-16797476D01*
X11275667Y-16797476D01*
X11294714Y-16787952D01*
X11304238Y-16768905D01*
X11304238Y-16759381D01*
X11294714Y-16740333D01*
X11275667Y-16730809D01*
X11247095Y-16730809D01*
X11228048Y-16721286D01*
X11218524Y-16702238D01*
X11218524Y-16692714D01*
X11228048Y-16673667D01*
X11247095Y-16664143D01*
X11275667Y-16664143D01*
X11294714Y-16673667D01*
X11370905Y-16873667D02*
X11380428Y-16864143D01*
X11399476Y-16835571D01*
X11409000Y-16816524D01*
X11418524Y-16787952D01*
X11428048Y-16740333D01*
X11428048Y-16702238D01*
X11418524Y-16654619D01*
X11409000Y-16626048D01*
X11399476Y-16607000D01*
X11380428Y-16578428D01*
X11370905Y-16568905D01*
M02*
