%TF.GenerationSoftware,KiCad,Pcbnew,(6.0.1)*%
%TF.CreationDate,2022-03-21T23:25:55+02:00*%
%TF.ProjectId,main,6d61696e-2e6b-4696-9361-645f70636258,rev?*%
%TF.SameCoordinates,Original*%
%TF.FileFunction,Legend,Top*%
%TF.FilePolarity,Positive*%
%FSLAX46Y46*%
G04 Gerber Fmt 4.6, Leading zero omitted, Abs format (unit mm)*
G04 Created by KiCad (PCBNEW (6.0.1)) date 2022-03-21 23:25:55*
%MOMM*%
%LPD*%
G01*
G04 APERTURE LIST*
%ADD10C,0.100000*%
%ADD11C,0.300000*%
%ADD12C,0.254000*%
%ADD13C,0.150000*%
%ADD14C,0.200000*%
%ADD15C,0.120000*%
G04 APERTURE END LIST*
D10*
X173982212Y-91440000D02*
X184142212Y-91440000D01*
X184142212Y-91440000D02*
X184142212Y-101600000D01*
X184142212Y-101600000D02*
X173982212Y-101600000D01*
X173982212Y-101600000D02*
X173982212Y-91440000D01*
D11*
X176538402Y-95424761D02*
X176538402Y-97043809D01*
X176633640Y-97234285D01*
X176728878Y-97329523D01*
X176919354Y-97424761D01*
X177300307Y-97424761D01*
X177490783Y-97329523D01*
X177586021Y-97234285D01*
X177681259Y-97043809D01*
X177681259Y-95424761D01*
X178538402Y-97329523D02*
X178824116Y-97424761D01*
X179300307Y-97424761D01*
X179490783Y-97329523D01*
X179586021Y-97234285D01*
X179681259Y-97043809D01*
X179681259Y-96853333D01*
X179586021Y-96662857D01*
X179490783Y-96567619D01*
X179300307Y-96472380D01*
X178919354Y-96377142D01*
X178728878Y-96281904D01*
X178633640Y-96186666D01*
X178538402Y-95996190D01*
X178538402Y-95805714D01*
X178633640Y-95615238D01*
X178728878Y-95520000D01*
X178919354Y-95424761D01*
X179395545Y-95424761D01*
X179681259Y-95520000D01*
X181205069Y-96377142D02*
X181490783Y-96472380D01*
X181586021Y-96567619D01*
X181681259Y-96758095D01*
X181681259Y-97043809D01*
X181586021Y-97234285D01*
X181490783Y-97329523D01*
X181300307Y-97424761D01*
X180538402Y-97424761D01*
X180538402Y-95424761D01*
X181205069Y-95424761D01*
X181395545Y-95520000D01*
X181490783Y-95615238D01*
X181586021Y-95805714D01*
X181586021Y-95996190D01*
X181490783Y-96186666D01*
X181395545Y-96281904D01*
X181205069Y-96377142D01*
X180538402Y-96377142D01*
D12*
%TO.C,J5*%
X180676735Y-97256333D02*
X181583878Y-97256333D01*
X181765307Y-97316809D01*
X181886259Y-97437761D01*
X181946735Y-97619190D01*
X181946735Y-97740142D01*
X180676735Y-96046809D02*
X180676735Y-96651571D01*
X181281497Y-96712047D01*
X181221021Y-96651571D01*
X181160545Y-96530619D01*
X181160545Y-96228238D01*
X181221021Y-96107285D01*
X181281497Y-96046809D01*
X181402450Y-95986333D01*
X181704831Y-95986333D01*
X181825783Y-96046809D01*
X181886259Y-96107285D01*
X181946735Y-96228238D01*
X181946735Y-96530619D01*
X181886259Y-96651571D01*
X181825783Y-96712047D01*
%TO.C,FB1*%
X105581666Y-101509285D02*
X105158333Y-101509285D01*
X105158333Y-102174523D02*
X105158333Y-100904523D01*
X105763095Y-100904523D01*
X106670238Y-101509285D02*
X106851666Y-101569761D01*
X106912142Y-101630238D01*
X106972619Y-101751190D01*
X106972619Y-101932619D01*
X106912142Y-102053571D01*
X106851666Y-102114047D01*
X106730714Y-102174523D01*
X106246904Y-102174523D01*
X106246904Y-100904523D01*
X106670238Y-100904523D01*
X106791190Y-100965000D01*
X106851666Y-101025476D01*
X106912142Y-101146428D01*
X106912142Y-101267380D01*
X106851666Y-101388333D01*
X106791190Y-101448809D01*
X106670238Y-101509285D01*
X106246904Y-101509285D01*
X108182142Y-102174523D02*
X107456428Y-102174523D01*
X107819285Y-102174523D02*
X107819285Y-100904523D01*
X107698333Y-101085952D01*
X107577380Y-101206904D01*
X107456428Y-101267380D01*
%TO.C,C6*%
X119168333Y-96973571D02*
X119107857Y-97034047D01*
X118926428Y-97094523D01*
X118805476Y-97094523D01*
X118624047Y-97034047D01*
X118503095Y-96913095D01*
X118442619Y-96792142D01*
X118382142Y-96550238D01*
X118382142Y-96368809D01*
X118442619Y-96126904D01*
X118503095Y-96005952D01*
X118624047Y-95885000D01*
X118805476Y-95824523D01*
X118926428Y-95824523D01*
X119107857Y-95885000D01*
X119168333Y-95945476D01*
X120256904Y-95824523D02*
X120015000Y-95824523D01*
X119894047Y-95885000D01*
X119833571Y-95945476D01*
X119712619Y-96126904D01*
X119652142Y-96368809D01*
X119652142Y-96852619D01*
X119712619Y-96973571D01*
X119773095Y-97034047D01*
X119894047Y-97094523D01*
X120135952Y-97094523D01*
X120256904Y-97034047D01*
X120317380Y-96973571D01*
X120377857Y-96852619D01*
X120377857Y-96550238D01*
X120317380Y-96429285D01*
X120256904Y-96368809D01*
X120135952Y-96308333D01*
X119894047Y-96308333D01*
X119773095Y-96368809D01*
X119712619Y-96429285D01*
X119652142Y-96550238D01*
D13*
%TO.C,U1*%
X133858095Y-96112380D02*
X133858095Y-96921904D01*
X133905714Y-97017142D01*
X133953333Y-97064761D01*
X134048571Y-97112380D01*
X134239047Y-97112380D01*
X134334285Y-97064761D01*
X134381904Y-97017142D01*
X134429523Y-96921904D01*
X134429523Y-96112380D01*
X135429523Y-97112380D02*
X134858095Y-97112380D01*
X135143809Y-97112380D02*
X135143809Y-96112380D01*
X135048571Y-96255238D01*
X134953333Y-96350476D01*
X134858095Y-96398095D01*
D12*
%TO.C,C12*%
X133803571Y-84273571D02*
X133743095Y-84334047D01*
X133561666Y-84394523D01*
X133440714Y-84394523D01*
X133259285Y-84334047D01*
X133138333Y-84213095D01*
X133077857Y-84092142D01*
X133017380Y-83850238D01*
X133017380Y-83668809D01*
X133077857Y-83426904D01*
X133138333Y-83305952D01*
X133259285Y-83185000D01*
X133440714Y-83124523D01*
X133561666Y-83124523D01*
X133743095Y-83185000D01*
X133803571Y-83245476D01*
X135013095Y-84394523D02*
X134287380Y-84394523D01*
X134650238Y-84394523D02*
X134650238Y-83124523D01*
X134529285Y-83305952D01*
X134408333Y-83426904D01*
X134287380Y-83487380D01*
X135496904Y-83245476D02*
X135557380Y-83185000D01*
X135678333Y-83124523D01*
X135980714Y-83124523D01*
X136101666Y-83185000D01*
X136162142Y-83245476D01*
X136222619Y-83366428D01*
X136222619Y-83487380D01*
X136162142Y-83668809D01*
X135436428Y-84394523D01*
X136222619Y-84394523D01*
%TO.C,R2*%
X106468333Y-92014523D02*
X106045000Y-91409761D01*
X105742619Y-92014523D02*
X105742619Y-90744523D01*
X106226428Y-90744523D01*
X106347380Y-90805000D01*
X106407857Y-90865476D01*
X106468333Y-90986428D01*
X106468333Y-91167857D01*
X106407857Y-91288809D01*
X106347380Y-91349285D01*
X106226428Y-91409761D01*
X105742619Y-91409761D01*
X106952142Y-90865476D02*
X107012619Y-90805000D01*
X107133571Y-90744523D01*
X107435952Y-90744523D01*
X107556904Y-90805000D01*
X107617380Y-90865476D01*
X107677857Y-90986428D01*
X107677857Y-91107380D01*
X107617380Y-91288809D01*
X106891666Y-92014523D01*
X107677857Y-92014523D01*
%TO.C,D1*%
X110252619Y-97379523D02*
X110252619Y-96109523D01*
X110555000Y-96109523D01*
X110736428Y-96170000D01*
X110857380Y-96290952D01*
X110917857Y-96411904D01*
X110978333Y-96653809D01*
X110978333Y-96835238D01*
X110917857Y-97077142D01*
X110857380Y-97198095D01*
X110736428Y-97319047D01*
X110555000Y-97379523D01*
X110252619Y-97379523D01*
X112187857Y-97379523D02*
X111462142Y-97379523D01*
X111825000Y-97379523D02*
X111825000Y-96109523D01*
X111704047Y-96290952D01*
X111583095Y-96411904D01*
X111462142Y-96472380D01*
%TO.C,R5*%
X119168333Y-89474523D02*
X118745000Y-88869761D01*
X118442619Y-89474523D02*
X118442619Y-88204523D01*
X118926428Y-88204523D01*
X119047380Y-88265000D01*
X119107857Y-88325476D01*
X119168333Y-88446428D01*
X119168333Y-88627857D01*
X119107857Y-88748809D01*
X119047380Y-88809285D01*
X118926428Y-88869761D01*
X118442619Y-88869761D01*
X120317380Y-88204523D02*
X119712619Y-88204523D01*
X119652142Y-88809285D01*
X119712619Y-88748809D01*
X119833571Y-88688333D01*
X120135952Y-88688333D01*
X120256904Y-88748809D01*
X120317380Y-88809285D01*
X120377857Y-88930238D01*
X120377857Y-89232619D01*
X120317380Y-89353571D01*
X120256904Y-89414047D01*
X120135952Y-89474523D01*
X119833571Y-89474523D01*
X119712619Y-89414047D01*
X119652142Y-89353571D01*
%TO.C,R9*%
X129328333Y-86934523D02*
X128905000Y-86329761D01*
X128602619Y-86934523D02*
X128602619Y-85664523D01*
X129086428Y-85664523D01*
X129207380Y-85725000D01*
X129267857Y-85785476D01*
X129328333Y-85906428D01*
X129328333Y-86087857D01*
X129267857Y-86208809D01*
X129207380Y-86269285D01*
X129086428Y-86329761D01*
X128602619Y-86329761D01*
X129933095Y-86934523D02*
X130175000Y-86934523D01*
X130295952Y-86874047D01*
X130356428Y-86813571D01*
X130477380Y-86632142D01*
X130537857Y-86390238D01*
X130537857Y-85906428D01*
X130477380Y-85785476D01*
X130416904Y-85725000D01*
X130295952Y-85664523D01*
X130054047Y-85664523D01*
X129933095Y-85725000D01*
X129872619Y-85785476D01*
X129812142Y-85906428D01*
X129812142Y-86208809D01*
X129872619Y-86329761D01*
X129933095Y-86390238D01*
X130054047Y-86450714D01*
X130295952Y-86450714D01*
X130416904Y-86390238D01*
X130477380Y-86329761D01*
X130537857Y-86208809D01*
%TO.C,Q1*%
X170059047Y-84515476D02*
X169938095Y-84455000D01*
X169817142Y-84334047D01*
X169635714Y-84152619D01*
X169514761Y-84092142D01*
X169393809Y-84092142D01*
X169454285Y-84394523D02*
X169333333Y-84334047D01*
X169212380Y-84213095D01*
X169151904Y-83971190D01*
X169151904Y-83547857D01*
X169212380Y-83305952D01*
X169333333Y-83185000D01*
X169454285Y-83124523D01*
X169696190Y-83124523D01*
X169817142Y-83185000D01*
X169938095Y-83305952D01*
X169998571Y-83547857D01*
X169998571Y-83971190D01*
X169938095Y-84213095D01*
X169817142Y-84334047D01*
X169696190Y-84394523D01*
X169454285Y-84394523D01*
X171208095Y-84394523D02*
X170482380Y-84394523D01*
X170845238Y-84394523D02*
X170845238Y-83124523D01*
X170724285Y-83305952D01*
X170603333Y-83426904D01*
X170482380Y-83487380D01*
%TO.C,C5*%
X126183333Y-97923571D02*
X126122857Y-97984047D01*
X125941428Y-98044523D01*
X125820476Y-98044523D01*
X125639047Y-97984047D01*
X125518095Y-97863095D01*
X125457619Y-97742142D01*
X125397142Y-97500238D01*
X125397142Y-97318809D01*
X125457619Y-97076904D01*
X125518095Y-96955952D01*
X125639047Y-96835000D01*
X125820476Y-96774523D01*
X125941428Y-96774523D01*
X126122857Y-96835000D01*
X126183333Y-96895476D01*
X127332380Y-96774523D02*
X126727619Y-96774523D01*
X126667142Y-97379285D01*
X126727619Y-97318809D01*
X126848571Y-97258333D01*
X127150952Y-97258333D01*
X127271904Y-97318809D01*
X127332380Y-97379285D01*
X127392857Y-97500238D01*
X127392857Y-97802619D01*
X127332380Y-97923571D01*
X127271904Y-97984047D01*
X127150952Y-98044523D01*
X126848571Y-98044523D01*
X126727619Y-97984047D01*
X126667142Y-97923571D01*
D13*
%TO.C,J2*%
X182562380Y-76533333D02*
X183276666Y-76533333D01*
X183419523Y-76580952D01*
X183514761Y-76676190D01*
X183562380Y-76819047D01*
X183562380Y-76914285D01*
X182657619Y-76104761D02*
X182610000Y-76057142D01*
X182562380Y-75961904D01*
X182562380Y-75723809D01*
X182610000Y-75628571D01*
X182657619Y-75580952D01*
X182752857Y-75533333D01*
X182848095Y-75533333D01*
X182990952Y-75580952D01*
X183562380Y-76152380D01*
X183562380Y-75533333D01*
D12*
%TO.C,J5*%
X172476735Y-96943333D02*
X173383878Y-96943333D01*
X173565307Y-97003809D01*
X173686259Y-97124761D01*
X173746735Y-97306190D01*
X173746735Y-97427142D01*
X172476735Y-95733809D02*
X172476735Y-96338571D01*
X173081497Y-96399047D01*
X173021021Y-96338571D01*
X172960545Y-96217619D01*
X172960545Y-95915238D01*
X173021021Y-95794285D01*
X173081497Y-95733809D01*
X173202450Y-95673333D01*
X173504831Y-95673333D01*
X173625783Y-95733809D01*
X173686259Y-95794285D01*
X173746735Y-95915238D01*
X173746735Y-96217619D01*
X173686259Y-96338571D01*
X173625783Y-96399047D01*
D13*
%TO.C,A2*%
X141814857Y-87600266D02*
X142119619Y-87600266D01*
X141753904Y-87783123D02*
X141967238Y-87143123D01*
X142180571Y-87783123D01*
X142363428Y-87204076D02*
X142393904Y-87173600D01*
X142454857Y-87143123D01*
X142607238Y-87143123D01*
X142668190Y-87173600D01*
X142698666Y-87204076D01*
X142729142Y-87265028D01*
X142729142Y-87325980D01*
X142698666Y-87417409D01*
X142332952Y-87783123D01*
X142729142Y-87783123D01*
D12*
%TO.C,C4*%
X180128333Y-79193571D02*
X180067857Y-79254047D01*
X179886428Y-79314523D01*
X179765476Y-79314523D01*
X179584047Y-79254047D01*
X179463095Y-79133095D01*
X179402619Y-79012142D01*
X179342142Y-78770238D01*
X179342142Y-78588809D01*
X179402619Y-78346904D01*
X179463095Y-78225952D01*
X179584047Y-78105000D01*
X179765476Y-78044523D01*
X179886428Y-78044523D01*
X180067857Y-78105000D01*
X180128333Y-78165476D01*
X181216904Y-78467857D02*
X181216904Y-79314523D01*
X180914523Y-77984047D02*
X180612142Y-78891190D01*
X181398333Y-78891190D01*
%TO.C,IC1*%
X148620238Y-97094523D02*
X148620238Y-95824523D01*
X149950714Y-96973571D02*
X149890238Y-97034047D01*
X149708809Y-97094523D01*
X149587857Y-97094523D01*
X149406428Y-97034047D01*
X149285476Y-96913095D01*
X149225000Y-96792142D01*
X149164523Y-96550238D01*
X149164523Y-96368809D01*
X149225000Y-96126904D01*
X149285476Y-96005952D01*
X149406428Y-95885000D01*
X149587857Y-95824523D01*
X149708809Y-95824523D01*
X149890238Y-95885000D01*
X149950714Y-95945476D01*
X151160238Y-97094523D02*
X150434523Y-97094523D01*
X150797380Y-97094523D02*
X150797380Y-95824523D01*
X150676428Y-96005952D01*
X150555476Y-96126904D01*
X150434523Y-96187380D01*
D13*
%TO.C,D3*%
X100861904Y-111522380D02*
X100861904Y-110522380D01*
X101100000Y-110522380D01*
X101242857Y-110570000D01*
X101338095Y-110665238D01*
X101385714Y-110760476D01*
X101433333Y-110950952D01*
X101433333Y-111093809D01*
X101385714Y-111284285D01*
X101338095Y-111379523D01*
X101242857Y-111474761D01*
X101100000Y-111522380D01*
X100861904Y-111522380D01*
X101766666Y-110522380D02*
X102385714Y-110522380D01*
X102052380Y-110903333D01*
X102195238Y-110903333D01*
X102290476Y-110950952D01*
X102338095Y-110998571D01*
X102385714Y-111093809D01*
X102385714Y-111331904D01*
X102338095Y-111427142D01*
X102290476Y-111474761D01*
X102195238Y-111522380D01*
X101909523Y-111522380D01*
X101814285Y-111474761D01*
X101766666Y-111427142D01*
%TO.C,MCU1*%
X160726666Y-91122380D02*
X160726666Y-90122380D01*
X161060000Y-90836666D01*
X161393333Y-90122380D01*
X161393333Y-91122380D01*
X162440952Y-91027142D02*
X162393333Y-91074761D01*
X162250476Y-91122380D01*
X162155238Y-91122380D01*
X162012380Y-91074761D01*
X161917142Y-90979523D01*
X161869523Y-90884285D01*
X161821904Y-90693809D01*
X161821904Y-90550952D01*
X161869523Y-90360476D01*
X161917142Y-90265238D01*
X162012380Y-90170000D01*
X162155238Y-90122380D01*
X162250476Y-90122380D01*
X162393333Y-90170000D01*
X162440952Y-90217619D01*
X162869523Y-90122380D02*
X162869523Y-90931904D01*
X162917142Y-91027142D01*
X162964761Y-91074761D01*
X163060000Y-91122380D01*
X163250476Y-91122380D01*
X163345714Y-91074761D01*
X163393333Y-91027142D01*
X163440952Y-90931904D01*
X163440952Y-90122380D01*
X164440952Y-91122380D02*
X163869523Y-91122380D01*
X164155238Y-91122380D02*
X164155238Y-90122380D01*
X164060000Y-90265238D01*
X163964761Y-90360476D01*
X163869523Y-90408095D01*
%TO.C,A1*%
X124034857Y-82520266D02*
X124339619Y-82520266D01*
X123973904Y-82703123D02*
X124187238Y-82063123D01*
X124400571Y-82703123D01*
X124949142Y-82703123D02*
X124583428Y-82703123D01*
X124766285Y-82703123D02*
X124766285Y-82063123D01*
X124705333Y-82154552D01*
X124644380Y-82215504D01*
X124583428Y-82245980D01*
D12*
%TO.C,R12*%
X119973571Y-104024523D02*
X119550238Y-103419761D01*
X119247857Y-104024523D02*
X119247857Y-102754523D01*
X119731666Y-102754523D01*
X119852619Y-102815000D01*
X119913095Y-102875476D01*
X119973571Y-102996428D01*
X119973571Y-103177857D01*
X119913095Y-103298809D01*
X119852619Y-103359285D01*
X119731666Y-103419761D01*
X119247857Y-103419761D01*
X121183095Y-104024523D02*
X120457380Y-104024523D01*
X120820238Y-104024523D02*
X120820238Y-102754523D01*
X120699285Y-102935952D01*
X120578333Y-103056904D01*
X120457380Y-103117380D01*
X121666904Y-102875476D02*
X121727380Y-102815000D01*
X121848333Y-102754523D01*
X122150714Y-102754523D01*
X122271666Y-102815000D01*
X122332142Y-102875476D01*
X122392619Y-102996428D01*
X122392619Y-103117380D01*
X122332142Y-103298809D01*
X121606428Y-104024523D01*
X122392619Y-104024523D01*
D13*
%TO.C,D2*%
X114751904Y-95432380D02*
X114751904Y-94432380D01*
X114990000Y-94432380D01*
X115132857Y-94480000D01*
X115228095Y-94575238D01*
X115275714Y-94670476D01*
X115323333Y-94860952D01*
X115323333Y-95003809D01*
X115275714Y-95194285D01*
X115228095Y-95289523D01*
X115132857Y-95384761D01*
X114990000Y-95432380D01*
X114751904Y-95432380D01*
X115704285Y-94527619D02*
X115751904Y-94480000D01*
X115847142Y-94432380D01*
X116085238Y-94432380D01*
X116180476Y-94480000D01*
X116228095Y-94527619D01*
X116275714Y-94622857D01*
X116275714Y-94718095D01*
X116228095Y-94860952D01*
X115656666Y-95432380D01*
X116275714Y-95432380D01*
D12*
%TO.C,C11*%
X139593571Y-84273571D02*
X139533095Y-84334047D01*
X139351666Y-84394523D01*
X139230714Y-84394523D01*
X139049285Y-84334047D01*
X138928333Y-84213095D01*
X138867857Y-84092142D01*
X138807380Y-83850238D01*
X138807380Y-83668809D01*
X138867857Y-83426904D01*
X138928333Y-83305952D01*
X139049285Y-83185000D01*
X139230714Y-83124523D01*
X139351666Y-83124523D01*
X139533095Y-83185000D01*
X139593571Y-83245476D01*
X140803095Y-84394523D02*
X140077380Y-84394523D01*
X140440238Y-84394523D02*
X140440238Y-83124523D01*
X140319285Y-83305952D01*
X140198333Y-83426904D01*
X140077380Y-83487380D01*
X142012619Y-84394523D02*
X141286904Y-84394523D01*
X141649761Y-84394523D02*
X141649761Y-83124523D01*
X141528809Y-83305952D01*
X141407857Y-83426904D01*
X141286904Y-83487380D01*
D13*
%TO.C,J1*%
X182122380Y-66373333D02*
X182836666Y-66373333D01*
X182979523Y-66420952D01*
X183074761Y-66516190D01*
X183122380Y-66659047D01*
X183122380Y-66754285D01*
X183122380Y-65373333D02*
X183122380Y-65944761D01*
X183122380Y-65659047D02*
X182122380Y-65659047D01*
X182265238Y-65754285D01*
X182360476Y-65849523D01*
X182408095Y-65944761D01*
D12*
%TO.C,C9*%
X144568333Y-96973571D02*
X144507857Y-97034047D01*
X144326428Y-97094523D01*
X144205476Y-97094523D01*
X144024047Y-97034047D01*
X143903095Y-96913095D01*
X143842619Y-96792142D01*
X143782142Y-96550238D01*
X143782142Y-96368809D01*
X143842619Y-96126904D01*
X143903095Y-96005952D01*
X144024047Y-95885000D01*
X144205476Y-95824523D01*
X144326428Y-95824523D01*
X144507857Y-95885000D01*
X144568333Y-95945476D01*
X145173095Y-97094523D02*
X145415000Y-97094523D01*
X145535952Y-97034047D01*
X145596428Y-96973571D01*
X145717380Y-96792142D01*
X145777857Y-96550238D01*
X145777857Y-96066428D01*
X145717380Y-95945476D01*
X145656904Y-95885000D01*
X145535952Y-95824523D01*
X145294047Y-95824523D01*
X145173095Y-95885000D01*
X145112619Y-95945476D01*
X145052142Y-96066428D01*
X145052142Y-96368809D01*
X145112619Y-96489761D01*
X145173095Y-96550238D01*
X145294047Y-96610714D01*
X145535952Y-96610714D01*
X145656904Y-96550238D01*
X145717380Y-96489761D01*
X145777857Y-96368809D01*
%TO.C,R13*%
X127923571Y-84394523D02*
X127500238Y-83789761D01*
X127197857Y-84394523D02*
X127197857Y-83124523D01*
X127681666Y-83124523D01*
X127802619Y-83185000D01*
X127863095Y-83245476D01*
X127923571Y-83366428D01*
X127923571Y-83547857D01*
X127863095Y-83668809D01*
X127802619Y-83729285D01*
X127681666Y-83789761D01*
X127197857Y-83789761D01*
X129133095Y-84394523D02*
X128407380Y-84394523D01*
X128770238Y-84394523D02*
X128770238Y-83124523D01*
X128649285Y-83305952D01*
X128528333Y-83426904D01*
X128407380Y-83487380D01*
X129556428Y-83124523D02*
X130342619Y-83124523D01*
X129919285Y-83608333D01*
X130100714Y-83608333D01*
X130221666Y-83668809D01*
X130282142Y-83729285D01*
X130342619Y-83850238D01*
X130342619Y-84152619D01*
X130282142Y-84273571D01*
X130221666Y-84334047D01*
X130100714Y-84394523D01*
X129737857Y-84394523D01*
X129616904Y-84334047D01*
X129556428Y-84273571D01*
%TO.C,C1*%
X122683333Y-97923571D02*
X122622857Y-97984047D01*
X122441428Y-98044523D01*
X122320476Y-98044523D01*
X122139047Y-97984047D01*
X122018095Y-97863095D01*
X121957619Y-97742142D01*
X121897142Y-97500238D01*
X121897142Y-97318809D01*
X121957619Y-97076904D01*
X122018095Y-96955952D01*
X122139047Y-96835000D01*
X122320476Y-96774523D01*
X122441428Y-96774523D01*
X122622857Y-96835000D01*
X122683333Y-96895476D01*
X123892857Y-98044523D02*
X123167142Y-98044523D01*
X123530000Y-98044523D02*
X123530000Y-96774523D01*
X123409047Y-96955952D01*
X123288095Y-97076904D01*
X123167142Y-97137380D01*
D13*
%TO.C,JP1*%
X159186666Y-78932380D02*
X159186666Y-79646666D01*
X159139047Y-79789523D01*
X159043809Y-79884761D01*
X158900952Y-79932380D01*
X158805714Y-79932380D01*
X159662857Y-79932380D02*
X159662857Y-78932380D01*
X160043809Y-78932380D01*
X160139047Y-78980000D01*
X160186666Y-79027619D01*
X160234285Y-79122857D01*
X160234285Y-79265714D01*
X160186666Y-79360952D01*
X160139047Y-79408571D01*
X160043809Y-79456190D01*
X159662857Y-79456190D01*
X161186666Y-79932380D02*
X160615238Y-79932380D01*
X160900952Y-79932380D02*
X160900952Y-78932380D01*
X160805714Y-79075238D01*
X160710476Y-79170476D01*
X160615238Y-79218095D01*
X157705714Y-81732380D02*
X157134285Y-81732380D01*
X157420000Y-81732380D02*
X157420000Y-80732380D01*
X157324761Y-80875238D01*
X157229523Y-80970476D01*
X157134285Y-81018095D01*
X162286666Y-80732380D02*
X162905714Y-80732380D01*
X162572380Y-81113333D01*
X162715238Y-81113333D01*
X162810476Y-81160952D01*
X162858095Y-81208571D01*
X162905714Y-81303809D01*
X162905714Y-81541904D01*
X162858095Y-81637142D01*
X162810476Y-81684761D01*
X162715238Y-81732380D01*
X162429523Y-81732380D01*
X162334285Y-81684761D01*
X162286666Y-81637142D01*
D12*
%TO.C,R4*%
X119168333Y-86934523D02*
X118745000Y-86329761D01*
X118442619Y-86934523D02*
X118442619Y-85664523D01*
X118926428Y-85664523D01*
X119047380Y-85725000D01*
X119107857Y-85785476D01*
X119168333Y-85906428D01*
X119168333Y-86087857D01*
X119107857Y-86208809D01*
X119047380Y-86269285D01*
X118926428Y-86329761D01*
X118442619Y-86329761D01*
X120256904Y-86087857D02*
X120256904Y-86934523D01*
X119954523Y-85604047D02*
X119652142Y-86511190D01*
X120438333Y-86511190D01*
%TO.C,R6*%
X128873333Y-89474523D02*
X128450000Y-88869761D01*
X128147619Y-89474523D02*
X128147619Y-88204523D01*
X128631428Y-88204523D01*
X128752380Y-88265000D01*
X128812857Y-88325476D01*
X128873333Y-88446428D01*
X128873333Y-88627857D01*
X128812857Y-88748809D01*
X128752380Y-88809285D01*
X128631428Y-88869761D01*
X128147619Y-88869761D01*
X129961904Y-88204523D02*
X129720000Y-88204523D01*
X129599047Y-88265000D01*
X129538571Y-88325476D01*
X129417619Y-88506904D01*
X129357142Y-88748809D01*
X129357142Y-89232619D01*
X129417619Y-89353571D01*
X129478095Y-89414047D01*
X129599047Y-89474523D01*
X129840952Y-89474523D01*
X129961904Y-89414047D01*
X130022380Y-89353571D01*
X130082857Y-89232619D01*
X130082857Y-88930238D01*
X130022380Y-88809285D01*
X129961904Y-88748809D01*
X129840952Y-88688333D01*
X129599047Y-88688333D01*
X129478095Y-88748809D01*
X129417619Y-88809285D01*
X129357142Y-88930238D01*
%TO.C,R10*%
X133803571Y-86934523D02*
X133380238Y-86329761D01*
X133077857Y-86934523D02*
X133077857Y-85664523D01*
X133561666Y-85664523D01*
X133682619Y-85725000D01*
X133743095Y-85785476D01*
X133803571Y-85906428D01*
X133803571Y-86087857D01*
X133743095Y-86208809D01*
X133682619Y-86269285D01*
X133561666Y-86329761D01*
X133077857Y-86329761D01*
X135013095Y-86934523D02*
X134287380Y-86934523D01*
X134650238Y-86934523D02*
X134650238Y-85664523D01*
X134529285Y-85845952D01*
X134408333Y-85966904D01*
X134287380Y-86027380D01*
X135799285Y-85664523D02*
X135920238Y-85664523D01*
X136041190Y-85725000D01*
X136101666Y-85785476D01*
X136162142Y-85906428D01*
X136222619Y-86148333D01*
X136222619Y-86450714D01*
X136162142Y-86692619D01*
X136101666Y-86813571D01*
X136041190Y-86874047D01*
X135920238Y-86934523D01*
X135799285Y-86934523D01*
X135678333Y-86874047D01*
X135617857Y-86813571D01*
X135557380Y-86692619D01*
X135496904Y-86450714D01*
X135496904Y-86148333D01*
X135557380Y-85906428D01*
X135617857Y-85785476D01*
X135678333Y-85725000D01*
X135799285Y-85664523D01*
%TO.C,C3*%
X123808333Y-93323571D02*
X123747857Y-93384047D01*
X123566428Y-93444523D01*
X123445476Y-93444523D01*
X123264047Y-93384047D01*
X123143095Y-93263095D01*
X123082619Y-93142142D01*
X123022142Y-92900238D01*
X123022142Y-92718809D01*
X123082619Y-92476904D01*
X123143095Y-92355952D01*
X123264047Y-92235000D01*
X123445476Y-92174523D01*
X123566428Y-92174523D01*
X123747857Y-92235000D01*
X123808333Y-92295476D01*
X124231666Y-92174523D02*
X125017857Y-92174523D01*
X124594523Y-92658333D01*
X124775952Y-92658333D01*
X124896904Y-92718809D01*
X124957380Y-92779285D01*
X125017857Y-92900238D01*
X125017857Y-93202619D01*
X124957380Y-93323571D01*
X124896904Y-93384047D01*
X124775952Y-93444523D01*
X124413095Y-93444523D01*
X124292142Y-93384047D01*
X124231666Y-93323571D01*
%TO.C,C7*%
X127323333Y-93303571D02*
X127262857Y-93364047D01*
X127081428Y-93424523D01*
X126960476Y-93424523D01*
X126779047Y-93364047D01*
X126658095Y-93243095D01*
X126597619Y-93122142D01*
X126537142Y-92880238D01*
X126537142Y-92698809D01*
X126597619Y-92456904D01*
X126658095Y-92335952D01*
X126779047Y-92215000D01*
X126960476Y-92154523D01*
X127081428Y-92154523D01*
X127262857Y-92215000D01*
X127323333Y-92275476D01*
X127746666Y-92154523D02*
X128593333Y-92154523D01*
X128049047Y-93424523D01*
%TO.C,C2*%
X111548333Y-109673571D02*
X111487857Y-109734047D01*
X111306428Y-109794523D01*
X111185476Y-109794523D01*
X111004047Y-109734047D01*
X110883095Y-109613095D01*
X110822619Y-109492142D01*
X110762142Y-109250238D01*
X110762142Y-109068809D01*
X110822619Y-108826904D01*
X110883095Y-108705952D01*
X111004047Y-108585000D01*
X111185476Y-108524523D01*
X111306428Y-108524523D01*
X111487857Y-108585000D01*
X111548333Y-108645476D01*
X112032142Y-108645476D02*
X112092619Y-108585000D01*
X112213571Y-108524523D01*
X112515952Y-108524523D01*
X112636904Y-108585000D01*
X112697380Y-108645476D01*
X112757857Y-108766428D01*
X112757857Y-108887380D01*
X112697380Y-109068809D01*
X111971666Y-109794523D01*
X112757857Y-109794523D01*
%TO.C,R1*%
X129608333Y-95644523D02*
X129185000Y-95039761D01*
X128882619Y-95644523D02*
X128882619Y-94374523D01*
X129366428Y-94374523D01*
X129487380Y-94435000D01*
X129547857Y-94495476D01*
X129608333Y-94616428D01*
X129608333Y-94797857D01*
X129547857Y-94918809D01*
X129487380Y-94979285D01*
X129366428Y-95039761D01*
X128882619Y-95039761D01*
X130817857Y-95644523D02*
X130092142Y-95644523D01*
X130455000Y-95644523D02*
X130455000Y-94374523D01*
X130334047Y-94555952D01*
X130213095Y-94676904D01*
X130092142Y-94737380D01*
D13*
%TO.C,J4*%
X182122380Y-127333333D02*
X182836666Y-127333333D01*
X182979523Y-127380952D01*
X183074761Y-127476190D01*
X183122380Y-127619047D01*
X183122380Y-127714285D01*
X182455714Y-126428571D02*
X183122380Y-126428571D01*
X182074761Y-126666666D02*
X182789047Y-126904761D01*
X182789047Y-126285714D01*
%TO.C,U2*%
X165922380Y-109981904D02*
X166731904Y-109981904D01*
X166827142Y-109934285D01*
X166874761Y-109886666D01*
X166922380Y-109791428D01*
X166922380Y-109600952D01*
X166874761Y-109505714D01*
X166827142Y-109458095D01*
X166731904Y-109410476D01*
X165922380Y-109410476D01*
X166017619Y-108981904D02*
X165970000Y-108934285D01*
X165922380Y-108839047D01*
X165922380Y-108600952D01*
X165970000Y-108505714D01*
X166017619Y-108458095D01*
X166112857Y-108410476D01*
X166208095Y-108410476D01*
X166350952Y-108458095D01*
X166922380Y-109029523D01*
X166922380Y-108410476D01*
%TO.C,J3*%
X182562380Y-117173333D02*
X183276666Y-117173333D01*
X183419523Y-117220952D01*
X183514761Y-117316190D01*
X183562380Y-117459047D01*
X183562380Y-117554285D01*
X182562380Y-116792380D02*
X182562380Y-116173333D01*
X182943333Y-116506666D01*
X182943333Y-116363809D01*
X182990952Y-116268571D01*
X183038571Y-116220952D01*
X183133809Y-116173333D01*
X183371904Y-116173333D01*
X183467142Y-116220952D01*
X183514761Y-116268571D01*
X183562380Y-116363809D01*
X183562380Y-116649523D01*
X183514761Y-116744761D01*
X183467142Y-116792380D01*
D12*
%TO.C,R7*%
X124248333Y-89474523D02*
X123825000Y-88869761D01*
X123522619Y-89474523D02*
X123522619Y-88204523D01*
X124006428Y-88204523D01*
X124127380Y-88265000D01*
X124187857Y-88325476D01*
X124248333Y-88446428D01*
X124248333Y-88627857D01*
X124187857Y-88748809D01*
X124127380Y-88809285D01*
X124006428Y-88869761D01*
X123522619Y-88869761D01*
X124671666Y-88204523D02*
X125518333Y-88204523D01*
X124974047Y-89474523D01*
%TO.C,C8*%
X123793333Y-95633571D02*
X123732857Y-95694047D01*
X123551428Y-95754523D01*
X123430476Y-95754523D01*
X123249047Y-95694047D01*
X123128095Y-95573095D01*
X123067619Y-95452142D01*
X123007142Y-95210238D01*
X123007142Y-95028809D01*
X123067619Y-94786904D01*
X123128095Y-94665952D01*
X123249047Y-94545000D01*
X123430476Y-94484523D01*
X123551428Y-94484523D01*
X123732857Y-94545000D01*
X123793333Y-94605476D01*
X124519047Y-95028809D02*
X124398095Y-94968333D01*
X124337619Y-94907857D01*
X124277142Y-94786904D01*
X124277142Y-94726428D01*
X124337619Y-94605476D01*
X124398095Y-94545000D01*
X124519047Y-94484523D01*
X124760952Y-94484523D01*
X124881904Y-94545000D01*
X124942380Y-94605476D01*
X125002857Y-94726428D01*
X125002857Y-94786904D01*
X124942380Y-94907857D01*
X124881904Y-94968333D01*
X124760952Y-95028809D01*
X124519047Y-95028809D01*
X124398095Y-95089285D01*
X124337619Y-95149761D01*
X124277142Y-95270714D01*
X124277142Y-95512619D01*
X124337619Y-95633571D01*
X124398095Y-95694047D01*
X124519047Y-95754523D01*
X124760952Y-95754523D01*
X124881904Y-95694047D01*
X124942380Y-95633571D01*
X125002857Y-95512619D01*
X125002857Y-95270714D01*
X124942380Y-95149761D01*
X124881904Y-95089285D01*
X124760952Y-95028809D01*
%TO.C,R11*%
X118563571Y-84394523D02*
X118140238Y-83789761D01*
X117837857Y-84394523D02*
X117837857Y-83124523D01*
X118321666Y-83124523D01*
X118442619Y-83185000D01*
X118503095Y-83245476D01*
X118563571Y-83366428D01*
X118563571Y-83547857D01*
X118503095Y-83668809D01*
X118442619Y-83729285D01*
X118321666Y-83789761D01*
X117837857Y-83789761D01*
X119773095Y-84394523D02*
X119047380Y-84394523D01*
X119410238Y-84394523D02*
X119410238Y-83124523D01*
X119289285Y-83305952D01*
X119168333Y-83426904D01*
X119047380Y-83487380D01*
X120982619Y-84394523D02*
X120256904Y-84394523D01*
X120619761Y-84394523D02*
X120619761Y-83124523D01*
X120498809Y-83305952D01*
X120377857Y-83426904D01*
X120256904Y-83487380D01*
%TO.C,R3*%
X107823333Y-109924523D02*
X107400000Y-109319761D01*
X107097619Y-109924523D02*
X107097619Y-108654523D01*
X107581428Y-108654523D01*
X107702380Y-108715000D01*
X107762857Y-108775476D01*
X107823333Y-108896428D01*
X107823333Y-109077857D01*
X107762857Y-109198809D01*
X107702380Y-109259285D01*
X107581428Y-109319761D01*
X107097619Y-109319761D01*
X108246666Y-108654523D02*
X109032857Y-108654523D01*
X108609523Y-109138333D01*
X108790952Y-109138333D01*
X108911904Y-109198809D01*
X108972380Y-109259285D01*
X109032857Y-109380238D01*
X109032857Y-109682619D01*
X108972380Y-109803571D01*
X108911904Y-109864047D01*
X108790952Y-109924523D01*
X108428095Y-109924523D01*
X108307142Y-109864047D01*
X108246666Y-109803571D01*
%TO.C,IC2*%
X150434523Y-87599761D02*
X149164523Y-87599761D01*
X150313571Y-86269285D02*
X150374047Y-86329761D01*
X150434523Y-86511190D01*
X150434523Y-86632142D01*
X150374047Y-86813571D01*
X150253095Y-86934523D01*
X150132142Y-86995000D01*
X149890238Y-87055476D01*
X149708809Y-87055476D01*
X149466904Y-86995000D01*
X149345952Y-86934523D01*
X149225000Y-86813571D01*
X149164523Y-86632142D01*
X149164523Y-86511190D01*
X149225000Y-86329761D01*
X149285476Y-86269285D01*
X149285476Y-85785476D02*
X149225000Y-85725000D01*
X149164523Y-85604047D01*
X149164523Y-85301666D01*
X149225000Y-85180714D01*
X149285476Y-85120238D01*
X149406428Y-85059761D01*
X149527380Y-85059761D01*
X149708809Y-85120238D01*
X150434523Y-85845952D01*
X150434523Y-85059761D01*
%TO.C,IC3*%
X150434523Y-107919761D02*
X149164523Y-107919761D01*
X150313571Y-106589285D02*
X150374047Y-106649761D01*
X150434523Y-106831190D01*
X150434523Y-106952142D01*
X150374047Y-107133571D01*
X150253095Y-107254523D01*
X150132142Y-107315000D01*
X149890238Y-107375476D01*
X149708809Y-107375476D01*
X149466904Y-107315000D01*
X149345952Y-107254523D01*
X149225000Y-107133571D01*
X149164523Y-106952142D01*
X149164523Y-106831190D01*
X149225000Y-106649761D01*
X149285476Y-106589285D01*
X149164523Y-106165952D02*
X149164523Y-105379761D01*
X149648333Y-105803095D01*
X149648333Y-105621666D01*
X149708809Y-105500714D01*
X149769285Y-105440238D01*
X149890238Y-105379761D01*
X150192619Y-105379761D01*
X150313571Y-105440238D01*
X150374047Y-105500714D01*
X150434523Y-105621666D01*
X150434523Y-105984523D01*
X150374047Y-106105476D01*
X150313571Y-106165952D01*
%TO.C,R8*%
X124248333Y-86934523D02*
X123825000Y-86329761D01*
X123522619Y-86934523D02*
X123522619Y-85664523D01*
X124006428Y-85664523D01*
X124127380Y-85725000D01*
X124187857Y-85785476D01*
X124248333Y-85906428D01*
X124248333Y-86087857D01*
X124187857Y-86208809D01*
X124127380Y-86269285D01*
X124006428Y-86329761D01*
X123522619Y-86329761D01*
X124974047Y-86208809D02*
X124853095Y-86148333D01*
X124792619Y-86087857D01*
X124732142Y-85966904D01*
X124732142Y-85906428D01*
X124792619Y-85785476D01*
X124853095Y-85725000D01*
X124974047Y-85664523D01*
X125215952Y-85664523D01*
X125336904Y-85725000D01*
X125397380Y-85785476D01*
X125457857Y-85906428D01*
X125457857Y-85966904D01*
X125397380Y-86087857D01*
X125336904Y-86148333D01*
X125215952Y-86208809D01*
X124974047Y-86208809D01*
X124853095Y-86269285D01*
X124792619Y-86329761D01*
X124732142Y-86450714D01*
X124732142Y-86692619D01*
X124792619Y-86813571D01*
X124853095Y-86874047D01*
X124974047Y-86934523D01*
X125215952Y-86934523D01*
X125336904Y-86874047D01*
X125397380Y-86813571D01*
X125457857Y-86692619D01*
X125457857Y-86450714D01*
X125397380Y-86329761D01*
X125336904Y-86269285D01*
X125215952Y-86208809D01*
D13*
%TO.C,BT1*%
X72248571Y-99845714D02*
X72296190Y-99702857D01*
X72343809Y-99655238D01*
X72439047Y-99607619D01*
X72581904Y-99607619D01*
X72677142Y-99655238D01*
X72724761Y-99702857D01*
X72772380Y-99798095D01*
X72772380Y-100179047D01*
X71772380Y-100179047D01*
X71772380Y-99845714D01*
X71820000Y-99750476D01*
X71867619Y-99702857D01*
X71962857Y-99655238D01*
X72058095Y-99655238D01*
X72153333Y-99702857D01*
X72200952Y-99750476D01*
X72248571Y-99845714D01*
X72248571Y-100179047D01*
X71772380Y-99321904D02*
X71772380Y-98750476D01*
X72772380Y-99036190D02*
X71772380Y-99036190D01*
X72772380Y-97893333D02*
X72772380Y-98464761D01*
X72772380Y-98179047D02*
X71772380Y-98179047D01*
X71915238Y-98274285D01*
X72010476Y-98369523D01*
X72058095Y-98464761D01*
%TO.C,U3*%
X142712380Y-108711904D02*
X143521904Y-108711904D01*
X143617142Y-108664285D01*
X143664761Y-108616666D01*
X143712380Y-108521428D01*
X143712380Y-108330952D01*
X143664761Y-108235714D01*
X143617142Y-108188095D01*
X143521904Y-108140476D01*
X142712380Y-108140476D01*
X142712380Y-107759523D02*
X142712380Y-107140476D01*
X143093333Y-107473809D01*
X143093333Y-107330952D01*
X143140952Y-107235714D01*
X143188571Y-107188095D01*
X143283809Y-107140476D01*
X143521904Y-107140476D01*
X143617142Y-107188095D01*
X143664761Y-107235714D01*
X143712380Y-107330952D01*
X143712380Y-107616666D01*
X143664761Y-107711904D01*
X143617142Y-107759523D01*
D12*
%TO.C,C10*%
X141423571Y-86813571D02*
X141363095Y-86874047D01*
X141181666Y-86934523D01*
X141060714Y-86934523D01*
X140879285Y-86874047D01*
X140758333Y-86753095D01*
X140697857Y-86632142D01*
X140637380Y-86390238D01*
X140637380Y-86208809D01*
X140697857Y-85966904D01*
X140758333Y-85845952D01*
X140879285Y-85725000D01*
X141060714Y-85664523D01*
X141181666Y-85664523D01*
X141363095Y-85725000D01*
X141423571Y-85785476D01*
X142633095Y-86934523D02*
X141907380Y-86934523D01*
X142270238Y-86934523D02*
X142270238Y-85664523D01*
X142149285Y-85845952D01*
X142028333Y-85966904D01*
X141907380Y-86027380D01*
X143419285Y-85664523D02*
X143540238Y-85664523D01*
X143661190Y-85725000D01*
X143721666Y-85785476D01*
X143782142Y-85906428D01*
X143842619Y-86148333D01*
X143842619Y-86450714D01*
X143782142Y-86692619D01*
X143721666Y-86813571D01*
X143661190Y-86874047D01*
X143540238Y-86934523D01*
X143419285Y-86934523D01*
X143298333Y-86874047D01*
X143237857Y-86813571D01*
X143177380Y-86692619D01*
X143116904Y-86450714D01*
X143116904Y-86148333D01*
X143177380Y-85906428D01*
X143237857Y-85785476D01*
X143298333Y-85725000D01*
X143419285Y-85664523D01*
D14*
%TO.C,J5*%
X177792212Y-100270000D02*
X177792212Y-92770000D01*
X182792212Y-92770000D02*
X181165212Y-92770000D01*
X182792212Y-100270000D02*
X181165212Y-100270000D01*
X183628102Y-94948000D02*
G75*
G03*
X183628102Y-94948000I-45890J0D01*
G01*
%TO.C,FB1*%
X106640000Y-101300000D02*
X106640000Y-101900000D01*
D15*
%TO.C,U1*%
X134620000Y-100620000D02*
X133820000Y-100620000D01*
X134620000Y-97500000D02*
X135420000Y-97500000D01*
X134620000Y-97500000D02*
X132820000Y-97500000D01*
X134620000Y-100620000D02*
X135420000Y-100620000D01*
D14*
%TO.C,R2*%
X106680000Y-90915000D02*
X106680000Y-91965000D01*
%TO.C,D1*%
X109640000Y-95980000D02*
X109640000Y-97630000D01*
X111940000Y-95980000D02*
X109640000Y-95980000D01*
X109640000Y-97630000D02*
X111940000Y-97630000D01*
%TO.C,R5*%
X119380000Y-88600000D02*
X119380000Y-89200000D01*
%TO.C,R9*%
X129540000Y-86060000D02*
X129540000Y-86660000D01*
%TO.C,Q1*%
X167450000Y-80625000D02*
X167450000Y-83820000D01*
X177990000Y-80625000D02*
X167450000Y-80625000D01*
X177990000Y-85315000D02*
X177990000Y-80625000D01*
D15*
%TO.C,J2*%
X181670000Y-77530000D02*
X180340000Y-77530000D01*
X179070000Y-74870000D02*
X97730000Y-74870000D01*
X179070000Y-74870000D02*
X179070000Y-77530000D01*
X97730000Y-74870000D02*
X97730000Y-77530000D01*
X181670000Y-76200000D02*
X181670000Y-77530000D01*
X179070000Y-77530000D02*
X97730000Y-77530000D01*
D10*
%TO.C,J5*%
X173672212Y-100120000D02*
X175232212Y-100120000D01*
X173672212Y-92920000D02*
X175232212Y-92920000D01*
X175232212Y-100120000D02*
X175232212Y-100120000D01*
X170672212Y-100120000D02*
X170172212Y-100120000D01*
X175232212Y-100120000D02*
X175232212Y-100020000D01*
X170172212Y-100120000D02*
X170172212Y-92920000D01*
X175232212Y-92920000D02*
X175232212Y-93020000D01*
X170172212Y-92920000D02*
X170672212Y-92920000D01*
D14*
X176072212Y-95120000D02*
X176072212Y-95120000D01*
X176072212Y-95320000D02*
X176072212Y-95320000D01*
X176072212Y-95120000D02*
G75*
G03*
X176072212Y-95320000I0J-100000D01*
G01*
X176072212Y-95320000D02*
G75*
G03*
X176072212Y-95120000I0J100000D01*
G01*
%TO.C,A2*%
X140590000Y-88900000D02*
G75*
G03*
X140590000Y-88900000I-100000J0D01*
G01*
%TO.C,IC1*%
X151460000Y-94070000D02*
X151460000Y-98970000D01*
X148260000Y-94070000D02*
X151460000Y-94070000D01*
X146385000Y-93940000D02*
X147910000Y-93940000D01*
X148260000Y-98970000D02*
X148260000Y-94070000D01*
X151460000Y-98970000D02*
X148260000Y-98970000D01*
D15*
%TO.C,D3*%
X103100000Y-110070000D02*
X100550000Y-110070000D01*
X103100000Y-110070000D02*
X103100000Y-108370000D01*
X103100000Y-108370000D02*
X100550000Y-108370000D01*
%TO.C,MCU1*%
X159400000Y-92910000D02*
X158950000Y-92910000D01*
X158950000Y-100130000D02*
X158950000Y-99680000D01*
X158950000Y-92910000D02*
X158950000Y-93360000D01*
X165720000Y-100130000D02*
X166170000Y-100130000D01*
X165720000Y-92910000D02*
X166170000Y-92910000D01*
X158950000Y-93360000D02*
X157660000Y-93360000D01*
X166170000Y-100130000D02*
X166170000Y-99680000D01*
X159400000Y-100130000D02*
X158950000Y-100130000D01*
X166170000Y-92910000D02*
X166170000Y-93360000D01*
D14*
%TO.C,A1*%
X122810000Y-83820000D02*
G75*
G03*
X122810000Y-83820000I-100000J0D01*
G01*
%TO.C,R12*%
X120790000Y-103150000D02*
X120790000Y-103750000D01*
D15*
%TO.C,D2*%
X113990000Y-95980000D02*
X113990000Y-97680000D01*
X113990000Y-97680000D02*
X116540000Y-97680000D01*
X113990000Y-95980000D02*
X116540000Y-95980000D01*
%TO.C,J1*%
X180340000Y-64710000D02*
X181670000Y-64710000D01*
X179070000Y-67370000D02*
X97730000Y-67370000D01*
X179070000Y-64710000D02*
X179070000Y-67370000D01*
X181670000Y-64710000D02*
X181670000Y-66040000D01*
X97730000Y-64710000D02*
X97730000Y-67370000D01*
X179070000Y-64710000D02*
X97730000Y-64710000D01*
D14*
%TO.C,R13*%
X128740000Y-83520000D02*
X128740000Y-84120000D01*
D15*
%TO.C,JP1*%
X162070000Y-82280000D02*
X157970000Y-82280000D01*
X157970000Y-82280000D02*
X157970000Y-80280000D01*
X157970000Y-80280000D02*
X162070000Y-80280000D01*
X162070000Y-80280000D02*
X162070000Y-82280000D01*
D14*
%TO.C,R4*%
X119380000Y-86060000D02*
X119380000Y-86660000D01*
%TO.C,R10*%
X134620000Y-86060000D02*
X134620000Y-86660000D01*
D15*
%TO.C,J4*%
X180340000Y-125670000D02*
X181670000Y-125670000D01*
X179070000Y-125670000D02*
X179070000Y-128330000D01*
X97730000Y-125670000D02*
X97730000Y-128330000D01*
X179070000Y-128330000D02*
X97730000Y-128330000D01*
X179070000Y-125670000D02*
X97730000Y-125670000D01*
X181670000Y-125670000D02*
X181670000Y-127000000D01*
D13*
%TO.C,U2*%
X178045000Y-112095000D02*
X177395000Y-112095000D01*
X178045000Y-106345000D02*
X177395000Y-106345000D01*
X167970000Y-112095000D02*
X167970000Y-113695000D01*
X178045000Y-112095000D02*
X178045000Y-106345000D01*
X167395000Y-112095000D02*
X167395000Y-106345000D01*
X167395000Y-112095000D02*
X167970000Y-112095000D01*
X167395000Y-106345000D02*
X168045000Y-106345000D01*
D15*
%TO.C,J3*%
X179070000Y-118170000D02*
X97730000Y-118170000D01*
X181670000Y-116840000D02*
X181670000Y-118170000D01*
X179070000Y-115510000D02*
X97730000Y-115510000D01*
X97730000Y-115510000D02*
X97730000Y-118170000D01*
X181670000Y-118170000D02*
X180340000Y-118170000D01*
X179070000Y-115510000D02*
X179070000Y-118170000D01*
D14*
%TO.C,R11*%
X119380000Y-83520000D02*
X119380000Y-84120000D01*
%TO.C,R3*%
X108035000Y-109050000D02*
X108035000Y-109650000D01*
%TO.C,IC2*%
X147410000Y-84760000D02*
X152310000Y-84760000D01*
X147280000Y-89835000D02*
X147280000Y-88310000D01*
X152310000Y-84760000D02*
X152310000Y-87960000D01*
X147410000Y-87960000D02*
X147410000Y-84760000D01*
X152310000Y-87960000D02*
X147410000Y-87960000D01*
%TO.C,IC3*%
X152310000Y-108280000D02*
X147410000Y-108280000D01*
X152310000Y-105080000D02*
X152310000Y-108280000D01*
X147280000Y-110155000D02*
X147280000Y-108630000D01*
X147410000Y-108280000D02*
X147410000Y-105080000D01*
X147410000Y-105080000D02*
X152310000Y-105080000D01*
%TO.C,R8*%
X124460000Y-86060000D02*
X124460000Y-86660000D01*
D15*
%TO.C,BT1*%
X77820000Y-142810000D02*
X77820000Y-140310000D01*
X94260000Y-60420000D02*
X94260000Y-137700000D01*
X80380000Y-137700000D02*
X80380000Y-142060000D01*
X73380000Y-60420000D02*
X73380000Y-137700000D01*
X94260000Y-137700000D02*
X87260000Y-137700000D01*
X77820000Y-55310000D02*
X77820000Y-57810000D01*
X87260000Y-60420000D02*
X94260000Y-60420000D01*
X79070000Y-141560000D02*
X76570000Y-141560000D01*
X80380000Y-60420000D02*
X73400000Y-60420000D01*
X73380000Y-137700000D02*
X80380000Y-137700000D01*
%TO.C,U3*%
X137850000Y-106150000D02*
X137850000Y-109750000D01*
X142300001Y-107950000D02*
G75*
G03*
X137861522Y-106111522I-2600001J0D01*
G01*
X137861522Y-109788478D02*
G75*
G03*
X142300000Y-107950000I1838478J1838478D01*
G01*
%TD*%
M02*
