M48
; DRILL file {KiCad (6.0.1)} date Mon Apr 11 21:48:38 2022
; FORMAT={-:-/ absolute / metric / decimal}
; #@! TF.CreationDate,2022-04-11T21:48:38+02:00
; #@! TF.GenerationSoftware,Kicad,Pcbnew,(6.0.1)
; #@! TF.FileFunction,Plated,1,2,PTH
FMAT,2
METRIC
; #@! TA.AperFunction,Plated,PTH,ViaDrill
T1C0.400
; #@! TA.AperFunction,Plated,PTH,ComponentDrill
T2C0.700
; #@! TA.AperFunction,Plated,PTH,ComponentDrill
T3C0.750
; #@! TA.AperFunction,Plated,PTH,ComponentDrill
T4C1.000
; #@! TA.AperFunction,Plated,PTH,ComponentDrill
T5C1.100
; #@! TA.AperFunction,Plated,PTH,ComponentDrill
T6C1.280
; #@! TA.AperFunction,Plated,PTH,ComponentDrill
T7C1.300
%
G90
G05
T1
X100.33Y-87.63
X102.475Y-85.95
X102.87Y-102.87
X104.14Y-86.36
X104.14Y-96.52
X105.175Y-107.275
X106.025Y-89.2
X106.375Y-103.1
X106.68Y-99.06
X107.56Y-89.01
X108.8Y-105.275
X108.835Y-109.35
X109.22Y-111.773
X110.49Y-92.71
X111.76Y-92.71
X113.838Y-101.038
X114.175Y-104.275
X114.3Y-92.164
X114.3Y-93.98
X114.3Y-96.005
X114.3Y-106.68
X114.3Y-109.22
X116.84Y-96.52
X116.84Y-99.06
X117.0Y-111.773
X119.38Y-79.465
X119.38Y-93.98
X119.38Y-106.68
X120.105Y-83.725
X120.5Y-87.825
X120.65Y-110.49
X120.675Y-93.175
X120.75Y-90.275
X121.376Y-99.541
X121.92Y-83.82
X121.92Y-86.36
X121.92Y-93.98
X123.19Y-101.6
X123.19Y-106.68
X123.49Y-98.64
X124.369Y-87.179
X124.46Y-90.715
X125.425Y-99.125
X125.85Y-90.715
X126.94Y-83.82
X127.0Y-86.36
X127.0Y-101.6
X127.376Y-90.715
X128.245Y-92.85
X128.66Y-89.0
X129.336Y-99.264
X129.54Y-96.52
X129.652Y-91.273
X130.34Y-86.36
X130.975Y-90.975
X132.08Y-81.28
X132.08Y-88.9
X132.787Y-89.624
X133.252Y-95.348
X133.35Y-106.68
X133.907Y-84.946
X134.416Y-104.344
X134.797Y-92.353
X135.24Y-88.28
X135.325Y-99.575
X135.42Y-86.36
X136.756Y-91.844
X137.16Y-86.36
X137.16Y-87.929
X137.16Y-88.9
X137.16Y-109.22
X139.576Y-96.644
X139.7Y-85.4
X139.7Y-91.44
X139.7Y-91.44
X139.7Y-104.14
X140.32Y-93.36
X141.55Y-87.6
X142.24Y-83.82
X143.237Y-83.89
X144.78Y-83.82
X144.858Y-97.7
X145.55Y-85.375
X146.05Y-104.14
X146.45Y-93.0
X146.65Y-83.775
X147.148Y-97.245
X147.148Y-98.35
X147.955Y-104.14
X147.975Y-102.075
X150.05Y-99.65
X150.85Y-102.325
X150.975Y-91.575
X151.576Y-99.302
X151.765Y-89.072
X152.394Y-94.758
X152.836Y-103.939
X153.67Y-106.68
X153.725Y-93.1
X154.225Y-94.325
X154.475Y-103.125
X154.726Y-96.175
X154.94Y-83.079
X156.21Y-100.33
X156.21Y-102.87
X156.25Y-93.15
X156.25Y-95.875
X157.05Y-98.375
X157.48Y-83.82
X157.48Y-92.71
X158.525Y-100.55
X159.2Y-92.95
X159.875Y-96.0
X159.925Y-98.85
X160.02Y-88.9
X160.02Y-111.76
X160.637Y-97.387
X162.56Y-114.3
X163.388Y-93.694
X165.1Y-88.9
X165.1Y-89.933
X165.1Y-104.14
X165.1Y-114.3
X165.1Y-121.92
X165.65Y-102.225
X166.052Y-118.428
X166.35Y-92.571
X167.64Y-111.76
X167.64Y-114.3
X167.64Y-121.92
X168.4Y-94.75
X168.55Y-93.27
X168.592Y-118.428
X168.91Y-97.79
X170.18Y-118.655
X170.18Y-121.92
X170.412Y-111.492
X170.904Y-109.944
X170.904Y-109.944
X171.18Y-104.14
X171.45Y-114.3
X171.6Y-101.725
X172.72Y-86.36
X172.72Y-109.944
X172.72Y-118.655
X172.72Y-121.92
X173.445Y-107.425
X173.5Y-104.0
X174.755Y-103.995
X174.83Y-90.88
X175.26Y-109.22
X175.26Y-118.655
X175.26Y-121.92
X175.972Y-86.048
X176.807Y-93.873
X177.288Y-118.655
X177.8Y-93.988
X178.312Y-119.892
X180.332Y-91.371
X181.075Y-97.345
X184.25Y-98.025
T2
X174.972Y-94.095
X174.972Y-98.945
T3
X139.7Y-106.68
X139.7Y-107.95
X139.7Y-109.22
T4
X99.06Y-66.04
X99.06Y-76.2
X99.06Y-116.84
X99.06Y-127.0
X101.6Y-66.04
X101.6Y-76.2
X101.6Y-116.84
X101.6Y-127.0
X104.14Y-66.04
X104.14Y-76.2
X104.14Y-116.84
X104.14Y-127.0
X106.68Y-66.04
X106.68Y-76.2
X106.68Y-116.84
X106.68Y-127.0
X109.22Y-66.04
X109.22Y-76.2
X109.22Y-116.84
X109.22Y-127.0
X111.76Y-66.04
X111.76Y-76.2
X111.76Y-116.84
X111.76Y-127.0
X114.3Y-66.04
X114.3Y-76.2
X114.3Y-116.84
X114.3Y-127.0
X116.84Y-66.04
X116.84Y-76.2
X116.84Y-116.84
X116.84Y-127.0
X119.38Y-66.04
X119.38Y-76.2
X119.38Y-116.84
X119.38Y-127.0
X121.92Y-66.04
X121.92Y-76.2
X121.92Y-116.84
X121.92Y-127.0
X124.46Y-66.04
X124.46Y-76.2
X124.46Y-116.84
X124.46Y-127.0
X127.0Y-66.04
X127.0Y-76.2
X127.0Y-116.84
X127.0Y-127.0
X129.54Y-66.04
X129.54Y-76.2
X129.54Y-116.84
X129.54Y-127.0
X132.08Y-66.04
X132.08Y-76.2
X132.08Y-116.84
X132.08Y-127.0
X134.62Y-66.04
X134.62Y-76.2
X134.62Y-116.84
X134.62Y-127.0
X137.16Y-66.04
X137.16Y-76.2
X137.16Y-116.84
X137.16Y-127.0
X139.7Y-66.04
X139.7Y-76.2
X139.7Y-116.84
X139.7Y-127.0
X142.24Y-66.04
X142.24Y-76.2
X142.24Y-116.84
X142.24Y-127.0
X144.78Y-66.04
X144.78Y-76.2
X144.78Y-116.84
X144.78Y-127.0
X147.32Y-66.04
X147.32Y-76.2
X147.32Y-116.84
X147.32Y-127.0
X149.86Y-66.04
X149.86Y-76.2
X149.86Y-116.84
X149.86Y-127.0
X152.4Y-66.04
X152.4Y-76.2
X152.4Y-116.84
X152.4Y-127.0
X154.94Y-66.04
X154.94Y-76.2
X154.94Y-116.84
X154.94Y-127.0
X157.48Y-66.04
X157.48Y-76.2
X157.48Y-116.84
X157.48Y-127.0
X160.02Y-66.04
X160.02Y-76.2
X160.02Y-116.84
X160.02Y-127.0
X162.56Y-66.04
X162.56Y-76.2
X162.56Y-116.84
X162.56Y-127.0
X165.1Y-66.04
X165.1Y-76.2
X165.1Y-116.84
X165.1Y-127.0
X167.64Y-66.04
X167.64Y-76.2
X167.64Y-116.84
X167.64Y-127.0
X170.18Y-66.04
X170.18Y-76.2
X170.18Y-116.84
X170.18Y-127.0
X172.72Y-66.04
X172.72Y-76.2
X172.72Y-116.84
X172.72Y-127.0
X175.26Y-66.04
X175.26Y-76.2
X175.26Y-116.84
X175.26Y-127.0
X177.8Y-66.04
X177.8Y-76.2
X177.8Y-116.84
X177.8Y-127.0
X180.34Y-66.04
X180.34Y-76.2
X180.34Y-116.84
X180.34Y-127.0
T5
X124.46Y-109.22
X127.0Y-109.22
X129.54Y-109.22
X160.02Y-104.14
X160.02Y-109.22
X162.56Y-104.14
X162.56Y-109.22
X167.64Y-81.28
X170.18Y-81.28
T6
X100.33Y-82.55
X102.87Y-82.55
X105.41Y-82.55
T7
X172.302Y-92.92
X172.302Y-100.12
T0
M30
