G04 #@! TF.GenerationSoftware,KiCad,Pcbnew,(6.0.1)*
G04 #@! TF.CreationDate,2022-04-11T21:44:22+02:00*
G04 #@! TF.ProjectId,main,6d61696e-2e6b-4696-9361-645f70636258,rev?*
G04 #@! TF.SameCoordinates,Original*
G04 #@! TF.FileFunction,Legend,Bot*
G04 #@! TF.FilePolarity,Positive*
%FSLAX46Y46*%
G04 Gerber Fmt 4.6, Leading zero omitted, Abs format (unit mm)*
G04 Created by KiCad (PCBNEW (6.0.1)) date 2022-04-11 21:44:22*
%MOMM*%
%LPD*%
G01*
G04 APERTURE LIST*
%ADD10C,0.254000*%
%ADD11R,1.650000X1.650000*%
%ADD12C,1.650000*%
%ADD13C,2.100000*%
%ADD14R,1.920000X1.920000*%
%ADD15C,1.920000*%
%ADD16R,1.700000X1.700000*%
%ADD17O,1.700000X1.700000*%
%ADD18C,1.300000*%
%ADD19C,1.900000*%
%ADD20C,2.390000*%
%ADD21C,3.450000*%
%ADD22R,1.500000X1.050000*%
%ADD23O,1.500000X1.050000*%
%ADD24R,3.400000X1.800000*%
%ADD25R,1.800000X3.400000*%
G04 APERTURE END LIST*
D10*
X148922619Y-80584523D02*
X148196904Y-80584523D01*
X148559761Y-81854523D02*
X148559761Y-80584523D01*
X147773571Y-81854523D02*
X147773571Y-80584523D01*
X147289761Y-80584523D01*
X147168809Y-80645000D01*
X147108333Y-80705476D01*
X147047857Y-80826428D01*
X147047857Y-81007857D01*
X147108333Y-81128809D01*
X147168809Y-81189285D01*
X147289761Y-81249761D01*
X147773571Y-81249761D01*
X145959285Y-80584523D02*
X146201190Y-80584523D01*
X146322142Y-80645000D01*
X146382619Y-80705476D01*
X146503571Y-80886904D01*
X146564047Y-81128809D01*
X146564047Y-81612619D01*
X146503571Y-81733571D01*
X146443095Y-81794047D01*
X146322142Y-81854523D01*
X146080238Y-81854523D01*
X145959285Y-81794047D01*
X145898809Y-81733571D01*
X145838333Y-81612619D01*
X145838333Y-81310238D01*
X145898809Y-81189285D01*
X145959285Y-81128809D01*
X146080238Y-81068333D01*
X146322142Y-81068333D01*
X146443095Y-81128809D01*
X146503571Y-81189285D01*
X146564047Y-81310238D01*
X161864523Y-84757380D02*
X161864523Y-85483095D01*
X163134523Y-85120238D02*
X161864523Y-85120238D01*
X163134523Y-85906428D02*
X161864523Y-85906428D01*
X161864523Y-86390238D01*
X161925000Y-86511190D01*
X161985476Y-86571666D01*
X162106428Y-86632142D01*
X162287857Y-86632142D01*
X162408809Y-86571666D01*
X162469285Y-86511190D01*
X162529761Y-86390238D01*
X162529761Y-85906428D01*
X161864523Y-87055476D02*
X161864523Y-87902142D01*
X163134523Y-87357857D01*
%LPC*%
D11*
X124460000Y-109220000D03*
D12*
X127000000Y-109220000D03*
X129540000Y-109220000D03*
D13*
X96520000Y-142240000D03*
X185420000Y-63500000D03*
X68580000Y-55880000D03*
D14*
X100330000Y-82550000D03*
D15*
X102870000Y-82550000D03*
X105410000Y-82550000D03*
D11*
X167640000Y-81280000D03*
D12*
X170180000Y-81280000D03*
D16*
X180340000Y-76200000D03*
D17*
X177800000Y-76200000D03*
X175260000Y-76200000D03*
X172720000Y-76200000D03*
X170180000Y-76200000D03*
X167640000Y-76200000D03*
X165100000Y-76200000D03*
X162560000Y-76200000D03*
X160020000Y-76200000D03*
X157480000Y-76200000D03*
X154940000Y-76200000D03*
X152400000Y-76200000D03*
X149860000Y-76200000D03*
X147320000Y-76200000D03*
X144780000Y-76200000D03*
X142240000Y-76200000D03*
X139700000Y-76200000D03*
X137160000Y-76200000D03*
X134620000Y-76200000D03*
X132080000Y-76200000D03*
X129540000Y-76200000D03*
X127000000Y-76200000D03*
X124460000Y-76200000D03*
X121920000Y-76200000D03*
X119380000Y-76200000D03*
X116840000Y-76200000D03*
X114300000Y-76200000D03*
X111760000Y-76200000D03*
X109220000Y-76200000D03*
X106680000Y-76200000D03*
X104140000Y-76200000D03*
X101600000Y-76200000D03*
X99060000Y-76200000D03*
D18*
X174972212Y-94095000D03*
X174972212Y-98945000D03*
D19*
X172302212Y-92920000D03*
X172302212Y-100120000D03*
D13*
X68580000Y-142240000D03*
D11*
X160020000Y-109220000D03*
D12*
X162560000Y-109220000D03*
D11*
X160020000Y-104140000D03*
D12*
X162560000Y-104140000D03*
D16*
X180340000Y-66040000D03*
D17*
X177800000Y-66040000D03*
X175260000Y-66040000D03*
X172720000Y-66040000D03*
X170180000Y-66040000D03*
X167640000Y-66040000D03*
X165100000Y-66040000D03*
X162560000Y-66040000D03*
X160020000Y-66040000D03*
X157480000Y-66040000D03*
X154940000Y-66040000D03*
X152400000Y-66040000D03*
X149860000Y-66040000D03*
X147320000Y-66040000D03*
X144780000Y-66040000D03*
X142240000Y-66040000D03*
X139700000Y-66040000D03*
X137160000Y-66040000D03*
X134620000Y-66040000D03*
X132080000Y-66040000D03*
X129540000Y-66040000D03*
X127000000Y-66040000D03*
X124460000Y-66040000D03*
X121920000Y-66040000D03*
X119380000Y-66040000D03*
X116840000Y-66040000D03*
X114300000Y-66040000D03*
X111760000Y-66040000D03*
X109220000Y-66040000D03*
X106680000Y-66040000D03*
X104140000Y-66040000D03*
X101600000Y-66040000D03*
X99060000Y-66040000D03*
D13*
X185420000Y-129540000D03*
D16*
X180340000Y-127000000D03*
D17*
X177800000Y-127000000D03*
X175260000Y-127000000D03*
X172720000Y-127000000D03*
X170180000Y-127000000D03*
X167640000Y-127000000D03*
X165100000Y-127000000D03*
X162560000Y-127000000D03*
X160020000Y-127000000D03*
X157480000Y-127000000D03*
X154940000Y-127000000D03*
X152400000Y-127000000D03*
X149860000Y-127000000D03*
X147320000Y-127000000D03*
X144780000Y-127000000D03*
X142240000Y-127000000D03*
X139700000Y-127000000D03*
X137160000Y-127000000D03*
X134620000Y-127000000D03*
X132080000Y-127000000D03*
X129540000Y-127000000D03*
X127000000Y-127000000D03*
X124460000Y-127000000D03*
X121920000Y-127000000D03*
X119380000Y-127000000D03*
X116840000Y-127000000D03*
X114300000Y-127000000D03*
X111760000Y-127000000D03*
X109220000Y-127000000D03*
X106680000Y-127000000D03*
X104140000Y-127000000D03*
X101600000Y-127000000D03*
X99060000Y-127000000D03*
D13*
X96520000Y-55880000D03*
D16*
X180340000Y-116840000D03*
D17*
X177800000Y-116840000D03*
X175260000Y-116840000D03*
X172720000Y-116840000D03*
X170180000Y-116840000D03*
X167640000Y-116840000D03*
X165100000Y-116840000D03*
X162560000Y-116840000D03*
X160020000Y-116840000D03*
X157480000Y-116840000D03*
X154940000Y-116840000D03*
X152400000Y-116840000D03*
X149860000Y-116840000D03*
X147320000Y-116840000D03*
X144780000Y-116840000D03*
X142240000Y-116840000D03*
X139700000Y-116840000D03*
X137160000Y-116840000D03*
X134620000Y-116840000D03*
X132080000Y-116840000D03*
X129540000Y-116840000D03*
X127000000Y-116840000D03*
X124460000Y-116840000D03*
X121920000Y-116840000D03*
X119380000Y-116840000D03*
X116840000Y-116840000D03*
X114300000Y-116840000D03*
X111760000Y-116840000D03*
X109220000Y-116840000D03*
X106680000Y-116840000D03*
X104140000Y-116840000D03*
X101600000Y-116840000D03*
X99060000Y-116840000D03*
D20*
X75820000Y-134990000D03*
D21*
X75820000Y-71460000D03*
X91820000Y-126660000D03*
D22*
X139700000Y-106680000D03*
D23*
X139700000Y-107950000D03*
X139700000Y-109220000D03*
D24*
X147320000Y-81280000D03*
D25*
X162560000Y-86360000D03*
M02*
