%TF.GenerationSoftware,KiCad,Pcbnew,(6.0.1)*%
%TF.CreationDate,2022-03-21T23:25:55+02:00*%
%TF.ProjectId,main,6d61696e-2e6b-4696-9361-645f70636258,rev?*%
%TF.SameCoordinates,Original*%
%TF.FileFunction,Copper,L2,Bot*%
%TF.FilePolarity,Positive*%
%FSLAX46Y46*%
G04 Gerber Fmt 4.6, Leading zero omitted, Abs format (unit mm)*
G04 Created by KiCad (PCBNEW (6.0.1)) date 2022-03-21 23:25:55*
%MOMM*%
%LPD*%
G01*
G04 APERTURE LIST*
%TA.AperFunction,ComponentPad*%
%ADD10R,1.920000X1.920000*%
%TD*%
%TA.AperFunction,ComponentPad*%
%ADD11C,1.920000*%
%TD*%
%TA.AperFunction,ComponentPad*%
%ADD12R,1.700000X1.700000*%
%TD*%
%TA.AperFunction,ComponentPad*%
%ADD13O,1.700000X1.700000*%
%TD*%
%TA.AperFunction,ComponentPad*%
%ADD14C,1.300000*%
%TD*%
%TA.AperFunction,ComponentPad*%
%ADD15C,1.900000*%
%TD*%
%TA.AperFunction,ComponentPad*%
%ADD16R,1.500000X1.050000*%
%TD*%
%TA.AperFunction,ComponentPad*%
%ADD17O,1.500000X1.050000*%
%TD*%
%TA.AperFunction,ViaPad*%
%ADD18C,0.800000*%
%TD*%
%TA.AperFunction,Conductor*%
%ADD19C,0.250000*%
%TD*%
%TA.AperFunction,Conductor*%
%ADD20C,0.200000*%
%TD*%
G04 APERTURE END LIST*
D10*
%TO.P,Q1,1,D*%
%TO.N,Net-(D2-Pad1)*%
X170180000Y-83820000D03*
D11*
%TO.P,Q1,2,S*%
%TO.N,Net-(BT1-Pad1)*%
X172720000Y-83820000D03*
%TO.P,Q1,3,G*%
%TO.N,+5V*%
X175260000Y-83820000D03*
%TD*%
D12*
%TO.P,J2,1,Pin_1*%
%TO.N,+3V0*%
X180340000Y-76200000D03*
D13*
%TO.P,J2,2,Pin_2*%
%TO.N,GND*%
X177800000Y-76200000D03*
%TO.P,J2,3,Pin_3*%
%TO.N,/VBAT*%
X175260000Y-76200000D03*
%TO.P,J2,4,Pin_4*%
%TO.N,/PC13*%
X172720000Y-76200000D03*
%TO.P,J2,5,Pin_5*%
%TO.N,/PC14*%
X170180000Y-76200000D03*
%TO.P,J2,6,Pin_6*%
%TO.N,/PC15*%
X167640000Y-76200000D03*
%TO.P,J2,7,Pin_7*%
%TO.N,/PF0*%
X165100000Y-76200000D03*
%TO.P,J2,8,Pin_8*%
%TO.N,/PF1*%
X162560000Y-76200000D03*
%TO.P,J2,9,Pin_9*%
%TO.N,GND*%
X160020000Y-76200000D03*
%TO.P,J2,10,Pin_10*%
%TO.N,/NRST*%
X157480000Y-76200000D03*
%TO.P,J2,11,Pin_11*%
%TO.N,/PC0*%
X154940000Y-76200000D03*
%TO.P,J2,12,Pin_12*%
%TO.N,/PC1*%
X152400000Y-76200000D03*
%TO.P,J2,13,Pin_13*%
%TO.N,/PC2*%
X149860000Y-76200000D03*
%TO.P,J2,14,Pin_14*%
%TO.N,/PC3*%
X147320000Y-76200000D03*
%TO.P,J2,15,Pin_15*%
%TO.N,/PA0*%
X144780000Y-76200000D03*
%TO.P,J2,16,Pin_16*%
%TO.N,/PA1*%
X142240000Y-76200000D03*
%TO.P,J2,17,Pin_17*%
%TO.N,/PA2*%
X139700000Y-76200000D03*
%TO.P,J2,18,Pin_18*%
%TO.N,/PA3*%
X137160000Y-76200000D03*
%TO.P,J2,19,Pin_19*%
%TO.N,/PF4*%
X134620000Y-76200000D03*
%TO.P,J2,20,Pin_20*%
%TO.N,/PF5*%
X132080000Y-76200000D03*
%TO.P,J2,21,Pin_21*%
%TO.N,/PA4*%
X129540000Y-76200000D03*
%TO.P,J2,22,Pin_22*%
%TO.N,/PA5*%
X127000000Y-76200000D03*
%TO.P,J2,23,Pin_23*%
%TO.N,/PA6*%
X124460000Y-76200000D03*
%TO.P,J2,24,Pin_24*%
%TO.N,/PA7*%
X121920000Y-76200000D03*
%TO.P,J2,25,Pin_25*%
%TO.N,/PC4*%
X119380000Y-76200000D03*
%TO.P,J2,26,Pin_26*%
%TO.N,/PC5*%
X116840000Y-76200000D03*
%TO.P,J2,27,Pin_27*%
%TO.N,/PB0*%
X114300000Y-76200000D03*
%TO.P,J2,28,Pin_28*%
%TO.N,/PB1*%
X111760000Y-76200000D03*
%TO.P,J2,29,Pin_29*%
%TO.N,/PB2*%
X109220000Y-76200000D03*
%TO.P,J2,30,Pin_30*%
%TO.N,/PB10*%
X106680000Y-76200000D03*
%TO.P,J2,31,Pin_31*%
%TO.N,/PB11*%
X104140000Y-76200000D03*
%TO.P,J2,32,Pin_32*%
%TO.N,/PB12*%
X101600000Y-76200000D03*
%TO.P,J2,33,Pin_33*%
%TO.N,GND*%
X99060000Y-76200000D03*
%TD*%
D14*
%TO.P,J5,MH1*%
%TO.N,N/C*%
X174972212Y-94095000D03*
%TO.P,J5,MH2*%
X174972212Y-98945000D03*
D15*
%TO.P,J5,MH3*%
X172302212Y-92920000D03*
%TO.P,J5,MH4*%
X172302212Y-100120000D03*
%TD*%
D12*
%TO.P,J1,1,Pin_1*%
%TO.N,+3V0*%
X180340000Y-66040000D03*
D13*
%TO.P,J1,2,Pin_2*%
%TO.N,GND*%
X177800000Y-66040000D03*
%TO.P,J1,3,Pin_3*%
%TO.N,/VBAT*%
X175260000Y-66040000D03*
%TO.P,J1,4,Pin_4*%
%TO.N,/PC13*%
X172720000Y-66040000D03*
%TO.P,J1,5,Pin_5*%
%TO.N,/PC14*%
X170180000Y-66040000D03*
%TO.P,J1,6,Pin_6*%
%TO.N,/PC15*%
X167640000Y-66040000D03*
%TO.P,J1,7,Pin_7*%
%TO.N,/PF0*%
X165100000Y-66040000D03*
%TO.P,J1,8,Pin_8*%
%TO.N,/PF1*%
X162560000Y-66040000D03*
%TO.P,J1,9,Pin_9*%
%TO.N,GND*%
X160020000Y-66040000D03*
%TO.P,J1,10,Pin_10*%
%TO.N,/NRST*%
X157480000Y-66040000D03*
%TO.P,J1,11,Pin_11*%
%TO.N,/PC0*%
X154940000Y-66040000D03*
%TO.P,J1,12,Pin_12*%
%TO.N,/PC1*%
X152400000Y-66040000D03*
%TO.P,J1,13,Pin_13*%
%TO.N,/PC2*%
X149860000Y-66040000D03*
%TO.P,J1,14,Pin_14*%
%TO.N,/PC3*%
X147320000Y-66040000D03*
%TO.P,J1,15,Pin_15*%
%TO.N,/PA0*%
X144780000Y-66040000D03*
%TO.P,J1,16,Pin_16*%
%TO.N,/PA1*%
X142240000Y-66040000D03*
%TO.P,J1,17,Pin_17*%
%TO.N,/PA2*%
X139700000Y-66040000D03*
%TO.P,J1,18,Pin_18*%
%TO.N,/PA3*%
X137160000Y-66040000D03*
%TO.P,J1,19,Pin_19*%
%TO.N,/PF4*%
X134620000Y-66040000D03*
%TO.P,J1,20,Pin_20*%
%TO.N,/PF5*%
X132080000Y-66040000D03*
%TO.P,J1,21,Pin_21*%
%TO.N,/PA4*%
X129540000Y-66040000D03*
%TO.P,J1,22,Pin_22*%
%TO.N,/PA5*%
X127000000Y-66040000D03*
%TO.P,J1,23,Pin_23*%
%TO.N,/PA6*%
X124460000Y-66040000D03*
%TO.P,J1,24,Pin_24*%
%TO.N,/PA7*%
X121920000Y-66040000D03*
%TO.P,J1,25,Pin_25*%
%TO.N,/PC4*%
X119380000Y-66040000D03*
%TO.P,J1,26,Pin_26*%
%TO.N,/PC5*%
X116840000Y-66040000D03*
%TO.P,J1,27,Pin_27*%
%TO.N,/PB0*%
X114300000Y-66040000D03*
%TO.P,J1,28,Pin_28*%
%TO.N,/PB1*%
X111760000Y-66040000D03*
%TO.P,J1,29,Pin_29*%
%TO.N,/PB2*%
X109220000Y-66040000D03*
%TO.P,J1,30,Pin_30*%
%TO.N,/PB10*%
X106680000Y-66040000D03*
%TO.P,J1,31,Pin_31*%
%TO.N,/PB11*%
X104140000Y-66040000D03*
%TO.P,J1,32,Pin_32*%
%TO.N,/PB12*%
X101600000Y-66040000D03*
%TO.P,J1,33,Pin_33*%
%TO.N,GND*%
X99060000Y-66040000D03*
%TD*%
D12*
%TO.P,J4,1,Pin_1*%
%TO.N,+5V*%
X180340000Y-127000000D03*
D13*
%TO.P,J4,2,Pin_2*%
%TO.N,GND*%
X177800000Y-127000000D03*
%TO.P,J4,3,Pin_3*%
%TO.N,/PB9*%
X175260000Y-127000000D03*
%TO.P,J4,4,Pin_4*%
%TO.N,/PB8*%
X172720000Y-127000000D03*
%TO.P,J4,5,Pin_5*%
%TO.N,VDD*%
X170180000Y-127000000D03*
%TO.P,J4,6,Pin_6*%
%TO.N,/BOOT*%
X167640000Y-127000000D03*
%TO.P,J4,7,Pin_7*%
%TO.N,/PB7*%
X165100000Y-127000000D03*
%TO.P,J4,8,Pin_8*%
%TO.N,/PB6*%
X162560000Y-127000000D03*
%TO.P,J4,9,Pin_9*%
%TO.N,/PB5*%
X160020000Y-127000000D03*
%TO.P,J4,10,Pin_10*%
%TO.N,/PB4*%
X157480000Y-127000000D03*
%TO.P,J4,11,Pin_11*%
%TO.N,/PB3*%
X154940000Y-127000000D03*
%TO.P,J4,12,Pin_12*%
%TO.N,/PD2*%
X152400000Y-127000000D03*
%TO.P,J4,13,Pin_13*%
%TO.N,/PC12*%
X149860000Y-127000000D03*
%TO.P,J4,14,Pin_14*%
%TO.N,/PC11*%
X147320000Y-127000000D03*
%TO.P,J4,15,Pin_15*%
%TO.N,/PC10*%
X144780000Y-127000000D03*
%TO.P,J4,16,Pin_16*%
%TO.N,/PA15*%
X142240000Y-127000000D03*
%TO.P,J4,17,Pin_17*%
%TO.N,/PA14*%
X139700000Y-127000000D03*
%TO.P,J4,18,Pin_18*%
%TO.N,/PF7*%
X137160000Y-127000000D03*
%TO.P,J4,19,Pin_19*%
%TO.N,/PF6*%
X134620000Y-127000000D03*
%TO.P,J4,20,Pin_20*%
%TO.N,/PA13*%
X132080000Y-127000000D03*
%TO.P,J4,21,Pin_21*%
%TO.N,/PA12*%
X129540000Y-127000000D03*
%TO.P,J4,22,Pin_22*%
%TO.N,/PA11*%
X127000000Y-127000000D03*
%TO.P,J4,23,Pin_23*%
%TO.N,/PA10*%
X124460000Y-127000000D03*
%TO.P,J4,24,Pin_24*%
%TO.N,/PA9*%
X121920000Y-127000000D03*
%TO.P,J4,25,Pin_25*%
%TO.N,/PA8*%
X119380000Y-127000000D03*
%TO.P,J4,26,Pin_26*%
%TO.N,/PC9*%
X116840000Y-127000000D03*
%TO.P,J4,27,Pin_27*%
%TO.N,/PC8*%
X114300000Y-127000000D03*
%TO.P,J4,28,Pin_28*%
%TO.N,/PC7*%
X111760000Y-127000000D03*
%TO.P,J4,29,Pin_29*%
%TO.N,/PC6*%
X109220000Y-127000000D03*
%TO.P,J4,30,Pin_30*%
%TO.N,/PB15*%
X106680000Y-127000000D03*
%TO.P,J4,31,Pin_31*%
%TO.N,/PB14*%
X104140000Y-127000000D03*
%TO.P,J4,32,Pin_32*%
%TO.N,/PB13*%
X101600000Y-127000000D03*
%TO.P,J4,33,Pin_33*%
%TO.N,GND*%
X99060000Y-127000000D03*
%TD*%
%TO.P,J3,33,Pin_33*%
%TO.N,GND*%
X99060000Y-116840000D03*
%TO.P,J3,32,Pin_32*%
%TO.N,/PB13*%
X101600000Y-116840000D03*
%TO.P,J3,31,Pin_31*%
%TO.N,/PB14*%
X104140000Y-116840000D03*
%TO.P,J3,30,Pin_30*%
%TO.N,/PB15*%
X106680000Y-116840000D03*
%TO.P,J3,29,Pin_29*%
%TO.N,/PC6*%
X109220000Y-116840000D03*
%TO.P,J3,28,Pin_28*%
%TO.N,/PC7*%
X111760000Y-116840000D03*
%TO.P,J3,27,Pin_27*%
%TO.N,/PC8*%
X114300000Y-116840000D03*
%TO.P,J3,26,Pin_26*%
%TO.N,/PC9*%
X116840000Y-116840000D03*
%TO.P,J3,25,Pin_25*%
%TO.N,/PA8*%
X119380000Y-116840000D03*
%TO.P,J3,24,Pin_24*%
%TO.N,/PA9*%
X121920000Y-116840000D03*
%TO.P,J3,23,Pin_23*%
%TO.N,/PA10*%
X124460000Y-116840000D03*
%TO.P,J3,22,Pin_22*%
%TO.N,/PA11*%
X127000000Y-116840000D03*
%TO.P,J3,21,Pin_21*%
%TO.N,/PA12*%
X129540000Y-116840000D03*
%TO.P,J3,20,Pin_20*%
%TO.N,/PA13*%
X132080000Y-116840000D03*
%TO.P,J3,19,Pin_19*%
%TO.N,/PF6*%
X134620000Y-116840000D03*
%TO.P,J3,18,Pin_18*%
%TO.N,/PF7*%
X137160000Y-116840000D03*
%TO.P,J3,17,Pin_17*%
%TO.N,/PA14*%
X139700000Y-116840000D03*
%TO.P,J3,16,Pin_16*%
%TO.N,/PA15*%
X142240000Y-116840000D03*
%TO.P,J3,15,Pin_15*%
%TO.N,/PC10*%
X144780000Y-116840000D03*
%TO.P,J3,14,Pin_14*%
%TO.N,/PC11*%
X147320000Y-116840000D03*
%TO.P,J3,13,Pin_13*%
%TO.N,/PC12*%
X149860000Y-116840000D03*
%TO.P,J3,12,Pin_12*%
%TO.N,/PD2*%
X152400000Y-116840000D03*
%TO.P,J3,11,Pin_11*%
%TO.N,/PB3*%
X154940000Y-116840000D03*
%TO.P,J3,10,Pin_10*%
%TO.N,/PB4*%
X157480000Y-116840000D03*
%TO.P,J3,9,Pin_9*%
%TO.N,/PB5*%
X160020000Y-116840000D03*
%TO.P,J3,8,Pin_8*%
%TO.N,/PB6*%
X162560000Y-116840000D03*
%TO.P,J3,7,Pin_7*%
%TO.N,/PB7*%
X165100000Y-116840000D03*
%TO.P,J3,6,Pin_6*%
%TO.N,/BOOT*%
X167640000Y-116840000D03*
%TO.P,J3,5,Pin_5*%
%TO.N,VDD*%
X170180000Y-116840000D03*
%TO.P,J3,4,Pin_4*%
%TO.N,/PB8*%
X172720000Y-116840000D03*
%TO.P,J3,3,Pin_3*%
%TO.N,/PB9*%
X175260000Y-116840000D03*
%TO.P,J3,2,Pin_2*%
%TO.N,GND*%
X177800000Y-116840000D03*
D12*
%TO.P,J3,1,Pin_1*%
%TO.N,+5V*%
X180340000Y-116840000D03*
%TD*%
D16*
%TO.P,U3,1,GND*%
%TO.N,GND*%
X139700000Y-106680000D03*
D17*
%TO.P,U3,2,VI*%
%TO.N,Net-(C7-Pad1)*%
X139700000Y-107950000D03*
%TO.P,U3,3,VO*%
%TO.N,+3v3*%
X139700000Y-109220000D03*
%TD*%
D18*
%TO.N,+5V*%
X116840000Y-96520000D03*
X114300000Y-96005498D03*
%TO.N,GND*%
X121920000Y-96520000D03*
%TO.N,Net-(D3-Pad2)*%
X158720000Y-81280000D03*
X157480000Y-83820000D03*
X157480000Y-83079011D03*
X114300000Y-106680000D03*
%TO.N,GND*%
X154940000Y-83079011D03*
X121920000Y-90715500D03*
X102377329Y-84067270D03*
X101600000Y-78015500D03*
X114300000Y-83820000D03*
X114300000Y-78015500D03*
%TO.N,VCC*%
X172852223Y-102550989D03*
X168549650Y-93270046D03*
X165100000Y-88900000D03*
%TO.N,GND*%
X175260000Y-109220000D03*
X182880000Y-97344502D03*
X180340000Y-104140000D03*
%TO.N,VCC*%
X170412165Y-111491559D03*
X170904500Y-109944500D03*
X170904500Y-109944500D03*
X172720000Y-109944500D03*
X171179503Y-104140000D03*
%TO.N,Net-(C2-Pad2)*%
X114300000Y-109220000D03*
X117352299Y-112272299D03*
X160020000Y-111760000D03*
X167640000Y-111760000D03*
%TO.N,/PB7*%
X165100000Y-121920000D03*
X166051794Y-118428206D03*
%TO.N,/BOOT*%
X167640000Y-121920000D03*
X168591794Y-118428206D03*
%TO.N,VDD*%
X170180000Y-121920000D03*
X170180000Y-118655500D03*
%TO.N,/PB8*%
X172720000Y-121920000D03*
X172720000Y-118655500D03*
%TO.N,/PB9*%
X175260000Y-121920000D03*
X175260000Y-118655500D03*
%TO.N,GND*%
X177287701Y-118655500D03*
X170180000Y-102550989D03*
X170180000Y-104140000D03*
X144858029Y-97700500D03*
%TO.N,Vout1*%
X140320288Y-93359712D03*
%TO.N,GND*%
X139700000Y-104140000D03*
X134415690Y-104344310D03*
X127000000Y-101600000D03*
X127000000Y-98539810D03*
%TO.N,USART1_TX*%
X167640000Y-114300000D03*
X165100000Y-114300000D03*
%TO.N,GND*%
X129540000Y-93980000D03*
X129540000Y-91440000D03*
X127376200Y-90715500D03*
X123750498Y-92614020D03*
X178312299Y-119892299D03*
%TO.N,Net-(C12-Pad2)*%
X133906848Y-84946447D03*
X137160000Y-86360000D03*
%TO.N,Vout1*%
X129335690Y-99264310D03*
%TO.N,Net-(C11-Pad2)*%
X142240000Y-83820000D03*
X132080000Y-81280000D03*
%TO.N,+3v3*%
X147320000Y-104140000D03*
X144055500Y-104140000D03*
%TO.N,Vout1*%
X126940498Y-83820000D03*
%TO.N,+3v3*%
X121920000Y-93980000D03*
X122919503Y-83820000D03*
%TO.N,VCC*%
X119380000Y-93980000D03*
X121376279Y-99540878D03*
%TO.N,Net-(R1-Pad1)*%
X129540000Y-96520000D03*
X133251811Y-95348190D03*
%TO.N,/Power/D-*%
X177800000Y-93987788D03*
X180332212Y-91370989D03*
%TO.N,IN1-*%
X127000000Y-86360000D03*
X124260498Y-86360000D03*
%TO.N,Vout1*%
X130340000Y-86360000D03*
X128660498Y-88999989D03*
%TO.N,Vout2*%
X132080000Y-88900000D03*
X135240288Y-88279712D03*
%TO.N,Vdiff*%
X139700000Y-91440000D03*
X136755690Y-91844310D03*
X139700000Y-91440000D03*
%TO.N,Vout2*%
X121920000Y-86360000D03*
X121920000Y-83820000D03*
%TD*%
D19*
%TO.N,+5V*%
X114814502Y-96520000D02*
X116840000Y-96520000D01*
X114300000Y-96005498D02*
X114814502Y-96520000D01*
%TO.N,GND*%
X121920000Y-96520000D02*
X121920000Y-95004614D01*
X121920000Y-95004614D02*
X122220103Y-94704511D01*
%TO.N,Net-(D3-Pad2)*%
X157480000Y-82520000D02*
X158720000Y-81280000D01*
X157480000Y-83079011D02*
X157480000Y-82520000D01*
X157480000Y-88900000D02*
X157480000Y-83820000D01*
X140549511Y-105830489D02*
X157480000Y-88900000D01*
X115149511Y-105830489D02*
X140549511Y-105830489D01*
X114300000Y-106680000D02*
X115149511Y-105830489D01*
%TO.N,GND*%
X160020000Y-77999011D02*
X160020000Y-76200000D01*
X154940000Y-83079011D02*
X160020000Y-77999011D01*
X102377329Y-84067270D02*
X111512730Y-84067270D01*
X114300000Y-81280000D02*
X114300000Y-83820000D01*
X111512730Y-84067270D02*
X114300000Y-81280000D01*
X114300000Y-78015500D02*
X114300000Y-81280000D01*
X123750498Y-93174116D02*
X123750498Y-92614020D01*
X122220103Y-94704511D02*
X123750498Y-93174116D01*
X121619897Y-94704511D02*
X122220103Y-94704511D01*
X121195489Y-94280103D02*
X121619897Y-94704511D01*
X121920000Y-90715500D02*
X121195489Y-91440011D01*
X121195489Y-91440011D02*
X121195489Y-94280103D01*
X101600000Y-78015500D02*
X101600000Y-83289941D01*
X101600000Y-83289941D02*
X102377329Y-84067270D01*
%TO.N,VCC*%
X171179503Y-104140000D02*
X172720000Y-105680497D01*
X168549650Y-92349650D02*
X168549650Y-93270046D01*
X165100000Y-88900000D02*
X168549650Y-92349650D01*
%TO.N,GND*%
X177800000Y-111760000D02*
X177800000Y-116840000D01*
X175260000Y-109220000D02*
X177800000Y-111760000D01*
X180340000Y-99884502D02*
X180340000Y-104140000D01*
X182880000Y-97344502D02*
X180340000Y-99884502D01*
%TO.N,VCC*%
X170904500Y-110999224D02*
X170412165Y-111491559D01*
X170904500Y-109944500D02*
X170904500Y-110999224D01*
X172720000Y-105680497D02*
X172720000Y-109944500D01*
%TO.N,Net-(C2-Pad2)*%
X117352299Y-112272299D02*
X114300000Y-109220000D01*
X167640000Y-111760000D02*
X160020000Y-111760000D01*
%TO.N,/PB7*%
X165100000Y-119380000D02*
X165100000Y-121920000D01*
X166051794Y-118428206D02*
X165100000Y-119380000D01*
%TO.N,/BOOT*%
X167640000Y-119380000D02*
X167640000Y-121920000D01*
X168591794Y-118428206D02*
X167640000Y-119380000D01*
%TO.N,VDD*%
X170180000Y-118655500D02*
X170180000Y-121920000D01*
%TO.N,/PB8*%
X172720000Y-118655500D02*
X172720000Y-121920000D01*
%TO.N,/PB9*%
X175260000Y-118655500D02*
X175260000Y-121920000D01*
%TO.N,GND*%
X177287701Y-118655500D02*
X177800000Y-119167799D01*
X177800000Y-119167799D02*
X177800000Y-127000000D01*
X170180000Y-102550989D02*
X170180000Y-104140000D01*
X144858029Y-97700500D02*
X139700000Y-102858529D01*
X139700000Y-102858529D02*
X139700000Y-104140000D01*
%TO.N,Vout1*%
X134620000Y-93980000D02*
X134620000Y-93200487D01*
X134620000Y-95004615D02*
X134620000Y-93980000D01*
X140320288Y-93359712D02*
X139700000Y-93980000D01*
X139700000Y-93980000D02*
X134620000Y-93980000D01*
%TO.N,GND*%
X134620000Y-104140000D02*
X139700000Y-104140000D01*
X134415690Y-104344310D02*
X134620000Y-104140000D01*
X127000000Y-98539810D02*
X127000000Y-101600000D01*
%TO.N,USART1_TX*%
X165100000Y-114300000D02*
X167640000Y-114300000D01*
%TO.N,GND*%
X129540000Y-91440000D02*
X129540000Y-93980000D01*
X125649018Y-90715500D02*
X127376200Y-90715500D01*
X123750498Y-92614020D02*
X125649018Y-90715500D01*
X177800000Y-119380000D02*
X177800000Y-116840000D01*
X178312299Y-119892299D02*
X177800000Y-119380000D01*
%TO.N,Net-(C12-Pad2)*%
X135320401Y-86360000D02*
X137160000Y-86360000D01*
X133906848Y-84946447D02*
X135320401Y-86360000D01*
%TO.N,Vout1*%
X134620000Y-93200487D02*
X129540000Y-88120487D01*
X130360305Y-99264310D02*
X134620000Y-95004615D01*
X129335690Y-99264310D02*
X130360305Y-99264310D01*
%TO.N,Net-(C11-Pad2)*%
X139700000Y-81280000D02*
X142240000Y-83820000D01*
X132080000Y-81280000D02*
X139700000Y-81280000D01*
%TO.N,+3v3*%
X144055500Y-104140000D02*
X147320000Y-104140000D01*
%TO.N,Vout1*%
X127000000Y-83820000D02*
X129540000Y-86360000D01*
X126940498Y-83820000D02*
X127000000Y-83820000D01*
%TO.N,+3v3*%
X122919503Y-92980497D02*
X121920000Y-93980000D01*
X122919503Y-83820000D02*
X122919503Y-92980497D01*
%TO.N,VCC*%
X119380000Y-97544599D02*
X119380000Y-93980000D01*
X121376279Y-99540878D02*
X119380000Y-97544599D01*
%TO.N,Net-(R1-Pad1)*%
X133251811Y-95348190D02*
X132080001Y-96520000D01*
X132080001Y-96520000D02*
X129540000Y-96520000D01*
D20*
%TO.N,/Power/D-*%
X180324424Y-93987788D02*
X177800000Y-93987788D01*
X180332212Y-93980000D02*
X180324424Y-93987788D01*
X180332212Y-91370989D02*
X180332212Y-93980000D01*
%TO.N,IN1-*%
X127000000Y-86360000D02*
X124260498Y-86360000D01*
D19*
%TO.N,Vout1*%
X129540000Y-86360000D02*
X130340000Y-86360000D01*
X129540000Y-88120487D02*
X129540000Y-86360000D01*
X128660498Y-88999989D02*
X129540000Y-88120487D01*
%TO.N,Vout2*%
X135240288Y-88279712D02*
X134620000Y-88900000D01*
X134620000Y-88900000D02*
X132080000Y-88900000D01*
%TO.N,Vdiff*%
X137160000Y-91440000D02*
X139700000Y-91440000D01*
X136755690Y-91844310D02*
X137160000Y-91440000D01*
%TO.N,Vout2*%
X121920000Y-83820000D02*
X121920000Y-86360000D01*
%TD*%
M02*
