%TF.GenerationSoftware,KiCad,Pcbnew,(6.0.1)*%
%TF.CreationDate,2022-03-23T10:27:18+02:00*%
%TF.ProjectId,main,6d61696e-2e6b-4696-9361-645f70636258,rev?*%
%TF.SameCoordinates,Original*%
%TF.FileFunction,Copper,L2,Bot*%
%TF.FilePolarity,Positive*%
%FSLAX46Y46*%
G04 Gerber Fmt 4.6, Leading zero omitted, Abs format (unit mm)*
G04 Created by KiCad (PCBNEW (6.0.1)) date 2022-03-23 10:27:18*
%MOMM*%
%LPD*%
G01*
G04 APERTURE LIST*
%TA.AperFunction,ComponentPad*%
%ADD10R,1.920000X1.920000*%
%TD*%
%TA.AperFunction,ComponentPad*%
%ADD11C,1.920000*%
%TD*%
%TA.AperFunction,ComponentPad*%
%ADD12R,1.700000X1.700000*%
%TD*%
%TA.AperFunction,ComponentPad*%
%ADD13O,1.700000X1.700000*%
%TD*%
%TA.AperFunction,ComponentPad*%
%ADD14C,1.300000*%
%TD*%
%TA.AperFunction,ComponentPad*%
%ADD15C,1.900000*%
%TD*%
%TA.AperFunction,ComponentPad*%
%ADD16R,1.500000X1.050000*%
%TD*%
%TA.AperFunction,ComponentPad*%
%ADD17O,1.500000X1.050000*%
%TD*%
%TA.AperFunction,ViaPad*%
%ADD18C,0.800000*%
%TD*%
%TA.AperFunction,Conductor*%
%ADD19C,0.250000*%
%TD*%
%TA.AperFunction,Conductor*%
%ADD20C,0.200000*%
%TD*%
G04 APERTURE END LIST*
D10*
%TO.P,Q1,1,D*%
%TO.N,Net-(D2-Pad1)*%
X170180000Y-83820000D03*
D11*
%TO.P,Q1,2,S*%
%TO.N,Net-(BT1-Pad1)*%
X172720000Y-83820000D03*
%TO.P,Q1,3,G*%
%TO.N,+5V*%
X175260000Y-83820000D03*
%TD*%
D12*
%TO.P,J2,1,Pin_1*%
%TO.N,+3V0*%
X180340000Y-76200000D03*
D13*
%TO.P,J2,2,Pin_2*%
%TO.N,GND*%
X177800000Y-76200000D03*
%TO.P,J2,3,Pin_3*%
%TO.N,/VBAT*%
X175260000Y-76200000D03*
%TO.P,J2,4,Pin_4*%
%TO.N,/PC13*%
X172720000Y-76200000D03*
%TO.P,J2,5,Pin_5*%
%TO.N,/PC14*%
X170180000Y-76200000D03*
%TO.P,J2,6,Pin_6*%
%TO.N,/PC15*%
X167640000Y-76200000D03*
%TO.P,J2,7,Pin_7*%
%TO.N,/PF0*%
X165100000Y-76200000D03*
%TO.P,J2,8,Pin_8*%
%TO.N,/PF1*%
X162560000Y-76200000D03*
%TO.P,J2,9,Pin_9*%
%TO.N,GND*%
X160020000Y-76200000D03*
%TO.P,J2,10,Pin_10*%
%TO.N,/NRST*%
X157480000Y-76200000D03*
%TO.P,J2,11,Pin_11*%
%TO.N,/PC0*%
X154940000Y-76200000D03*
%TO.P,J2,12,Pin_12*%
%TO.N,/PC1*%
X152400000Y-76200000D03*
%TO.P,J2,13,Pin_13*%
%TO.N,/PC2*%
X149860000Y-76200000D03*
%TO.P,J2,14,Pin_14*%
%TO.N,/PC3*%
X147320000Y-76200000D03*
%TO.P,J2,15,Pin_15*%
%TO.N,/PA0*%
X144780000Y-76200000D03*
%TO.P,J2,16,Pin_16*%
%TO.N,/PA1*%
X142240000Y-76200000D03*
%TO.P,J2,17,Pin_17*%
%TO.N,/PA2*%
X139700000Y-76200000D03*
%TO.P,J2,18,Pin_18*%
%TO.N,/PA3*%
X137160000Y-76200000D03*
%TO.P,J2,19,Pin_19*%
%TO.N,/PF4*%
X134620000Y-76200000D03*
%TO.P,J2,20,Pin_20*%
%TO.N,/PF5*%
X132080000Y-76200000D03*
%TO.P,J2,21,Pin_21*%
%TO.N,/PA4*%
X129540000Y-76200000D03*
%TO.P,J2,22,Pin_22*%
%TO.N,/PA5*%
X127000000Y-76200000D03*
%TO.P,J2,23,Pin_23*%
%TO.N,/PA6*%
X124460000Y-76200000D03*
%TO.P,J2,24,Pin_24*%
%TO.N,/PA7*%
X121920000Y-76200000D03*
%TO.P,J2,25,Pin_25*%
%TO.N,/PC4*%
X119380000Y-76200000D03*
%TO.P,J2,26,Pin_26*%
%TO.N,/PC5*%
X116840000Y-76200000D03*
%TO.P,J2,27,Pin_27*%
%TO.N,/PB0*%
X114300000Y-76200000D03*
%TO.P,J2,28,Pin_28*%
%TO.N,/PB1*%
X111760000Y-76200000D03*
%TO.P,J2,29,Pin_29*%
%TO.N,/PB2*%
X109220000Y-76200000D03*
%TO.P,J2,30,Pin_30*%
%TO.N,/PB10*%
X106680000Y-76200000D03*
%TO.P,J2,31,Pin_31*%
%TO.N,/PB11*%
X104140000Y-76200000D03*
%TO.P,J2,32,Pin_32*%
%TO.N,/PB12*%
X101600000Y-76200000D03*
%TO.P,J2,33,Pin_33*%
%TO.N,GND*%
X99060000Y-76200000D03*
%TD*%
D14*
%TO.P,J5,MH1*%
%TO.N,N/C*%
X174972212Y-94095000D03*
%TO.P,J5,MH2*%
X174972212Y-98945000D03*
D15*
%TO.P,J5,MH3*%
X172302212Y-92920000D03*
%TO.P,J5,MH4*%
X172302212Y-100120000D03*
%TD*%
D12*
%TO.P,J1,1,Pin_1*%
%TO.N,+3V0*%
X180340000Y-66040000D03*
D13*
%TO.P,J1,2,Pin_2*%
%TO.N,GND*%
X177800000Y-66040000D03*
%TO.P,J1,3,Pin_3*%
%TO.N,/VBAT*%
X175260000Y-66040000D03*
%TO.P,J1,4,Pin_4*%
%TO.N,/PC13*%
X172720000Y-66040000D03*
%TO.P,J1,5,Pin_5*%
%TO.N,/PC14*%
X170180000Y-66040000D03*
%TO.P,J1,6,Pin_6*%
%TO.N,/PC15*%
X167640000Y-66040000D03*
%TO.P,J1,7,Pin_7*%
%TO.N,/PF0*%
X165100000Y-66040000D03*
%TO.P,J1,8,Pin_8*%
%TO.N,/PF1*%
X162560000Y-66040000D03*
%TO.P,J1,9,Pin_9*%
%TO.N,GND*%
X160020000Y-66040000D03*
%TO.P,J1,10,Pin_10*%
%TO.N,/NRST*%
X157480000Y-66040000D03*
%TO.P,J1,11,Pin_11*%
%TO.N,/PC0*%
X154940000Y-66040000D03*
%TO.P,J1,12,Pin_12*%
%TO.N,/PC1*%
X152400000Y-66040000D03*
%TO.P,J1,13,Pin_13*%
%TO.N,/PC2*%
X149860000Y-66040000D03*
%TO.P,J1,14,Pin_14*%
%TO.N,/PC3*%
X147320000Y-66040000D03*
%TO.P,J1,15,Pin_15*%
%TO.N,/PA0*%
X144780000Y-66040000D03*
%TO.P,J1,16,Pin_16*%
%TO.N,/PA1*%
X142240000Y-66040000D03*
%TO.P,J1,17,Pin_17*%
%TO.N,/PA2*%
X139700000Y-66040000D03*
%TO.P,J1,18,Pin_18*%
%TO.N,/PA3*%
X137160000Y-66040000D03*
%TO.P,J1,19,Pin_19*%
%TO.N,/PF4*%
X134620000Y-66040000D03*
%TO.P,J1,20,Pin_20*%
%TO.N,/PF5*%
X132080000Y-66040000D03*
%TO.P,J1,21,Pin_21*%
%TO.N,/PA4*%
X129540000Y-66040000D03*
%TO.P,J1,22,Pin_22*%
%TO.N,/PA5*%
X127000000Y-66040000D03*
%TO.P,J1,23,Pin_23*%
%TO.N,/PA6*%
X124460000Y-66040000D03*
%TO.P,J1,24,Pin_24*%
%TO.N,/PA7*%
X121920000Y-66040000D03*
%TO.P,J1,25,Pin_25*%
%TO.N,/PC4*%
X119380000Y-66040000D03*
%TO.P,J1,26,Pin_26*%
%TO.N,/PC5*%
X116840000Y-66040000D03*
%TO.P,J1,27,Pin_27*%
%TO.N,/PB0*%
X114300000Y-66040000D03*
%TO.P,J1,28,Pin_28*%
%TO.N,/PB1*%
X111760000Y-66040000D03*
%TO.P,J1,29,Pin_29*%
%TO.N,/PB2*%
X109220000Y-66040000D03*
%TO.P,J1,30,Pin_30*%
%TO.N,/PB10*%
X106680000Y-66040000D03*
%TO.P,J1,31,Pin_31*%
%TO.N,/PB11*%
X104140000Y-66040000D03*
%TO.P,J1,32,Pin_32*%
%TO.N,/PB12*%
X101600000Y-66040000D03*
%TO.P,J1,33,Pin_33*%
%TO.N,GND*%
X99060000Y-66040000D03*
%TD*%
D12*
%TO.P,J4,1,Pin_1*%
%TO.N,+5V*%
X180340000Y-127000000D03*
D13*
%TO.P,J4,2,Pin_2*%
%TO.N,GND*%
X177800000Y-127000000D03*
%TO.P,J4,3,Pin_3*%
%TO.N,/PB9*%
X175260000Y-127000000D03*
%TO.P,J4,4,Pin_4*%
%TO.N,/PB8*%
X172720000Y-127000000D03*
%TO.P,J4,5,Pin_5*%
%TO.N,VDD*%
X170180000Y-127000000D03*
%TO.P,J4,6,Pin_6*%
%TO.N,/BOOT*%
X167640000Y-127000000D03*
%TO.P,J4,7,Pin_7*%
%TO.N,/PB7*%
X165100000Y-127000000D03*
%TO.P,J4,8,Pin_8*%
%TO.N,/PB6*%
X162560000Y-127000000D03*
%TO.P,J4,9,Pin_9*%
%TO.N,/PB5*%
X160020000Y-127000000D03*
%TO.P,J4,10,Pin_10*%
%TO.N,/PB4*%
X157480000Y-127000000D03*
%TO.P,J4,11,Pin_11*%
%TO.N,/PB3*%
X154940000Y-127000000D03*
%TO.P,J4,12,Pin_12*%
%TO.N,/PD2*%
X152400000Y-127000000D03*
%TO.P,J4,13,Pin_13*%
%TO.N,/PC12*%
X149860000Y-127000000D03*
%TO.P,J4,14,Pin_14*%
%TO.N,/PC11*%
X147320000Y-127000000D03*
%TO.P,J4,15,Pin_15*%
%TO.N,/PC10*%
X144780000Y-127000000D03*
%TO.P,J4,16,Pin_16*%
%TO.N,/PA15*%
X142240000Y-127000000D03*
%TO.P,J4,17,Pin_17*%
%TO.N,/PA14*%
X139700000Y-127000000D03*
%TO.P,J4,18,Pin_18*%
%TO.N,/PF7*%
X137160000Y-127000000D03*
%TO.P,J4,19,Pin_19*%
%TO.N,/PF6*%
X134620000Y-127000000D03*
%TO.P,J4,20,Pin_20*%
%TO.N,/PA13*%
X132080000Y-127000000D03*
%TO.P,J4,21,Pin_21*%
%TO.N,/PA12*%
X129540000Y-127000000D03*
%TO.P,J4,22,Pin_22*%
%TO.N,/PA11*%
X127000000Y-127000000D03*
%TO.P,J4,23,Pin_23*%
%TO.N,/PA10*%
X124460000Y-127000000D03*
%TO.P,J4,24,Pin_24*%
%TO.N,/PA9*%
X121920000Y-127000000D03*
%TO.P,J4,25,Pin_25*%
%TO.N,/PA8*%
X119380000Y-127000000D03*
%TO.P,J4,26,Pin_26*%
%TO.N,/PC9*%
X116840000Y-127000000D03*
%TO.P,J4,27,Pin_27*%
%TO.N,/PC8*%
X114300000Y-127000000D03*
%TO.P,J4,28,Pin_28*%
%TO.N,/PC7*%
X111760000Y-127000000D03*
%TO.P,J4,29,Pin_29*%
%TO.N,/PC6*%
X109220000Y-127000000D03*
%TO.P,J4,30,Pin_30*%
%TO.N,/PB15*%
X106680000Y-127000000D03*
%TO.P,J4,31,Pin_31*%
%TO.N,/PB14*%
X104140000Y-127000000D03*
%TO.P,J4,32,Pin_32*%
%TO.N,/PB13*%
X101600000Y-127000000D03*
%TO.P,J4,33,Pin_33*%
%TO.N,GND*%
X99060000Y-127000000D03*
%TD*%
D12*
%TO.P,J3,1,Pin_1*%
%TO.N,+5V*%
X180340000Y-116840000D03*
D13*
%TO.P,J3,2,Pin_2*%
%TO.N,GND*%
X177800000Y-116840000D03*
%TO.P,J3,3,Pin_3*%
%TO.N,/PB9*%
X175260000Y-116840000D03*
%TO.P,J3,4,Pin_4*%
%TO.N,/PB8*%
X172720000Y-116840000D03*
%TO.P,J3,5,Pin_5*%
%TO.N,VDD*%
X170180000Y-116840000D03*
%TO.P,J3,6,Pin_6*%
%TO.N,/BOOT*%
X167640000Y-116840000D03*
%TO.P,J3,7,Pin_7*%
%TO.N,/PB7*%
X165100000Y-116840000D03*
%TO.P,J3,8,Pin_8*%
%TO.N,/PB6*%
X162560000Y-116840000D03*
%TO.P,J3,9,Pin_9*%
%TO.N,/PB5*%
X160020000Y-116840000D03*
%TO.P,J3,10,Pin_10*%
%TO.N,/PB4*%
X157480000Y-116840000D03*
%TO.P,J3,11,Pin_11*%
%TO.N,/PB3*%
X154940000Y-116840000D03*
%TO.P,J3,12,Pin_12*%
%TO.N,/PD2*%
X152400000Y-116840000D03*
%TO.P,J3,13,Pin_13*%
%TO.N,/PC12*%
X149860000Y-116840000D03*
%TO.P,J3,14,Pin_14*%
%TO.N,/PC11*%
X147320000Y-116840000D03*
%TO.P,J3,15,Pin_15*%
%TO.N,/PC10*%
X144780000Y-116840000D03*
%TO.P,J3,16,Pin_16*%
%TO.N,/PA15*%
X142240000Y-116840000D03*
%TO.P,J3,17,Pin_17*%
%TO.N,/PA14*%
X139700000Y-116840000D03*
%TO.P,J3,18,Pin_18*%
%TO.N,/PF7*%
X137160000Y-116840000D03*
%TO.P,J3,19,Pin_19*%
%TO.N,/PF6*%
X134620000Y-116840000D03*
%TO.P,J3,20,Pin_20*%
%TO.N,/PA13*%
X132080000Y-116840000D03*
%TO.P,J3,21,Pin_21*%
%TO.N,/PA12*%
X129540000Y-116840000D03*
%TO.P,J3,22,Pin_22*%
%TO.N,/PA11*%
X127000000Y-116840000D03*
%TO.P,J3,23,Pin_23*%
%TO.N,/PA10*%
X124460000Y-116840000D03*
%TO.P,J3,24,Pin_24*%
%TO.N,/PA9*%
X121920000Y-116840000D03*
%TO.P,J3,25,Pin_25*%
%TO.N,/PA8*%
X119380000Y-116840000D03*
%TO.P,J3,26,Pin_26*%
%TO.N,/PC9*%
X116840000Y-116840000D03*
%TO.P,J3,27,Pin_27*%
%TO.N,/PC8*%
X114300000Y-116840000D03*
%TO.P,J3,28,Pin_28*%
%TO.N,/PC7*%
X111760000Y-116840000D03*
%TO.P,J3,29,Pin_29*%
%TO.N,/PC6*%
X109220000Y-116840000D03*
%TO.P,J3,30,Pin_30*%
%TO.N,/PB15*%
X106680000Y-116840000D03*
%TO.P,J3,31,Pin_31*%
%TO.N,/PB14*%
X104140000Y-116840000D03*
%TO.P,J3,32,Pin_32*%
%TO.N,/PB13*%
X101600000Y-116840000D03*
%TO.P,J3,33,Pin_33*%
%TO.N,GND*%
X99060000Y-116840000D03*
%TD*%
D16*
%TO.P,U3,1,GND*%
%TO.N,GND*%
X139700000Y-106680000D03*
D17*
%TO.P,U3,2,VI*%
%TO.N,Net-(C7-Pad1)*%
X139700000Y-107950000D03*
%TO.P,U3,3,VO*%
%TO.N,+3v3*%
X139700000Y-109220000D03*
%TD*%
D18*
%TO.N,GND*%
X121920000Y-96520000D03*
X116840000Y-99060000D03*
X121213245Y-93273245D03*
%TO.N,IN1+*%
X106680000Y-99060000D03*
X104140000Y-96520000D03*
X109220000Y-86360000D03*
X147148000Y-97244500D03*
%TO.N,+3v3*%
X137160000Y-83820000D03*
%TO.N,GND*%
X135420000Y-86360000D03*
X137160000Y-87928652D03*
X137160000Y-88900000D03*
X132786755Y-89624500D03*
%TO.N,IN2-*%
X151576215Y-99302250D03*
X139576439Y-96643562D03*
X133895500Y-94492300D03*
X124460000Y-90715500D03*
%TO.N,+3v3*%
X121920000Y-83820000D03*
X142283964Y-87348440D03*
X147714918Y-86263081D03*
%TO.N,Net-(D2-Pad1)*%
X119380000Y-79464500D03*
X114300000Y-93980000D03*
%TO.N,GND*%
X127000000Y-98539810D03*
X180340000Y-104140000D03*
X181074502Y-97344502D03*
X170180000Y-102550989D03*
X127376200Y-90715500D03*
X121920000Y-96520000D03*
X139700000Y-104140000D03*
X123750498Y-92614020D03*
X114300000Y-83820000D03*
X127000000Y-101600000D03*
X129540000Y-91440000D03*
X178312299Y-119892299D03*
X144858029Y-97700500D03*
X154940000Y-83079011D03*
X121920000Y-90715500D03*
X170180000Y-104140000D03*
X114300000Y-78015500D03*
X134415690Y-104344310D03*
X129540000Y-93980000D03*
X175260000Y-109220000D03*
X102377329Y-84067270D03*
X101600000Y-78015500D03*
X177287701Y-118655500D03*
%TO.N,+5V*%
X174830378Y-90880378D03*
X114300000Y-96005498D03*
X116840000Y-96520000D03*
X176807113Y-93872983D03*
X135325335Y-99575335D03*
X123490201Y-98640201D03*
%TO.N,/PB9*%
X175260000Y-118655500D03*
X175260000Y-121920000D03*
%TO.N,/PB8*%
X172720000Y-121920000D03*
X172720000Y-118655500D03*
%TO.N,VDD*%
X170180000Y-121920000D03*
X170180000Y-118655500D03*
%TO.N,/BOOT*%
X168591794Y-118428206D03*
X167640000Y-121920000D03*
%TO.N,/PB7*%
X166051794Y-118428206D03*
X165100000Y-121920000D03*
%TO.N,Vdiff*%
X146450000Y-93000000D03*
X139700000Y-91440000D03*
X139700000Y-91440000D03*
X154725511Y-96175000D03*
X136755690Y-91844310D03*
%TO.N,+3v3*%
X157400000Y-92725000D03*
X145750000Y-104139989D03*
X144055500Y-104140000D03*
X152394219Y-94758317D03*
X146600000Y-84775000D03*
X147975201Y-102075201D03*
X121920000Y-93980000D03*
X121920000Y-83820000D03*
%TO.N,Vout1*%
X140320288Y-93359712D03*
X128660498Y-88999989D03*
X126940498Y-83820000D03*
X129335690Y-99264310D03*
X130340000Y-86360000D03*
%TO.N,Vout2*%
X121920000Y-86360000D03*
X132080000Y-88900000D03*
X120104500Y-83725378D03*
X135240288Y-88279712D03*
%TO.N,Net-(C2-Pad2)*%
X160020000Y-111760000D03*
X114300000Y-109220000D03*
X167640000Y-111760000D03*
X117352299Y-112272299D03*
%TO.N,VCC*%
X171179503Y-104140000D03*
X172852223Y-102550989D03*
X173500000Y-103999989D03*
X170904500Y-109944500D03*
X172720000Y-109944500D03*
X170904500Y-109944500D03*
X121376279Y-99540878D03*
X119380000Y-93980000D03*
X168549650Y-93270046D03*
X170412165Y-111491559D03*
X165100000Y-88900000D03*
%TO.N,/microcontroller_interfacing/OUT1*%
X150975000Y-91575000D03*
X156250000Y-93150000D03*
X153725000Y-93100000D03*
X157000000Y-97994500D03*
%TO.N,Net-(C11-Pad2)*%
X132080000Y-81280000D03*
X142240000Y-83820000D03*
%TO.N,Net-(C12-Pad2)*%
X137160000Y-86360000D03*
X133906848Y-84946447D03*
X146725000Y-86125000D03*
%TO.N,Net-(D3-Pad2)*%
X157480000Y-83820000D03*
X157480000Y-83079011D03*
X158720000Y-81280000D03*
X114300000Y-106680000D03*
%TO.N,IN1-*%
X127000000Y-86360000D03*
X124260498Y-86360000D03*
%TO.N,-3v3*%
X151765000Y-89072000D03*
X147148000Y-98350011D03*
X150049799Y-99649799D03*
X154975000Y-94624500D03*
%TO.N,/microcontroller_interfacing/SDA_P43*%
X154475000Y-103125000D03*
X163387846Y-93694494D03*
X166350000Y-92570980D03*
X152835706Y-103939294D03*
X158525000Y-100550000D03*
%TO.N,/microcontroller_interfacing/SCL_P4*%
X150850000Y-102324500D03*
X156250000Y-95875000D03*
%TO.N,/Power/D-*%
X180332212Y-91370989D03*
X177800000Y-93987788D03*
%TO.N,USART1_TX*%
X165100000Y-114300000D03*
X167640000Y-114300000D03*
%TO.N,Net-(R1-Pad1)*%
X129540000Y-96520000D03*
X133251811Y-95348190D03*
%TD*%
D19*
%TO.N,GND*%
X180340000Y-99884502D02*
X180340000Y-104140000D01*
X181074502Y-99150000D02*
X180340000Y-99884502D01*
X181074502Y-97344502D02*
X181074502Y-99150000D01*
X99060000Y-105655386D02*
X99060000Y-116840000D01*
X106379897Y-98335489D02*
X99060000Y-105655386D01*
X110760498Y-98335489D02*
X106379897Y-98335489D01*
X122100790Y-96700790D02*
X122100790Y-99840981D01*
X122100790Y-99840981D02*
X120066780Y-101874991D01*
X121920000Y-96520000D02*
X122100790Y-96700790D01*
X120066780Y-101874991D02*
X114300000Y-101874991D01*
X114300000Y-101874991D02*
X110760498Y-98335489D01*
X121920000Y-95004614D02*
X122220103Y-94704511D01*
X121920000Y-96520000D02*
X121920000Y-95004614D01*
X117564511Y-98335489D02*
X116840000Y-99060000D01*
X117564511Y-94770875D02*
X117564511Y-98335489D01*
X119079897Y-93255489D02*
X117564511Y-94770875D01*
X121195489Y-93255489D02*
X119079897Y-93255489D01*
X121213245Y-93273245D02*
X121195489Y-93255489D01*
D20*
%TO.N,IN1+*%
X146848020Y-96944520D02*
X147148000Y-97244500D01*
X144568281Y-96944520D02*
X146848020Y-96944520D01*
X139213290Y-102299511D02*
X144568281Y-96944520D01*
X109919511Y-102299511D02*
X139213290Y-102299511D01*
X106680000Y-99060000D02*
X109919511Y-102299511D01*
X104140000Y-91440000D02*
X104140000Y-96520000D01*
X109220000Y-86360000D02*
X104140000Y-91440000D01*
D19*
%TO.N,+3v3*%
X142964511Y-82004511D02*
X141515489Y-80555489D01*
X141515489Y-80555489D02*
X125184511Y-80555489D01*
X142540103Y-84544511D02*
X142964511Y-84120103D01*
X142964511Y-84120103D02*
X142964511Y-82004511D01*
X137884511Y-84544511D02*
X142540103Y-84544511D01*
X125184511Y-80555489D02*
X121920000Y-83820000D01*
X137160000Y-83820000D02*
X137884511Y-84544511D01*
%TO.N,GND*%
X137160000Y-87928652D02*
X136988652Y-87928652D01*
X136988652Y-87928652D02*
X135420000Y-86360000D01*
%TO.N,Net-(C12-Pad2)*%
X137160000Y-86009799D02*
X137160000Y-86360000D01*
X133906848Y-84946447D02*
X136096648Y-84946447D01*
X136096648Y-84946447D02*
X137160000Y-86009799D01*
%TO.N,GND*%
X135644614Y-88900000D02*
X137160000Y-88900000D01*
X134920114Y-89624500D02*
X135644614Y-88900000D01*
X132786755Y-89624500D02*
X134920114Y-89624500D01*
%TO.N,IN2-*%
X151944699Y-96520000D02*
X151944699Y-98933766D01*
X151944699Y-98933766D02*
X151576215Y-99302250D01*
X149860000Y-96520000D02*
X151944699Y-96520000D01*
X125184511Y-89990989D02*
X129394189Y-89990989D01*
X139700001Y-96520000D02*
X149860000Y-96520000D01*
X129394189Y-89990989D02*
X133895500Y-94492300D01*
X139576439Y-96643562D02*
X139700001Y-96520000D01*
X124460000Y-90715500D02*
X125184511Y-89990989D01*
%TO.N,+3v3*%
X122919503Y-92980497D02*
X121920000Y-93980000D01*
X121920000Y-83820000D02*
X122919503Y-84819503D01*
X122919503Y-84819503D02*
X122919503Y-92980497D01*
%TO.N,Vout2*%
X121920000Y-85540878D02*
X121920000Y-86360000D01*
X120104500Y-83725378D02*
X121920000Y-85540878D01*
%TO.N,+3v3*%
X142782893Y-86849511D02*
X142283964Y-87348440D01*
X147714918Y-86263081D02*
X147128488Y-86849511D01*
X147128488Y-86849511D02*
X142782893Y-86849511D01*
%TO.N,Net-(D2-Pad1)*%
X119380000Y-88900000D02*
X114300000Y-93980000D01*
X119380000Y-79464500D02*
X119380000Y-88900000D01*
%TO.N,GND*%
X177800000Y-119380000D02*
X177800000Y-116840000D01*
X177287701Y-118655500D02*
X177800000Y-119167799D01*
X122220103Y-94704511D02*
X123750498Y-93174116D01*
X101600000Y-78015500D02*
X101600000Y-83289941D01*
X123750498Y-92614020D02*
X125649018Y-90715500D01*
X127000000Y-98539810D02*
X127000000Y-101600000D01*
X144858029Y-97700500D02*
X139700000Y-102858529D01*
X170180000Y-102550989D02*
X170180000Y-104140000D01*
X177800000Y-119167799D02*
X177800000Y-127000000D01*
X129540000Y-91440000D02*
X129540000Y-93980000D01*
X154940000Y-83079011D02*
X160020000Y-77999011D01*
X121920000Y-90715500D02*
X121195489Y-91440011D01*
X139700000Y-102858529D02*
X139700000Y-104140000D01*
X114300000Y-81280000D02*
X114300000Y-83820000D01*
X121195489Y-91440011D02*
X121195489Y-94280103D01*
X177800000Y-111760000D02*
X177800000Y-116840000D01*
X102377329Y-84067270D02*
X111512730Y-84067270D01*
X175260000Y-109220000D02*
X177800000Y-111760000D01*
X160020000Y-77999011D02*
X160020000Y-76200000D01*
X123750498Y-93174116D02*
X123750498Y-92614020D01*
X121619897Y-94704511D02*
X122220103Y-94704511D01*
X134415690Y-104344310D02*
X134620000Y-104140000D01*
X121195489Y-94280103D02*
X121619897Y-94704511D01*
X125649018Y-90715500D02*
X127376200Y-90715500D01*
X101600000Y-83289941D02*
X102377329Y-84067270D01*
X134620000Y-104140000D02*
X139700000Y-104140000D01*
X114300000Y-78015500D02*
X114300000Y-81280000D01*
X111512730Y-84067270D02*
X114300000Y-81280000D01*
X178312299Y-119892299D02*
X177800000Y-119380000D01*
%TO.N,+5V*%
X128611179Y-99636179D02*
X128975000Y-100000000D01*
X127300103Y-97815299D02*
X128611179Y-99126375D01*
X114814502Y-96520000D02*
X116840000Y-96520000D01*
X135100000Y-99350000D02*
X135325335Y-99575335D01*
X174830378Y-90880378D02*
X176807113Y-92857113D01*
X128975000Y-100000000D02*
X134450000Y-100000000D01*
X128611179Y-99126375D02*
X128611179Y-99636179D01*
X176807113Y-92857113D02*
X176807113Y-93872983D01*
X124315103Y-97815299D02*
X127300103Y-97815299D01*
X175260000Y-83820000D02*
X175260000Y-90450756D01*
X134450000Y-100000000D02*
X135100000Y-99350000D01*
X114300000Y-96005498D02*
X114814502Y-96520000D01*
X123490201Y-98640201D02*
X124315103Y-97815299D01*
X175260000Y-90450756D02*
X174830378Y-90880378D01*
%TO.N,/PB9*%
X175260000Y-118655500D02*
X175260000Y-121920000D01*
%TO.N,/PB8*%
X172720000Y-118655500D02*
X172720000Y-121920000D01*
%TO.N,VDD*%
X170180000Y-118655500D02*
X170180000Y-121920000D01*
%TO.N,/BOOT*%
X167640000Y-119380000D02*
X167640000Y-121920000D01*
X168591794Y-118428206D02*
X167640000Y-119380000D01*
%TO.N,/PB7*%
X166051794Y-118428206D02*
X165100000Y-119380000D01*
X165100000Y-119380000D02*
X165100000Y-121920000D01*
%TO.N,Vdiff*%
X151660516Y-93000000D02*
X146450000Y-93000000D01*
X136755690Y-91844310D02*
X137160000Y-91440000D01*
X153900000Y-96175000D02*
X153900000Y-95239484D01*
X137160000Y-91440000D02*
X139700000Y-91440000D01*
X153900000Y-95239484D02*
X151660516Y-93000000D01*
X154725511Y-96175000D02*
X153900000Y-96175000D01*
%TO.N,+3v3*%
X150752595Y-101150469D02*
X152394219Y-99508845D01*
X154325000Y-84775000D02*
X146600000Y-84775000D01*
X159444511Y-90680489D02*
X159444511Y-80979897D01*
X150363700Y-101150469D02*
X150752595Y-101150469D01*
X147975201Y-102075201D02*
X149675969Y-102075201D01*
X159444511Y-80979897D02*
X159020103Y-80555489D01*
X145749989Y-104140000D02*
X145750000Y-104139989D01*
X159020103Y-80555489D02*
X158099239Y-80555489D01*
X144055500Y-104140000D02*
X145749989Y-104140000D01*
X152394219Y-99508845D02*
X152394219Y-94758317D01*
X158099239Y-80555489D02*
X155664511Y-82990217D01*
X149675969Y-101838199D02*
X150363700Y-101150469D01*
X157400000Y-92725000D02*
X159444511Y-90680489D01*
X155664511Y-83435489D02*
X154325000Y-84775000D01*
X155664511Y-82990217D02*
X155664511Y-83435489D01*
X149675969Y-102075201D02*
X149675969Y-101838199D01*
%TO.N,Vout1*%
X129335690Y-99264310D02*
X130360305Y-99264310D01*
X127000000Y-83820000D02*
X129540000Y-86360000D01*
X140320288Y-93359712D02*
X139700000Y-93980000D01*
X128660498Y-88999989D02*
X129540000Y-88120487D01*
X134620000Y-93200487D02*
X129540000Y-88120487D01*
X126940498Y-83820000D02*
X127000000Y-83820000D01*
X139700000Y-93980000D02*
X134620000Y-93980000D01*
X134620000Y-93980000D02*
X134620000Y-93200487D01*
X129540000Y-86360000D02*
X130340000Y-86360000D01*
X130360305Y-99264310D02*
X134620000Y-95004615D01*
X129540000Y-88120487D02*
X129540000Y-86360000D01*
X134620000Y-95004615D02*
X134620000Y-93980000D01*
%TO.N,Vout2*%
X134620000Y-88900000D02*
X132080000Y-88900000D01*
X135240288Y-88279712D02*
X134620000Y-88900000D01*
%TO.N,Net-(C2-Pad2)*%
X167640000Y-111760000D02*
X160020000Y-111760000D01*
X117352299Y-112272299D02*
X114300000Y-109220000D01*
%TO.N,VCC*%
X170904500Y-109944500D02*
X170904500Y-110999224D01*
X171179503Y-104140000D02*
X172720000Y-105680497D01*
X173500000Y-103198766D02*
X172852223Y-102550989D01*
X170904500Y-110999224D02*
X170412165Y-111491559D01*
X173500000Y-103999989D02*
X173500000Y-103198766D01*
X172720000Y-105680497D02*
X172720000Y-109944500D01*
X119380000Y-97544599D02*
X119380000Y-93980000D01*
X121376279Y-99540878D02*
X119380000Y-97544599D01*
X165100000Y-88900000D02*
X168549650Y-92349650D01*
X168549650Y-92349650D02*
X168549650Y-93270046D01*
%TO.N,/microcontroller_interfacing/OUT1*%
X153725000Y-93100000D02*
X152500000Y-93100000D01*
X156250000Y-93150000D02*
X156250000Y-94825000D01*
X157000000Y-95575000D02*
X157000000Y-97994500D01*
X156250000Y-94825000D02*
X157000000Y-95575000D01*
X152500000Y-93100000D02*
X150975000Y-91575000D01*
%TO.N,Net-(C11-Pad2)*%
X132080000Y-81280000D02*
X139700000Y-81280000D01*
X139700000Y-81280000D02*
X142240000Y-83820000D01*
%TO.N,Net-(C12-Pad2)*%
X146725000Y-86125000D02*
X137395000Y-86125000D01*
X137395000Y-86125000D02*
X137160000Y-86360000D01*
%TO.N,Net-(D3-Pad2)*%
X143330989Y-103839897D02*
X143755408Y-103415478D01*
X157480000Y-83079011D02*
X157480000Y-82520000D01*
X155800480Y-97563802D02*
X155800480Y-96450094D01*
X155525489Y-93450103D02*
X155525489Y-85774511D01*
X155800480Y-96450094D02*
X155525489Y-96175103D01*
X155800480Y-93725094D02*
X155525489Y-93450103D01*
X115149511Y-105830489D02*
X144544511Y-105830489D01*
X149209522Y-103415478D02*
X150125489Y-102499511D01*
X155525489Y-85774511D02*
X157480000Y-83820000D01*
X154013803Y-98524980D02*
X154839302Y-98524980D01*
X150125489Y-102024397D02*
X150549897Y-101599989D01*
X150938793Y-101599989D02*
X154013803Y-98524980D01*
X150125489Y-102499511D02*
X150125489Y-102024397D01*
X155800480Y-95011197D02*
X155800480Y-93725094D01*
X155525489Y-96175103D02*
X155525489Y-95286188D01*
X143755408Y-103415478D02*
X149209522Y-103415478D01*
X154839302Y-98524980D02*
X155800480Y-97563802D01*
X150549897Y-101599989D02*
X150938793Y-101599989D01*
X155525489Y-95286188D02*
X155800480Y-95011197D01*
X114300000Y-106680000D02*
X115149511Y-105830489D01*
X143330989Y-104616967D02*
X143330989Y-103839897D01*
X144544511Y-105830489D02*
X143330989Y-104616967D01*
X157480000Y-82520000D02*
X158720000Y-81280000D01*
D20*
%TO.N,IN1-*%
X127000000Y-86360000D02*
X124260498Y-86360000D01*
D19*
%TO.N,-3v3*%
X148750011Y-98350011D02*
X147148000Y-98350011D01*
X150049799Y-99649799D02*
X148750011Y-98350011D01*
X154975000Y-92282000D02*
X151765000Y-89072000D01*
X154975000Y-94624500D02*
X154975000Y-92282000D01*
%TO.N,/microcontroller_interfacing/SDA_P43*%
X158525000Y-98475000D02*
X163450000Y-93550000D01*
X164429020Y-92570980D02*
X166350000Y-92570980D01*
X153660706Y-103939294D02*
X154475000Y-103125000D01*
X152835706Y-103939294D02*
X153660706Y-103939294D01*
X163450000Y-93550000D02*
X164429020Y-92570980D01*
X158525000Y-100550000D02*
X158525000Y-98475000D01*
%TO.N,/microcontroller_interfacing/SCL_P4*%
X156250000Y-95875000D02*
X156250000Y-97750000D01*
X154200000Y-98974500D02*
X150850000Y-102324500D01*
X155025500Y-98974500D02*
X154200000Y-98974500D01*
X156250000Y-97750000D02*
X155025500Y-98974500D01*
D20*
%TO.N,/Power/D-*%
X180332212Y-93980000D02*
X180324424Y-93987788D01*
X180324424Y-93987788D02*
X177800000Y-93987788D01*
X180332212Y-91370989D02*
X180332212Y-93980000D01*
D19*
%TO.N,USART1_TX*%
X165100000Y-114300000D02*
X167640000Y-114300000D01*
%TO.N,Net-(R1-Pad1)*%
X132080001Y-96520000D02*
X129540000Y-96520000D01*
X133251811Y-95348190D02*
X132080001Y-96520000D01*
%TD*%
M02*
